<svg width="28" height="24" viewBox="0 0 28 24" fill="none" xmlns="http://www.w3.org/2000/svg">
<g id="Layer_1" clip-path="url(#clip0_1220_2770)">
<g id="Group">
<path id="Vector" d="M19.8466 4.05188C19.5288 4.05188 19.2385 4.11358 18.969 4.20956C18.9898 3.85307 19.0036 3.53085 19.0036 3.2909C19.0036 2.38595 19.8052 2.02945 19.9019 1.98831C20.434 1.78264 20.6966 1.19991 20.4962 0.672019C20.2958 0.137273 19.6946 -0.1301 19.1625 0.068716C18.3333 0.377223 16.9305 1.40558 16.9305 3.2909C16.9305 4.89514 16.3362 10.2632 16.3293 10.318C16.3223 10.4003 16.3293 10.4825 16.3293 10.5648C16.3362 12.1416 17.3658 12.4776 18.119 12.4776C19.1556 12.4776 20.0125 10.1398 20.7588 8.37784C21.5051 6.61592 21.2771 4.05188 19.8397 4.05188H19.8466Z" fill="#1F1F1F"/>
<path id="Vector_2" d="M11.2363 4.05188C10.9184 4.05188 10.6282 4.11358 10.3587 4.20956C10.3794 3.85306 10.3932 3.53085 10.3932 3.2909C10.3932 2.38594 11.1948 2.02945 11.2916 1.98831C11.8237 1.78264 12.0863 1.1999 11.8859 0.672015C11.6855 0.137269 11.0843 -0.130103 10.5522 0.0687122C9.72292 0.377219 8.32011 1.40558 8.32011 3.2909C8.32011 4.89513 7.72581 10.2632 7.7189 10.318C7.71199 10.4003 7.7189 10.4825 7.7189 10.5648C7.73272 12.1416 8.75546 12.4775 9.50869 12.4775C10.5453 12.4775 11.4021 10.1398 12.1485 8.37783C12.8948 6.61592 12.6667 4.05188 11.2294 4.05188H11.2363Z" fill="#1F1F1F"/>
</g>
<path id="Vector_3" d="M19.515 18.2294C19.4182 20.3821 17.6146 22.1098 15.424 22.1098C15.3411 22.1098 15.2651 22.1303 15.2029 22.1715C14.7606 22.2126 14.3114 22.2332 13.8622 22.2332C13.5306 22.2332 13.2058 22.2195 12.881 22.1989C13.3578 21.9589 13.7931 21.6504 14.1732 21.2665C14.6362 20.8072 15.0025 20.2656 15.2581 19.6691C15.5069 19.0864 15.6382 18.4694 15.652 17.8318C15.7419 16.776 16.6748 15.9876 17.739 16.0699C18.2573 16.111 18.7203 16.351 19.0589 16.7418C19.3906 17.1325 19.5564 17.633 19.515 18.1403C19.515 18.1746 19.515 18.202 19.515 18.2294Z" fill="#DB3D34"/>
<path id="Vector_4" d="M2.25279 19.244C2.07312 19.244 1.89345 19.2234 1.71378 19.1891C1.38209 19.1206 1.07803 18.9903 0.794702 18.8052C0.504465 18.6132 0.262602 18.3664 0.0691106 18.0716C-0.0621868 17.866 -0.00690373 17.5986 0.200408 17.4683C0.40772 17.3381 0.677225 17.3929 0.808523 17.5986C1.3268 18.387 2.391 18.6132 3.17879 18.0991C3.56577 17.8523 3.82836 17.4683 3.92511 17.0227C4.02185 16.5771 3.93202 16.1246 3.68325 15.7407C3.55195 15.535 3.60723 15.2677 3.81454 15.1374C4.02185 15.0071 4.29136 15.062 4.42266 15.2677C4.61615 15.5625 4.74054 15.8778 4.80273 16.2206C4.86492 16.5497 4.85801 16.8787 4.78891 17.2078C4.7198 17.5369 4.58851 17.8385 4.40193 18.1196C4.20844 18.4076 3.95966 18.6475 3.66251 18.8395C3.36537 19.0314 3.04749 19.1548 2.70197 19.2165C2.54994 19.244 2.39791 19.2577 2.24588 19.2577L2.25279 19.244Z" fill="#1A1A1A"/>
<path id="Vector_5" d="M25.4717 19.244C25.3197 19.244 25.1676 19.2303 25.0156 19.2029C24.6701 19.1412 24.3522 19.0178 24.0551 18.8258C23.7579 18.6339 23.5161 18.3939 23.3157 18.106C23.1291 17.8318 22.9978 17.5232 22.9287 17.1942C22.8596 16.8651 22.8527 16.536 22.9148 16.2069C22.977 15.8642 23.1014 15.5488 23.2949 15.254C23.4262 15.0483 23.7026 14.9935 23.903 15.1237C24.1103 15.254 24.1656 15.5282 24.0343 15.7271C23.7856 16.111 23.7026 16.5634 23.7925 17.0091C23.8892 17.4547 24.1518 17.8318 24.5388 18.0854C24.9258 18.3322 25.3819 18.4145 25.831 18.3254C26.2802 18.2294 26.6603 17.9689 26.916 17.5849C27.0473 17.3793 27.3237 17.3244 27.5241 17.4547C27.7314 17.5849 27.7867 17.8592 27.6554 18.058C27.4619 18.3528 27.22 18.5927 26.9298 18.7916C26.6534 18.9767 26.3424 19.1069 26.0107 19.1755C25.831 19.2166 25.6514 19.2303 25.4717 19.2303V19.244Z" fill="#1A1A1A"/>
<path id="Vector_6" d="M20.3995 18.0238C20.3995 18.0855 20.3995 18.1472 20.3926 18.2089C20.3718 18.4351 20.1784 18.6134 19.9503 18.6134C19.9365 18.6134 19.9296 18.6134 19.9158 18.6134C19.7015 18.5997 19.5426 18.4351 19.515 18.2363C19.515 18.2089 19.515 18.1746 19.515 18.1472C19.5564 17.633 19.3975 17.1394 19.0589 16.7486C18.7272 16.3578 18.2573 16.1179 17.739 16.0768C16.6748 15.9876 15.735 16.7829 15.652 17.8387C15.6313 18.0649 15.4378 18.2432 15.2098 18.2432C15.196 18.2432 15.189 18.2432 15.1752 18.2432C14.9334 18.2226 14.7537 18.0101 14.7744 17.7701C14.7744 17.7084 14.7882 17.6399 14.7952 17.5782C14.8435 17.2697 14.9403 16.9749 15.0854 16.7006C15.2512 16.3784 15.4793 16.0973 15.7626 15.8642C16.039 15.6311 16.3569 15.4529 16.7024 15.3363C17.0618 15.2198 17.4349 15.1718 17.815 15.2061C18.1951 15.2335 18.5544 15.3432 18.893 15.5146C19.2178 15.6791 19.5011 15.9054 19.7361 16.1864C19.971 16.4607 20.1507 16.776 20.2682 17.1188C20.3649 17.4136 20.4133 17.7221 20.4064 18.0375L20.3995 18.0238Z" fill="#1A1A1A"/>
<path id="Vector_7" d="M24.5457 18.7091C24.0205 19.2302 23.4608 19.7101 22.8734 20.142C22.6454 20.3134 22.4104 20.4711 22.1754 20.6287C21.3462 21.1703 20.4617 21.6297 19.5495 21.9999C18.6511 22.3632 17.7044 22.6375 16.7508 22.8226C15.8041 23.0077 14.8297 23.0968 13.8692 23.0968C12.9086 23.0968 11.9342 23.0077 10.9875 22.8226C10.1928 22.6717 9.41195 22.4524 8.65181 22.1781C8.49287 22.1233 8.34084 22.0616 8.18881 21.9999C7.26973 21.6297 6.3852 21.1703 5.56286 20.6287C4.71288 20.0734 3.91819 19.429 3.1926 18.7091L3.81453 18.0921C5.21734 19.4838 6.86201 20.5533 8.65872 21.2526C9.30138 21.5063 9.95787 21.7051 10.6351 21.8628C11.3745 22.0342 12.1277 22.1439 12.8948 22.1987C13.2196 22.2193 13.5513 22.233 13.8761 22.233C14.3252 22.233 14.7744 22.2124 15.2167 22.1713C16.6333 22.041 18.0016 21.7051 19.2938 21.1772C20.5861 20.6493 21.7954 19.9295 22.8872 19.0382C23.2466 18.7434 23.599 18.4281 23.9376 18.0921L24.5595 18.7091H24.5457Z" fill="#1A1A1A"/>
<path id="Vector_8" d="M15.652 17.7014C15.652 17.7425 15.652 17.7836 15.652 17.8179C15.6382 18.4555 15.5069 19.0725 15.2581 19.6553C15.0025 20.2517 14.6362 20.7933 14.1732 21.2526C13.7931 21.6297 13.3578 21.9451 12.881 22.185C12.7773 22.2399 12.6737 22.2879 12.5631 22.329C11.9412 22.5895 11.2708 22.7266 10.5867 22.7266C10.3449 22.7266 10.1445 22.5278 10.1445 22.2879C10.1445 22.0479 10.3449 21.8491 10.5867 21.8491C10.6005 21.8491 10.6074 21.8491 10.6213 21.8491C12.9155 21.8285 14.7744 19.9775 14.7744 17.6945C14.7744 17.6465 14.7813 17.5985 14.7951 17.5506C14.8573 17.3792 15.0163 17.2558 15.2098 17.2558C15.4516 17.2558 15.652 17.4546 15.652 17.6945V17.7014Z" fill="#1A1A1A"/>
<path id="Vector_9" d="M20.4064 18.0373C20.4064 18.7023 20.2751 19.3536 20.0125 19.9637C19.8259 20.4025 19.5771 20.807 19.28 21.1703C19.1763 21.2937 19.0658 21.4171 18.9483 21.5337C18.4922 21.9862 17.9601 22.3427 17.3658 22.5895C16.7508 22.85 16.1012 22.9802 15.424 22.9802C15.1821 22.9802 14.9817 22.7814 14.9817 22.5415C14.9817 22.3769 15.0716 22.2398 15.2029 22.1644C15.2651 22.1233 15.3411 22.1027 15.424 22.1027C17.6215 22.1027 19.4182 20.3819 19.515 18.2224C19.515 18.1607 19.515 18.099 19.515 18.0304C19.515 17.7905 19.7154 17.5917 19.9572 17.5917C20.1991 17.5917 20.3926 17.7768 20.3995 18.0167V18.0304L20.4064 18.0373Z" fill="#1A1A1A"/>
<path id="Vector_10" d="M13.6135 23.0968C13.3923 23.0968 13.1989 22.9322 13.1781 22.706C13.1505 22.466 13.3301 22.2535 13.572 22.2261C15.7488 22.0067 17.3313 20.0665 17.1101 17.9138C17.0825 17.6739 17.2622 17.4614 17.504 17.4339C17.7459 17.4065 17.9601 17.5848 17.9878 17.8247C18.0569 18.4692 17.9878 19.1067 17.8012 19.7237C17.6146 20.3202 17.3244 20.8618 16.9236 21.3485C16.5297 21.8353 16.0459 22.2329 15.5 22.5277C14.9334 22.8362 14.3114 23.0282 13.6618 23.0968C13.648 23.0968 13.6342 23.0968 13.6135 23.0968Z" fill="#1A1A1A"/>
</g>
<defs>
<clipPath id="clip0_1220_2770">
<rect width="27.7245" height="23.1037" fill="white"/>
</clipPath>
</defs>
</svg>
