<svg width="108" height="98" viewBox="0 0 108 98" fill="none" xmlns="http://www.w3.org/2000/svg">
<path d="M85.8115 49.1567C84.7347 45.9907 82.4531 43.1195 80.0902 40.4433C80.7693 39.4313 81.2135 38.2778 81.3902 37.0569C81.7066 34.8843 81.1553 32.7211 79.839 30.9617C78.5226 29.2023 76.5992 28.0627 74.4246 27.7493C72.5292 27.4754 70.6662 27.8607 69.0987 28.7753C69.0987 28.6128 69.0661 28.4503 69.001 28.3018C69.0638 28.2762 69.1266 28.2507 69.1871 28.2228C70.436 27.6565 71.4128 26.5725 71.9361 25.1729C72.5152 23.6248 72.4617 21.8375 71.7965 20.3938C71.1477 18.9849 69.9243 17.9172 68.4684 17.4321C68.3079 13.8553 65.2612 10.759 61.0446 10.123C57.2281 9.54508 53.2929 11.0538 51.5044 13.5907C50.088 13.036 48.4996 13.0685 47.1157 13.7253C45.1342 14.6654 43.9132 16.26 43.5853 18.342C43.348 19.8484 43.6108 21.5753 44.3039 23.084C44.6225 23.7756 45.0388 24.3582 45.5459 24.8317L45.5133 25.3447C44.2714 24.0356 42.6015 23.1466 40.7199 22.8751C38.543 22.5594 36.3754 23.1095 34.6125 24.4232C32.8496 25.737 31.7077 27.6565 31.3937 29.8267C31.2146 31.0499 31.3146 32.2824 31.6798 33.4476C28.8656 35.2348 27.1678 36.6414 25.3002 39.2596C23.4257 41.8894 21.9442 45.6077 21.3395 49.2077C20.5255 54.0495 21.1976 58.7892 23.2862 62.9137C23.6048 63.5428 24.3746 63.7958 25.0049 63.4778C25.6352 63.1598 25.8887 62.3915 25.57 61.7625C21.2441 53.2163 24.8653 44.2731 27.3841 40.7404C29.1982 38.1965 30.7983 36.9826 33.9264 35.0561C34.4823 34.7149 34.6893 34.0116 34.4102 33.4221C33.9311 32.4124 33.7636 31.2959 33.9241 30.1911C34.1404 28.694 34.9288 27.371 36.1429 26.4658C37.3569 25.5606 38.8524 25.1822 40.3525 25.3981C42.6666 25.7323 44.5132 27.4151 45.0575 29.6851C45.211 30.3234 45.8273 30.7435 46.4785 30.6507C49.8438 30.1818 53.3185 30.1865 56.7862 30.6646C60.2608 31.1915 63.5936 32.1687 66.6915 33.5729C67.2916 33.8445 68.0009 33.617 68.3289 33.0484C69.4964 31.0244 71.7477 29.9358 74.0595 30.27C75.5596 30.4859 76.8853 31.2727 77.7923 32.4843C78.6994 33.6959 79.0785 35.1884 78.8622 36.6855C78.7017 37.7903 78.2249 38.8139 77.4807 39.6426C77.0458 40.1277 77.0458 40.8611 77.4807 41.3462C79.9064 44.0503 82.3624 46.9447 83.3927 49.9714C87.2441 61.282 80.0925 66.3257 77.8086 67.6023C77.1923 67.9482 76.9713 68.7257 77.3179 69.3408C77.5528 69.7586 77.9877 69.993 78.4342 69.993C78.6459 69.993 78.8598 69.9397 79.0575 69.8306C87.6023 65.0538 88.1512 56.0155 85.8138 49.1497L85.8115 49.1567ZM46.1087 18.7389C46.3041 17.4948 46.9925 16.6081 48.2088 16.0325C49.181 15.5706 50.3532 15.6936 51.2672 16.3528C51.5905 16.5872 52.0068 16.6569 52.3905 16.5408C52.7743 16.4248 53.0789 16.137 53.2185 15.7609C54.0069 13.6232 57.4839 12.1679 60.6586 12.6484C63.9402 13.1451 66.231 15.617 65.8775 18.277C65.831 18.6182 65.9264 18.964 66.1403 19.2333C66.3543 19.5025 66.666 19.6766 67.0102 19.7137C68.0986 19.8298 69.0196 20.4843 69.4708 21.4638C69.8569 22.3041 69.8825 23.3578 69.5359 24.284C69.2522 25.043 68.7521 25.6163 68.1265 25.8994C67.7335 26.0782 67.1823 26.2174 66.7729 26.243C66.5752 26.106 66.3613 25.9667 66.131 25.8275C66.7474 25.0685 67.0683 24.0426 67.1404 23.7872C67.2637 23.3555 67.0148 22.9076 66.5822 22.7845C66.1496 22.6615 65.7008 22.9099 65.5752 23.3393C65.4124 23.9033 65.01 24.7667 64.6542 25.0174C64.4077 24.8967 64.1472 24.7783 63.8774 24.66C64.3239 24.0774 64.5472 23.4344 64.5844 23.3277C64.7263 22.9006 64.4937 22.4433 64.0681 22.3018C63.6402 22.1602 63.182 22.3923 63.0401 22.8194C62.9262 23.1652 62.5633 23.8731 62.2052 24.0194C62.2052 24.0194 62.2028 24.0194 62.2005 24.0194C59.8306 23.2279 56.749 22.6453 52.8301 22.6754C52.5952 22.3876 52.4068 21.884 52.3394 21.5544C52.251 21.1157 51.823 20.8325 51.3835 20.9184C50.9416 21.0066 50.6555 21.4337 50.7439 21.8724C50.7602 21.9513 50.8369 22.3087 51.0114 22.7335C50.7602 22.7474 50.5067 22.7613 50.2485 22.7799C50.0392 22.3737 49.8694 21.7865 49.8043 21.371C49.7345 20.9277 49.3182 20.6259 48.874 20.6932C48.4298 20.7629 48.1251 21.1783 48.1949 21.6217C48.2228 21.8004 48.3205 22.3435 48.5414 22.9354C48.1693 22.9772 47.7925 23.0213 47.4065 23.0724C47.0855 22.8101 46.8343 22.4665 46.6273 22.0163C46.1459 20.9694 45.9529 19.7439 46.111 18.7366L46.1087 18.7389ZM47.6716 27.9489L47.839 25.3586C59.8004 23.7942 65.2403 27.8166 66.645 29.1072L66.252 30.6182C63.3704 29.4553 60.3213 28.6221 57.1513 28.1416C53.9627 27.7029 50.7834 27.6402 47.6716 27.9466V27.9489Z" fill="#F04C28"/>
<path d="M56.5142 47.0239C56.6677 47.0889 56.8305 47.1283 56.9933 47.1446C57.7887 47.2188 58.6445 46.7291 58.7469 45.7914C58.8306 45.0301 58.3538 44.401 57.6212 44.3036C57.0119 44.2223 56.2095 44.5403 55.8769 45.1275C55.6978 45.4432 55.6513 45.8401 55.7536 46.186C55.8676 46.5782 56.1653 46.8753 56.5142 47.0239Z" fill="#F04C28"/>
<path d="M48.8834 44.5449C48.9694 43.7117 48.5113 43.1407 47.7135 43.0803C46.867 43.0177 46.0762 43.6699 46.0041 44.4939C45.932 45.3109 46.5669 46.1604 47.4275 46.1326C48.2392 46.107 48.8066 45.2923 48.8834 44.5449Z" fill="#F04C28"/>
<path d="M56.6281 50.4312C56.2816 50.7724 55.8792 51.3666 55.6955 52.1047C54.8001 52.4157 50.2742 53.7364 45.9762 50.4335C45.7762 50.2803 45.4878 50.3174 45.3343 50.517C45.1808 50.7166 45.218 51.0045 45.418 51.1577C47.9322 53.0888 50.4882 53.5785 52.4837 53.5577C53.8582 53.5437 54.9606 53.2884 55.6025 53.0981C55.6397 53.7132 55.856 54.3816 56.3653 55.0571C56.4421 55.1592 56.5537 55.2196 56.67 55.2358C56.784 55.252 56.9049 55.2219 57.0072 55.1476C57.2096 54.9967 57.2491 54.7089 57.0979 54.507C55.7188 52.6803 57.2096 51.1461 57.2747 51.0811C57.4538 50.9023 57.4538 50.6145 57.277 50.4358C57.0979 50.2571 56.8095 50.2548 56.6281 50.4312Z" fill="#F04C28"/>
<path d="M53.5721 48.7087C53.6349 48.096 52.8721 47.7316 51.8929 47.6294C50.9138 47.5273 50.0905 47.7269 50.0253 48.3374C49.9602 48.9478 50.6766 49.7811 51.6557 49.8832C52.6348 49.9876 53.5093 49.3215 53.5721 48.7087Z" fill="#F04C28"/>
<path d="M64.4724 58.1157C67.4329 57.6361 69.4433 54.8522 68.9627 51.8976C68.4822 48.9431 65.6927 46.9367 62.7322 47.4163C59.7717 47.8959 57.7613 50.6798 58.2418 53.6344C58.7224 56.5889 61.5119 58.5953 64.4724 58.1157Z" fill="#F04C28"/>
<g clip-path="url(#clip0_1388_35889)">
<path d="M2.66138 91.7235C2.66138 91.7235 2.79166 91.6199 2.88471 91.5785C4.00138 91.1021 6.32776 90.6257 7.5747 90.6257C9.32414 90.605 10.4966 90.6464 11.1294 90.8121C13.9025 91.3714 15.1494 92.5313 15.075 94.2091C15.0936 96.0319 14.0513 97.0469 11.4086 97.3576C10.143 97.5854 8.7472 97.6476 7.20248 97.6061C5.97415 97.6061 4.33638 97.4404 3.01499 97.1297C1.34 96.7569 0.0930553 96.2598 0 94.5405C0 92.5728 1.30277 91.8892 2.64277 91.7235H2.66138ZM1.56333 84.4945C2.49388 84.4945 3.46166 84.4738 4.48527 84.4531L4.44804 82.4853C4.29915 81.8018 4.28054 81.0768 5.08082 80.8904C5.86248 80.9939 6.14165 81.5118 6.06721 82.361L6.10443 84.3909C7.03498 84.3495 8.03998 84.2667 9.06359 84.2045C9.02636 83.6038 8.97053 82.7339 8.9147 81.5739C8.89609 81.0354 9.15664 80.7039 9.65914 80.5797C10.1616 80.6004 10.4594 80.8904 10.5339 81.4289C10.7014 83.086 10.8875 85.6337 10.7758 87.4565C10.7572 88.3886 10.385 88.9272 9.71497 89.1136C8.9147 89.3415 7.20248 89.4865 5.00637 89.5072C4.11304 89.5279 2.25194 89.6314 1.56333 89.5072C0.632776 89.4243 0.0744442 88.9893 0.0744442 87.4772C0.0372221 85.8409 0 84.8881 0.0372221 84.5566C0.0744442 84.2252 0.0744442 83.5417 0.130277 82.4024C0.111666 81.6775 0.204722 81.0768 0.986386 81.0768C1.65638 81.1803 1.60055 81.5118 1.61916 82.2989C1.60055 83.086 1.58194 83.7074 1.58194 84.2252V84.5152L1.56333 84.4945ZM2.62416 93.1113C2.41944 93.1942 2.23333 93.277 2.02861 93.422C1.69361 93.6706 1.52611 93.9606 1.5075 94.292C1.5075 95.2655 2.60555 95.4726 4.15027 95.7626C4.78304 95.8662 5.43443 95.9076 6.06721 95.9283C6.69998 95.9491 7.18387 95.9491 7.55609 95.9698C9.06359 96.0112 10.2733 95.9491 11.2225 95.7419C12.73 95.4519 13.4558 95.1827 13.4744 94.2091C13.493 93.3184 12.5997 92.7592 11.055 92.3449C10.0872 92.1171 9.00775 92.1171 7.61192 92.1585C6.42082 92.1585 4.41082 92.5935 3.46166 93.0492C3.10805 93.1734 2.82888 93.1734 2.62416 93.0699V93.1113ZM4.50388 85.9652C3.51749 85.9859 2.56833 85.9859 1.58194 85.9859C1.58194 86.2966 1.58194 86.6694 1.60055 87.0837C1.61916 87.643 1.675 87.8708 2.12166 87.8915C2.56833 87.9122 3.0336 87.9329 3.49888 87.9122H4.5411L4.50388 85.9652ZM6.12304 85.9237L6.19748 87.8708C6.45804 87.8501 6.71859 87.8501 6.96054 87.8294C7.59331 87.8087 8.0772 87.7879 8.44942 87.7258C9.04497 87.643 9.28692 87.5394 9.21247 86.628C9.19386 86.338 9.19386 86.0687 9.17525 85.8202C8.17025 85.8616 7.16526 85.903 6.14165 85.9237H6.12304ZM15.8566 83.7488C16.4522 83.8317 16.7313 84.0802 16.6569 84.5566C16.6383 85.1159 16.3591 85.3645 15.8008 85.2609C15.3169 85.2402 14.9075 85.2195 14.5352 85.178V85.4888C14.5725 87.0837 14.6655 88.5751 14.7772 89.9629C14.7958 90.4393 14.5538 90.75 14.0327 90.8535C13.5302 90.895 13.2325 90.5635 13.1394 89.8593C13.065 88.2851 13.0464 86.918 13.0464 85.758C13.0277 84.5981 13.0091 82.9617 12.9347 80.9111C13.0464 80.0618 13.1952 80.0825 13.6047 80.0204C14.0327 79.979 14.3491 80.2068 14.5352 80.7247C14.498 81.6982 14.4608 82.6924 14.4608 83.6867C14.833 83.6867 15.2611 83.7074 15.8194 83.7695L15.8566 83.7488Z" fill="#F04C28"/>
<path d="M32.7927 95.3491C33.258 95.3491 33.7791 95.6184 33.7791 96.1362C33.7605 96.6748 33.5185 96.9648 33.0719 96.9855C28.3819 97.0683 22.8916 97.1098 18.7041 96.8819C18.2016 96.9648 17.9411 96.7162 17.8666 96.0948C17.8852 95.432 18.1644 95.287 18.7227 95.287C22.7613 95.5148 27.7305 95.432 32.7927 95.3284V95.3491ZM31.2666 92.4285C30.8013 92.3042 30.671 91.89 30.8385 91.2479C31.2666 88.9487 31.3969 85.7381 31.248 83.7289C31.1549 83.066 30.8385 82.7553 30.0197 82.7553C26.8558 82.8796 24.4177 82.921 21.7936 82.8382C21.0677 82.8589 20.6955 82.8382 20.3233 82.8175C19.858 82.8175 19.6161 82.5482 19.5975 82.0096C19.5789 81.1604 20.0255 81.1604 21.0677 81.1397C24.2316 81.2225 26.9302 81.1811 29.7963 81.0983C31.6947 81.0154 32.4391 81.6782 32.6997 82.8382C33.0347 85.7588 32.9044 89.6322 32.3088 91.6414C32.1972 92.2214 31.8435 92.4907 31.2666 92.4492V92.4285Z" fill="#F04C28"/>
<path d="M41.1677 81.8231C42.0982 81.8024 42.8241 81.8024 43.2893 81.8024C44.406 81.8024 45.0946 81.9888 45.4668 83.5216C45.5599 84.0809 45.5785 84.6401 45.5599 85.1994C45.5599 85.9451 45.5227 86.6493 45.411 87.3329C45.3365 87.9336 45.0388 88.6171 43.7174 88.8035C42.3029 88.8035 40.6838 88.7621 38.8785 88.6792C38.2085 88.7 38.0038 88.8035 38.0038 89.5699C37.9666 90.5227 37.9666 91.6827 38.0224 93.0705C38.041 93.4433 38.2457 93.6298 38.5621 93.6091C39.3252 93.5883 39.9207 93.4848 40.3674 93.3605C40.8141 93.2362 41.5399 93.1326 42.5635 93.0498C44.4246 92.8219 45.7088 92.7184 46.9557 92.8219C47.4768 92.8427 47.7374 93.1534 47.7374 93.7126C47.6443 94.2926 47.3838 94.5619 46.9743 94.4997C45.5785 94.3754 44.1454 94.5412 42.5635 94.7276C41.7074 94.8311 41.056 94.9554 40.5535 95.059C40.051 95.1626 39.381 95.2868 38.5063 95.3283C36.6452 95.4111 36.3846 94.6447 36.366 93.5469C36.3474 92.2212 36.3474 90.7299 36.3846 89.1142C36.4032 87.7886 36.7382 87.2914 38.0224 87.0222C40.5721 87.1257 41.4096 87.1672 43.0474 87.105C43.8104 87.0843 43.9593 87.0015 43.9779 86.0694C43.9965 85.2408 43.9779 84.6194 43.9035 84.143C43.8104 83.8323 43.6988 83.5423 43.1591 83.5423C41.6888 83.5216 40.8327 83.5216 40.5349 83.5009C40.2557 83.5009 39.0088 83.6044 36.7755 83.7702C36.3102 83.7702 36.0682 83.5009 36.0682 82.9623C36.0682 82.3616 36.2171 82.1545 36.9057 82.0302C38.7668 81.9059 40.1813 81.8438 41.1304 81.8024L41.1677 81.8231ZM49.7101 80.9531C50.2499 81.036 50.5104 81.3674 50.4732 81.9888C50.3057 84.288 50.3801 87.0843 50.4546 89.9221C50.4732 92.3248 50.4918 94.5412 50.6779 95.8254C50.7524 96.5296 50.5476 97.0475 49.8776 97.0682C49.5054 96.9853 49.2449 96.6954 49.1146 96.1775C49.0029 95.1626 48.9657 94.2097 48.9657 93.3398C48.9471 92.4698 48.9285 91.2477 48.8913 89.6735C48.8913 88.1614 48.8913 87.0015 48.8726 86.1936C48.854 85.3858 48.8726 84.0809 48.9471 82.2581C48.9285 81.5745 48.9657 80.9738 49.7288 80.9531H49.7101Z" fill="#F04C28"/>
<path d="M67.7256 81.7611C68.2654 81.844 68.5073 82.1754 68.4515 82.7968C68.284 85.096 68.1537 87.8301 68.1537 90.73C68.1723 91.7243 68.1723 92.615 68.1723 93.4228C68.1723 94.2306 68.2095 94.997 68.3026 95.7013C68.3398 96.1155 68.3956 96.5712 68.4515 97.0891C68.5631 97.5448 68.3026 97.959 67.614 97.9797C67.2418 97.9797 66.9812 97.669 66.8323 97.0476C66.7951 96.7369 66.7393 96.3848 66.702 96.0534L65.3806 96.157C60.5976 96.1777 57.0429 96.1777 54.6793 96.1984C54.0465 96.1984 53.0601 96.302 53.0601 95.3906C53.0787 94.7899 53.4323 94.4999 54.1023 94.5206L66.5904 94.4377V93.8785C66.5717 92.8014 66.5904 91.4964 66.609 89.9429C66.6834 86.8566 66.6834 86.6495 66.8509 82.9832C66.8509 82.2997 66.944 81.7197 67.7256 81.7197V81.7611ZM57.0243 81.9061C57.3965 81.7404 57.7687 81.6161 58.1223 81.5333C58.5318 81.4504 58.9598 81.4297 59.4065 81.4297C60.0765 81.4297 60.914 81.4504 62.3098 82.1547C63.5009 82.8382 64.6362 84.6817 64.5804 87.1052C64.4129 89.9222 63.594 91.2893 62.012 92.0557C61.5468 92.325 60.2068 92.6357 59.0901 92.615C55.9262 92.6357 54.2512 91.7657 53.7301 89.073C53.6185 88.3687 53.5998 87.7059 53.6185 87.1052C53.7859 85.0338 54.1582 84.3296 54.7537 83.4389C55.1818 82.7761 55.8518 82.2582 56.5404 81.9268C56.7451 81.844 56.894 81.844 57.0429 81.8854L57.0243 81.9061ZM55.5354 85.096C55.2934 85.8002 55.1632 86.5045 55.1446 87.2087C55.1259 87.9337 55.1446 88.5344 55.2562 89.0108C55.8518 90.875 57.3779 91.02 59.0529 91.02C61.9562 91.02 62.9426 89.6944 62.9984 86.9809C63.017 84.8267 61.6212 83.4182 60.6348 83.1903C60.244 83.0868 59.9648 83.0453 59.7601 83.0246C59.5554 83.0039 59.4623 83.0039 59.3879 83.0039C58.9598 83.0246 58.5318 83.0868 58.1409 83.1696C57.8432 83.2939 57.5454 83.4182 57.3034 83.5839C57.0987 83.7082 56.9312 83.7289 56.7823 83.6046C56.1496 83.9982 55.7215 84.4746 55.5168 85.0753L55.5354 85.096Z" fill="#F04C28"/>
<path d="M82.689 81.5124C83.1915 81.4917 83.694 81.4917 84.1592 81.4917C85.1828 81.616 86.1692 81.8645 87.1184 82.2167C88.4398 82.7966 89.7053 84.2052 89.6123 86.3386C89.6123 88.3479 88.3467 90.3363 86.0948 90.6056C85.5923 90.6885 85.127 90.7299 84.7176 90.7506C84.699 91.5377 84.7176 92.3456 84.7548 93.2569C84.7734 93.9198 84.8292 94.4376 84.8664 94.8933H86.2623C87.5837 94.8726 89.0912 94.8519 90.7475 94.7897C91.1756 94.7897 91.6037 95.1626 91.6037 95.6597C91.585 96.1983 91.3245 96.4675 90.8592 96.4675C88.7376 96.4882 87.5464 96.509 87.2114 96.509C86.8764 96.5297 85.8156 96.5297 83.9545 96.509C82.0004 96.6332 79.7856 96.6954 77.329 96.7368C76.9195 96.8197 76.6776 96.5918 76.5659 96.0533C76.5845 95.3904 76.9009 95.0797 77.329 95.0797C78.9295 94.9969 80.9023 94.9554 83.2659 94.914C83.2473 94.4998 83.1915 93.9612 83.1728 93.3398C83.1356 92.387 83.1356 91.5377 83.1542 90.8335C82.5401 90.8128 82.019 90.792 81.6095 90.7506C81.1442 90.7299 80.344 90.5021 79.1901 90.1292C77.329 89.425 76.8823 88.1614 76.9009 86.4836C76.9009 83.6459 79.432 82.0095 80.8837 81.7195C80.9581 81.6988 80.9954 81.6988 81.0512 81.7195C81.7212 81.5746 82.2423 81.4917 82.6703 81.4917L82.689 81.5124ZM80.6417 83.6252C80.1579 83.7909 79.7112 84.0809 79.2831 84.4952C78.7248 85.0337 78.427 85.6758 78.427 86.4629C78.5387 88.3064 79.9345 89.28 83.1728 89.1764C84.3267 89.1764 85.3317 89.0728 86.1878 88.8864C87.0812 88.7207 88.0862 87.6229 88.1048 86.3801C88.1978 84.2466 86.9137 83.2316 83.694 83.0245C83.0984 83.0452 82.7076 83.0659 82.4656 83.1281C82.2237 83.2109 81.7956 83.2938 81.1442 83.4595H81.1256C81.1256 83.4595 80.9954 83.5009 80.9209 83.5423C80.8092 83.5838 80.7162 83.6252 80.6231 83.6252H80.6417Z" fill="#F04C28"/>
<path d="M107.051 90.1085C107.479 90.1085 107.907 90.2949 107.907 90.8128C107.888 91.3513 107.628 91.6413 107.163 91.6827C103.347 91.7656 100.481 91.7242 94.3767 92.097C93.9859 92.097 93.7626 91.8484 93.7067 91.3927C93.7253 90.7299 94.0789 90.5228 94.507 90.5228C98.9364 90.2535 103.124 90.1085 107.051 90.1085ZM100.686 83.8738C101.97 83.7909 103.478 83.7495 105.208 83.7702C105.134 82.6309 105.059 81.6988 104.948 80.9946C104.873 80.5596 105.041 80.2489 105.413 80.0625C105.916 80.0418 106.251 80.1868 106.344 80.5389C106.548 81.2224 106.641 82.5067 106.697 84.3916C106.734 85.1994 106.734 86.1937 106.716 87.3536C106.623 88.4514 105.934 88.6171 105.301 88.6379C103.291 88.6171 101.635 88.6171 100.351 88.6793C99.0667 88.7414 97.5964 88.8243 95.9959 88.845C95.2328 88.845 94.3953 88.6171 94.4326 87.1465C94.414 86.6079 94.4139 85.8208 94.4139 84.7437C94.4139 83.6666 94.3953 82.8795 94.3767 82.2581C94.3023 81.6574 94.2837 80.9532 95.0467 80.9532C95.6795 81.036 95.9587 81.7403 95.847 82.2167C95.8656 82.7345 95.8842 83.3352 95.8842 84.0395C97.7826 83.998 99.4017 83.9152 100.704 83.8116L100.686 83.8738ZM96.4612 93.2984C96.8706 93.6091 96.9451 94.0026 96.6845 94.4376C96.4798 94.7276 96.1634 95.3283 96.0517 95.7219C95.9773 96.1776 96.2006 96.3018 96.7031 96.2811C97.4662 96.3018 98.0803 96.3018 98.5642 96.2397C99.0481 96.1776 99.9414 96.1154 101.263 96.0533C103.794 95.9704 104.464 96.0533 105.692 96.1361C106.418 96.1154 106.958 96.1361 107.33 96.1568C107.795 96.1568 108.037 96.4261 108.037 96.9647C108.037 97.9589 106.883 97.7518 105.748 97.7518C105.264 97.7518 104.706 97.7311 104.073 97.6689C103.44 97.6068 102.51 97.6482 101.263 97.7104C100.09 97.7932 99.3087 97.8139 98.9364 97.8346C98.5642 97.8553 97.8198 97.8761 96.7403 97.9175C95.1398 97.9175 94.5814 97.5861 94.4139 96.1361C94.4326 95.059 94.8978 94.2512 95.3259 93.5884C95.7353 93.0705 96.1262 93.112 96.4984 93.3191L96.4612 93.2984ZM100.723 85.4066C99.6995 85.5101 98.0803 85.5723 95.8656 85.6344V86.8151C95.9028 87.1879 96.0703 87.3743 96.3309 87.3743C99.7553 87.2086 101.709 87.1258 105.041 87.1258C105.246 87.1465 105.32 87.0015 105.32 86.6494C105.32 86.4215 105.32 86.0694 105.301 85.5515C105.301 85.4687 105.301 85.3858 105.283 85.2823C103.254 85.303 101.747 85.3237 100.742 85.4066H100.723Z" fill="#F04C28"/>
</g>
<defs>
<clipPath id="clip0_1388_35889">
<rect width="108" height="18" fill="white" transform="translate(0 80)"/>
</clipPath>
</defs>
</svg>
