<svg width="80" height="81" viewBox="0 0 80 81" fill="none" xmlns="http://www.w3.org/2000/svg">
<path d="M71.8078 49.6567C70.731 46.4907 68.4495 43.6195 66.0865 40.9433C66.7656 39.9313 67.2098 38.7778 67.3866 37.5569C67.7029 35.3843 67.1517 33.2211 65.8353 31.4617C64.5189 29.7023 62.5956 28.5627 60.421 28.2493C58.5255 27.9754 56.6626 28.3607 55.095 29.2753C55.095 29.1128 55.0625 28.9503 54.9973 28.8018C55.0601 28.7762 55.1229 28.7507 55.1834 28.7228C56.4323 28.1565 57.4091 27.0725 57.9324 25.6729C58.5115 24.1248 58.458 22.3375 57.7929 20.8938C57.144 19.4849 55.9207 18.4172 54.4647 17.9321C54.3043 14.3553 51.2575 11.259 47.041 10.623C43.2244 10.0451 39.2893 11.5538 37.5008 14.0907C36.0844 13.536 34.4959 13.5685 33.1121 14.2253C31.1305 15.1654 29.9095 16.76 29.5816 18.842C29.3444 20.3484 29.6072 22.0753 30.3003 23.584C30.6189 24.2756 31.0352 24.8582 31.5422 25.3317L31.5096 25.8447C30.2677 24.5356 28.5978 23.6466 26.7163 23.3751C24.5394 23.0594 22.3718 23.6095 20.6089 24.9232C18.846 26.237 17.704 28.1565 17.39 30.3267C17.211 31.5499 17.311 32.7824 17.6761 33.9476C14.862 35.7348 13.1642 37.1414 11.2966 39.7596C9.42203 42.3894 7.94054 46.1077 7.33584 49.7077C6.52183 54.5495 7.19397 59.2892 9.28249 63.4137C9.60112 64.0428 10.3709 64.2958 11.0012 63.9778C11.6315 63.6598 11.885 62.8915 11.5664 62.2625C7.24049 53.7163 10.8617 44.7731 13.3805 41.2404C15.1945 38.6965 16.7946 37.4826 19.9228 35.5561C20.4786 35.2149 20.6856 34.5116 20.4065 33.9221C19.9274 32.9124 19.76 31.7959 19.9204 30.6911C20.1367 29.194 20.9252 27.871 22.1392 26.9658C23.3533 26.0606 24.8487 25.6822 26.3488 25.8981C28.6629 26.2323 30.5096 27.9151 31.0538 30.1851C31.2073 30.8234 31.8236 31.2435 32.4748 31.1507C35.8402 30.6818 39.3148 30.6865 42.7825 31.1646C46.2572 31.6915 49.59 32.6687 52.6879 34.0729C53.2879 34.3445 53.9973 34.117 54.3252 33.5484C55.4927 31.5244 57.744 30.4358 60.0558 30.77C61.5559 30.9859 62.8816 31.7727 63.7887 32.9843C64.6957 34.1959 65.0748 35.6884 64.8585 37.1855C64.698 38.2903 64.2212 39.3139 63.477 40.1426C63.0421 40.6277 63.0421 41.3611 63.477 41.8462C65.9028 44.5503 68.3587 47.4447 69.389 50.4714C73.2405 61.782 66.0888 66.8257 63.8049 68.1023C63.1886 68.4482 62.9677 69.2257 63.3142 69.8408C63.5491 70.2586 63.984 70.493 64.4306 70.493C64.6422 70.493 64.8562 70.4397 65.0539 70.3306C73.5987 65.5538 74.1475 56.5155 71.8102 49.6497L71.8078 49.6567ZM32.105 19.2389C32.3004 17.9948 32.9888 17.1081 34.2052 16.5325C35.1773 16.0706 36.3495 16.1936 37.2635 16.8528C37.5868 17.0872 38.0031 17.1569 38.3869 17.0408C38.7706 16.9248 39.0753 16.637 39.2148 16.2609C40.0033 14.1232 43.4803 12.6679 46.6549 13.1484C49.9365 13.6451 52.2274 16.117 51.8739 18.777C51.8274 19.1182 51.9227 19.464 52.1367 19.7333C52.3506 20.0025 52.6623 20.1766 53.0065 20.2137C54.095 20.3298 55.0159 20.9843 55.4671 21.9638C55.8532 22.8041 55.8788 23.8578 55.5323 24.784C55.2485 25.543 54.7485 26.1163 54.1229 26.3994C53.7298 26.5782 53.1786 26.7174 52.7693 26.743C52.5716 26.606 52.3576 26.4667 52.1274 26.3275C52.7437 25.5685 53.0646 24.5426 53.1367 24.2872C53.26 23.8555 53.0112 23.4076 52.5786 23.2845C52.146 23.1615 51.6971 23.4099 51.5715 23.8393C51.4087 24.4033 51.0064 25.2667 50.6505 25.5174C50.404 25.3967 50.1435 25.2783 49.8737 25.16C50.3203 24.5774 50.5435 23.9344 50.5807 23.8277C50.7226 23.4006 50.49 22.9433 50.0644 22.8018C49.6365 22.6602 49.1783 22.8923 49.0365 23.3194C48.9225 23.6652 48.5597 24.3731 48.2015 24.5194C48.2015 24.5194 48.1992 24.5194 48.1969 24.5194C45.8269 23.7279 42.7453 23.1453 38.8264 23.1754C38.5915 22.8876 38.4031 22.384 38.3357 22.0544C38.2473 21.6157 37.8194 21.3325 37.3798 21.4184C36.9379 21.5066 36.6519 21.9337 36.7402 22.3724C36.7565 22.4513 36.8333 22.8087 37.0077 23.2335C36.7565 23.2474 36.503 23.2613 36.2449 23.2799C36.0355 22.8737 35.8658 22.2865 35.8006 21.871C35.7309 21.4277 35.3146 21.1259 34.8703 21.1932C34.4261 21.2629 34.1215 21.6783 34.1912 22.1217C34.2191 22.3004 34.3168 22.8435 34.5378 23.4354C34.1656 23.4772 33.7889 23.5213 33.4028 23.5724C33.0818 23.3101 32.8307 22.9665 32.6237 22.5163C32.1422 21.4694 31.9492 20.2439 32.1074 19.2366L32.105 19.2389ZM33.6679 28.4489L33.8354 25.8586C45.7967 24.2942 51.2366 28.3166 52.6414 29.6072L52.2483 31.1182C49.3667 29.9553 46.3177 29.1221 43.1477 28.6416C39.9591 28.2029 36.7798 28.1402 33.6679 28.4466V28.4489Z" fill="#E0E0E0"/>
<path d="M42.5105 47.5236C42.664 47.5886 42.8268 47.6281 42.9896 47.6443C43.785 47.7186 44.6409 47.2288 44.7432 46.2911C44.8269 45.5298 44.3502 44.9008 43.6176 44.8033C43.0082 44.7221 42.2058 45.0401 41.8732 45.6273C41.6942 45.943 41.6476 46.3399 41.75 46.6857C41.8639 47.078 42.1616 47.3751 42.5105 47.5236Z" fill="#E0E0E0"/>
<path d="M34.8797 45.0447C34.9658 44.2114 34.5076 43.6404 33.7099 43.5801C32.8633 43.5174 32.0726 44.1696 32.0005 44.9936C31.9284 45.8107 32.5633 46.6602 33.4238 46.6323C34.2355 46.6068 34.803 45.7921 34.8797 45.0447Z" fill="#E0E0E0"/>
<path d="M42.6245 55.6091C42.2779 55.2679 41.8756 54.6737 41.6918 53.9356C40.7964 53.6246 36.2705 52.3039 31.9726 55.6068C31.7725 55.76 31.4841 55.7229 31.3306 55.5232C31.1772 55.3236 31.2144 55.0358 31.4144 54.8826C33.9285 52.9515 36.4845 52.4617 38.48 52.4826C39.8545 52.4966 40.9569 52.7519 41.5988 52.9422C41.636 52.3271 41.8523 51.6586 42.3617 50.9832C42.4384 50.8811 42.55 50.8207 42.6663 50.8045C42.7803 50.7882 42.9012 50.8184 43.0036 50.8927C43.2059 51.0436 43.2454 51.3314 43.0943 51.5333C41.7151 53.36 43.2059 54.8942 43.271 54.9592C43.4501 55.1379 43.4501 55.4258 43.2734 55.6045C43.0943 55.7832 42.8059 55.7855 42.6245 55.6091Z" fill="#E0E0E0"/>
<path d="M39.5684 49.2087C39.6312 48.596 38.8684 48.2316 37.8893 48.1294C36.9101 48.0273 36.0868 48.2269 36.0217 48.8374C35.9566 49.4478 36.6729 50.2811 37.652 50.3832C38.6312 50.4876 39.5057 49.8215 39.5684 49.2087Z" fill="#E0E0E0"/>
<path d="M50.4687 58.6159C53.4292 58.1364 55.4396 55.3524 54.9591 52.3979C54.4785 49.4433 51.689 47.4369 48.7285 47.9165C45.768 48.3961 43.7576 51.1801 44.2382 54.1346C44.7187 57.0892 47.5082 59.0955 50.4687 58.6159Z" fill="#E0E0E0"/>
</svg>
