<svg width="19" height="18" viewBox="0 0 19 18" fill="none" xmlns="http://www.w3.org/2000/svg">
<path d="M6.20455 5.43422L0.734299 6.22732L0.637412 6.24704C0.490743 6.28597 0.357035 6.36314 0.249943 6.47065C0.142851 6.57816 0.0662104 6.71217 0.0278489 6.85899C-0.0105126 7.00581 -0.00922095 7.16018 0.0315919 7.30634C0.0724047 7.4525 0.151276 7.5852 0.260153 7.69091L4.22308 11.5484L3.28851 16.9972L3.27737 17.0915C3.26839 17.2432 3.29989 17.3946 3.36864 17.5301C3.43739 17.6656 3.54092 17.7804 3.66863 17.8628C3.79634 17.9451 3.94365 17.992 4.09546 17.9987C4.24727 18.0054 4.39814 17.9717 4.53261 17.9009L9.42497 15.3287L14.3062 17.9009L14.3919 17.9403C14.5334 17.9961 14.6873 18.0132 14.8376 17.9899C14.9879 17.9666 15.1293 17.9037 15.2473 17.8077C15.3653 17.7117 15.4556 17.586 15.509 17.4436C15.5624 17.3012 15.5769 17.1471 15.5511 16.9972L14.6157 11.5484L18.5804 7.69005L18.6472 7.61717C18.7428 7.49951 18.8054 7.35862 18.8288 7.20887C18.8521 7.05912 18.8354 6.90585 18.7802 6.76468C18.725 6.62351 18.6334 6.49948 18.5148 6.40524C18.3961 6.31099 18.2545 6.2499 18.1045 6.22817L12.6342 5.43422L10.1889 0.478407C10.1182 0.334821 10.0086 0.21391 9.8727 0.12936C9.73678 0.0448109 9.5799 0 9.41983 0C9.25975 0 9.10287 0.0448109 8.96695 0.12936C8.83103 0.21391 8.72149 0.334821 8.65073 0.478407L6.20455 5.43422Z" fill="#FFD569"/>
</svg>
