<svg width="24" height="24" viewBox="0 0 24 24" fill="none" xmlns="http://www.w3.org/2000/svg">
<path d="M2.27008 22.6032C7.55367 23.3426 10.7311 20.6962 10.7311 20.6962C14.2698 23.2648 18.1007 21.28 18.1007 21.28C19.358 22.3016 20.7912 21.28 20.7912 21.28C21.8147 20.3168 21.3466 19.0907 21.3466 19.0907C22.6919 13.5157 20.1182 7.32791 20.1182 7.32791C20.3425 6.0858 20.3681 4.77197 20.3627 4.09159C20.36 3.77051 20.2337 3.46417 20.0128 3.2309C19.045 2.21067 17.8126 1.6 17.198 1.33858C16.9543 1.23468 16.6762 1.24741 16.4445 1.37477C15.2517 2.03035 14.3625 3.01841 13.9078 3.59488C13.6868 3.87508 13.6016 4.288 13.8118 4.57691C14.1496 5.04144 14.5405 5.35046 14.5405 5.35046C14.11 6.34589 14.4747 6.97398 14.7628 7.28032C14.8984 7.42511 15.0892 7.50555 15.288 7.50555H17.1262C17.1262 7.69793 17.102 7.89568 17.0684 8.078C17.004 8.42456 16.8931 8.76106 16.7481 9.08282C14.9199 13.1376 16.1073 14.7859 16.1073 14.7859C13.9085 12.7522 11.7633 14.4648 11.7633 14.4648C8.54564 10.2364 4.30843 12.8058 4.30843 12.8058C3.23586 13.2341 2.27075 12.8058 2.27075 12.8058V22.6039L2.27008 22.6032Z" fill="#FFCCA9"/>
<path d="M21.7294 16.0683C21.3822 17.5926 20.8617 18.7857 20.491 19.082C20.176 19.3334 19.8738 19.3488 19.6414 19.2945C19.2848 19.2114 18.9127 19.2396 18.5796 19.391C14.5237 21.2284 12.0031 19.082 12.0031 19.082C12.0031 19.082 10.4094 17.4893 11.4524 15.406C11.7103 14.869 11.7627 14.4648 11.7627 14.4648C10.3597 17.0228 7.84381 16.8914 7.15406 16.8016C6.85855 16.7634 6.56102 16.746 6.2635 16.76C5.49316 16.7956 4.39708 17.0925 3.65495 17.9177C3.31511 18.2957 2.80469 18.5089 2.27075 18.6242V22.6039C7.55434 23.3433 10.7317 20.6968 10.7317 20.6968C10.7821 20.7337 10.8325 20.7686 10.8829 20.8034C10.9131 20.8242 10.9426 20.8436 10.9729 20.8637C10.991 20.8758 11.0091 20.8879 11.0273 20.8999C11.0676 20.9261 11.1072 20.9516 11.1475 20.9764C11.1542 20.9804 11.1602 20.9844 11.167 20.9884C11.212 21.0166 11.2576 21.0441 11.3026 21.0702C14.6701 23.0564 18.1007 21.28 18.1007 21.28C19.358 22.3016 20.7912 21.28 20.7912 21.28C21.8147 20.3168 21.3466 19.0907 21.3466 19.0907C21.5884 18.0899 21.7026 17.069 21.7294 16.0676V16.0683Z" fill="#ED927A"/>
<path d="M18.546 6.9217L16.1128 6.80976C16.1128 6.80976 15.2974 6.71926 15.3881 5.59781L14.5405 5.35046C14.11 6.34589 14.4747 6.97399 14.7628 7.28032C14.8985 7.42511 15.0892 7.50555 15.288 7.50555H17.1262C17.1262 7.69794 17.102 7.89568 17.0685 8.07801C17.004 8.42457 16.8932 8.76107 16.7481 9.08282C16.7085 9.17063 16.6709 9.25644 16.6339 9.34224C16.6259 9.36034 16.6178 9.37911 16.6104 9.3972C16.5742 9.48301 16.5386 9.56747 16.505 9.65059C16.505 9.65193 16.5036 9.65394 16.503 9.65528C16.4687 9.74041 16.4358 9.82353 16.4042 9.90598C16.4002 9.91603 16.3969 9.92609 16.3928 9.93614C16.3606 10.0213 16.3297 10.1051 16.3001 10.1875C15.1376 13.4393 16.1067 14.7859 16.1067 14.7859C16.1067 14.7859 16.5627 15.2505 17.0853 15.7458C17.2525 15.904 17.5198 15.7324 17.4439 15.5152C17.1162 14.5741 16.7367 13.0304 17.1068 11.6227C17.1632 11.4082 17.2102 11.2031 17.2505 11.006C17.2505 11.006 17.8724 8.99903 18.1054 7.75826C18.1169 7.69659 18.1538 7.6423 18.2075 7.60945L18.6521 7.33462C18.8388 7.21932 18.7643 6.9331 18.5453 6.92304L18.546 6.9217Z" fill="#ED927A"/>
<path d="M9.0111 13.8515C8.95401 14.1505 8.46172 14.3073 7.911 14.2027C7.36094 14.0982 6.96066 13.7711 7.01842 13.4721C7.07551 13.1731 7.5678 13.0163 8.11853 13.1208C8.66858 13.2254 9.06886 13.5525 9.0111 13.8515Z" fill="white"/>
<path d="M14.5949 15.2277C14.562 15.4 14.2786 15.4904 13.9616 15.4301C13.6446 15.3698 13.4149 15.1814 13.4478 15.0092C13.4807 14.8369 13.7641 14.7464 14.0811 14.8067C14.3981 14.867 14.6278 15.0554 14.5949 15.2277Z" fill="white"/>
<path d="M21.4996 11.0635C21.0772 9.06866 20.5305 7.63618 20.3962 7.29901C20.6124 6.05623 20.6366 4.75982 20.6312 4.0895C20.6279 3.70138 20.4774 3.33137 20.2075 3.04648C19.2141 1.99943 17.9616 1.37268 17.3034 1.09182C16.981 0.9544 16.6204 0.971829 16.3148 1.14008C15.0656 1.82716 14.1381 2.86884 13.6962 3.42923C13.3745 3.83746 13.3321 4.37439 13.5941 4.73435C13.8197 5.04471 14.0662 5.28871 14.2207 5.42881C13.8459 6.47317 14.269 7.14684 14.5672 7.46391C14.7526 7.66098 15.0152 7.7736 15.2879 7.7736H16.842C16.8333 7.85537 16.8205 7.94051 16.8037 8.02899C16.746 8.34002 16.6445 8.65775 16.5028 8.97213C15.3712 11.4825 15.3651 13.1141 15.5485 14.027C13.8983 13.0376 12.3784 13.7609 11.8203 14.1021C10.1205 12 8.16608 11.6755 6.80808 11.7808C5.39567 11.8907 4.35333 12.4672 4.19013 12.5624C3.2492 12.9284 2.38752 12.5624 2.37946 12.559C2.24379 12.4987 2.08529 12.5597 2.02484 12.6951C1.9644 12.8305 2.02552 12.9887 2.16118 13.049C2.20484 13.0685 3.24382 13.5176 4.40773 13.0531C4.42116 13.0477 4.43459 13.041 4.44736 13.0336C4.45743 13.0276 5.485 12.4169 6.86987 12.3137C8.66308 12.1816 10.2078 12.9223 11.463 14.5157C11.3939 14.7108 11.23 15.1163 10.9184 15.5802C10.8358 15.7028 10.8687 15.8698 10.9922 15.9522C11.0379 15.983 11.0903 15.9978 11.1413 15.9978C11.228 15.9978 11.3133 15.9562 11.365 15.8791C11.7431 15.3154 11.9278 14.8254 11.9929 14.6276C12.1467 14.5204 12.5766 14.2503 13.1669 14.1236C14.1495 13.9124 15.075 14.1993 15.9172 14.9749L16.5089 15.6305C16.5619 15.6894 16.6351 15.7189 16.7083 15.7189C16.7721 15.7189 16.8366 15.6961 16.8883 15.6499C16.9985 15.5507 17.0072 15.3811 16.9078 15.2712L16.3208 14.6209C16.2369 14.4842 15.3362 12.868 16.9931 9.192C17.1523 8.83807 17.2665 8.47945 17.3323 8.12619C17.3739 7.90297 17.3947 7.69383 17.3947 7.5048C17.3947 7.35665 17.2745 7.23667 17.1261 7.23667H15.2879C15.163 7.23667 15.0427 7.18572 14.9588 7.0959C14.7096 6.83045 14.4799 6.37664 14.7036 5.67951L15.255 5.9101C15.4014 5.9711 15.5559 6.00126 15.709 6.00126C15.9743 6.00126 16.2362 5.91144 16.4498 5.73849L17.0818 5.2257C17.2564 5.08426 17.3632 4.87445 17.3746 4.64989C17.386 4.426 17.3014 4.20614 17.1422 4.04727C16.8789 3.7845 16.474 3.73825 16.1576 3.93533L15.7829 4.16927C15.6573 4.2477 15.619 4.41327 15.6976 4.53862C15.7761 4.66397 15.942 4.70218 16.0676 4.62375L16.4424 4.38981C16.5451 4.32545 16.6768 4.34087 16.7627 4.426C16.8151 4.47829 16.842 4.548 16.838 4.62174C16.8339 4.69547 16.8004 4.7625 16.7426 4.80876L16.1106 5.32155C15.9279 5.4697 15.6794 5.50522 15.4625 5.41473L14.6156 5.0608C14.488 4.94751 14.2462 4.71759 14.0286 4.41796C13.8936 4.23161 13.9715 3.94605 14.1179 3.7597C14.5343 3.23149 15.4074 2.24946 16.5733 1.60864C16.7332 1.52082 16.9226 1.51144 17.0918 1.58383C17.7117 1.84794 18.8904 2.43715 19.8172 3.41382C19.9932 3.59949 20.0919 3.84081 20.094 4.09218C20.0993 4.75714 20.0751 6.05623 19.8542 7.2789C19.8448 7.32984 19.8508 7.38146 19.8703 7.42905C19.8958 7.49005 22.3949 13.5987 21.0853 19.0263C21.0725 19.0779 21.0765 19.1336 21.0947 19.1832C21.1108 19.2267 21.4768 20.2483 20.6205 21.0688C20.4895 21.1566 19.5761 21.7331 18.6587 21.3134C18.9193 21.1894 19.2195 21.04 19.3525 20.9515C19.4761 20.869 19.509 20.7028 19.427 20.5794C19.3444 20.4561 19.1779 20.4226 19.0543 20.505C18.8783 20.6223 18.2248 20.926 17.9884 21.0333C17.9864 21.0339 17.9851 21.0353 17.9837 21.0359C17.9811 21.0373 17.9784 21.0379 17.9757 21.0393C17.9387 21.0587 14.2529 22.9195 10.8881 20.4769C10.7887 20.4045 10.6524 20.4092 10.5577 20.4876C10.5268 20.5131 7.41253 23.0496 2.30625 22.335C2.15917 22.3142 2.0235 22.4168 2.00268 22.5636C1.98186 22.7104 2.08462 22.8458 2.2317 22.8666C2.88854 22.9584 3.51247 22.998 4.1008 22.998C6.00953 22.998 7.54148 22.5804 8.57913 22.1741C9.69199 21.7384 10.4267 21.2524 10.7364 21.0266C12.5846 22.2941 14.4873 22.3759 15.7748 22.215C16.893 22.0749 17.7339 21.7398 18.067 21.5896C19.1577 22.3545 20.415 21.8745 20.9456 21.4958C20.9556 21.4884 20.965 21.481 20.9738 21.473C21.9671 20.5386 21.7193 19.3957 21.6239 19.0773C22.3062 16.1707 21.9335 13.1181 21.4983 11.0615L21.4996 11.0635Z" fill="#333333"/>
<path d="M4.03105 19.6156C4.1103 19.6156 4.18888 19.5808 4.24194 19.5137C5.14392 18.3722 6.90556 18.3098 6.92302 18.3092C6.92571 18.3092 6.9284 18.3092 6.93108 18.3092C7.65307 18.2689 8.32737 18.1228 8.93585 17.8734C9.07286 17.8171 9.13868 17.661 9.08226 17.5235C9.02585 17.3868 8.86936 17.3211 8.73168 17.3774C8.17961 17.6033 7.56509 17.7367 6.90489 17.7736C6.77393 17.7776 4.8652 17.8587 3.82017 19.1819C3.72816 19.2979 3.7483 19.4668 3.86449 19.5586C3.91352 19.5975 3.97262 19.6163 4.03038 19.6163L4.03105 19.6156Z" fill="#333333"/>
</svg>
