<svg width="24" height="24" viewBox="0 0 24 24" fill="none" xmlns="http://www.w3.org/2000/svg">
<g clip-path="url(#clip0_4999_673)">
<path d="M16.2137 18.858C15.0026 19.6033 13.5765 20.0332 12.0573 20.0332C7.6645 20.0332 4.1101 16.4717 4.1101 12.086C4.1101 7.70032 7.6645 4.13159 12.0502 4.13159C16.4358 4.13159 19.9974 7.69316 19.9974 12.0788C19.9974 13.7414 19.4886 15.2821 18.6143 16.5577C18.3205 16.9948 18.0195 17.3674 17.6469 17.7329L17.5537 17.6469L16.2065 16.2997V18.8508L16.2137 18.858Z" fill="#47433F"/>
<path d="M12 23C5.93746 23 1 18.0625 1 12C1 9.35569 1.95309 6.80455 3.68013 4.8052C3.80912 4.65472 4.03844 4.64038 4.18893 4.76937C4.33941 4.89836 4.35375 5.12768 4.22476 5.27817C2.61238 7.14136 1.72378 9.53485 1.72378 12C1.72378 17.6684 6.33876 22.2834 12.0072 22.2834C14.0638 22.2834 16.0489 21.6814 17.7472 20.5348C17.9121 20.4274 18.1342 20.4704 18.2417 20.6352C18.3492 20.8 18.3062 21.0221 18.1414 21.1296C16.3212 22.355 14.2 23 12 23Z" fill="#47433F"/>
<path d="M20.7642 21.187H16.2137C16.013 21.187 15.8554 21.0293 15.8554 20.8287V19.3023C14.6873 19.9042 13.3831 20.2195 12.0573 20.2195C7.47818 20.2195 3.75179 16.4932 3.75179 11.914C3.75179 7.33485 7.47101 3.60847 12.0502 3.60847C16.6293 3.60847 20.3557 7.33485 20.3557 11.914C20.3557 13.598 19.8541 15.2176 18.9081 16.6007C18.5642 17.1023 18.256 17.4821 17.8906 17.8332C17.7544 17.9694 17.5322 17.9694 17.3961 17.8332L17.3029 17.7472L16.5577 17.002V20.4632H19.8756L19.2163 19.8111C19.0801 19.6749 19.073 19.4456 19.2163 19.3094C21.2013 17.3244 22.2762 14.7375 22.2762 11.9928C22.2762 6.32443 17.6612 1.70945 11.9928 1.70945C9.55635 1.70945 7.1987 2.57655 5.34267 4.14593C5.19218 4.27492 4.96287 4.25342 4.84104 4.10293C4.71205 3.95244 4.73355 3.72313 4.88404 3.6013C6.86906 1.92443 9.3987 1 12 1C18.0625 1 23 5.93746 23 12C23 14.8378 21.9322 17.5107 19.9902 19.5603L21.015 20.5778C21.1153 20.6782 21.1511 20.8358 21.0938 20.972C21.0365 21.1081 20.9075 21.1941 20.7642 21.1941V21.187ZM12.0502 4.32508C7.86515 4.32508 4.46124 7.72899 4.46124 11.914C4.46124 16.099 7.86515 19.5029 12.0502 19.5029C13.3902 19.5029 14.7016 19.1518 15.8482 18.4853V16.142C15.8482 15.9987 15.9342 15.8697 16.0704 15.8124C16.2065 15.755 16.357 15.7909 16.4573 15.8912L17.6326 17.0664C17.8619 16.8156 18.0769 16.5362 18.3134 16.1922C19.1805 14.9309 19.6319 13.4476 19.6319 11.914C19.6319 7.72899 16.228 4.32508 12.043 4.32508H12.0502Z" fill="#47433F"/>
<path d="M15.4903 11.285C15.4903 11.8192 15.4945 12.3528 15.4871 12.8869C15.4855 13.0133 15.5146 13.0625 15.6479 13.0508C15.7854 13.0387 15.925 13.0419 16.063 13.0493C16.2799 13.0609 16.4343 13.2222 16.4391 13.4311C16.4438 13.6384 16.2963 13.823 16.0826 13.8314C15.7405 13.8452 15.3967 13.8462 15.0551 13.8304C14.8319 13.8203 14.7002 13.641 14.6997 13.3872C14.6976 12.6225 14.6992 11.8578 14.6992 11.0936C14.6992 10.6324 14.6976 10.1708 14.6997 9.7096C14.7007 9.42772 14.8631 9.24633 15.1032 9.25056C15.3396 9.25479 15.4892 9.42667 15.4898 9.70378C15.4914 10.231 15.4898 10.7583 15.4903 11.2856V11.285Z" fill="#FAFAFA"/>
<path d="M12.0777 11.5458C12.0777 10.9398 12.0766 10.3337 12.0777 9.72766C12.0782 9.42093 12.2279 9.24483 12.478 9.25012C12.7144 9.2554 12.8678 9.43733 12.8683 9.72449C12.8699 10.7721 12.872 11.8193 12.8657 12.8669C12.8646 13.0097 12.8905 13.07 13.0455 13.0509C13.1687 13.0356 13.2956 13.043 13.4204 13.0483C13.6436 13.0573 13.8128 13.2249 13.8165 13.4343C13.8202 13.6422 13.6547 13.8268 13.4331 13.8342C13.1105 13.8442 12.7874 13.8442 12.4648 13.8342C12.22 13.8268 12.0798 13.6649 12.0782 13.4037C12.0751 12.7844 12.0772 12.1651 12.0772 11.5458H12.0777Z" fill="#FAFAFA"/>
<path fill-rule="evenodd" clip-rule="evenodd" d="M9.08884 12.9073C9.15966 12.9069 9.23047 12.9065 9.30123 12.9065C9.37199 12.9065 9.4427 12.907 9.51338 12.9075C9.68677 12.9087 9.85996 12.9098 10.0332 12.9038C10.1421 12.9001 10.1992 12.9298 10.2331 13.0382C10.2881 13.2137 10.3573 13.3846 10.4266 13.5548C10.5239 13.7944 10.7323 13.8949 10.9465 13.8103C11.1622 13.7246 11.2564 13.5136 11.1659 13.2724C10.7048 12.0423 10.2405 10.8133 9.77349 9.58533C9.68888 9.36268 9.51912 9.24528 9.30969 9.25057C9.08758 9.25639 8.93633 9.37167 8.85859 9.57475C8.38739 10.8085 7.91777 12.0423 7.45133 13.2777C7.36037 13.5189 7.45344 13.7283 7.67186 13.8119C7.87917 13.8907 8.08436 13.7965 8.18114 13.5681C8.25518 13.3925 8.32498 13.2148 8.38421 13.0339C8.41647 12.935 8.46724 12.9017 8.56931 12.9044C8.74234 12.9092 8.91565 12.9083 9.08884 12.9073ZM9.32963 10.651L9.31184 10.6039L9.29605 10.6455C9.11568 11.1207 8.9528 11.5498 8.79093 11.9789C8.78744 11.9882 8.78285 11.998 8.77821 12.0079C8.75474 12.058 8.72989 12.1111 8.83852 12.1111C9.06404 12.1115 9.28933 12.1114 9.52083 12.1112C9.63894 12.1112 9.75867 12.1111 9.88088 12.1111C9.69669 11.6237 9.52195 11.1607 9.32963 10.651Z" fill="#FAFAFA"/>
</g>
<defs>
<clipPath id="clip0_4999_673">
<rect width="22" height="22" fill="white" transform="translate(1 1)"/>
</clipPath>
</defs>
</svg>

