<svg width="24" height="24" viewBox="0 0 24 24" fill="none" xmlns="http://www.w3.org/2000/svg">
<g clip-path="url(#clip0_4999_2827)">
<path d="M12.29 20.18V4.27H17.06C21.17 4.25 24.64 7.19 22.23 10.23V20.17H12.29V20.18Z" fill="#FFA90A"/>
<path d="M7.12 10.23C4.7 7.2 8.17 4.26 12.28 4.27C16.39 4.25 19.86 7.19 17.45 10.23V20.17H7.12V10.23Z" fill="#FFD69B"/>
<path d="M15.33 18.99L13.08 20.18H7.12V10.23C4.94 7.58001 7.54 4.80001 11.1 4.35001C9.41 5.49001 8.95 7.54001 10.3 9.04001V11.83C10.3 15.79 11.38 18.99 15.33 18.99Z" fill="#FFC975"/>
<path d="M17.45 16.84C17.3 16.84 17.18 16.72 17.18 16.57V10.23C17.18 10.17 17.2 10.11 17.24 10.06C18.01 9.08999 18.18 8.07999 17.73 7.13999C16.99 5.60999 14.77 4.54999 12.33 4.54999H12.25C11.7 4.54999 11.15 4.60999 10.61 4.71999C10.52 4.73999 10.44 4.75999 10.36 4.76999C10.26 4.78999 10.17 4.81999 10.07 4.83999C9.93 4.87999 9.79 4.91999 9.65 4.96999L9.47 5.02999C9.38 5.05999 9.3 5.09999 9.21 5.12999C9.09 5.17999 8.98 5.22999 8.87 5.28999L8.71 5.36999C8.57 5.43999 8.44 5.51999 8.31 5.59999C7.2 6.30999 6.6 7.21999 6.59 8.17999C6.59 8.22999 6.59 8.27999 6.59 8.32999C6.59 8.40999 6.6 8.47999 6.61 8.55999C6.64 8.78999 6.72 9.02999 6.82 9.25999C6.9 9.41999 6.98 9.56999 7.07 9.70999C7.15 9.82999 7.23 9.93999 7.32 10.06C7.41 10.18 7.39 10.35 7.28 10.44C7.16 10.53 6.99 10.51 6.9 10.4C6.8 10.27 6.71 10.14 6.62 10.01C6.52 9.84999 6.42 9.67999 6.34 9.50999C6.2 9.20999 6.12 8.92999 6.08 8.64999C6.07 8.55999 6.06 8.45999 6.05 8.35999C6.05 8.29999 6.05 8.22999 6.05 8.16999C6.05 7.01999 6.75 5.94999 7.99 5.15999C8.16 5.04999 8.3 4.96999 8.45 4.88999C8.51 4.85999 8.56 4.82999 8.62 4.79999C8.74 4.73999 8.86 4.67999 8.99 4.62999C9.08 4.58999 9.17 4.54999 9.27 4.51999L9.43 4.45999C9.61 4.39999 9.76 4.34999 9.92 4.30999C10.02 4.27999 10.12 4.25999 10.22 4.22999C10.31 4.20999 10.4 4.18999 10.49 4.16999C11.08 4.04999 11.68 3.98999 12.28 3.98999H12.32C14.96 3.98999 17.38 5.17999 18.21 6.88999C18.74 7.98999 18.57 9.19999 17.72 10.31V16.55C17.72 16.7 17.6 16.82 17.45 16.82V16.84Z" fill="#000202"/>
<path d="M22.08 20.45H11.22C11.07 20.45 10.95 20.33 10.95 20.18C10.95 20.03 11.07 19.91 11.22 19.91H21.81V10.31C21.81 10.25 21.83 10.19 21.87 10.14C22.64 9.17 22.81 8.16 22.36 7.22C21.62 5.69 19.4 4.63 16.96 4.63H13.49C13.34 4.63 13.22 4.51 13.22 4.36C13.22 4.21 13.34 4.09 13.49 4.09H16.96C19.6 4.09 22.02 5.28 22.85 6.99C23.38 8.09 23.21 9.3 22.36 10.41V20.18C22.36 20.33 22.24 20.45 22.09 20.45H22.08Z" fill="#000202"/>
<path d="M17.94 17.67C17.94 20.43 14.2 20.17 9.59001 20.17C4.98001 20.17 1.24001 20.43 1.24001 17.67C1.24001 14.91 4.98001 11.43 9.59001 11.43C14.2 11.43 17.94 14.92 17.94 17.67Z" fill="#FFA90A"/>
<path d="M17.89 18.17C17.46 20.41 13.92 20.2 9.60001 20.2C4.99001 20.2 1.24001 20.43 1.24001 17.68C1.24001 16.25 2.24001 14.63 3.85001 13.4C3.20001 14.28 2.83001 15.22 2.83001 16.09C2.83001 18.85 6.57001 18.59 11.18 18.59C13.93 18.59 16.37 18.68 17.89 18.17Z" fill="#FF9200"/>
<path d="M9.12 11.45C8.99 11.45 8.86 11.45 8.73 11.47C8.73 11.47 8.73 11.47 8.72 11.47V13.42C8.72 13.55 8.76 13.67 8.81 13.77C8.81 13.79 8.84 13.8 8.85 13.82C8.89 13.89 8.93 13.95 8.99 14C9.02 14.03 9.06 14.05 9.1 14.07C9.15 14.1 9.2 14.13 9.26 14.15C9.29 14.15 9.32 14.16 9.35 14.17C9.41 14.18 9.46 14.21 9.53 14.21C9.55 14.21 9.56 14.21 9.58 14.2C9.58 14.2 9.58 14.2 9.59 14.2C9.69 14.2 9.78 14.17 9.87 14.13C9.88 14.13 9.89 14.11 9.91 14.11C9.98 14.07 10.05 14.03 10.11 13.97C10.14 13.94 10.16 13.9 10.18 13.86C10.21 13.81 10.25 13.76 10.27 13.7C10.28 13.66 10.29 13.62 10.29 13.58C10.3 13.52 10.32 13.47 10.32 13.41V11.46C9.93 11.43 9.53 11.43 9.13 11.44L9.12 11.45Z" fill="#FFD69B"/>
<path d="M12.84 12.16C12.73 12.1 12.61 12.06 12.5 12.02C12.48 12.02 12.47 12.01 12.45 12V14.62C12.45 14.74 12.48 14.85 12.53 14.95C12.56 15.02 12.61 15.08 12.65 15.13C12.67 15.15 12.68 15.17 12.69 15.19C12.74 15.24 12.8 15.28 12.87 15.31C12.9 15.33 12.92 15.35 12.96 15.36C12.99 15.37 13.02 15.37 13.06 15.38C13.12 15.4 13.19 15.42 13.26 15.42C13.31 15.42 13.35 15.4 13.39 15.39C13.45 15.39 13.51 15.37 13.57 15.35C13.6 15.34 13.63 15.32 13.65 15.3C13.72 15.26 13.78 15.22 13.84 15.16C13.86 15.14 13.87 15.12 13.88 15.1C13.93 15.04 13.97 14.98 13.99 14.9C14.01 14.84 14.02 14.78 14.03 14.72C14.03 14.68 14.05 14.66 14.05 14.62V12.75C13.67 12.52 13.26 12.34 12.85 12.17L12.84 12.16Z" fill="#FFD69B"/>
<path d="M5.54999 12.52C5.40999 12.59 5.27999 12.66 5.14999 12.74V14.61C5.14999 14.75 5.18999 14.87 5.23999 14.97C5.28999 15.06 5.34999 15.14 5.41999 15.21C5.44999 15.24 5.47999 15.25 5.51999 15.27C5.56999 15.3 5.61999 15.33 5.67999 15.35C5.71999 15.36 5.75999 15.36 5.79999 15.37C5.85999 15.37 5.90999 15.39 5.96999 15.39C5.99999 15.39 6.02999 15.38 6.05999 15.37C6.12999 15.36 6.19999 15.35 6.25999 15.32C6.27999 15.32 6.29999 15.29 6.31999 15.28C6.38999 15.25 6.44999 15.21 6.49999 15.15C6.51999 15.13 6.53999 15.1 6.55999 15.07C6.59999 15.02 6.63999 14.96 6.65999 14.9C6.67999 14.85 6.68999 14.79 6.69999 14.73C6.69999 14.68 6.72999 14.65 6.72999 14.6V11.99C6.31999 12.14 5.91999 12.32 5.53999 12.52H5.54999Z" fill="#FFD69B"/>
<path d="M10.3 6.81C10.83 6.82 10.83 7.59 10.3 7.61C9.77 7.6 9.77 6.83 10.3 6.81Z" fill="#FF9200"/>
<path d="M12.28 6.01001C12.81 6.02001 12.81 6.79001 12.28 6.81001C11.76 6.79001 11.76 6.03001 12.28 6.01001Z" fill="#FF9200"/>
<path d="M14.27 6.81C14.8 6.82 14.8 7.59 14.27 7.61C13.74 7.6 13.74 6.83 14.27 6.81Z" fill="#FF9200"/>
<path d="M13.08 8.39999C13.61 8.40999 13.61 9.17999 13.08 9.19999C12.55 9.17999 12.55 8.41999 13.08 8.39999Z" fill="#FF9200"/>
<path d="M11.49 8.39999C12.02 8.40999 12.02 9.17999 11.49 9.19999C10.96 9.17999 10.96 8.41999 11.49 8.39999Z" fill="#FF9200"/>
<path d="M11.76 20.47C11.42 20.47 11.08 20.47 10.72 20.47H10.58C10.43 20.47 10.31 20.35 10.31 20.19C10.31 20.04 10.44 19.91 10.59 19.92H10.73C13.68 19.93 16.24 19.95 17.23 18.96C17.55 18.65 17.7 18.23 17.7 17.7C17.7 15.01 13.97 11.73 9.62 11.73C5.27 11.73 1.55 15.01 1.55 17.69C1.55 18.22 1.7 18.64 2.02 18.95C2.93 19.86 5.12 19.92 7.89 19.92C8.04 19.92 8.16 20.04 8.16 20.19C8.16 20.34 8.04 20.46 7.89 20.46C4.89 20.46 2.7 20.39 1.63 19.33C1.21 18.91 1 18.36 1 17.68C1 14.73 4.85 11.16 9.62 11.16C14.39 11.16 18.24 14.73 18.24 17.68C18.24 18.36 18.03 18.91 17.61 19.33C16.58 20.35 14.47 20.46 11.76 20.46V20.47Z" fill="#000202"/>
<path d="M6.85 12V14.53C6.85 14.94 6.49 15.27 6.05 15.27C5.61 15.27 5.25 14.94 5.25 14.53V12.37" stroke="#000202" stroke-width="0.5" stroke-miterlimit="10"/>
<path d="M10.4 11.47V13.42C10.4 13.83 10.04 14.16 9.6 14.16C9.16 14.16 8.8 13.83 8.8 13.42V11.26" stroke="#000202" stroke-width="0.5" stroke-miterlimit="10"/>
<path d="M14.24 12.74V14.6C14.24 15.01 13.88 15.34 13.44 15.34C13 15.34 12.64 15.01 12.64 14.6V12" stroke="#000202" stroke-width="0.5" stroke-miterlimit="10"/>
</g>
<defs>
<clipPath id="clip0_4999_2827">
<rect width="22.15" height="16.47" fill="white" transform="translate(1 4)"/>
</clipPath>
</defs>
</svg>
