<svg width="24" height="24" viewBox="0 0 24 24" fill="none" xmlns="http://www.w3.org/2000/svg">
<path d="M20.7537 20.2883H5.74636C5.19148 20.2883 4.73904 19.8359 4.73904 19.281V11.0091H21.7525V19.281C21.7525 19.8359 21.3 20.2883 20.7451 20.2883H20.7537Z" fill="#F6364D"/>
<path d="M4.73904 17.4115V19.2639C4.73904 19.8273 5.19148 20.2798 5.7549 20.2798H20.7366C21.3 20.2798 21.7525 19.8273 21.7525 19.2639V17.4115C20.5744 17.4115 19.6268 16.4639 19.6268 15.2859C19.6268 14.1078 18.6708 13.1602 17.5012 13.1602C16.3317 13.1602 15.3756 14.1078 15.3756 15.2859C15.3756 16.4639 14.4195 17.4115 13.25 17.4115C12.0805 17.4115 11.1244 16.4639 11.1244 15.2859C11.1244 14.1078 10.1768 13.1602 8.9988 13.1602C7.82075 13.1602 6.87319 14.1078 6.87319 15.2859C6.87319 16.4639 5.91709 17.4115 4.74758 17.4115" fill="white"/>
<path d="M15.4781 5.39199L4.73904 11.0005H21.761C20.1732 8.64443 18.0134 6.69809 15.4781 5.38345V5.39199Z" fill="white"/>
<path d="M21.7525 17.6505C21.6244 17.6505 21.522 17.5481 21.522 17.42V11.2395H4.73904C4.62807 11.2395 4.53416 11.1627 4.50855 11.0602C4.48294 10.9578 4.53416 10.8468 4.62807 10.7956L15.7683 5.09317C15.8451 5.05049 15.9476 5.05903 16.0159 5.11878C16.1525 5.22122 19.3537 7.67122 20.2927 8.77244C20.3781 8.86635 20.361 9.02 20.2671 9.10537C20.1732 9.19074 20.0195 9.17366 19.9342 9.07976C19.1232 8.1322 16.4427 6.04074 15.8451 5.57976L5.70368 10.77H21.7525C21.8805 10.77 21.9829 10.8724 21.9829 11.0005V17.4115C21.9829 17.5395 21.8805 17.642 21.7525 17.642V17.6505Z" fill="#000202"/>
<path d="M20.7366 20.5188H5.75488C5.06341 20.5188 4.5 19.9554 4.5 19.2639V12.2042C4.5 12.0761 4.60244 11.9737 4.73049 11.9737C4.85854 11.9737 4.96098 12.0761 4.96098 12.2042V17.1724C5.9 17.0615 6.62561 16.259 6.62561 15.2944C6.62561 13.9883 7.68415 12.9298 8.99024 12.9298C10.2963 12.9298 11.3549 13.9883 11.3549 15.2944C11.3549 16.3359 12.2 17.1895 13.25 17.1895C14.3 17.1895 15.1451 16.3359 15.1451 15.2944C15.1451 13.9883 16.2037 12.9298 17.5098 12.9298C18.8159 12.9298 19.8744 13.9883 19.8744 15.2944C19.8744 16.3359 20.7195 17.1895 21.7695 17.1895C21.8976 17.1895 22 17.292 22 17.42V19.2724C22 19.9639 21.4366 20.5273 20.7451 20.5273L20.7366 20.5188ZM4.96951 17.6334V19.2639C4.96951 19.6993 5.31951 20.0493 5.75488 20.0493H20.7366C21.172 20.0493 21.5219 19.6993 21.5219 19.2639V17.6334C20.3354 17.5139 19.3963 16.5066 19.3963 15.2859C19.3963 14.2444 18.5427 13.3907 17.5012 13.3907C16.4598 13.3907 15.6061 14.2444 15.6061 15.2859C15.6061 16.592 14.5476 17.6505 13.2415 17.6505C11.9354 17.6505 10.8854 16.592 10.8854 15.2859C10.8854 14.2444 10.0317 13.3907 8.99024 13.3907C7.94878 13.3907 7.09512 14.2444 7.09512 15.2859C7.09512 16.5066 6.1561 17.5224 4.96951 17.6334Z" fill="#000202"/>
<path d="M14.0695 5.6054C14.0695 6.66394 14.9232 7.5176 15.9817 7.5176C17.0403 7.5176 17.8939 6.66394 17.8939 5.6054C17.8939 4.54687 17.0403 3.69321 15.9817 3.69321C14.9232 3.69321 14.0695 4.54687 14.0695 5.6054Z" fill="#F6364D"/>
<path d="M15.9817 7.74807C14.7951 7.74807 13.839 6.78344 13.839 5.60539C13.839 4.42734 14.8037 3.46271 15.9817 3.46271C17.1598 3.46271 18.1244 4.42734 18.1244 5.60539C18.1244 6.78344 17.1598 7.74807 15.9817 7.74807ZM15.9817 3.92368C15.0598 3.92368 14.3 4.6749 14.3 5.60539C14.3 6.53588 15.0512 7.2871 15.9817 7.2871C16.9122 7.2871 17.6634 6.53588 17.6634 5.60539C17.6634 4.6749 16.9122 3.92368 15.9817 3.92368Z" fill="#000202"/>
<path d="M15.2049 4.76026C15.2049 4.87124 15.2646 4.97368 15.3585 5.0249C15.4524 5.07612 15.5719 5.07612 15.6658 5.0249C15.7597 4.97368 15.8195 4.87124 15.8195 4.76026C15.8195 4.64929 15.7597 4.54685 15.6658 4.49563C15.5719 4.44441 15.4524 4.44441 15.3585 4.49563C15.2646 4.54685 15.2049 4.64929 15.2049 4.76026Z" fill="white"/>
</svg>
