<svg width="24" height="24" viewBox="0 0 24 24" fill="none" xmlns="http://www.w3.org/2000/svg">
<g clip-path="url(#clip0_4999_1191)">
<path d="M4.09819 8.49683V7.52392C4.09819 6.06882 5.36056 4.88974 6.91845 4.88974H16.0852C17.6431 4.88974 18.9055 6.06882 18.9055 7.52392V8.49683" fill="#FF4357"/>
<path d="M18.9036 8.83762C18.703 8.83762 18.5388 8.68427 18.5388 8.49684V7.52393C18.5388 6.25966 17.437 5.23053 16.0834 5.23053H6.91663C5.56305 5.23053 4.46121 6.25966 4.46121 7.52393V8.49684C4.46121 8.68427 4.29703 8.83762 4.09637 8.83762C3.8957 8.83762 3.73152 8.68427 3.73152 8.49684V7.52393C3.73152 5.88481 5.15989 4.54898 6.91663 4.54898H16.0834C17.8401 4.54898 19.2685 5.88311 19.2685 7.52393V8.49684C19.2685 8.68427 19.1043 8.83762 18.9036 8.83762Z" fill="#3E3A39"/>
<path d="M18.9036 11.7325V19.0267C18.9036 20.4818 17.6413 21.6609 16.0834 21.6609H6.91663C5.35874 21.6609 4.09637 20.4818 4.09637 19.0267V7.52392C4.09637 6.06882 5.35874 4.88974 6.91663 4.88974H16.0834C17.6413 4.88974 18.9036 6.06882 18.9036 7.52392V10.1717" fill="#FF5F57"/>
<path d="M16.0834 22H6.91663C5.15989 22 3.73152 20.6659 3.73152 19.025V7.52393C3.73152 5.88481 5.15989 4.54898 6.91663 4.54898H16.0834C17.8401 4.54898 19.2685 5.88311 19.2685 7.52393V10.1717C19.2685 10.3592 19.1043 10.5125 18.9036 10.5125C18.703 10.5125 18.5388 10.3592 18.5388 10.1717V7.52393C18.5388 6.25966 17.437 5.23053 16.0834 5.23053H6.91663C5.56305 5.23053 4.46121 6.25966 4.46121 7.52393V19.0267C4.46121 20.291 5.56305 21.3202 6.91663 21.3202H16.0834C17.437 21.3202 18.5388 20.291 18.5388 19.0267V11.7325C18.5388 11.5451 18.703 11.3917 18.9036 11.3917C19.1043 11.3917 19.2685 11.5451 19.2685 11.7325V19.0267C19.2685 20.6659 17.8401 22.0017 16.0834 22.0017V22Z" fill="#3E3A39"/>
<path d="M8.76273 6.87134C10.1309 6.87134 10.1309 7.66023 11.5009 7.66023C12.8709 7.66023 12.8691 6.87134 14.2391 6.87134C15.6091 6.87134 15.6072 7.66023 16.9772 7.66023C18.3472 7.66023 18.3472 6.90201 19.637 6.87304L18.0937 4.35132H4.90814L3.36484 6.87134C4.65639 6.9003 4.68193 7.65853 6.02456 7.65853C7.3672 7.65853 7.39274 6.86963 8.76273 6.86963V6.87134Z" fill="white"/>
<path d="M16.9754 7.99931C16.1874 7.99931 15.7769 7.76247 15.4157 7.5546C15.0965 7.37058 14.8192 7.21042 14.2391 7.21042C13.659 7.21042 13.3817 7.36888 13.0624 7.5546C12.7012 7.76247 12.2908 7.99931 11.5027 7.99931C10.7147 7.99931 10.3042 7.76247 9.94301 7.5546C9.62377 7.37058 9.34649 7.21042 8.76638 7.21042C8.18628 7.21042 7.909 7.36888 7.58976 7.5546C7.22856 7.76417 6.81811 7.99931 6.03004 7.99931C5.24197 7.99931 4.83152 7.76247 4.4685 7.5546C4.1602 7.3774 3.89387 7.22405 3.36119 7.21212C3.23349 7.20871 3.11492 7.14397 3.0529 7.03833C2.98905 6.93439 2.99087 6.8066 3.0529 6.70096L4.59255 4.18094C4.65822 4.0753 4.77862 4.00885 4.90996 4.00885H18.0918C18.2232 4.00885 18.3436 4.0736 18.4093 4.18094L19.9526 6.70267C20.0164 6.8066 20.0164 6.93439 19.9526 7.04003C19.8887 7.14397 19.772 7.21042 19.6443 7.21383C19.1098 7.22575 18.8434 7.3791 18.5351 7.5563C18.1721 7.76417 17.7617 8.00101 16.9736 8.00101L16.9754 7.99931ZM14.2372 6.52887C15.0253 6.52887 15.4358 6.76571 15.7988 6.97358C16.118 7.1576 16.3953 7.31776 16.9754 7.31776C17.5555 7.31776 17.8328 7.1593 18.1539 6.97358C18.3965 6.83386 18.661 6.68222 19.0477 6.59703L17.8802 4.6904H5.11975L3.95224 6.59703C4.33898 6.68222 4.60349 6.83557 4.84611 6.97358C5.16718 7.1576 5.44264 7.31776 6.02457 7.31776C6.6065 7.31776 6.88195 7.1593 7.20119 6.97358C7.56239 6.764 7.97284 6.52887 8.76091 6.52887C9.54898 6.52887 9.95943 6.76571 10.3206 6.97358C10.6399 7.1576 10.9172 7.31776 11.4973 7.31776C12.0774 7.31776 12.3546 7.1593 12.6739 6.97358C13.0351 6.76571 13.4455 6.52887 14.2336 6.52887H14.2372Z" fill="#3E3A39"/>
<path d="M18.9602 3.93217C18.9602 4.26272 18.6738 4.53193 18.3181 4.53193H4.68195C4.32805 4.53193 4.03983 4.26443 4.03983 3.93217V2.94052C4.03983 2.60997 4.32623 2.34076 4.68195 2.34076H18.3181C18.672 2.34076 18.9602 2.60827 18.9602 2.94052V3.93388V3.93217Z" fill="#9FA0A0"/>
<path d="M18.3181 4.87272H4.68195C4.12738 4.87272 3.67497 4.45187 3.67497 3.93219V2.94054C3.67497 2.42086 4.12738 2 4.68195 2H18.3181C18.8726 2 19.325 2.42086 19.325 2.94054V3.93389C19.325 4.45187 18.8745 4.87443 18.3181 4.87443V4.87272ZM4.68195 2.68155C4.52871 2.68155 4.40466 2.79741 4.40466 2.94054V3.93389C4.40466 4.07702 4.52871 4.19288 4.68195 4.19288H18.3181C18.4713 4.19288 18.5954 4.07702 18.5954 3.93389V2.94054C18.5954 2.79741 18.4713 2.68155 18.3181 2.68155H4.68195Z" fill="#3E3A39"/>
<path d="M6.46604 9.5788H4.09819V18.5871H18.9036V9.5788H8.47634" fill="white"/>
<path d="M18.9036 18.9279H4.09818C3.89752 18.9279 3.73334 18.7746 3.73334 18.5872V9.57881C3.73334 9.39139 3.89752 9.23804 4.09818 9.23804H6.46603C6.6667 9.23804 6.83088 9.39139 6.83088 9.57881C6.83088 9.76624 6.6667 9.91958 6.46603 9.91958H4.46303V18.2464H18.5388V9.91958H8.47634C8.27567 9.91958 8.11149 9.76624 8.11149 9.57881C8.11149 9.39139 8.27567 9.23804 8.47634 9.23804H18.9036C19.1043 9.23804 19.2685 9.39139 19.2685 9.57881V18.5872C19.2685 18.7746 19.1043 18.9279 18.9036 18.9279Z" fill="#3E3A39"/>
<path d="M14.0548 15.0704C14.0548 13.5965 12.911 11.5911 11.5009 11.5911C10.0908 11.5911 8.94699 13.5948 8.94699 15.0704C8.94699 16.5459 10.0908 16.931 11.5009 16.931C12.911 16.931 14.0548 16.5442 14.0548 15.0704Z" fill="#FF4357"/>
<path d="M10.5432 15.5969C10.7447 15.5969 10.908 15.3871 10.908 15.1283C10.908 14.8695 10.7447 14.6597 10.5432 14.6597C10.3417 14.6597 10.1783 14.8695 10.1783 15.1283C10.1783 15.3871 10.3417 15.5969 10.5432 15.5969Z" fill="#3E3A39"/>
<path d="M11.5009 13.68C11.7024 13.68 11.8658 13.4702 11.8658 13.2115C11.8658 12.9527 11.7024 12.7429 11.5009 12.7429C11.2994 12.7429 11.1361 12.9527 11.1361 13.2115C11.1361 13.4702 11.2994 13.68 11.5009 13.68Z" fill="#3E3A39"/>
<path d="M12.4586 15.5969C12.6601 15.5969 12.8235 15.3871 12.8235 15.1283C12.8235 14.8695 12.6601 14.6597 12.4586 14.6597C12.2571 14.6597 12.0938 14.8695 12.0938 15.1283C12.0938 15.3871 12.2571 15.5969 12.4586 15.5969Z" fill="#3E3A39"/>
</g>
<defs>
<clipPath id="clip0_4999_1191">
<rect width="17" height="20" fill="white" transform="translate(3 2)"/>
</clipPath>
</defs>
</svg>
