<svg width="24" height="24" viewBox="0 0 24 24" fill="none" xmlns="http://www.w3.org/2000/svg">
<path d="M19.9276 13.5987H18.5176C21.1186 13.2843 20.7375 8.86355 18.1746 8.74922C19.1178 7.1105 17.8316 5.02399 15.8404 5.24312C15.2401 1.43214 8.99012 1.31781 7.42761 3.65203C7.42761 3.65203 11.1052 5.21453 6.80833 6.91995C6.80833 6.91995 3.25459 8.64442 6.07472 10.5499C2.9116 9.48283 2.4257 13.2652 4.91237 13.5987C4.7504 13.5987 3.72144 13.5796 3.57852 13.6177H20.1468C20.0801 13.5987 20.0038 13.5987 19.9276 13.5987Z" fill="white"/>
<path d="M20.0991 13.6844H3.53087C2.1875 14.0179 2.59718 15.952 3.96913 15.771L5.55068 21.173H17.984L19.6608 15.771C21.0328 15.9615 21.4425 14.0179 20.0991 13.6844Z" fill="#FF7384"/>
<path d="M7.31331 3.49957C7.31331 3.49957 12.8011 2.28959 15.1925 5.92907C15.3068 6.10057 15.4593 6.24348 15.6594 6.31017C16.3263 6.53883 17.9459 7.26291 18.0507 8.88258C18.0507 8.88258 20.3183 11.4169 18.8796 13.532C18.8796 13.532 21.1757 12.7221 19.9848 9.88296C19.9848 9.88296 18.6033 8.7492 18.327 8.81589C18.0507 8.88258 19.5275 6.56741 17.1456 5.69089C14.7638 4.81436 15.7165 5.38601 15.7165 5.38601C15.7165 5.38601 14.7828 -0.168494 7.31331 3.5091V3.49957Z" fill="#FF7384"/>
<path d="M18.0507 21.516H5.46495L3.83575 15.9329L4.31213 15.7995L5.84605 21.0206H17.7077L19.6037 15.7805L20.0705 15.952L18.0507 21.516Z" fill="#222020"/>
<path d="M19.8705 16.1139H16.8312C16.6978 16.1139 16.5835 15.9996 16.5835 15.8662C16.5835 15.7328 16.6978 15.6185 16.8312 15.6185H19.8705C20.3087 15.6185 20.6708 15.2565 20.6708 14.8182V14.742C20.6708 14.3037 20.3087 13.9417 19.8705 13.9417H3.75954C3.32128 13.9417 2.95923 14.3037 2.95923 14.742V14.8182C2.95923 15.2565 3.32128 15.6185 3.75954 15.6185H14.859C14.9924 15.6185 15.1067 15.7328 15.1067 15.8662C15.1067 15.9996 14.9924 16.1139 14.859 16.1139H3.75954C3.04498 16.1139 2.46381 15.5328 2.46381 14.8182V14.742C2.46381 14.0274 3.04498 13.4463 3.75954 13.4463H19.8705C20.585 13.4463 21.1662 14.0274 21.1662 14.742V14.8182C21.1662 15.5328 20.585 16.1139 19.8705 16.1139Z" fill="#222020"/>
<path d="M4.69326 13.9417C4.64562 13.9417 4.59798 13.9322 4.55034 13.8941C3.67382 13.2938 3.2165 12.646 3.19745 11.9886C3.17839 11.1787 3.82626 10.6642 3.85484 10.6452C4.3598 10.2736 4.89334 10.2069 5.37924 10.2641C5.12199 9.95922 4.91239 9.59718 4.86475 9.19703C4.80759 8.67302 5.02672 8.16806 5.52214 7.72027C6.10332 7.19626 6.75118 6.77705 7.32283 6.40548C8.01834 5.95769 8.67573 5.53848 8.67573 5.22408C8.67573 5.06211 8.47565 4.88109 8.31369 4.75724C7.49433 4.16653 7.12276 3.89976 7.13229 3.52819C7.15134 3.20426 7.4848 2.98513 7.91354 2.73741C8.95203 2.13718 11.3244 1.6227 13.3251 2.37537C15.021 3.00418 15.8213 4.45236 16.069 5.13833C16.4597 5.10975 17.279 5.11928 17.9174 5.58612C18.3651 5.91006 18.6414 6.38643 18.7367 7.01524C19.0702 9.15892 17.7744 10.5213 14.8972 11.0549C14.7638 11.0835 14.6304 10.9882 14.6018 10.8548C14.5732 10.7214 14.6685 10.588 14.8019 10.5594C17.4029 10.0735 18.5271 8.93026 18.2413 7.08193C18.1651 6.59603 17.9555 6.22446 17.622 5.98627C16.936 5.49085 15.9356 5.65281 15.9261 5.65281C15.8023 5.6814 15.6689 5.59565 15.6403 5.46226C15.5546 5.07164 14.8686 3.48056 13.1441 2.84222C11.3148 2.15624 9.08541 2.63261 8.16125 3.16615C7.72299 3.42339 7.63724 3.51867 7.62771 3.55678C7.64676 3.6711 8.13267 4.02362 8.59951 4.35708C8.99014 4.6429 9.18069 4.92873 9.17116 5.24313C9.16163 5.82431 8.46613 6.2721 7.5896 6.83422C7.03701 7.19626 6.39867 7.60594 5.84608 8.10137C5.46498 8.44436 5.30301 8.78734 5.35065 9.14939C5.42687 9.82583 6.17954 10.407 6.58922 10.6928C6.76071 10.7881 6.87504 10.8643 6.8941 10.8834C6.9989 10.9596 7.02748 11.112 6.96079 11.2168C6.8941 11.3312 6.74166 11.3693 6.62733 11.3026C6.60827 11.3026 6.50347 11.2359 6.34151 11.1311C5.89372 10.8834 4.93144 10.4928 4.14066 11.0644C4.14066 11.0644 3.66429 11.4455 3.68335 11.9981C3.7024 12.4935 4.0835 12.9985 4.81712 13.5034C4.93145 13.5796 4.96003 13.7416 4.88381 13.8464C4.83617 13.9131 4.75995 13.9512 4.6742 13.9512L4.69326 13.9417Z" fill="#222020"/>
<path d="M18.8224 13.9417C18.6986 13.9417 18.5938 13.8559 18.5747 13.7226C18.5557 13.5892 18.6509 13.4558 18.7843 13.4367C19.2035 13.3796 19.556 13.1414 19.7942 12.7698C20.1372 12.2363 20.2039 11.4646 19.9752 10.6642C19.556 9.21608 18.3937 9.03506 18.3365 9.02553C18.2031 9.00648 18.1079 8.88262 18.1269 8.74923C18.146 8.61585 18.2698 8.52057 18.4032 8.53963C18.4699 8.53963 19.9371 8.75876 20.4516 10.5309C20.7279 11.4741 20.6422 12.3887 20.2134 13.0461C19.899 13.5415 19.4131 13.8559 18.851 13.9322C18.8415 13.9322 18.8319 13.9322 18.8129 13.9322L18.8224 13.9417Z" fill="#222020"/>
<path d="M10.5336 11.4931C9.21877 11.4931 8.13264 11.3216 8.05642 11.3121C7.92304 11.2931 7.82776 11.1597 7.84682 11.0263C7.86587 10.8929 7.99926 10.7976 8.13264 10.8167C8.16122 10.8167 11.1052 11.2835 13.1441 10.6738C13.2775 10.6357 13.4108 10.7119 13.4585 10.8453C13.4966 10.9787 13.4204 11.1216 13.287 11.1597C12.42 11.4169 11.4196 11.4931 10.524 11.4931H10.5336Z" fill="#222020"/>
</svg>
