<svg width="24" height="24" viewBox="0 0 24 24" fill="none" xmlns="http://www.w3.org/2000/svg">
<g clip-path="url(#clip0_9897_8018)">
<path d="M11.9411 17.6931C11.9411 18.127 11.871 18.5503 11.747 18.9418C11.3589 19.0582 10.9492 19.1217 10.5233 19.1217C8.1729 19.1217 6.26454 17.2487 6.26454 14.9418C6.26454 14.5079 6.33462 14.0847 6.45861 13.6878C6.84675 13.5767 7.25646 13.5132 7.68233 13.5132C10.0327 13.5132 11.9411 15.3862 11.9411 17.6931Z" fill="#FFCA37"/>
<path d="M10.1783 14.619C11.0246 15.3651 11.2834 16.4392 10.7551 17.0159C10.2268 17.5926 9.11629 17.455 8.26993 16.7037C7.42357 15.9577 7.16481 14.8836 7.69311 14.3069C8.22141 13.7302 9.33192 13.8677 10.1783 14.619Z" fill="#FCDB3A"/>
<path d="M12.3023 17.7989C12.119 18.1958 12.0058 18.6032 11.9519 19.0159C12.2592 19.2804 12.6042 19.5026 12.9923 19.6772C15.1325 20.6296 17.6554 19.6984 18.6257 17.5979C18.809 17.2011 18.9276 16.7884 18.9761 16.3757C18.6689 16.1164 18.3238 15.8942 17.9303 15.7196C15.7901 14.7672 13.2672 15.6984 12.2969 17.7989H12.3023Z" fill="#FFCA37"/>
<path d="M15.2079 15.7143C14.1244 16.0529 13.4344 16.9206 13.6716 17.6614C13.9088 18.4021 14.9815 18.7249 16.0651 18.3862C17.1486 18.0476 17.8387 17.1799 17.6015 16.4392C17.3643 15.7037 16.2915 15.3757 15.2079 15.7143Z" fill="#FCDB3A"/>
<path d="M12.8036 10.9683C12.9276 11.3862 12.9869 11.8095 12.9761 12.2222C12.6365 12.4392 12.2591 12.6138 11.8494 12.7354C9.59608 13.3862 7.22411 12.1217 6.56104 9.91005C6.43705 9.49206 6.37775 9.06878 6.38853 8.65608C6.72815 8.43915 7.10551 8.26984 7.51521 8.14815C9.76858 7.49735 12.1352 8.7619 12.8036 10.9788V10.9683Z" fill="#FFCA37"/>
<path d="M10.2268 8.50264C11.2565 8.98412 11.8117 9.94179 11.4721 10.6402C11.1325 11.3386 10.022 11.5132 8.99769 11.0317C7.97344 10.5503 7.41279 9.59259 7.75241 8.89418C8.09203 8.19576 9.20255 8.02116 10.2268 8.50264Z" fill="#FCDB3A"/>
<path d="M13.2241 10.9788C13.0839 11.3915 13.0085 11.8095 13.0031 12.2222C13.3319 12.455 13.7039 12.6402 14.1082 12.7778C16.3346 13.5132 18.7497 12.3386 19.5044 10.1534C19.6446 9.74074 19.7201 9.31746 19.7308 8.90476C19.3966 8.67725 19.03 8.48677 18.6257 8.3545C16.3993 7.61905 13.9842 8.79365 13.2295 10.9788H13.2241Z" fill="#FFCA37"/>
<path d="M15.898 8.61905C14.8521 9.06349 14.2591 9.99471 14.5718 10.7037C14.8845 11.4127 15.9842 11.6296 17.03 11.1905C18.0759 10.746 18.6688 9.81481 18.3562 9.10582C18.0435 8.39682 16.9438 8.17989 15.898 8.61905Z" fill="#FCDB3A"/>
<path d="M8.65268 23C8.5826 23 8.51252 22.9735 8.45861 22.9206C8.35618 22.8148 8.35618 22.6508 8.45861 22.545L9.00308 22.0265C11.402 19.7355 12.7821 16.5344 12.7821 13.2487V6.57672C12.7821 6.42857 12.9007 6.31217 13.0516 6.31217C13.2025 6.31217 13.3211 6.42857 13.3211 6.57672V13.2487C13.3211 16.6772 11.8872 20.0159 9.38044 22.4021L8.83597 22.9206C8.78206 22.9683 8.71737 22.9947 8.64729 22.9947L8.65268 23Z" fill="#000202"/>
<path d="M10.5233 19.3862C8.02734 19.3862 5.995 17.3915 5.995 14.9418C5.995 14.4868 6.06508 14.037 6.19985 13.6085L6.24297 13.4762L6.38314 13.4339C6.80901 13.3122 7.24567 13.2487 7.68772 13.2487C10.1837 13.2487 12.216 15.2434 12.216 17.6931C12.216 18.1481 12.1459 18.5926 12.0112 19.0212L11.968 19.1534L11.8333 19.1958C11.4128 19.3227 10.9707 19.3862 10.5287 19.3862H10.5233ZM6.67424 13.9048C6.5826 14.2381 6.53408 14.5873 6.53408 14.9418C6.53408 17.1005 8.32384 18.8571 10.5233 18.8571C10.8683 18.8571 11.2025 18.8148 11.5314 18.7302C11.623 18.3968 11.6715 18.0476 11.6715 17.6931C11.6715 15.5344 9.88179 13.7778 7.68233 13.7778C7.3427 13.7778 7.00308 13.8201 6.67424 13.9048Z" fill="#000202"/>
<path d="M14.7497 20.3122C14.1244 20.3122 13.4936 20.1852 12.8845 19.9153C12.4802 19.7354 12.1082 19.4974 11.774 19.2116L11.6662 19.1217L11.6823 18.9841C11.7362 18.5397 11.8602 18.1058 12.0543 17.6878C13.0839 15.4603 15.774 14.4656 18.0489 15.4762C18.4478 15.6561 18.8198 15.8889 19.1594 16.1746L19.2672 16.2645L19.2511 16.4021C19.1971 16.8466 19.0732 17.2857 18.8791 17.6984C18.1244 19.3333 16.4748 20.3069 14.7497 20.3069V20.3122ZM12.243 18.9048C12.5071 19.1164 12.7982 19.291 13.1109 19.4339C15.1109 20.328 17.4829 19.4497 18.3885 17.4868C18.5395 17.164 18.6419 16.8254 18.6958 16.4868C18.4317 16.2751 18.1405 16.1005 17.8279 15.963C15.8279 15.0688 13.4559 15.9471 12.5502 17.9101C12.3993 18.2328 12.2969 18.5661 12.243 18.9101V18.9048Z" fill="#000202"/>
<path d="M10.6527 13.164C8.6958 13.164 6.88987 11.9101 6.30766 9.97355C6.17828 9.53439 6.11359 9.08466 6.12437 8.64021V8.49736L6.24836 8.42328C6.62033 8.18519 7.02464 8.00529 7.44513 7.8836C9.84405 7.19048 12.3616 8.53968 13.0678 10.8889C13.1971 11.328 13.2618 11.7725 13.2511 12.2222V12.3598L13.1271 12.4339C12.7551 12.672 12.3562 12.8571 11.9303 12.9788C11.5044 13.1005 11.0786 13.1587 10.6527 13.1587V13.164ZM6.66346 8.79365C6.66885 9.13757 6.72276 9.48677 6.82518 9.8254C7.44513 11.8942 9.66615 13.0847 11.7794 12.4762C12.1082 12.381 12.4209 12.2487 12.712 12.0741C12.7066 11.7249 12.6527 11.381 12.5502 11.0423C11.9303 8.97355 9.70928 7.78307 7.59607 8.39154C7.27262 8.48677 6.95995 8.61905 6.66346 8.79365Z" fill="#000202"/>
<path d="M15.4613 13.2593C14.9815 13.2593 14.4963 13.1852 14.0166 13.0265C13.5961 12.8889 13.2025 12.6878 12.8414 12.4392L12.7281 12.3598V12.2222C12.7389 11.7725 12.8198 11.328 12.9653 10.8995C13.7632 8.57672 16.3346 7.32804 18.7012 8.11111C19.1163 8.24868 19.5098 8.44445 19.8764 8.69312L19.995 8.77249V8.91534C19.9842 9.36508 19.9034 9.80952 19.7524 10.2434C19.1163 12.0952 17.3481 13.2646 15.4613 13.2646V13.2593ZM13.2726 12.0847C13.5583 12.2698 13.8656 12.4127 14.1891 12.5238C16.2753 13.2169 18.5395 12.1111 19.2403 10.0635C19.3535 9.73016 19.4236 9.38095 19.4451 9.03704C19.1594 8.85185 18.8467 8.709 18.5287 8.60318C16.4424 7.91534 14.1783 9.01587 13.4775 11.0635C13.3643 11.3968 13.2942 11.7407 13.2726 12.0899V12.0847Z" fill="#000202"/>
<path d="M13.057 1.33862C13.057 1.33862 8.05969 5.20635 13.057 9.01587C18.0543 5.21164 13.057 1.33862 13.057 1.33862Z" fill="#FFCA37"/>
<path d="M14.0026 6.72563C14.8448 6.46105 15.2162 5.29223 14.8323 4.115C14.4483 2.93778 13.4544 2.19794 12.6122 2.46252C11.7701 2.72711 11.3986 3.89593 11.7825 5.07315C12.1665 6.25037 13.1604 6.99021 14.0026 6.72563Z" fill="#FCDB3A"/>
<path d="M13.057 9.34391L12.8899 9.21693C11.3535 8.04762 10.5718 6.74074 10.5664 5.34391C10.5556 2.96296 12.7928 1.20106 12.8899 1.12698L13.057 1L13.2241 1.12698C13.3211 1.20106 15.5583 2.96296 15.5476 5.34391C15.5422 6.74603 14.7605 8.04762 13.2241 9.21693L13.057 9.34391ZM13.057 1.68254C12.5556 2.12698 11.1001 3.57672 11.1055 5.34391C11.1109 6.52381 11.7686 7.64021 13.057 8.67196C14.3454 7.64021 15.0031 6.52381 15.0085 5.34391C15.0193 3.57672 13.5583 2.12698 13.057 1.68254Z" fill="#000202"/>
<path d="M13.5368 3.65079C13.4397 3.65079 13.3481 3.60317 13.2996 3.51323L13.2565 3.43915C13.181 3.31217 13.2187 3.15344 13.3481 3.07407C13.4775 2.99471 13.6392 3.03704 13.7201 3.15873L13.774 3.25397C13.8441 3.38095 13.8009 3.54497 13.6715 3.61376C13.6284 3.63492 13.5853 3.6455 13.5422 3.6455L13.5368 3.65079Z" fill="white"/>
<path d="M14.2699 5.39683C14.1244 5.39683 14.0004 5.28043 14.0004 5.13228C14.0004 5.1217 13.9896 4.77778 13.8117 4.38625C13.7524 4.25397 13.8117 4.09524 13.9465 4.03704C14.0812 3.97884 14.243 4.03704 14.3023 4.16932C14.5341 4.67196 14.5395 5.11111 14.5395 5.13228C14.5395 5.28043 14.4209 5.39683 14.2699 5.39683Z" fill="white"/>
<path d="M8.64729 9.22751C8.64729 9.22751 8.62034 9.22751 8.60956 9.22751L8.5233 9.21693C8.37775 9.20106 8.26993 9.06878 8.28611 8.92592C8.30228 8.78307 8.43705 8.67725 8.5826 8.69312L8.69042 8.70899C8.83597 8.73016 8.9384 8.86243 8.91683 9.01058C8.89527 9.14286 8.78206 9.23809 8.65268 9.23809L8.64729 9.22751Z" fill="white"/>
<path d="M10.4963 9.73545C10.4371 9.73545 10.3831 9.71958 10.3346 9.68254C10.3346 9.68254 10.0489 9.4709 9.61764 9.37037C9.47209 9.33333 9.38584 9.19048 9.41818 9.05291C9.45592 8.91005 9.60147 8.8254 9.74163 8.85714C10.2915 8.98942 10.6419 9.25397 10.6581 9.26455C10.7767 9.3545 10.7982 9.51852 10.7066 9.63492C10.6527 9.7037 10.5718 9.73545 10.491 9.73545H10.4963Z" fill="white"/>
<path d="M8.50713 14.8836C8.464 14.8836 8.42626 14.873 8.38314 14.8571L8.30767 14.8201C8.17289 14.7619 8.1136 14.6032 8.17289 14.4709C8.23219 14.3386 8.39392 14.2804 8.52869 14.3386L8.63112 14.3862C8.76589 14.4497 8.8144 14.6138 8.74971 14.7407C8.7012 14.8307 8.60955 14.8836 8.50713 14.8836Z" fill="white"/>
<path d="M10.1136 15.9259C10.0273 15.9259 9.94648 15.8836 9.89257 15.8095C9.89257 15.8095 9.68772 15.5238 9.31036 15.2963C9.18098 15.2222 9.14325 15.0582 9.21872 14.9312C9.29958 14.8042 9.46131 14.7672 9.59069 14.8413C10.0705 15.1323 10.3292 15.4921 10.3346 15.5079C10.4209 15.6296 10.3885 15.7936 10.2645 15.8783C10.216 15.9101 10.1675 15.9259 10.1136 15.9259Z" fill="white"/>
<path d="M17.3104 9.39153C17.181 9.39153 17.0678 9.30159 17.0462 9.16931C17.0193 9.02645 17.1217 8.88889 17.2672 8.86772L17.3751 8.85185C17.526 8.83069 17.6554 8.93651 17.6769 9.07936C17.6985 9.22222 17.5907 9.3545 17.4451 9.37566L17.3589 9.38624C17.3589 9.38624 17.3265 9.38624 17.3158 9.38624L17.3104 9.39153Z" fill="white"/>
<path d="M15.4559 9.89947C15.3751 9.89947 15.2942 9.86243 15.2403 9.79894C15.1486 9.68254 15.1702 9.51852 15.2888 9.42857C15.305 9.41799 15.6554 9.14815 16.2052 9.02117C16.3508 8.98413 16.4963 9.07408 16.5287 9.21693C16.5664 9.35979 16.4748 9.50265 16.3292 9.53439C15.898 9.64021 15.6176 9.84656 15.6122 9.84656C15.5637 9.8836 15.5044 9.89947 15.4505 9.89947H15.4559Z" fill="white"/>
<path d="M16.4478 16.5873C16.3077 16.5873 16.1891 16.4815 16.1783 16.3386C16.1675 16.1905 16.2807 16.0688 16.4317 16.0582H16.5395C16.6796 16.0529 16.8144 16.164 16.8198 16.3122C16.8198 16.4603 16.7066 16.582 16.561 16.5873H16.4694C16.4694 16.5873 16.4586 16.5873 16.4532 16.5873H16.4478Z" fill="white"/>
<path d="M14.5503 16.9206C14.4586 16.9206 14.3724 16.8783 14.3238 16.7989C14.243 16.6773 14.2807 16.5132 14.4047 16.4339C14.4209 16.4233 14.7982 16.1905 15.3589 16.1111C15.5044 16.0952 15.6446 16.1905 15.6662 16.3333C15.6877 16.4762 15.5853 16.6138 15.4397 16.6349C15.0031 16.6984 14.7012 16.8783 14.6958 16.8783C14.6527 16.9048 14.6042 16.9206 14.5556 16.9206H14.5503Z" fill="white"/>
</g>
<defs>
<clipPath id="clip0_9897_8018">
<rect width="14" height="22" fill="white" transform="translate(5.995 1)"/>
</clipPath>
</defs>
</svg>
