<svg width="24" height="24" viewBox="0 0 24 24" fill="none" xmlns="http://www.w3.org/2000/svg">
<g clip-path="url(#clip0_4999_724)">
<path d="M12.6152 23.7273C12.5621 23.7273 12.5233 23.7267 12.4998 23.7261C12.4765 23.7267 12.4376 23.7273 12.3844 23.7273C11.8373 23.7273 9.90884 23.6561 8.06732 22.7401C6.9836 22.201 6.11505 21.4621 5.48576 20.5442C4.72194 19.43 4.316 18.0562 4.27909 16.4608C4.21792 13.8141 5.13466 11.4161 5.94328 9.30034C6.04847 9.02503 6.14795 8.76511 6.24449 8.50626C7.05774 6.32751 7.95873 4.60854 8.92243 3.39721C10.0441 1.98755 11.2477 1.27274 12.4998 1.27274C13.1568 1.27274 13.8137 1.47046 14.4521 1.86041C15.0302 2.21363 15.5987 2.7292 16.1419 3.39309C17.1589 4.63628 18.0812 6.37065 18.8829 8.54833C18.9315 8.6805 18.981 8.81404 19.0309 8.94896C19.8529 11.1698 20.7846 13.6871 20.7205 16.4607C20.6838 18.0562 20.2777 19.43 19.5139 20.5444C18.8846 21.4623 18.016 22.201 16.9322 22.7402C15.0908 23.6561 13.1626 23.7273 12.6154 23.7273H12.6152Z" fill="#4B8400"/>
<path d="M20.7207 16.461C20.6838 18.0563 20.2777 19.4302 19.5141 20.5445C18.8846 21.4626 18.0159 22.2013 16.9322 22.7402C15.0908 23.6561 13.1628 23.7274 12.6154 23.7274C12.5622 23.7274 12.5233 23.7268 12.5 23.7262C12.4767 23.7268 12.4377 23.7274 12.3846 23.7274C11.8375 23.7274 9.90917 23.6561 8.06765 22.7402C6.98378 22.201 6.11538 21.4622 5.48594 20.5442C4.72227 19.4302 4.31618 18.056 4.27927 16.461C4.27525 16.2875 4.27541 16.1148 4.27973 15.9434C4.31665 17.5194 4.70605 18.8774 5.43713 19.979C6.04093 20.8889 6.87442 21.6212 7.91442 22.1559C9.68165 23.064 11.5321 23.1344 12.0573 23.1344C12.1083 23.1344 12.1455 23.1338 12.1681 23.1332C12.1903 23.1338 12.2278 23.1344 12.2787 23.1344H12.2788C12.8038 23.1344 14.6542 23.064 16.4212 22.156C17.4612 21.6216 18.2947 20.8892 18.8985 19.9791C19.6316 18.8746 20.0212 17.5125 20.0565 15.9308C20.118 13.1813 19.224 10.6859 18.4351 8.48429C18.3871 8.35045 18.3397 8.21812 18.2929 8.08702C17.5236 5.9284 16.6386 4.20882 15.6626 2.9766C15.4689 2.73224 15.2722 2.50799 15.0726 2.30493C15.4367 2.60449 15.7944 2.96852 16.1418 3.39308C17.1589 4.63627 18.0811 6.37064 18.8829 8.54832C18.9314 8.68049 18.9808 8.81418 19.0309 8.94895C19.8531 11.1699 20.7847 13.6869 20.7207 16.4608V16.461Z" fill="#385B00"/>
<path d="M12.6153 24C12.5642 24 12.5253 23.9994 12.4999 23.9989C12.4746 23.9994 12.4357 24 12.3845 24C11.822 24 9.83898 23.9267 7.94309 22.9835C6.81674 22.4233 5.91297 21.6539 5.25696 20.697C4.46286 19.5388 4.04102 18.1156 4.00287 16.4671C3.94046 13.7674 4.86725 11.3431 5.68482 9.20414L5.68637 9.20017C5.79079 8.92684 5.88949 8.6686 5.98526 8.41203C6.80855 6.20661 7.7236 4.46264 8.70521 3.22875C9.88177 1.74988 11.1584 1 12.4998 1C13.2089 1 13.9147 1.21144 14.5974 1.62853C15.202 1.99791 15.794 2.5339 16.3567 3.22173C17.393 4.4884 18.3303 6.24929 19.1423 8.45517C19.1867 8.57545 19.2316 8.69711 19.277 8.81982L19.2902 8.8555C20.1206 11.099 21.0619 13.642 20.9965 16.4671C20.9585 18.1156 20.5365 19.539 19.7424 20.6973C19.0864 21.6542 18.1827 22.4234 17.0562 22.9838C15.1603 23.9268 13.1776 24 12.615 24H12.6153ZM12.4999 23.4533H12.5066C12.5287 23.4539 12.5653 23.4546 12.6153 23.4546C13.147 23.4546 15.0208 23.3855 16.8078 22.4966C17.849 21.9787 18.6825 21.2705 19.2851 20.3915C20.0188 19.3213 20.4088 17.9967 20.4443 16.4544C20.5072 13.7322 19.585 11.2407 18.7713 9.04255L18.758 9.00672C18.7125 8.8837 18.6675 8.76189 18.623 8.64131C17.8319 6.49214 16.9247 4.78384 15.9269 3.56428C15.4034 2.92431 14.8583 2.42902 14.3067 2.09212C13.7126 1.72914 13.1048 1.54514 12.4999 1.54514C11.3368 1.54514 10.2064 2.2249 9.14003 3.56535C8.19409 4.75427 7.30731 6.44839 6.50395 8.6003C6.40741 8.85885 6.3084 9.11801 6.20352 9.39241L6.20197 9.39637C5.40216 11.4888 4.49561 13.8606 4.55538 16.4544C4.59106 17.9966 4.98109 19.3212 5.71464 20.3913C6.3172 21.2702 7.15053 21.9784 8.19178 22.4964C9.97892 23.3855 11.8527 23.4546 12.3845 23.4546C12.4346 23.4546 12.4712 23.4539 12.4933 23.4535H12.4999V23.4533Z" fill="black"/>
<path d="M12.5 2.52734C10.5399 2.52734 8.77158 5.10626 7.39515 8.9465C6.63797 11.0592 5.59333 13.5295 5.65296 16.219C5.79738 22.7309 12.5 22.4713 12.5 22.4713C12.5 22.4713 19.2027 22.731 19.3471 16.219C19.4061 13.5615 18.4606 11.0803 17.7195 8.98355C16.3471 5.10092 14.4732 2.52734 12.5 2.52734Z" fill="#FFFCBD"/>
<path d="M19.347 16.219C19.2027 22.7309 12.4999 22.4713 12.4999 22.4713C12.4999 22.4713 6.85191 22.69 5.8136 17.6891C7.37291 21.3371 11.705 21.1586 11.705 21.1586C11.705 21.1586 18.0098 21.4183 18.1457 14.9063C18.201 12.2489 17.3119 9.7677 16.6146 7.67097C16.1126 6.16116 15.5393 4.84952 14.9169 3.80984C15.9667 4.93535 16.9268 6.74106 17.7195 8.98383C18.4606 11.0806 19.406 13.5618 19.3471 16.2192L19.347 16.219Z" fill="#E2DC8D"/>
<path d="M12.6081 22.7455C12.5542 22.7455 12.5175 22.7446 12.4999 22.7441C12.3985 22.7472 11.659 22.7609 10.6844 22.5612C9.73141 22.3658 8.36533 21.9194 7.27002 20.9028C6.05748 19.7771 5.42047 18.2033 5.3766 16.2251C5.32285 13.7979 6.14012 11.5711 6.86116 9.60658C6.95661 9.34651 7.04682 9.10092 7.13471 8.85563C8.21395 5.84439 10.0209 2.25476 12.5 2.25476C13.5473 2.25476 14.5746 2.88649 15.5533 4.13258C16.4507 5.27516 17.2674 6.87705 17.9802 8.8939C18.0243 9.0186 18.0692 9.14467 18.1145 9.27211C18.8482 11.3365 19.6798 13.6764 19.6233 16.2251C19.5794 18.2033 18.9424 19.777 17.7299 20.9028C16.6347 21.9196 15.2686 22.3658 14.3156 22.5612C13.5101 22.7263 12.8652 22.7455 12.6083 22.7455H12.6081ZM12.4999 22.1984L12.5107 22.1988C12.5178 22.1992 13.254 22.2237 14.2194 22.0238C15.099 21.8417 16.3568 21.4299 17.354 20.5026C18.4526 19.4811 19.03 18.0379 19.0705 16.2132C19.1248 13.7634 18.3108 11.4733 17.5927 9.45261C17.5473 9.32486 17.5023 9.19848 17.4582 9.07348C16.7747 7.14002 15.965 5.54696 15.1162 4.46659C14.2475 3.36075 13.3672 2.80006 12.4996 2.80006C10.8173 2.80006 9.09687 5.01524 7.65525 9.03735C7.56675 9.28446 7.47623 9.53112 7.38031 9.7921C6.6758 11.7118 5.87722 13.8877 5.92866 16.2129C5.96913 18.0376 6.54667 19.4807 7.64506 20.5023C8.64228 21.4296 9.90024 21.8414 10.7798 22.0235C11.7452 22.2234 12.4813 22.1988 12.4887 22.1985L12.4994 22.1981L12.4999 22.1984Z" fill="black"/>
<path d="M12.4998 19.682C14.4039 19.682 15.9475 18.0462 15.9475 16.0283C15.9475 14.0105 14.4039 12.3747 12.4998 12.3747C10.5957 12.3747 9.05219 14.0105 9.05219 16.0283C9.05219 18.0462 10.5957 19.682 12.4998 19.682Z" fill="#72420E"/>
<path d="M15.9475 16.0283C15.9475 18.0461 14.4039 19.682 12.4998 19.682C11.1401 19.682 9.9643 18.8477 9.40314 17.636C9.99427 18.2743 10.8174 18.6704 11.7281 18.6704C13.5272 18.6704 14.9855 17.1247 14.9855 15.2183C14.9855 14.2411 14.6024 13.3587 13.9867 12.731C15.1464 13.3192 15.9475 14.5746 15.9475 16.0282V16.0283Z" fill="#512B05"/>
<path d="M12.4998 19.9547C10.4465 19.9547 8.776 18.1934 8.776 16.0283C8.776 13.8633 10.4465 12.102 12.4998 12.102C14.5531 12.102 16.2238 13.8633 16.2238 16.0283C16.2238 18.1934 14.5533 19.9547 12.4998 19.9547ZM12.4998 12.6473C10.7511 12.6473 9.32852 14.1639 9.32852 16.0282C9.32852 17.8924 10.7511 19.4091 12.4998 19.4091C14.2485 19.4091 15.6711 17.8924 15.6711 16.0282C15.6711 14.1639 14.2485 12.6473 12.4998 12.6473Z" fill="black"/>
<path d="M10.6606 14.2696C10.5287 14.1665 10.335 14.2028 10.2504 14.3464C10.1265 14.5562 9.96556 14.8832 9.86624 15.2948C9.7161 15.9174 9.68412 16.8517 10.3197 17.8725C10.4038 18.0075 10.5854 18.0452 10.7163 17.9533C10.8352 17.8697 10.867 17.7097 10.7904 17.5869C10.3594 16.897 10.2275 16.1768 10.3987 15.4427C10.4824 15.083 10.6242 14.7972 10.7281 14.6208C10.7973 14.5034 10.7688 14.3539 10.661 14.2697L10.6606 14.2694V14.2696Z" fill="white"/>
<path d="M11.2857 13.2825C11.2057 13.3368 11.1308 13.3952 11.0659 13.4494C10.9411 13.5537 10.9346 13.7414 11.0522 13.8536L11.0525 13.8539C11.1544 13.9513 11.3145 13.9565 11.4229 13.8661C11.4796 13.819 11.5408 13.7716 11.601 13.7305C11.706 13.6591 11.7477 13.5258 11.7017 13.4083V13.408C11.6371 13.2427 11.4332 13.1822 11.2856 13.2825H11.2857Z" fill="white"/>
</g>
<defs>
<clipPath id="clip0_4999_724">
<rect width="17" height="23" fill="white" transform="translate(4 1)"/>
</clipPath>
</defs>
</svg>
