<svg width="25" height="24" viewBox="0 0 25 24" fill="none" xmlns="http://www.w3.org/2000/svg">
<path d="M21.4187 20.2883H6.41137C5.85649 20.2883 5.40405 19.8359 5.40405 19.281V11.0091H22.4175V19.281C22.4175 19.8359 21.965 20.2883 21.4101 20.2883H21.4187Z" fill="#F6364D"/>
<path d="M5.40405 17.4115V19.2639C5.40405 19.8273 5.85649 20.2798 6.4199 20.2798H21.4016C21.965 20.2798 22.4175 19.8273 22.4175 19.2639V17.4115C21.2394 17.4115 20.2919 16.4639 20.2919 15.2859C20.2919 14.1078 19.3358 13.1603 18.1662 13.1603C16.9967 13.1603 16.0406 14.1078 16.0406 15.2859C16.0406 16.4639 15.0845 17.4115 13.915 17.4115C12.7455 17.4115 11.7894 16.4639 11.7894 15.2859C11.7894 14.1078 10.8419 13.1603 9.66381 13.1603C8.48576 13.1603 7.5382 14.1078 7.5382 15.2859C7.5382 16.4639 6.5821 17.4115 5.41259 17.4115" fill="white"/>
<path d="M16.1431 5.39197L5.40405 11.0005H22.426C20.8382 8.64441 18.6784 6.69807 16.1431 5.38344V5.39197Z" fill="white"/>
<path d="M22.4175 17.6505C22.2894 17.6505 22.187 17.5481 22.187 17.42V11.2395H5.40404C5.29306 11.2395 5.19916 11.1627 5.17355 11.0602C5.14794 10.9578 5.19916 10.8468 5.29306 10.7956L16.4333 5.09317C16.5101 5.05049 16.6126 5.05903 16.6809 5.11878C16.8175 5.22122 20.0187 7.67122 20.9577 8.77244C21.0431 8.86635 21.026 9.02 20.9321 9.10537C20.8382 9.19074 20.6845 9.17366 20.5992 9.07976C19.7882 8.1322 17.1077 6.04074 16.5101 5.57976L6.36867 10.77H22.4175C22.5455 10.77 22.6479 10.8724 22.6479 11.0005V17.4115C22.6479 17.5395 22.5455 17.642 22.4175 17.642V17.6505Z" fill="#000202"/>
<path d="M21.4016 20.5188H6.41988C5.72842 20.5188 5.165 19.9554 5.165 19.2639V12.2041C5.165 12.0761 5.26744 11.9737 5.39549 11.9737C5.52354 11.9737 5.62598 12.0761 5.62598 12.2041V17.1724C6.565 17.0615 7.29061 16.259 7.29061 15.2944C7.29061 13.9883 8.34915 12.9298 9.65524 12.9298C10.9613 12.9298 12.0199 13.9883 12.0199 15.2944C12.0199 16.3359 12.865 17.1895 13.915 17.1895C14.965 17.1895 15.8101 16.3359 15.8101 15.2944C15.8101 13.9883 16.8687 12.9298 18.1748 12.9298C19.4809 12.9298 20.5394 13.9883 20.5394 15.2944C20.5394 16.3359 21.3845 17.1895 22.4345 17.1895C22.5626 17.1895 22.665 17.2919 22.665 17.42V19.2724C22.665 19.9639 22.1016 20.5273 21.4101 20.5273L21.4016 20.5188ZM5.63451 17.6334V19.2639C5.63451 19.6993 5.98451 20.0493 6.41988 20.0493H21.4016C21.837 20.0493 22.187 19.6993 22.187 19.2639V17.6334C21.0004 17.5139 20.0613 16.5066 20.0613 15.2859C20.0613 14.2444 19.2077 13.3907 18.1662 13.3907C17.1248 13.3907 16.2711 14.2444 16.2711 15.2859C16.2711 16.5919 15.2126 17.6505 13.9065 17.6505C12.6004 17.6505 11.5504 16.5919 11.5504 15.2859C11.5504 14.2444 10.6967 13.3907 9.65524 13.3907C8.61378 13.3907 7.76012 14.2444 7.76012 15.2859C7.76012 16.5066 6.8211 17.5224 5.63451 17.6334Z" fill="#000202"/>
<path d="M14.7345 5.60541C14.7345 6.66395 15.5882 7.5176 16.6467 7.5176C17.7053 7.5176 18.5589 6.66395 18.5589 5.60541C18.5589 4.54687 17.7053 3.69321 16.6467 3.69321C15.5882 3.69321 14.7345 4.54687 14.7345 5.60541Z" fill="#F6364D"/>
<path d="M16.6467 7.74807C15.4601 7.74807 14.504 6.78344 14.504 5.60539C14.504 4.42734 15.4687 3.46271 16.6467 3.46271C17.8248 3.46271 18.7894 4.42734 18.7894 5.60539C18.7894 6.78344 17.8248 7.74807 16.6467 7.74807ZM16.6467 3.92368C15.7248 3.92368 14.965 4.6749 14.965 5.60539C14.965 6.53588 15.7162 7.2871 16.6467 7.2871C17.5772 7.2871 18.3284 6.53588 18.3284 5.60539C18.3284 4.6749 17.5772 3.92368 16.6467 3.92368Z" fill="#000202"/>
<path d="M15.8699 4.76025C15.8699 4.87122 15.9296 4.97366 16.0235 5.02488C16.1174 5.0761 16.2369 5.0761 16.3308 5.02488C16.4247 4.97366 16.4845 4.87122 16.4845 4.76025C16.4845 4.64927 16.4247 4.54683 16.3308 4.49561C16.2369 4.44439 16.1174 4.44439 16.0235 4.49561C15.9296 4.54683 15.8699 4.64927 15.8699 4.76025Z" fill="white"/>
</svg>
