<svg width="25" height="24" viewBox="0 0 25 24" fill="none" xmlns="http://www.w3.org/2000/svg">
<path d="M21.8521 4.91008L21.1474 3.79342L19.7597 4.17287L19.0225 2.9478L17.6457 3.32725L16.9085 2.10217L15.5316 2.48162L14.8052 1.25655L13.5585 1.60347L12.3334 1.23487L11.7588 2.37321L10.6638 3.03453L11.0433 4.41138L9.81822 5.14859L10.1977 6.52544L9.00513 7.24097L10.4579 7.59873L11.9865 7.08919L12.7562 8.52025L14.1222 9.28998L13.7753 10.6777L15.0112 11.3824L14.6751 12.77L15.9111 13.4747L15.5641 14.8624L16.8 15.5671L16.7242 15.914L17.4722 15.708L18.6973 16.0767L19.2719 14.9275L20.3777 14.2662L19.9982 12.8893L21.2233 12.1629L20.8439 10.7861L22.0689 10.0489L21.6895 8.67202L22.9146 7.93481L22.5676 6.6989L22.9362 5.47383L21.8521 4.91008Z" fill="#FAFAFA"/>
<path d="M18.86 16.4886C18.86 16.4886 18.8057 16.4886 18.7841 16.4778L17.6349 16.1308L16.5724 16.4019C16.4206 16.4344 16.2797 16.3477 16.2363 16.2067C16.2038 16.055 16.2906 15.914 16.4315 15.8707L17.5698 15.5888C17.5698 15.5888 17.6674 15.5888 17.7216 15.5888L18.7299 15.8923L19.2069 14.96C19.2069 14.96 19.2611 14.8732 19.3153 14.8516L20.2368 14.2987L19.9116 13.1278C19.879 13.0085 19.9332 12.8784 20.0308 12.8242L21.0716 12.1954L20.7463 11.0246C20.7138 10.9053 20.768 10.7752 20.8656 10.721L21.9064 10.0922L21.5811 8.92135C21.5486 8.8021 21.6028 8.672 21.7004 8.6178L22.7411 7.989L22.4593 6.94823C22.4593 6.94823 22.4484 6.85066 22.4593 6.79645L22.7628 5.78821L21.8738 5.33287C21.8738 5.33287 21.798 5.27867 21.7654 5.2353L21.1692 4.2921L19.9874 4.61734C19.8682 4.64987 19.7381 4.59566 19.6839 4.49809L19.0551 3.45732L17.8842 3.78256C17.765 3.81508 17.6349 3.76088 17.5807 3.66331L16.9519 2.62254L15.781 2.94778C15.6618 2.9803 15.5317 2.9261 15.4774 2.82852L14.8487 1.78776L13.8079 2.06963C13.8079 2.06963 13.7103 2.08047 13.6561 2.06963L12.6479 1.76607L12.1708 2.69843C12.1708 2.69843 12.1166 2.78516 12.0624 2.80684L11.1409 3.35975L11.4662 4.53061C11.4987 4.64987 11.4445 4.77996 11.3469 4.83417L10.3061 5.46297L10.6205 6.42785C10.6639 6.5471 10.6097 6.68804 10.4904 6.75309L9.73155 7.18674C9.88333 7.21926 9.97006 7.37104 9.92669 7.52282C9.89417 7.6746 9.74238 7.76133 9.5906 7.71797L8.92929 7.55535C8.82087 7.53366 8.73414 7.43609 8.7233 7.32768C8.71246 7.21926 8.76666 7.11085 8.85339 7.05664L10.0026 6.39532L9.68818 5.43044C9.64482 5.31119 9.68818 5.18109 9.80744 5.11605L10.8482 4.48725L10.523 3.31638C10.4904 3.19713 10.5446 3.06703 10.6422 3.01283L11.6721 2.39487L12.2142 1.32158C12.2793 1.20232 12.4094 1.14812 12.5394 1.18064L13.6886 1.52756L14.8487 1.21316C14.9679 1.18064 15.098 1.23485 15.1522 1.33242L15.781 2.37319L16.9519 2.04795C17.0711 2.01542 17.2012 2.06963 17.2554 2.1672L17.8842 3.20797L19.0551 2.88273C19.1743 2.85021 19.3044 2.90441 19.3587 3.00198L19.9874 4.04275L21.1692 3.71751C21.2884 3.68499 21.4077 3.72835 21.4727 3.83677L22.1449 4.88838L23.1748 5.40876C23.2941 5.47381 23.3483 5.60391 23.3157 5.734L22.9688 6.88318L23.2832 8.04321C23.3157 8.16246 23.2615 8.29256 23.164 8.34676L22.1232 8.97556L22.4484 10.1464C22.481 10.2657 22.4267 10.3958 22.3292 10.45L21.2884 11.0788L21.6136 12.2496C21.6462 12.3689 21.592 12.499 21.4944 12.5532L20.4536 13.182L20.7789 14.3529C20.8114 14.4721 20.7572 14.6022 20.6596 14.6564L19.6297 15.2744L19.0876 16.3477C19.0443 16.4452 18.9467 16.4994 18.8383 16.4994L18.86 16.4886Z" fill="#000202"/>
<path d="M16.4965 16.1309L16.5941 15.708L16.6917 15.3069L16.1821 15.0142L15.6184 14.6998L15.4449 14.5914L15.4883 14.4179L15.781 13.2145L14.5451 12.499L14.892 11.1222L13.6452 10.4175L13.6886 10.2765L13.7862 9.87541L13.9922 9.02979L13.2116 8.58529L12.8755 8.39015L12.8647 8.37931L12.2792 7.26265L11.0542 7.66378L9.80742 7.36022L9.76405 7.44695L9.54722 7.8264L9.44965 7.99986L9.13525 8.54193L9.10273 8.59613L9.0702 8.58529L8.64739 8.47688L8.22458 8.37931L7.72588 8.24921L7.01035 9.49596L5.6335 9.14904L4.92882 10.385L3.54113 10.0489L2.90149 11.1547L1.77399 11.7618L2.17512 12.976L1.87156 14.2228L3.10747 14.9275L2.76055 16.3152L4.0073 17.0198L3.66038 18.4075L4.89629 19.1122L4.56021 20.4999L5.66603 21.1287L6.27314 22.2562L7.48737 21.8659L8.73413 22.1695L9.43881 20.9336L10.8265 21.2697L11.5312 20.0337L12.9189 20.3807L13.6236 19.1339L15.0113 19.4808L15.6401 18.3642L16.7676 17.7571L16.3989 16.597L16.4965 16.1309Z" fill="#D56A1E"/>
<path d="M6.26228 22.5164C6.16471 22.5164 6.06714 22.4622 6.02378 22.3755L5.46003 21.313L4.40842 20.7167C4.3 20.6517 4.2458 20.5324 4.27832 20.4132L4.57104 19.2315L3.50859 18.6244C3.40017 18.5593 3.34596 18.4401 3.37849 18.3208L3.6712 17.1391L2.60875 16.532C2.50034 16.4669 2.44614 16.3477 2.47866 16.2284L2.77138 15.0467L1.70893 14.4396C1.60051 14.3746 1.5463 14.2553 1.57883 14.136L1.87154 12.9652L1.4921 11.8268C1.44873 11.6967 1.50294 11.5666 1.62219 11.5016L2.68464 10.9379L3.28092 9.88624C3.34596 9.77783 3.46522 9.72362 3.58448 9.75615L4.76618 10.0489L5.37329 8.98641C5.43834 8.878 5.5576 8.82379 5.67685 8.85631L6.85856 9.14903L7.46567 8.08658C7.53072 7.97817 7.64997 7.92396 7.76923 7.95648L8.95093 8.2492L9.55805 7.18675C9.6231 7.07834 9.74235 7.02413 9.86161 7.05665L11.0325 7.34937L12.1708 6.96992C12.3009 6.92656 12.431 6.98076 12.4961 7.10002L13.0598 8.16247L14.1114 8.75874C14.2198 8.82379 14.274 8.94305 14.2415 9.0623L13.9488 10.244L15.0112 10.8511C15.1197 10.9162 15.1739 11.0354 15.1413 11.1547L14.8486 12.3364L15.9111 12.9435C16.0195 13.0085 16.0737 13.1278 16.0412 13.2471L15.7485 14.4288L16.8109 15.0359C16.9193 15.1009 16.9735 15.2202 16.941 15.3394L16.7567 16.1742L16.67 16.5645L17.0277 17.6595C17.0711 17.7896 17.0169 17.9197 16.8976 17.9847L15.8352 18.5485L15.2389 19.6001C15.1739 19.7085 15.0546 19.7627 14.9354 19.7302L13.7536 19.4375L13.1465 20.4999C13.0815 20.6083 12.9622 20.6625 12.843 20.63L11.6613 20.3373L11.0542 21.3997C10.9891 21.5082 10.8698 21.5624 10.7506 21.5298L9.56889 21.2371L8.96178 22.2996C8.89673 22.408 8.77748 22.4622 8.65822 22.4297L7.48735 22.1369L6.34902 22.5164C6.34902 22.5164 6.29481 22.5272 6.26228 22.5272V22.5164ZM4.86375 20.3481L5.7961 20.8794C5.7961 20.8794 5.88284 20.9444 5.90452 20.9878L6.40322 21.9093L7.40063 21.584C7.40063 21.584 7.4982 21.5624 7.5524 21.584L8.59317 21.8442L9.20029 20.7818C9.26534 20.6734 9.38458 20.6192 9.50384 20.6517L10.6855 20.9444L11.2927 19.882C11.3577 19.7735 11.477 19.7193 11.5962 19.7519L12.7779 20.0446L13.385 18.9821C13.4501 18.8737 13.5693 18.8195 13.6886 18.852L14.8703 19.1447L15.4015 18.2124C15.4015 18.2124 15.4666 18.1257 15.5099 18.104L16.4315 17.6053L16.1279 16.6512C16.1279 16.6512 16.1062 16.5537 16.1279 16.5103L16.3773 15.4153L15.304 14.8082C15.1955 14.7432 15.1413 14.6239 15.1739 14.5047L15.4666 13.3229L14.4041 12.7158C14.2957 12.6508 14.2415 12.5315 14.274 12.4123L14.5667 11.2306L13.5043 10.6235C13.3959 10.5584 13.3417 10.4391 13.3742 10.3199L13.6669 9.13819L12.7346 8.60696C12.7346 8.60696 12.6478 8.54192 12.6261 8.49855L12.1274 7.57704L11.13 7.90228C11.13 7.90228 11.0325 7.92396 10.9783 7.90228L9.9375 7.64209L9.33038 8.70454C9.26533 8.81295 9.14608 8.86716 9.02683 8.83463L7.84512 8.54192L7.238 9.60437C7.17296 9.71278 7.0537 9.76699 6.93445 9.73446L5.75274 9.44175L5.14563 10.5042C5.08058 10.6126 4.96133 10.6668 4.84207 10.6343L3.66036 10.3416L3.12914 11.2739C3.12914 11.2739 3.06409 11.3607 3.02073 11.3823L2.09921 11.881L2.42445 12.8784C2.42445 12.8784 2.44614 12.976 2.42445 13.0302L2.16426 14.071L3.22671 14.6781C3.33512 14.7432 3.38933 14.8624 3.3568 14.9817L3.06409 16.1634L4.12654 16.7705C4.23496 16.8355 4.28916 16.9548 4.25664 17.074L3.96392 18.2558L5.02637 18.8629C5.13478 18.9279 5.18899 19.0472 5.15647 19.1664L4.86375 20.3481Z" fill="#000202"/>
<path d="M15.3256 4.33547C15.2064 4.28126 15.0763 4.25958 14.9462 4.25958C14.5234 4.25958 14.1439 4.51977 13.9813 4.91006C13.8837 5.17025 13.8837 5.45212 13.9813 5.70147C14.0897 5.95082 14.2957 6.15681 14.5451 6.25438C14.6643 6.30859 14.7944 6.33027 14.9245 6.33027C15.3473 6.33027 15.7268 6.07008 15.8894 5.67979C16.1062 5.14857 15.846 4.54145 15.3148 4.33547H15.3256ZM14.7836 5.69063C14.6752 5.64727 14.5993 5.57138 14.5559 5.46296C14.5125 5.35455 14.5125 5.24614 14.5559 5.13772C14.621 4.9751 14.7727 4.86669 14.9462 4.86669C15.0004 4.86669 15.0546 4.86669 15.1088 4.89922C15.3256 4.98595 15.4341 5.2353 15.3473 5.45212C15.2823 5.61474 15.1305 5.72316 14.957 5.72316C14.9028 5.72316 14.8486 5.72316 14.7944 5.69063H14.7836Z" fill="#D56A1E"/>
<path d="M17.6457 9.90793C17.5265 9.85372 17.3964 9.83204 17.2663 9.83204C16.8435 9.83204 16.464 10.0922 16.3014 10.4825C16.2038 10.7427 16.2038 11.0246 16.3014 11.2739C16.4098 11.5233 16.6158 11.7293 16.8651 11.8268C16.9844 11.8811 17.1145 11.9027 17.2446 11.9027C17.6674 11.9027 18.0468 11.6425 18.2095 11.2523C18.4263 10.721 18.1661 10.1139 17.6349 9.90793H17.6457ZM17.1036 11.2631C16.9952 11.2197 16.9193 11.1438 16.876 11.0354C16.8326 10.927 16.8326 10.8186 16.876 10.7102C16.941 10.5476 17.0928 10.4392 17.2663 10.4392C17.3205 10.4392 17.3747 10.4392 17.4289 10.4717C17.6457 10.5584 17.7541 10.8078 17.6674 11.0246C17.6024 11.1872 17.4506 11.2956 17.2771 11.2956C17.2229 11.2956 17.1687 11.2956 17.1145 11.2631H17.1036Z" fill="#D56A1E"/>
<path d="M19.2394 5.90747C19.1201 5.85327 18.9901 5.83158 18.86 5.83158C18.4371 5.83158 18.0577 6.09178 17.8951 6.48206C17.6783 7.01329 17.9384 7.6204 18.4697 7.82639C18.5889 7.8806 18.719 7.90228 18.8491 7.90228C19.2719 7.90228 19.6514 7.64209 19.814 7.2518C20.0308 6.72057 19.7706 6.11346 19.2394 5.90747ZM18.6973 7.26264C18.4805 7.17591 18.3721 6.92656 18.4588 6.70973C18.5239 6.54711 18.6756 6.4387 18.8491 6.4387C18.9033 6.4387 18.9575 6.4387 19.0117 6.47122C19.2286 6.55795 19.337 6.8073 19.2502 7.02413C19.1852 7.18675 19.0334 7.29516 18.86 7.29516C18.8057 7.29516 18.7515 7.29516 18.6973 7.26264Z" fill="#D56A1E"/>
<path d="M7.4223 13.2579C7.25968 12.8785 6.88023 12.6291 6.46826 12.6291C6.32732 12.6291 6.18639 12.6616 6.05629 12.7159C5.53591 12.9435 5.28656 13.5506 5.51422 14.0819C5.67684 14.4613 6.05629 14.7107 6.46826 14.7107C6.6092 14.7107 6.75013 14.6781 6.88023 14.6239C7.40061 14.3963 7.64996 13.7891 7.4223 13.2579ZM6.07797 13.8325C5.9804 13.6157 6.07797 13.3663 6.30564 13.2688C6.35985 13.2471 6.41406 13.2362 6.46826 13.2362C6.64172 13.2362 6.7935 13.3338 6.85855 13.4964C6.95612 13.7133 6.85855 13.9626 6.63088 14.0602C6.57667 14.0819 6.52247 14.0927 6.46826 14.0927C6.2948 14.0927 6.14302 13.9951 6.07797 13.8325Z" fill="#FAFAFA"/>
<path d="M10.1435 12.976C10.2302 12.9977 10.3278 13.0193 10.4254 13.0193C10.5663 13.0193 10.7073 12.9868 10.8373 12.9326C10.9241 12.8893 11.0108 12.8459 11.0759 12.7808C11.4228 12.499 11.5637 12.0003 11.3794 11.5666C11.2168 11.1872 10.8374 10.9378 10.4254 10.9378C10.2844 10.9378 10.1435 10.9703 10.0134 11.0245C9.76405 11.133 9.55807 11.3389 9.4605 11.5883C9.4605 11.61 9.44966 11.6317 9.43881 11.6533C9.40629 11.7618 9.38461 11.8593 9.38461 11.9677C9.38461 12.1087 9.40629 12.2496 9.47134 12.3797C9.60143 12.6724 9.85079 12.8893 10.1435 12.9651V12.976ZM10.0242 11.816C10.0676 11.7075 10.1435 11.6317 10.2519 11.5883C10.3061 11.5666 10.3603 11.5558 10.4145 11.5558C10.588 11.5558 10.7398 11.6533 10.8048 11.816C10.9024 12.0328 10.8048 12.2821 10.5772 12.3797C10.523 12.4014 10.4687 12.4122 10.4145 12.4122C10.2411 12.4122 10.0893 12.3147 10.0242 12.152C9.98088 12.0436 9.98088 11.9352 10.0242 11.8268V11.816Z" fill="#FAFAFA"/>
<path d="M9.09188 17.9413C9.18945 17.6811 9.18945 17.3993 9.09188 17.1499C8.92926 16.7705 8.54981 16.5211 8.13784 16.5211C7.99691 16.5211 7.85597 16.5536 7.72588 16.6079C7.20549 16.8355 6.95614 17.4426 7.18381 17.9739C7.34643 18.3533 7.72587 18.6027 8.13784 18.6027C8.27878 18.6027 8.41972 18.5701 8.54982 18.5159C8.79917 18.4075 9.00515 18.2015 9.10273 17.9522L9.09188 17.9413ZM7.73672 17.7245C7.63914 17.5077 7.73671 17.2583 7.96438 17.1608C8.01859 17.1391 8.0728 17.1282 8.127 17.1282C8.30047 17.1282 8.45225 17.2258 8.51729 17.3884C8.56066 17.4968 8.56066 17.6053 8.51729 17.7137C8.47393 17.8221 8.39804 17.898 8.28963 17.9413C8.23542 17.963 8.18121 17.9739 8.127 17.9739C7.95354 17.9739 7.80176 17.8763 7.73672 17.7137V17.7245Z" fill="#FAFAFA"/>
<path d="M11.1192 15.4695C11.0216 15.7297 11.0216 16.0116 11.1192 16.2609C11.2818 16.6404 11.6613 16.8897 12.0732 16.8897C12.2142 16.8897 12.3551 16.8572 12.4852 16.803C12.7346 16.6946 12.9405 16.4886 13.0381 16.2392C13.1357 15.979 13.1357 15.6972 13.0381 15.4478C12.8755 15.0684 12.496 14.819 12.0841 14.819C11.9431 14.819 11.8022 14.8516 11.6721 14.9058C11.4228 15.0142 11.2168 15.2202 11.1192 15.4695ZM12.4744 15.6863C12.5177 15.7947 12.5177 15.9032 12.4744 16.0116C12.431 16.12 12.3551 16.1959 12.2467 16.2392C12.1925 16.2609 12.1383 16.2718 12.0841 16.2718C11.9106 16.2718 11.7588 16.1742 11.6938 16.0116C11.6504 15.9032 11.6504 15.7947 11.6938 15.6863C11.7372 15.5779 11.813 15.502 11.9215 15.4587C11.9757 15.437 12.0299 15.4261 12.0841 15.4261C12.2575 15.4261 12.4093 15.5237 12.4744 15.6863Z" fill="#FAFAFA"/>
</svg>
