<svg width="25" height="24" viewBox="0 0 25 24" fill="none" xmlns="http://www.w3.org/2000/svg">
<path d="M5.3806 14.1572V1.04199H20.3415V14.1572H22.0904L12.5954 22.9939L3.78664 14.1572H5.3806Z" fill="#FFD569"/>
<path fill-rule="evenodd" clip-rule="evenodd" d="M15.6699 14.6493C14.0905 15.9275 11.7872 15.9275 10.2072 14.6493C8.62719 13.3711 8.22641 11.1832 9.25568 9.45987H16.6208C17.6507 11.1832 17.2499 13.3711 15.6699 14.6493Z" fill="#FF7B5E"/>
<path d="M16.6208 9.45987L13.6515 5.05134C13.3964 4.67181 12.8699 4.56372 12.4759 4.81026C12.3769 4.87234 12.2921 4.95446 12.2269 5.05134L9.25568 9.45987H16.6208Z" fill="white"/>
<path fill-rule="evenodd" clip-rule="evenodd" d="M16.6208 9.45987C16.6639 9.53191 16.7044 9.60476 16.7425 9.67832C17.6152 11.3645 17.1839 13.4245 15.6699 14.6493C14.0905 15.9275 11.7872 15.9275 10.2072 14.6493C8.69324 13.4245 8.26198 11.3646 9.13406 9.67835C9.17211 9.60478 9.21265 9.53192 9.25568 9.45987L12.2269 5.05134C12.2921 4.95446 12.3769 4.87234 12.4759 4.81026C12.8699 4.56372 13.3964 4.67181 13.6515 5.05134L16.6208 9.45987ZM15.8496 9.20987L13.2368 5.33066C13.1362 5.18106 12.9127 5.12694 12.7413 5.23398C12.7017 5.25889 12.6678 5.2918 12.6416 5.3306L10.0271 9.20987H15.8496ZM9.67818 9.72761L9.69014 9.70987H16.1864L16.1983 9.72762C17.0897 11.2316 16.7421 13.1388 15.3554 14.2606C13.9595 15.3903 11.9184 15.3905 10.5217 14.2606C9.13504 13.1388 8.78736 11.2316 9.67818 9.72761Z" fill="#000202"/>
<path fill-rule="evenodd" clip-rule="evenodd" d="M5.1306 1.04199C5.1306 0.903921 5.24253 0.791992 5.3806 0.791992H20.3415C20.4796 0.791992 20.5915 0.903921 20.5915 1.04199V13.9072H22.0904C22.1931 13.9072 22.2854 13.9701 22.323 14.0657C22.3606 14.1613 22.3359 14.2702 22.2607 14.3402L12.7657 23.177C12.6671 23.2687 12.5134 23.2659 12.4183 23.1704L3.60959 14.3337C3.53825 14.2622 3.51701 14.1547 3.55575 14.0614C3.59449 13.9681 3.6856 13.9072 3.78664 13.9072H5.1306V1.04199ZM5.6306 1.29199V14.1572C5.6306 14.2953 5.51867 14.4072 5.3806 14.4072H4.38884L12.6019 22.6464L21.4548 14.4072H20.3415C20.2034 14.4072 20.0915 14.2953 20.0915 14.1572V1.29199H5.6306Z" fill="#000202"/>
</svg>
