<svg width="25" height="24" viewBox="0 0 25 24" fill="none" xmlns="http://www.w3.org/2000/svg">
<path d="M5.04062 14.1572V1.04199H20.0015V14.1572H21.7504L12.2554 22.9939L3.44666 14.1572H5.04062Z" fill="#B5E0FF"/>
<path fill-rule="evenodd" clip-rule="evenodd" d="M4.79062 1.04199C4.79062 0.903921 4.90255 0.791992 5.04062 0.791992H20.0015C20.1396 0.791992 20.2515 0.903921 20.2515 1.04199V13.9072H21.7504C21.8531 13.9072 21.9454 13.9701 21.983 14.0657C22.0206 14.1613 21.9959 14.2702 21.9207 14.3402L12.4257 23.177C12.3271 23.2687 12.1735 23.2659 12.0783 23.1704L3.26961 14.3337C3.19827 14.2622 3.17703 14.1547 3.21577 14.0614C3.25451 13.9681 3.34562 13.9072 3.44666 13.9072H4.79062V1.04199ZM5.29062 1.29199V14.1572C5.29062 14.2953 5.17869 14.4072 5.04062 14.4072H4.04886L12.2619 22.6464L21.1148 14.4072H20.0015C19.8634 14.4072 19.7515 14.2953 19.7515 14.1572V1.29199H5.29062Z" fill="#000202"/>
<path fill-rule="evenodd" clip-rule="evenodd" d="M12.3111 4.30347C12.4466 4.24008 12.6033 4.24067 12.7383 4.30507L15.5191 5.63173C15.6973 5.71679 15.8088 5.89884 15.8036 6.0963C15.7885 6.66406 15.7704 7.51484 15.7651 8.22233C15.7625 8.57697 15.7631 8.89076 15.7687 9.11377C15.769 9.1273 15.7694 9.14037 15.7697 9.15296C15.7949 9.16447 15.8213 9.1766 15.8487 9.18928C16.0439 9.27953 16.3045 9.40354 16.5884 9.54016C17.1568 9.81372 17.8263 10.1416 18.2693 10.3601C18.4401 10.4443 18.5482 10.6182 18.5482 10.8086V14.2255C18.5482 14.4182 18.4374 14.5938 18.2634 14.6768L15.519 15.9854C15.3836 16.0499 15.2265 16.0503 15.0909 15.9865L12.521 14.7771L9.89729 15.988C9.76194 16.0505 9.60578 16.0493 9.47139 15.9848L6.74512 14.6762C6.57176 14.593 6.46149 14.4178 6.46149 14.2255V10.8086C6.46149 10.6163 6.57176 10.441 6.74512 10.3578L9.18776 9.18535V6.08301C9.18776 5.88893 9.30006 5.71239 9.47585 5.63013L12.3111 4.30347ZM15.3038 8.99997C15.3345 8.99997 15.3636 9.00269 15.3908 9.0075C15.3659 9.00332 15.336 8.99997 15.3038 8.99997ZM10.1878 6.40108V9.49997C10.1878 9.69227 10.0775 9.86752 9.90412 9.95074L7.46149 11.1232V13.9108L9.69193 14.9814L12.3135 13.7715C12.4476 13.7096 12.6023 13.7101 12.7359 13.773L15.3024 14.9808L17.5482 13.9099V11.1198C17.1318 10.9152 16.6101 10.6604 16.1547 10.4412C15.8721 10.3052 15.617 10.1839 15.429 10.0969C15.3345 10.0532 15.2602 10.0197 15.2091 9.99777C15.1943 9.99142 15.183 9.98672 15.1748 9.98339C15.0652 9.95436 14.9875 9.89318 14.9438 9.84877C14.8875 9.79143 14.8579 9.73393 14.8451 9.70684C14.8186 9.65055 14.8071 9.59991 14.8028 9.58C14.7923 9.53164 14.7869 9.48146 14.7836 9.44417C14.7764 9.36322 14.7719 9.25683 14.769 9.13872C14.763 8.89901 14.7625 8.57212 14.7652 8.21489C14.7696 7.62435 14.7827 6.93764 14.7958 6.39463L12.5209 5.30935L10.1878 6.40108Z" fill="#000202"/>
<path d="M9.68658 9.50665C9.68946 8.42939 9.69118 7.3527 9.69692 6.27544C9.69692 6.1916 9.64983 6.08307 9.77502 6.03598C10.591 6.46149 11.4368 6.82498 12.266 7.22292C12.3671 7.27116 12.4877 7.29298 12.5296 7.42104C12.5583 7.54105 12.5486 7.66279 12.5491 7.78338C12.5555 8.76072 12.5377 9.73749 12.5595 10.7137C12.5836 10.8205 12.6755 10.8527 12.7593 10.89C13.5604 11.2506 14.3471 11.6417 15.1487 12.0017C15.2199 12.0339 15.298 12.0585 15.3221 12.1481C15.3451 12.2325 15.3428 12.3181 15.3434 12.4037C15.3439 13.3316 15.3445 14.2602 15.3428 15.1881C15.3428 15.3001 15.3617 15.4195 15.2716 15.5131C15.0654 15.4752 14.8914 15.3581 14.706 15.2731C13.9623 14.9314 13.2233 14.5806 12.482 14.2326C12.3878 14.1315 12.4148 14.0046 12.4142 13.8869C12.4085 12.8975 12.4194 11.9075 12.4073 10.9193C12.3769 10.7774 12.2523 10.7441 12.1437 10.6947C11.372 10.3433 10.6117 9.96661 9.83818 9.6192C9.78018 9.59336 9.71932 9.56809 9.68658 9.50665Z" fill="#E0E0E0"/>
<path d="M9.68657 15.5171C8.81143 15.1106 7.93688 14.7029 7.0606 14.298C6.97389 14.2579 6.9268 14.209 6.92737 14.1051C6.93024 13.0456 6.9291 11.9856 6.92967 10.9261C6.92967 10.8762 6.92622 10.8245 6.97848 10.7929C7.47175 10.9962 7.94549 11.2408 8.42957 11.4636C8.81029 11.6393 9.19387 11.811 9.56713 12.0028C9.63661 12.0384 9.71528 12.0603 9.73767 12.1504C9.76638 12.8929 9.74341 13.6348 9.74973 14.3767C9.75203 14.6696 9.75145 14.9619 9.74973 15.2547C9.74973 15.3466 9.75949 15.4425 9.68657 15.5177V15.5171Z" fill="#E0E0E0"/>
<path d="M15.2722 15.5135C15.2739 14.3719 15.2756 13.2304 15.2773 12.0888C15.4221 11.9297 15.6265 11.8717 15.8108 11.785C16.2047 11.6001 16.5998 11.4175 16.9932 11.2315C17.0747 11.193 17.1539 11.1315 17.255 11.1746C17.274 11.193 17.2872 11.2142 17.2964 11.2389C17.3165 11.3015 17.3187 11.3658 17.3187 11.4301C17.3205 12.4012 17.3205 13.3728 17.3187 14.3438C17.3187 14.4374 17.3124 14.5299 17.2504 14.608C16.6635 14.8836 16.0767 15.1598 15.4887 15.4337C15.4192 15.4659 15.356 15.5204 15.2716 15.5135H15.2722Z" fill="#EEEEEE"/>
<path d="M11.6665 14.6131C11.0383 14.9048 10.4101 15.1966 9.78188 15.4877C9.64521 15.4544 9.71642 15.3441 9.71642 15.2764C9.71068 14.2382 9.71297 13.1999 9.7124 12.1617C9.70378 12.0354 9.79738 11.99 9.88869 11.9498C10.4164 11.7196 10.9275 11.4526 11.4575 11.228C11.5408 11.193 11.639 11.108 11.7107 11.251C11.736 11.3274 11.7348 11.406 11.7354 11.4841C11.7366 12.4247 11.736 13.3653 11.7354 14.3059C11.7354 14.4133 11.7366 14.5207 11.6671 14.6126L11.6665 14.6131Z" fill="#EEEEEE"/>
<path d="M11.6689 11.1902C11.024 11.4911 10.3791 11.7914 9.73484 12.0923C9.72048 12.1084 9.7067 12.1078 9.69349 12.0906C9.37479 12.0274 9.11237 11.8322 8.82008 11.707C8.25274 11.4641 7.7009 11.185 7.14332 10.9197C7.08016 10.8898 7.00952 10.8663 6.97852 10.7928C7.59869 10.4666 8.24011 10.1853 8.87693 9.89412C9.02279 9.82292 9.14395 9.91307 9.25995 9.96935C9.79398 10.2283 10.3378 10.4672 10.8718 10.7273C11.0648 10.8215 11.2617 10.9059 11.4552 10.9989C11.5374 11.0386 11.6321 11.0638 11.6763 11.158C11.674 11.1689 11.6717 11.1793 11.6694 11.1902H11.6689Z" fill="#FAFAFA"/>
<path d="M12.4848 7.36133C12.1397 7.26658 11.8377 7.07364 11.5127 6.93237C10.9855 6.70326 10.4704 6.44657 9.95074 6.19965C9.87666 6.16462 9.78306 6.14453 9.77502 6.03542C10.4021 5.74428 11.0292 5.45257 11.6562 5.16144C11.7423 5.12871 11.8222 5.14536 11.9043 5.18211C12.7007 5.53928 13.4829 5.92689 14.2782 6.28694C14.3488 6.31909 14.4234 6.35584 14.4292 6.45117C14.331 6.60908 14.1547 6.64813 14.0037 6.71761C13.5965 6.90481 13.19 7.09373 12.7857 7.28782C12.6916 7.33319 12.6003 7.3998 12.4848 7.36075V7.36133Z" fill="#FAFAFA"/>
<path d="M17.2515 14.6075C17.2515 13.4671 17.2521 12.3267 17.2527 11.1868C17.4646 10.9657 17.7402 10.8738 18.0267 10.8044C18.0905 10.8624 18.0618 10.9382 18.0618 11.0059C18.0635 12.0114 18.0595 13.0169 18.0669 14.0224C18.0681 14.1803 18.025 14.2704 17.8746 14.329C17.6627 14.4111 17.4594 14.5139 17.2521 14.6081L17.2515 14.6075Z" fill="#EEEEEE"/>
<path d="M11.6666 14.6132C11.6671 13.4722 11.6683 12.3312 11.6689 11.1902L11.6637 11.1815C11.9032 11.0236 12.1374 10.8537 12.4389 10.8324C12.5136 10.903 12.4808 10.9943 12.4808 11.0765C12.4831 12.1285 12.4826 13.181 12.4831 14.233C12.2132 14.3645 11.9514 14.5132 11.6666 14.6132Z" fill="#EEEEEE"/>
<path d="M15.2446 6.06694C15.2963 6.13757 15.2727 6.21854 15.2727 6.29491C15.2744 7.36356 15.2744 8.43163 15.2744 9.50028C15.074 9.70413 14.7973 9.76041 14.5492 9.87009C14.4912 9.89593 14.4395 9.86377 14.4154 9.80003C14.3913 9.73112 14.3907 9.65934 14.3907 9.58756C14.3895 8.62974 14.3895 7.6725 14.3907 6.71467C14.3907 6.65036 14.3918 6.58605 14.4102 6.52403C14.6118 6.23347 14.9293 6.15192 15.244 6.06694H15.2446Z" fill="#EEEEEE"/>
<path d="M15.2446 6.06697C14.9828 6.19789 14.7209 6.32882 14.4597 6.45974C14.4436 6.47295 14.4286 6.47123 14.4154 6.45572C14.3184 6.31216 14.149 6.30068 14.01 6.23464C13.2945 5.8947 12.5767 5.55877 11.8601 5.22055C11.7946 5.18954 11.7298 5.16255 11.6562 5.1614C11.89 5.0098 12.1518 4.91448 12.401 4.79332C12.4711 4.75944 12.5377 4.77552 12.606 4.80767C13.4691 5.2148 14.3322 5.62021 15.1953 6.02677C15.2136 6.03538 15.228 6.05319 15.2441 6.06639L15.2446 6.06697Z" fill="#EEEEEE"/>
<path d="M14.4596 9.85453C14.7312 9.73624 15.0028 9.61852 15.2744 9.50023C16.1766 9.91999 17.0793 10.3398 17.9808 10.7607C17.9986 10.7693 18.0112 10.7894 18.0256 10.8043C17.7678 10.9318 17.5094 11.0593 17.2515 11.1868C17.2366 11.185 17.2217 11.1839 17.2067 11.1822C17.0178 11.1592 16.8616 11.0524 16.6962 10.9743C15.9515 10.6206 15.1952 10.2921 14.4619 9.91425C14.447 9.8953 14.4458 9.8752 14.4585 9.85453H14.4596Z" fill="#EEEEEE"/>
<path d="M12.4389 10.8324C12.1759 10.938 11.9364 11.096 11.6637 11.1815C11.4081 10.9937 11.1032 10.9047 10.823 10.7669C10.235 10.4775 9.63548 10.2105 9.03942 9.93658C8.98947 9.91361 8.93089 9.90787 8.87634 9.89466C9.13417 9.7402 9.41038 9.62305 9.68659 9.50763C10.0834 9.62937 10.4371 9.8493 10.8155 10.013C11.3122 10.2277 11.7969 10.4695 12.2861 10.7015C12.347 10.7302 12.4286 10.7428 12.4389 10.833V10.8324Z" fill="#EEEEEE"/>
<path d="M14.4596 9.85443C14.4584 9.86706 14.4567 9.87912 14.4544 9.89118C14.416 9.96813 14.3384 9.99397 14.269 10.0267C13.7544 10.2685 13.2348 10.4999 12.7266 10.7548C12.6617 10.787 12.5945 10.8082 12.521 10.7939C12.4618 10.7439 12.4831 10.675 12.4831 10.6136C12.4831 9.52941 12.4837 8.44584 12.4848 7.36168C13.1285 7.05964 13.7717 6.75816 14.4154 6.45612C14.4303 6.45726 14.4447 6.45899 14.4596 6.46014C14.4596 7.59195 14.4596 8.72319 14.4596 9.855V9.85443Z" fill="#EEEEEE"/>
<path d="M12.5215 10.7933C13.1658 10.4924 13.8107 10.1921 14.455 9.8912C14.7921 9.9693 15.0769 10.1674 15.3881 10.3035C15.9802 10.5619 16.5584 10.8525 17.1418 11.1304C17.1665 11.1419 17.1855 11.1643 17.2073 11.1821C16.5642 11.4841 15.921 11.7862 15.2779 12.0888C15.0786 12.0739 14.9178 11.955 14.7444 11.878C14.0473 11.5668 13.3594 11.2361 12.668 10.9116C12.61 10.8846 12.5485 10.8605 12.5215 10.7939V10.7933Z" fill="#FAFAFA"/>
</svg>
