<svg width="24" height="24" viewBox="0 0 24 24" fill="none" xmlns="http://www.w3.org/2000/svg">
<path d="M2.26508 22.6032C7.54866 23.3426 10.7261 20.6962 10.7261 20.6962C14.2648 23.2648 18.0957 21.28 18.0957 21.28C19.353 22.3016 20.7862 21.28 20.7862 21.28C21.8097 20.3168 21.3416 19.0907 21.3416 19.0907C22.6868 13.5157 20.1132 7.32791 20.1132 7.32791C20.3375 6.0858 20.3631 4.77197 20.3577 4.09159C20.355 3.77051 20.2287 3.46417 20.0078 3.2309C19.04 2.21067 17.8076 1.6 17.193 1.33858C16.9492 1.23468 16.6712 1.24741 16.4395 1.37477C15.2467 2.03035 14.3575 3.01841 13.9028 3.59488C13.6818 3.87508 13.5966 4.288 13.8068 4.57691C14.1446 5.04144 14.5355 5.35046 14.5355 5.35046C14.105 6.34589 14.4696 6.97398 14.7578 7.28032C14.8934 7.42511 15.0842 7.50555 15.283 7.50555H17.1212C17.1212 7.69793 17.097 7.89568 17.0634 8.078C16.9989 8.42456 16.8881 8.76106 16.7431 9.08282C14.9149 13.1376 16.1023 14.7859 16.1023 14.7859C13.9035 12.7522 11.7583 14.4648 11.7583 14.4648C8.54064 10.2364 4.30342 12.8058 4.30342 12.8058C3.23086 13.2341 2.26575 12.8058 2.26575 12.8058V22.6039L2.26508 22.6032Z" fill="#FFCCA9"/>
<path d="M21.7244 16.0683C21.3772 17.5926 20.8567 18.7857 20.486 19.082C20.171 19.3334 19.8688 19.3488 19.6364 19.2945C19.2797 19.2114 18.9077 19.2396 18.5746 19.391C14.5187 21.2284 11.9981 19.082 11.9981 19.082C11.9981 19.082 10.4044 17.4893 11.4474 15.406C11.7053 14.869 11.7577 14.4648 11.7577 14.4648C10.3547 17.0228 7.8388 16.8914 7.14905 16.8016C6.85354 16.7634 6.55602 16.746 6.25849 16.76C5.48815 16.7956 4.39208 17.0925 3.64994 17.9177C3.31011 18.2957 2.79968 18.5089 2.26575 18.6242V22.6039C7.54934 23.3433 10.7267 20.6968 10.7267 20.6968C10.7771 20.7337 10.8275 20.7686 10.8779 20.8034C10.9081 20.8242 10.9376 20.8436 10.9679 20.8637C10.986 20.8758 11.0041 20.8879 11.0223 20.8999C11.0625 20.9261 11.1022 20.9516 11.1425 20.9764C11.1492 20.9804 11.1552 20.9844 11.1619 20.9884C11.2069 21.0166 11.2526 21.0441 11.2976 21.0702C14.6651 23.0564 18.0957 21.28 18.0957 21.28C19.353 22.3016 20.7862 21.28 20.7862 21.28C21.8097 20.3168 21.3416 19.0907 21.3416 19.0907C21.5834 18.0899 21.6976 17.069 21.7244 16.0676V16.0683Z" fill="#ED927A"/>
<path d="M18.541 6.9217L16.1078 6.80976C16.1078 6.80976 15.2924 6.71926 15.3831 5.59781L14.5355 5.35046C14.105 6.34589 14.4697 6.97399 14.7578 7.28032C14.8935 7.42511 15.0842 7.50555 15.283 7.50555H17.1212C17.1212 7.69794 17.097 7.89568 17.0635 8.07801C16.999 8.42457 16.8882 8.76107 16.7431 9.08282C16.7035 9.17063 16.6659 9.25644 16.6289 9.34224C16.6209 9.36034 16.6128 9.37911 16.6054 9.3972C16.5692 9.48301 16.5336 9.56747 16.5 9.65059C16.5 9.65193 16.4986 9.65394 16.498 9.65528C16.4637 9.74041 16.4308 9.82353 16.3992 9.90598C16.3952 9.91603 16.3918 9.92609 16.3878 9.93614C16.3556 10.0213 16.3247 10.1051 16.2951 10.1875C15.1326 13.4393 16.1017 14.7859 16.1017 14.7859C16.1017 14.7859 16.5577 15.2505 17.0803 15.7458C17.2475 15.904 17.5148 15.7324 17.4389 15.5152C17.1111 14.5741 16.7317 13.0304 17.1017 11.6227C17.1582 11.4082 17.2052 11.2031 17.2455 11.006C17.2455 11.006 17.8674 8.99903 18.1004 7.75826C18.1119 7.69659 18.1488 7.6423 18.2025 7.60945L18.6471 7.33462C18.8338 7.21932 18.7593 6.9331 18.5403 6.92304L18.541 6.9217Z" fill="#ED927A"/>
<path d="M9.0061 13.8515C8.94901 14.1505 8.45671 14.3073 7.90599 14.2027C7.35594 14.0982 6.95566 13.7711 7.01342 13.4721C7.0705 13.1731 7.5628 13.0163 8.11352 13.1208C8.66357 13.2254 9.06385 13.5525 9.0061 13.8515Z" fill="white"/>
<path d="M14.5899 15.2277C14.557 15.4 14.2736 15.4904 13.9566 15.4301C13.6396 15.3698 13.4099 15.1814 13.4428 15.0092C13.4757 14.8369 13.7591 14.7464 14.0761 14.8067C14.3931 14.867 14.6228 15.0554 14.5899 15.2277Z" fill="white"/>
<path d="M21.4946 11.0635C21.0722 9.06866 20.5255 7.63618 20.3912 7.29901C20.6074 6.05623 20.6316 4.75982 20.6262 4.0895C20.6229 3.70138 20.4724 3.33137 20.2024 3.04648C19.2091 1.99943 17.9566 1.37268 17.2984 1.09182C16.976 0.9544 16.6154 0.971829 16.3098 1.14008C15.0606 1.82716 14.1331 2.86884 13.6912 3.42923C13.3694 3.83746 13.3271 4.37439 13.5891 4.73435C13.8147 5.04471 14.0612 5.28871 14.2157 5.42881C13.8409 6.47317 14.264 7.14684 14.5622 7.46391C14.7476 7.66098 15.0102 7.7736 15.2829 7.7736H16.837C16.8283 7.85537 16.8155 7.94051 16.7987 8.02899C16.7409 8.34002 16.6395 8.65775 16.4978 8.97213C15.3662 11.4825 15.3601 13.1141 15.5435 14.027C13.8933 13.0376 12.3734 13.7609 11.8153 14.1021C10.1155 12 8.16108 11.6755 6.80307 11.7808C5.39067 11.8907 4.34832 12.4672 4.18512 12.5624C3.24419 12.9284 2.38251 12.5624 2.37445 12.559C2.23878 12.4987 2.08028 12.5597 2.01984 12.6951C1.95939 12.8305 2.02051 12.9887 2.15618 13.049C2.19983 13.0685 3.23882 13.5176 4.40273 13.0531C4.41616 13.0477 4.42959 13.041 4.44235 13.0336C4.45243 13.0276 5.47999 12.4169 6.86486 12.3137C8.65807 12.1816 10.2028 12.9223 11.458 14.5157C11.3889 14.7108 11.225 15.1163 10.9134 15.5802C10.8307 15.7028 10.8637 15.8698 10.9872 15.9522C11.0329 15.983 11.0853 15.9978 11.1363 15.9978C11.223 15.9978 11.3083 15.9562 11.36 15.8791C11.7381 15.3154 11.9228 14.8254 11.9879 14.6276C12.1417 14.5204 12.5716 14.2503 13.1619 14.1236C14.1445 13.9124 15.07 14.1993 15.9122 14.9749L16.5039 15.6305C16.5569 15.6894 16.6301 15.7189 16.7033 15.7189C16.7671 15.7189 16.8316 15.6961 16.8833 15.6499C16.9935 15.5507 17.0022 15.3811 16.9028 15.2712L16.3158 14.6209C16.2319 14.4842 15.3312 12.868 16.9881 9.192C17.1473 8.83807 17.2615 8.47945 17.3273 8.12619C17.3689 7.90297 17.3897 7.69383 17.3897 7.5048C17.3897 7.35665 17.2695 7.23667 17.1211 7.23667H15.2829C15.158 7.23667 15.0377 7.18572 14.9538 7.0959C14.7046 6.83045 14.4749 6.37664 14.6986 5.67951L15.25 5.9101C15.3964 5.9711 15.5508 6.00126 15.704 6.00126C15.9693 6.00126 16.2312 5.91144 16.4448 5.73849L17.0768 5.2257C17.2514 5.08426 17.3582 4.87445 17.3696 4.64989C17.381 4.426 17.2964 4.20614 17.1372 4.04727C16.8739 3.7845 16.4689 3.73825 16.1526 3.93533L15.7779 4.16927C15.6523 4.2477 15.614 4.41327 15.6926 4.53862C15.7711 4.66397 15.937 4.70218 16.0626 4.62375L16.4374 4.38981C16.5401 4.32545 16.6718 4.34087 16.7577 4.426C16.8101 4.47829 16.837 4.548 16.833 4.62174C16.8289 4.69547 16.7954 4.7625 16.7376 4.80876L16.1056 5.32155C15.9229 5.4697 15.6744 5.50522 15.4575 5.41473L14.6106 5.0608C14.483 4.94751 14.2412 4.71759 14.0236 4.41796C13.8886 4.23161 13.9665 3.94605 14.1129 3.7597C14.5293 3.23149 15.4024 2.24946 16.5683 1.60864C16.7282 1.52082 16.9176 1.51144 17.0868 1.58383C17.7067 1.84794 18.8854 2.43715 19.8122 3.41382C19.9882 3.59949 20.0869 3.84081 20.0889 4.09218C20.0943 4.75714 20.0701 6.05623 19.8492 7.2789C19.8398 7.32984 19.8458 7.38146 19.8653 7.42905C19.8908 7.49005 22.3899 13.5987 21.0802 19.0263C21.0675 19.0779 21.0715 19.1336 21.0897 19.1832C21.1058 19.2267 21.4718 20.2483 20.6155 21.0688C20.4845 21.1566 19.5711 21.7331 18.6537 21.3134C18.9143 21.1894 19.2145 21.04 19.3475 20.9515C19.4711 20.869 19.504 20.7028 19.422 20.5794C19.3394 20.4561 19.1729 20.4226 19.0493 20.505C18.8733 20.6223 18.2198 20.926 17.9834 21.0333C17.9814 21.0339 17.9801 21.0353 17.9787 21.0359C17.976 21.0373 17.9734 21.0379 17.9707 21.0393C17.9337 21.0587 14.2479 22.9195 10.8831 20.4769C10.7837 20.4045 10.6474 20.4092 10.5527 20.4876C10.5218 20.5131 7.40753 23.0496 2.30124 22.335C2.15416 22.3142 2.0185 22.4168 1.99768 22.5636C1.97686 22.7104 2.07961 22.8458 2.2267 22.8666C2.88353 22.9584 3.50746 22.998 4.0958 22.998C6.00453 22.998 7.53648 22.5804 8.57412 22.1741C9.68699 21.7384 10.4217 21.2524 10.7313 21.0266C12.5796 22.2941 14.4823 22.3759 15.7698 22.215C16.888 22.0749 17.7289 21.7398 18.062 21.5896C19.1527 22.3545 20.41 21.8745 20.9406 21.4958C20.9506 21.4884 20.96 21.481 20.9688 21.473C21.9621 20.5386 21.7143 19.3957 21.6189 19.0773C22.3012 16.1707 21.9285 13.1181 21.4933 11.0615L21.4946 11.0635Z" fill="#000202"/>
<path d="M4.02605 19.6156C4.1053 19.6156 4.18388 19.5808 4.23694 19.5137C5.13891 18.3722 6.90056 18.3098 6.91802 18.3092C6.92071 18.3092 6.92339 18.3092 6.92608 18.3092C7.64806 18.2689 8.32236 18.1228 8.93085 17.8734C9.06786 17.8171 9.13367 17.661 9.07726 17.5235C9.02084 17.3868 8.86436 17.3211 8.72668 17.3774C8.17461 17.6033 7.56008 17.7367 6.89989 17.7736C6.76892 17.7776 4.86019 17.8587 3.81516 19.1819C3.72315 19.2979 3.7433 19.4668 3.85949 19.5586C3.90852 19.5975 3.96762 19.6163 4.02538 19.6163L4.02605 19.6156Z" fill="#000202"/>
</svg>
