<svg width="24" height="24" viewBox="0 0 24 24" fill="none" xmlns="http://www.w3.org/2000/svg">
<path d="M22.7442 12.1493C22.7442 11.3925 22.4457 10.7103 21.9448 10.2093C22.2112 9.55911 22.2219 8.81297 21.9448 8.10947C21.657 7.40596 21.1133 6.89432 20.4631 6.61718C20.4631 5.91368 20.186 5.21017 19.653 4.67722C19.1201 4.14426 18.4166 3.86712 17.7131 3.86712C17.4359 3.21691 16.9243 2.68395 16.2208 2.38549C15.5173 2.0977 14.7711 2.11902 14.1209 2.38549C13.62 1.89517 12.9378 1.58606 12.181 1.58606C11.4242 1.58606 10.742 1.88451 10.241 2.38549C9.5908 2.11902 8.84465 2.10836 8.14115 2.38549C7.43765 2.67329 6.92601 3.21691 6.64887 3.86712C5.94536 3.86712 5.25252 4.14426 4.7089 4.67722C4.17594 5.21017 3.8988 5.91368 3.8988 6.61718C3.2486 6.89432 2.71564 7.40596 2.41718 8.10947C2.12938 8.81297 2.14004 9.55911 2.41718 10.2093C1.92686 10.7103 1.61774 11.3925 1.61774 12.1493C1.61774 12.9061 1.9162 13.5883 2.41718 14.0893C2.1507 14.7395 2.14004 15.4856 2.41718 16.1891C2.70498 16.8926 3.2486 17.4043 3.8988 17.6814C3.8988 18.3849 4.17594 19.0884 4.7089 19.6214C5.24186 20.1543 5.94536 20.4315 6.64887 20.4315C6.92601 21.0817 7.43765 21.6146 8.14115 21.9131C8.84465 22.2115 9.5908 22.1902 10.241 21.9131C10.742 22.4034 11.4242 22.7125 12.181 22.7125C12.9378 22.7125 13.62 22.4141 14.1209 21.9131C14.7711 22.1796 15.5173 22.1902 16.2208 21.9131C16.9243 21.6253 17.4359 21.0817 17.7131 20.4315C18.4166 20.4315 19.1094 20.1543 19.653 19.6214C20.186 19.0884 20.4631 18.3849 20.4631 17.6814C21.1133 17.4043 21.6463 16.8926 21.9448 16.1891C22.2326 15.4856 22.2112 14.7395 21.9448 14.0893C22.4351 13.5883 22.7442 12.9061 22.7442 12.1493Z" fill="#FFB843"/>
<path d="M12.1703 22.9897C11.4242 22.9897 10.7206 22.7232 10.1664 22.2329C9.46287 22.4674 8.70607 22.4461 8.02388 22.1689C7.3417 21.8812 6.78742 21.3695 6.45699 20.7086C5.7215 20.666 5.02866 20.3462 4.50636 19.8239C3.98406 19.3016 3.67494 18.6088 3.62165 17.8733C2.96078 17.5429 2.43848 16.9993 2.16134 16.3064C1.87355 15.6242 1.85223 14.8674 2.08673 14.1639C1.59641 13.6096 1.32993 12.9061 1.32993 12.16C1.32993 11.4139 1.59641 10.7104 2.08673 10.1561C1.85223 9.45257 1.87355 8.70643 2.16134 8.01359C2.44914 7.3314 2.96078 6.77712 3.62165 6.44669C3.66429 5.71121 3.98406 5.01836 4.50636 4.49606C5.02866 3.97376 5.7215 3.66465 6.45699 3.61135C6.78742 2.95048 7.33104 2.42818 8.02388 2.15105C8.70607 1.86325 9.46287 1.84193 10.1664 2.08709C10.7206 1.59677 11.4242 1.33029 12.1703 1.33029C12.9164 1.33029 13.6199 1.59677 14.1742 2.08709C14.8777 1.85259 15.6239 1.87391 16.3167 2.15105C16.9989 2.43884 17.5532 2.95048 17.8836 3.61135C18.6191 3.65399 19.3119 3.97376 19.8342 4.49606C20.3565 5.01836 20.6656 5.71121 20.7189 6.44669C21.3798 6.77712 21.9021 7.32074 22.1792 8.01359C22.467 8.69577 22.4884 9.45257 22.2432 10.1561C22.7335 10.7104 23 11.4139 23 12.16C23 12.9061 22.7335 13.6096 22.2432 14.1639C22.4777 14.8674 22.4564 15.6136 22.1686 16.3064C21.8808 16.9886 21.3692 17.5429 20.7083 17.8733C20.6656 18.6088 20.3459 19.3016 19.8236 19.8239C19.3013 20.3462 18.6084 20.6553 17.8729 20.7086C17.5425 21.3695 16.9989 21.8918 16.306 22.1689C15.6239 22.4567 14.8671 22.4781 14.1636 22.2329C13.6093 22.7232 12.9058 22.9897 12.1596 22.9897H12.1703ZM10.2303 21.6786C10.2943 21.6786 10.3582 21.6999 10.4115 21.7532C10.8912 22.2222 11.5094 22.4781 12.1703 22.4781C12.8312 22.4781 13.4601 22.2222 13.9291 21.7532C14.0037 21.6786 14.1103 21.6573 14.2062 21.6999C14.8244 21.9451 15.496 21.9451 16.1142 21.6999C16.7218 21.4441 17.2014 20.9751 17.4679 20.3569C17.5105 20.261 17.6065 20.197 17.7024 20.197C18.3633 20.197 18.9922 19.9305 19.4612 19.4615C19.9302 18.9925 20.186 18.3743 20.1966 17.7028C20.1966 17.5962 20.2606 17.5109 20.3565 17.4683C20.9641 17.2124 21.4438 16.7221 21.6996 16.1145C21.9554 15.507 21.9554 14.8248 21.6996 14.2066C21.6569 14.1106 21.6783 14.004 21.7529 13.9294C22.2219 13.4498 22.4777 12.8315 22.4777 12.1707C22.4777 11.5098 22.2219 10.8809 21.7529 10.4119C21.6783 10.3373 21.6569 10.2307 21.6996 10.1348C21.9447 9.51652 21.9447 8.845 21.6996 8.22677C21.4438 7.61919 20.9748 7.13953 20.3565 6.87306C20.2606 6.83042 20.1966 6.73449 20.1966 6.63855C20.1966 5.97768 19.9302 5.34879 19.4612 4.87979C18.9922 4.41079 18.3739 4.15497 17.7024 4.14431C17.5958 4.14431 17.5105 4.08035 17.4679 3.98442C17.2121 3.37685 16.7218 2.89719 16.1142 2.64137C15.5066 2.38555 14.8244 2.38555 14.2062 2.64137C14.1103 2.684 14.0037 2.66269 13.9291 2.58807C13.4494 2.11907 12.8312 1.86325 12.1703 1.86325C11.5094 1.86325 10.8805 2.11907 10.4115 2.58807C10.3369 2.66269 10.2303 2.684 10.1344 2.64137C9.51616 2.39621 8.84464 2.39621 8.22641 2.64137C7.61883 2.89719 7.13917 3.36619 6.87269 3.98442C6.83006 4.08035 6.73412 4.14431 6.63819 4.14431C5.97732 4.14431 5.34843 4.41079 4.87943 4.87979C4.41043 5.34879 4.15461 5.96703 4.14395 6.63855C4.14395 6.74514 4.07999 6.83042 3.98406 6.87306C3.37649 7.12888 2.89683 7.61919 2.64101 8.22677C2.38519 8.83434 2.38519 9.51652 2.64101 10.1348C2.68364 10.2307 2.66232 10.3373 2.58771 10.4119C2.11871 10.8916 1.86289 11.5098 1.86289 12.1707C1.86289 12.8315 2.11871 13.4604 2.58771 13.9294C2.66232 14.004 2.68364 14.1106 2.64101 14.2066C2.39585 14.8248 2.39585 15.4963 2.64101 16.1145C2.89683 16.7221 3.36583 17.2018 3.98406 17.4683C4.07999 17.5109 4.14395 17.6068 4.14395 17.7028C4.14395 18.3636 4.41043 18.9925 4.87943 19.4615C5.34843 19.9305 5.96666 20.1863 6.63819 20.197C6.74478 20.197 6.83006 20.261 6.87269 20.3569C7.12851 20.9645 7.61883 21.4441 8.22641 21.6999C8.83398 21.9558 9.51616 21.9558 10.1344 21.6999C10.1664 21.6893 10.1983 21.6786 10.2303 21.6786Z" fill="#000202"/>
<path d="M13.7159 5.61529C15.5492 5.61529 17.2441 6.23352 18.6084 7.2568C17.1375 5.31683 14.8031 4.05905 12.1703 4.05905C7.70411 4.05905 4.09065 7.67251 4.09065 12.1387C4.09065 14.7608 5.34843 17.0952 7.2884 18.5768C6.25446 17.2231 5.63623 15.5283 5.63623 13.6843C5.63623 9.21809 9.24969 5.60463 13.7159 5.60463V5.61529Z" fill="#FFB843"/>
<path d="M20.25 12.1494C20.25 10.316 19.6318 8.62118 18.6085 7.2568C17.2548 6.22286 15.56 5.6153 13.7159 5.6153C9.24973 5.6153 5.63628 9.22875 5.63628 13.6949C5.63628 15.5283 6.25451 17.2231 7.28845 18.5875C8.64216 19.6214 10.337 20.229 12.1703 20.229C16.6365 20.229 20.25 16.6155 20.25 12.1494Z" fill="#FFE954"/>
<path d="M12.1702 20.5595C10.3262 20.5595 8.58877 19.9732 7.12847 18.8646C5.02861 17.2764 3.83479 14.8461 3.83479 12.224C3.83479 7.62989 7.57615 3.87787 12.1809 3.87787C14.8031 3.87787 17.2227 5.08235 18.8216 7.17155C19.9301 8.63185 20.5164 10.38 20.5164 12.2133C20.5164 13.226 20.3352 14.2173 19.9834 15.1659C19.9301 15.3045 19.7809 15.3684 19.6423 15.3151C19.5037 15.2619 19.4398 15.1126 19.4931 14.9741C19.8235 14.0893 19.9941 13.162 19.9941 12.2133C19.9941 10.4865 19.4398 8.8557 18.4059 7.48067C16.9136 5.51938 14.6432 4.38951 12.1809 4.38951C7.86395 4.38951 4.35708 7.89637 4.35708 12.2133C4.35708 14.6756 5.48696 16.946 7.44824 18.4383C8.82327 19.4829 10.4541 20.0265 12.1809 20.0265C14.1955 20.0265 16.1141 19.259 17.5744 17.8733C17.8729 17.5855 18.1607 17.2764 18.4059 16.946C18.4911 16.8287 18.6617 16.8074 18.7683 16.8927C18.8855 16.978 18.9068 17.1379 18.8216 17.2551C18.5551 17.6069 18.2566 17.9373 17.9369 18.2464C16.3806 19.728 14.3341 20.5488 12.1809 20.5488L12.1702 20.5595Z" fill="#000202"/>
<path d="M15.3468 8.75975C15.3468 8.75975 16.0503 9.92159 15.4747 10.4972C14.8991 11.0728 15.4747 11.4672 16.2528 12.1707C17.0309 12.8742 16.7005 14.7502 17.4786 14.2919C18.2567 13.8335 17.4786 12.5544 17.7984 11.4565C18.1182 10.3586 17.9263 9.46325 16.9563 8.81304C15.9863 8.16284 14.8991 6.88373 14.3768 7.39537C13.8652 7.90701 14.4408 8.09888 15.3468 8.74909V8.75975Z" fill="#FFB843"/>
<path d="M12.8312 15.4537C12.8312 15.4537 14.121 16.0293 14.6326 15.5816C15.1443 15.1339 16.0503 14.6116 16.2421 15.3897C16.434 16.1678 15.0163 16.2957 14.5687 17.0632C14.121 17.8413 12.8312 18.8006 11.9891 18.225C11.1471 17.6495 11.4135 15.006 12.8312 15.4537Z" fill="#FFB843"/>
<path d="M8.62079 10.4225C8.62079 10.4225 9.74 11.1367 10.2516 10.3159C10.7633 9.50584 11.68 9.70836 11.8825 9.04749C12.085 8.38662 11.4774 6.91566 10.0065 7.21412C8.53552 7.52323 7.30971 9.34595 8.63145 10.4225H8.62079Z" fill="#FFB843"/>
<path d="M6.71277 10.4226C6.99534 10.4226 7.22441 10.1935 7.22441 9.91096C7.22441 9.62839 6.99534 9.39932 6.71277 9.39932C6.43019 9.39932 6.20113 9.62839 6.20113 9.91096C6.20113 10.1935 6.43019 10.4226 6.71277 10.4226Z" fill="#FFB843"/>
<path d="M15.7304 13.9721C15.7304 13.7269 15.5279 13.5244 15.2827 13.5244C15.0375 13.5244 14.835 13.7269 14.835 13.9721C14.835 14.2173 15.0375 14.4198 15.2827 14.4198C15.5279 14.4198 15.7304 14.2173 15.7304 13.9721Z" fill="#FFB843"/>
</svg>
