<svg width="25" height="24" viewBox="0 0 25 24" fill="none" xmlns="http://www.w3.org/2000/svg">
<g clip-path="url(#clip0_9897_10143)">
<path d="M19.6518 7.32864C18.6837 6.53877 17.423 6.31217 16.282 6.68445C16.4882 5.43167 16.5448 2.98438 14.1796 1.89022C13.012 1.34961 11.6381 1.34961 10.4738 1.89022C8.10862 2.98438 8.16517 5.43167 8.37141 6.68445C7.22375 6.3057 5.95633 6.52583 4.99163 7.31246C3.93046 8.18001 3.56121 9.48135 4.02693 10.7147C4.51261 11.9966 5.67025 12.9354 6.54513 13.4922C5.72015 13.7641 5.14798 14.3954 4.89516 15.0557C4.47601 16.1596 4.85857 17.3185 5.87317 18.0015C6.50854 18.4321 7.267 18.7331 7.96225 18.9403C8.95689 19.2381 9.99477 19.3676 11.0327 19.3676H14.5987H14.6187C14.7218 19.3579 17.1768 19.1022 18.8101 17.9886C19.8048 17.3088 20.1707 16.1596 19.7416 15.0622C19.4854 14.4051 18.9166 13.7771 18.1016 13.5019C18.9732 12.9483 20.1341 12.016 20.6264 10.7374C21.1021 9.50725 20.7296 8.20267 19.6584 7.32864H19.6518Z" fill="#72CE9C"/>
<path d="M10.2309 3.89078C10.1711 3.89078 10.1112 3.87459 10.0546 3.84222C9.89162 3.74835 9.8384 3.5444 9.93487 3.38578C9.9515 3.35665 9.97146 3.32428 9.99142 3.29514C10.0945 3.13976 10.3074 3.09768 10.4638 3.19803C10.6235 3.29838 10.6667 3.50556 10.5636 3.6577L10.5203 3.72569C10.4571 3.82927 10.344 3.88754 10.2276 3.88754L10.2309 3.89078Z" fill="white"/>
<path d="M9.46251 5.56115C9.46251 5.56115 9.45253 5.56115 9.4492 5.56115C9.26291 5.55468 9.11322 5.40253 9.11987 5.21801C9.11987 5.19859 9.13983 4.76157 9.386 4.26305C9.46916 4.09796 9.67208 4.02998 9.84506 4.11091C10.0147 4.19183 10.0846 4.3893 10.0014 4.5544C9.81845 4.91696 9.80182 5.23744 9.80182 5.24067C9.79516 5.41872 9.64214 5.56115 9.45918 5.56115H9.46251Z" fill="white"/>
<path opacity="0.2" d="M18.0949 13.5051C18.9099 13.7803 19.4788 14.4083 19.7349 15.0654C20.1674 16.1661 19.7981 17.3153 18.8035 17.9951C17.1702 19.1087 14.7185 19.3644 14.6154 19.3709H14.5954H11.0293C9.99144 19.3709 8.95023 19.2381 7.95892 18.9403C7.29693 18.7429 6.58172 18.4612 5.96964 18.0663C12.0905 19.7302 15.0212 18.95 16.4283 17.8397C17.9885 16.6063 17.5594 14.2044 15.6466 13.5958C15.2008 13.4566 14.8648 13.4145 14.8648 13.4145C17.3099 12.7315 18.1681 11.1711 18.4675 10.1612C18.6638 9.50401 18.6638 8.79831 18.4309 8.15412C17.8587 6.5582 16.2853 6.68445 16.2853 6.68445C17.4263 6.31218 18.6871 6.53554 19.6551 7.32864C20.4169 7.95341 20.826 8.79508 20.826 9.66911C20.826 10.0252 20.7595 10.3845 20.6231 10.7406C20.1275 12.0193 18.9665 12.9548 18.0983 13.5051H18.0949Z" fill="black"/>
<path d="M12.3267 1.48557C12.9621 1.48557 13.5974 1.62153 14.1796 1.89022C16.5448 2.98438 16.4882 5.4349 16.282 6.68445C16.6412 6.56791 17.0105 6.50964 17.3797 6.50964C18.1848 6.50964 18.9898 6.78804 19.6518 7.32864C20.7229 8.20267 21.0922 9.51048 20.6198 10.7374C20.1275 12.016 18.9632 12.9516 18.0949 13.5019C18.9099 13.7771 19.4788 14.4051 19.7349 15.0622C20.1641 16.1628 19.7981 17.312 18.8035 17.9886C18.2313 18.3771 17.5594 18.6619 16.924 18.8691C15.8562 19.2122 14.7351 19.3676 13.6141 19.3676H11.0327C9.99144 19.3676 8.95023 19.2349 7.95559 18.9403C7.26034 18.7331 6.50521 18.4321 5.86984 18.0015C4.85524 17.3153 4.47269 16.1596 4.89183 15.0557C5.14465 14.3954 5.71682 13.7641 6.5418 13.4922C5.66692 12.9354 4.50928 11.9966 4.0236 10.7147C3.55788 9.48135 3.92713 8.17678 4.9883 7.31246C5.64696 6.77509 6.44201 6.50317 7.24703 6.50317C7.62293 6.50317 8.00216 6.56467 8.36808 6.68445C8.16184 5.43167 8.10529 2.98761 10.4705 1.89022C11.0526 1.62153 11.688 1.48557 12.3234 1.48557M12.3267 1C11.6115 1 10.8963 1.15538 10.2576 1.4532C8.52111 2.25602 7.64622 3.91344 7.79259 6.0532C7.61296 6.0273 7.42999 6.01759 7.24703 6.01759C6.31227 6.01759 5.39747 6.34455 4.66563 6.94018C3.44145 7.94046 3.01565 9.45222 3.55456 10.883C3.96372 11.9675 4.79536 12.8156 5.58708 13.4242C5.06149 13.7835 4.64567 14.295 4.42279 14.8874C3.92048 16.2082 4.37622 17.5872 5.58376 18.403C6.17921 18.8044 6.92768 19.141 7.80922 19.4065C8.80719 19.7043 9.89165 19.8564 11.0327 19.8564H13.6141C14.8416 19.8564 16.0059 19.6816 17.0837 19.332C17.8721 19.0763 18.5507 18.759 19.0929 18.39C20.2805 17.5807 20.7163 16.2082 20.204 14.8939C19.9744 14.308 19.5653 13.7997 19.0463 13.4436C19.8381 12.8383 20.673 11.9934 21.0888 10.9122C21.641 9.48459 21.2152 7.9696 19.9744 6.95961C19.2359 6.35749 18.3145 6.0273 17.3797 6.0273C17.2034 6.0273 17.0304 6.03702 16.8575 6.05968C17.0072 3.91344 16.1323 2.25602 14.3925 1.4532C13.7571 1.15538 13.0419 1 12.3267 1Z" fill="#000202"/>
<path d="M13.5575 11.8186C13.4444 11.2424 12.9288 10.8248 12.3267 10.8248C11.7246 10.8248 11.2089 11.2424 11.0958 11.8186L9.26622 21.2225C9.14314 21.8473 9.31612 22.4915 9.73194 22.9803C10.1478 23.4723 10.7698 23.7572 11.4252 23.7572H13.2315C13.8868 23.7572 14.5056 23.4723 14.9247 22.9803C15.3405 22.4915 15.5102 21.8473 15.3904 21.2225L13.5608 11.8186H13.5575Z" fill="white"/>
<path d="M13.8103 16.807C13.6473 16.807 13.4843 16.7455 13.3646 16.6193C13.135 16.3797 13.1483 16.0042 13.3912 15.7809L15.4936 13.8612C15.7397 13.6379 16.1256 13.6508 16.3551 13.8871C16.5847 14.1267 16.5714 14.5022 16.3285 14.7256L14.2261 16.6452C14.1097 16.752 13.96 16.807 13.8103 16.807Z" fill="white"/>
<path d="M11.332 14.9716C11.1823 14.9716 11.0326 14.9198 10.9162 14.8097L8.81383 12.8901C8.56766 12.6667 8.55436 12.2912 8.78721 12.0517C9.01675 11.8121 9.40263 11.7992 9.64879 12.0258L11.7512 13.9454C11.9973 14.1688 12.0106 14.5443 11.7778 14.7838C11.658 14.9068 11.495 14.9716 11.332 14.9716Z" fill="white"/>
<path d="M15.427 21.6207C15.427 22.1127 15.2507 22.5951 14.9247 22.9803C14.5089 23.4723 13.8868 23.7572 13.2315 23.7572H12.3267C12.9354 23.5274 13.2348 23.0515 13.3812 22.6307C13.5043 22.2843 13.5309 21.912 13.4876 21.5495L12.3233 10.8248C12.9254 10.8248 13.4411 11.2424 13.5542 11.8153L15.3838 21.2193C15.4071 21.352 15.4237 21.4847 15.4237 21.6175L15.427 21.6207Z" fill="#FFE7ED"/>
<path d="M13.2315 24H11.4252C10.6933 24 10.0047 23.686 9.53902 23.1357C9.07331 22.5886 8.88702 21.8764 9.02008 21.1772L10.3008 14.5863L8.63753 13.0681C8.4712 12.916 8.37473 12.7088 8.36808 12.4854C8.36142 12.2621 8.44459 12.0484 8.60094 11.8866C8.75728 11.7247 8.97018 11.6308 9.19972 11.6243C9.42925 11.6179 9.6488 11.6988 9.81513 11.851L10.6834 12.6408L10.853 11.7733C10.9861 11.0837 11.6081 10.582 12.33 10.582C13.0519 10.582 13.6706 11.0837 13.807 11.7733L14.3526 14.5766L15.3306 13.6832C15.6765 13.3692 16.2221 13.3854 16.5448 13.722C16.8674 14.0587 16.8508 14.5863 16.5048 14.9036L14.7318 16.5222L15.6366 21.1772C15.773 21.8732 15.5834 22.5886 15.1177 23.1357C14.6519 23.686 13.9633 24 13.2315 24ZM9.22965 12.1099H9.21635C9.11988 12.1099 9.03006 12.152 8.96686 12.22C8.90033 12.288 8.86706 12.3786 8.87039 12.4725C8.87039 12.5664 8.91363 12.6538 8.98349 12.7153L10.8464 14.4148L9.51241 21.2678C9.40596 21.8214 9.55566 22.3911 9.92491 22.8249C10.2942 23.2619 10.843 23.5112 11.4252 23.5112H13.2315C13.8137 23.5112 14.3625 23.2619 14.7318 22.8249C15.101 22.3911 15.2507 21.8214 15.1443 21.2678L14.1862 16.3506L16.1589 14.5507C16.3052 14.418 16.3119 14.1979 16.1755 14.0555C16.0391 13.913 15.8129 13.9065 15.6665 14.0393L14.0265 15.5348L13.3113 11.8639C13.2215 11.4042 12.8057 11.0676 12.3267 11.0676C11.8477 11.0676 11.4318 11.401 11.342 11.8639L11.006 13.599L9.47582 12.2038C9.40929 12.1423 9.3228 12.1099 9.22965 12.1099Z" fill="#000202"/>
<path d="M12.3267 24C12.2302 24 12.1371 23.945 12.0971 23.8511C12.0439 23.7281 12.1038 23.5856 12.2335 23.5338C13.4544 23.045 13.2548 21.6466 13.2448 21.5883L12.9887 19.2284C12.9754 19.0957 13.0752 18.9759 13.2115 18.9597C13.3513 18.9436 13.471 19.0439 13.4843 19.1766L13.7405 21.5268C13.8403 22.1451 13.6939 23.4723 12.4232 23.9838C12.3932 23.9968 12.3599 24.0032 12.3267 24.0032V24Z" fill="#000202"/>
<path d="M13.0885 18.0857C12.962 18.0857 12.8556 17.9918 12.839 17.8688L12.7525 17.0595C12.7392 16.9268 12.839 16.807 12.9754 16.7941C13.1151 16.7779 13.2348 16.8783 13.2481 17.011L13.3346 17.8203C13.3479 17.953 13.2481 18.0728 13.1117 18.0857C13.1018 18.0857 13.0951 18.0857 13.0851 18.0857H13.0885Z" fill="#000202"/>
</g>
<defs>
<clipPath id="clip0_9897_10143">
<rect width="18" height="23" fill="white" transform="translate(3.32501 1)"/>
</clipPath>
</defs>
</svg>
