<svg xmlns="http://www.w3.org/2000/svg" width="30" height="30" viewBox="0 0 30 30" fill="none">
<rect x="0.5" y="0.5" width="29" height="29" rx="5.5" fill="#F5F5F5" stroke="#F5F5F5"/>
<path d="M26.9279 18.4338C26.5241 17.2465 25.6685 16.1698 24.7824 15.1663C25.0371 14.7868 25.2037 14.3542 25.27 13.8963C25.3886 13.0816 25.1819 12.2704 24.6882 11.6106C24.1946 10.9509 23.4733 10.5235 22.6579 10.406C21.9471 10.3033 21.2485 10.4478 20.6606 10.7907C20.6606 10.7298 20.6484 10.6689 20.624 10.6132C20.6476 10.6036 20.6711 10.594 20.6938 10.5836C21.1621 10.3712 21.5284 9.9647 21.7247 9.43985C21.9418 8.85929 21.9218 8.18908 21.6723 7.64768C21.429 7.11935 20.9702 6.71896 20.4243 6.53704C20.3641 5.19575 19.2216 4.03463 17.6404 3.79614C16.2092 3.5794 14.7335 4.14517 14.0628 5.09652C13.5316 4.8885 12.936 4.90068 12.417 5.14701C11.674 5.49952 11.2161 6.09749 11.0931 6.87824C11.0041 7.44314 11.1027 8.09072 11.3626 8.65648C11.4821 8.91586 11.6382 9.13434 11.8283 9.3119L11.8161 9.50426C11.3504 9.01335 10.7242 8.67999 10.0186 8.57815C9.20227 8.45977 8.38942 8.66606 7.72833 9.15871C7.06723 9.65136 6.63901 10.3712 6.52126 11.185C6.45411 11.6437 6.49161 12.1059 6.62854 12.5428C5.57323 13.2131 4.93656 13.7405 4.23622 14.7223C3.53326 15.7085 2.9777 17.1029 2.75094 18.4529C2.44569 20.2686 2.69774 22.0459 3.48093 23.5927C3.60042 23.8285 3.8891 23.9234 4.12546 23.8042C4.36181 23.6849 4.45687 23.3968 4.33739 23.1609C2.71518 19.9561 4.07313 16.6024 5.01767 15.2777C5.69795 14.3237 6.29799 13.8685 7.47104 13.146C7.67949 13.0181 7.75711 12.7544 7.65245 12.5333C7.47279 12.1546 7.40999 11.736 7.47017 11.3217C7.55128 10.7603 7.84694 10.2641 8.3022 9.92467C8.75747 9.58521 9.31826 9.44333 9.8808 9.52428C10.7486 9.64962 11.4411 10.2807 11.6452 11.1319C11.7027 11.3713 11.9339 11.5288 12.1781 11.494C13.4401 11.3182 14.7431 11.3199 16.0434 11.4992C17.3464 11.6968 18.5962 12.0633 19.758 12.5898C19.983 12.6917 20.249 12.6064 20.372 12.3931C20.8098 11.6341 21.654 11.2259 22.5209 11.3513C23.0835 11.4322 23.5806 11.7273 23.9207 12.1816C24.2609 12.636 24.403 13.1957 24.3219 13.7571C24.2618 14.1714 24.083 14.5552 23.8039 14.866C23.6408 15.0479 23.6408 15.3229 23.8039 15.5048C24.7135 16.5189 25.6345 17.6043 26.0209 18.7393C27.4652 22.9808 24.7833 24.8722 23.9269 25.3509C23.6957 25.4806 23.6129 25.7722 23.7428 26.0028C23.8309 26.1595 23.994 26.2474 24.1615 26.2474C24.2408 26.2474 24.3211 26.2274 24.3952 26.1865C27.5995 24.3952 27.8053 21.0058 26.9288 18.4311L26.9279 18.4338ZM12.0394 7.02708C12.1126 6.56055 12.3708 6.22805 12.8269 6.01219C13.1915 5.83898 13.6311 5.88511 13.9738 6.13231C14.0951 6.22022 14.2512 6.24633 14.3951 6.20281C14.539 6.15929 14.6532 6.05136 14.7056 5.91035C15.0012 5.10871 16.3051 4.56296 17.4956 4.74314C18.7262 4.9294 19.5853 5.85639 19.4527 6.85387C19.4353 6.98182 19.471 7.11151 19.5513 7.21248C19.6315 7.31345 19.7484 7.37873 19.8774 7.39265C20.2856 7.43617 20.631 7.68163 20.8002 8.04894C20.945 8.36403 20.9545 8.75919 20.8246 9.10648C20.7182 9.39111 20.5307 9.6061 20.2961 9.71229C20.1487 9.77931 19.942 9.83153 19.7885 9.84111C19.7143 9.78975 19.6341 9.73753 19.5478 9.6853C19.7789 9.40068 19.8992 9.01596 19.9263 8.92022C19.9725 8.75832 19.8792 8.59033 19.717 8.5442C19.5547 8.49807 19.3864 8.5912 19.3393 8.75223C19.2783 8.96374 19.1274 9.28753 18.9939 9.38153C18.9015 9.33627 18.8038 9.29188 18.7026 9.24749C18.8701 9.02902 18.9538 8.78792 18.9678 8.74788C19.021 8.58772 18.9338 8.41625 18.7742 8.36316C18.6137 8.31006 18.4419 8.3971 18.3887 8.55726C18.3459 8.68695 18.2099 8.95242 18.0756 9.00726C18.0756 9.00726 18.0747 9.00726 18.0738 9.00726C17.1851 8.71045 16.0295 8.49198 14.5599 8.50329C14.4718 8.39536 14.4012 8.20648 14.3759 8.08289C14.3427 7.91838 14.1823 7.81219 14.0174 7.8444C13.8517 7.87747 13.7444 8.03763 13.7776 8.20213C13.7837 8.23173 13.8125 8.36577 13.8779 8.52505C13.7837 8.53028 13.6886 8.5355 13.5918 8.54246C13.5133 8.39014 13.4497 8.16993 13.4252 8.01412C13.3991 7.84788 13.243 7.73472 13.0764 7.75997C12.9098 7.78608 12.7955 7.94188 12.8217 8.10813C12.8322 8.17515 12.8688 8.37882 12.9517 8.60078C12.8121 8.61645 12.6708 8.63298 12.526 8.65213C12.4057 8.55378 12.3115 8.42496 12.2339 8.2561C12.0533 7.86354 11.981 7.40397 12.0403 7.02621L12.0394 7.02708ZM12.6255 10.4809L12.6883 9.50948C17.1738 8.92283 19.2137 10.4312 19.7405 10.9152L19.5931 11.4818C18.5125 11.0457 17.3691 10.7333 16.1804 10.5531C14.9847 10.3886 13.7924 10.3651 12.6255 10.48V10.4809Z" fill="#E0E0E0"/>
<path d="M15.9415 17.6342C15.999 17.6586 16.0601 17.6734 16.1211 17.6795C16.4194 17.7073 16.7404 17.5237 16.7787 17.172C16.8101 16.8865 16.6313 16.6506 16.3566 16.6141C16.1281 16.5836 15.8272 16.7029 15.7025 16.9231C15.6353 17.0414 15.6179 17.1903 15.6563 17.32C15.699 17.4671 15.8106 17.5785 15.9415 17.6342Z" fill="#E0E0E0"/>
<path d="M13.0799 16.7041C13.1121 16.3916 12.9403 16.1775 12.6412 16.1549C12.3237 16.1314 12.0272 16.376 12.0001 16.685C11.9731 16.9913 12.2112 17.3099 12.5339 17.2995C12.8383 17.2899 13.0511 16.9844 13.0799 16.7041Z" fill="#E0E0E0"/>
<path d="M15.9841 18.9114C15.8542 19.0393 15.7033 19.2622 15.6344 19.5389C15.2986 19.6556 13.6014 20.1508 11.9897 18.9122C11.9147 18.8548 11.8065 18.8687 11.749 18.9436C11.6914 19.0184 11.7054 19.1264 11.7804 19.1838C12.7232 19.908 13.6817 20.0916 14.43 20.0838C14.9454 20.0786 15.3588 19.9828 15.5995 19.9115C15.6135 20.1421 15.6946 20.3928 15.8856 20.6461C15.9144 20.6844 15.9562 20.707 15.9998 20.7131C16.0426 20.7192 16.0879 20.7079 16.1263 20.68C16.2022 20.6235 16.217 20.5155 16.1603 20.4398C15.6431 19.7548 16.2022 19.1795 16.2266 19.1551C16.2938 19.0881 16.2938 18.9801 16.2275 18.9131C16.1603 18.8461 16.0522 18.8452 15.9841 18.9114Z" fill="#E0E0E0"/>
<path d="M14.8382 18.2658C14.8617 18.036 14.5756 17.8994 14.2085 17.8611C13.8413 17.8228 13.5326 17.8977 13.5081 18.1266C13.4837 18.3555 13.7523 18.668 14.1195 18.7063C14.4867 18.7454 14.8146 18.4956 14.8382 18.2658Z" fill="#E0E0E0"/>
<path d="M18.9258 21.7931C20.036 21.6132 20.7899 20.5693 20.6097 19.4613C20.4295 18.3533 19.3834 17.601 18.2732 17.7808C17.163 17.9607 16.4091 19.0046 16.5894 20.1126C16.7696 21.2205 17.8156 21.9729 18.9258 21.7931Z" fill="#E0E0E0"/>
</svg>