<svg xmlns="http://www.w3.org/2000/svg" width="20" height="21" viewBox="0 0 20 21" fill="none">
<path d="M9.57687 2.82422H6.46104C3.89854 2.82422 2.29187 4.63839 2.29187 7.20672V14.1351C2.29187 16.7034 3.89104 18.5176 6.46104 18.5176H13.8144C16.3852 18.5176 17.9844 16.7034 17.9844 14.1351V10.7784" stroke="#212121" stroke-linecap="round" stroke-linejoin="round"/>
<path fill-rule="evenodd" clip-rule="evenodd" d="M7.3564 9.60074L13.5839 3.37324C14.3597 2.59824 15.6172 2.59824 16.3931 3.37324L17.4072 4.38741C18.1831 5.16324 18.1831 6.42158 17.4072 7.19658L11.1497 13.4541C10.8106 13.7932 10.3506 13.9841 9.87057 13.9841H6.7489L6.82723 10.8341C6.8389 10.3707 7.02807 9.92908 7.3564 9.60074Z" stroke="#212121" stroke-linecap="round" stroke-linejoin="round"/>
<path d="M12.6376 4.33496L16.4426 8.13996" stroke="#212121" stroke-linecap="round" stroke-linejoin="round"/>
</svg>