<svg width="18" height="18" viewBox="0 0 18 18" fill="none" xmlns="http://www.w3.org/2000/svg">
<path id="Shape 6" opacity="0.902" d="M9 0.75C4.305 0.75 0.5 3.80709 0.5 7.57895C0.55929 8.77983 0.936815 9.94092 1.59149 10.9359C2.24616 11.9308 3.1529 12.7215 4.213 13.2218L3.27 16.8028C3.25267 16.8733 3.2565 16.9476 3.281 17.0158C3.3055 17.084 3.3495 17.1429 3.40718 17.1847C3.46486 17.2265 3.5335 17.2493 3.60401 17.25C3.67451 17.2507 3.74355 17.2293 3.802 17.1886L7.936 14.3512C8.285 14.3862 8.636 14.4069 9 14.4069C13.694 14.4069 17.5 11.3498 17.5 7.57792C17.5 3.80606 13.694 0.75 9 0.75Z" fill="black"/>
</svg>
