<svg width="20" height="21" viewBox="0 0 20 21" fill="none" xmlns="http://www.w3.org/2000/svg">
<path fill-rule="evenodd" clip-rule="evenodd" d="M17.3389 6.85305L16.8202 5.95298C16.3814 5.19138 15.4089 4.92864 14.6463 5.36564V5.36564C14.2832 5.57949 13.85 5.64017 13.4422 5.53428C13.0344 5.42839 12.6855 5.16464 12.4723 4.80118C12.3352 4.57016 12.2616 4.30704 12.2588 4.03841V4.03841C12.2711 3.60773 12.1087 3.19038 11.8083 2.88143C11.508 2.57249 11.0954 2.39826 10.6646 2.39844H9.61956C9.19745 2.39843 8.79274 2.56664 8.49498 2.86583C8.19722 3.16502 8.03096 3.57053 8.03299 3.99264V3.99264C8.02048 4.86415 7.31038 5.56405 6.43878 5.56396C6.17016 5.56117 5.90703 5.48749 5.67601 5.35038V5.35038C4.91336 4.91339 3.94091 5.17612 3.5021 5.93772L2.94527 6.85305C2.50699 7.6137 2.76615 8.58555 3.52498 9.02697V9.02697C4.01823 9.31174 4.32209 9.83803 4.32209 10.4076C4.32209 10.9771 4.01823 11.5034 3.52498 11.7882V11.7882C2.76711 12.2267 2.50767 13.1961 2.94527 13.9545V13.9545L3.47158 14.8622C3.67719 15.2332 4.02215 15.507 4.43014 15.6229C4.83813 15.7389 5.27551 15.6875 5.6455 15.4801V15.4801C6.00921 15.2678 6.44264 15.2097 6.84943 15.3185C7.25622 15.4274 7.60268 15.6942 7.81178 16.0598C7.94889 16.2908 8.02257 16.5539 8.02536 16.8225V16.8225C8.02536 17.703 8.73911 18.4167 9.61956 18.4167H10.6646C11.5421 18.4168 12.2546 17.7076 12.2588 16.8302V16.8302C12.2567 16.4067 12.424 16.0001 12.7234 15.7006C13.0229 15.4012 13.4295 15.2339 13.853 15.236C14.121 15.2431 14.383 15.3165 14.6157 15.4495V15.4495C15.3764 15.8878 16.3482 15.6287 16.7897 14.8698V14.8698L17.3389 13.9545C17.5514 13.5896 17.6098 13.155 17.501 12.747C17.3922 12.339 17.1252 11.9912 16.7592 11.7806V11.7806C16.3931 11.57 16.1261 11.2222 16.0173 10.8142C15.9085 10.4061 15.9669 9.97156 16.1794 9.60668C16.3177 9.36532 16.5178 9.16521 16.7592 9.02697V9.02697C17.5134 8.58579 17.772 7.61962 17.3389 6.86068V6.86068V6.85305Z" stroke="#212121" stroke-linecap="round" stroke-linejoin="round"/>
<circle cx="10.1459" cy="10.4077" r="2.1968" stroke="#212121" stroke-linecap="round" stroke-linejoin="round"/>
</svg>
