<svg width="20" height="21" viewBox="0 0 20 21" fill="none" xmlns="http://www.w3.org/2000/svg">
<g clip-path="url(#clip0_7686_5810)">
<path d="M5.83333 9.66634V16.333C5.83333 16.554 5.74554 16.766 5.58926 16.9223C5.43298 17.0785 5.22101 17.1663 5 17.1663H3.33333C3.11232 17.1663 2.90036 17.0785 2.74408 16.9223C2.5878 16.766 2.5 16.554 2.5 16.333V10.4997C2.5 10.2787 2.5878 10.0667 2.74408 9.91042C2.90036 9.75414 3.11232 9.66634 3.33333 9.66634H5.83333ZM5.83333 9.66634C6.71739 9.66634 7.56524 9.31515 8.19036 8.69003C8.81548 8.06491 9.16667 7.21706 9.16667 6.33301V5.49967C9.16667 5.05765 9.34226 4.63372 9.65482 4.32116C9.96738 4.0086 10.3913 3.83301 10.8333 3.83301C11.2754 3.83301 11.6993 4.0086 12.0118 4.32116C12.3244 4.63372 12.5 5.05765 12.5 5.49967V9.66634H15C15.442 9.66634 15.866 9.84194 16.1785 10.1545C16.4911 10.4671 16.6667 10.891 16.6667 11.333L15.8333 15.4997C15.7135 16.0109 15.4861 16.4499 15.1855 16.7505C14.8849 17.0511 14.5274 17.197 14.1667 17.1663H8.33333C7.67029 17.1663 7.03441 16.9029 6.56557 16.4341C6.09673 15.9653 5.83333 15.3294 5.83333 14.6663" stroke="#212121" stroke-linecap="round" stroke-linejoin="round"/>
</g>
<defs>
<clipPath id="clip0_7686_5810">
<rect width="20" height="20" fill="white" transform="translate(0 0.5)"/>
</clipPath>
</defs>
</svg>
