<svg width="20" height="21" viewBox="0 0 20 21" fill="none" xmlns="http://www.w3.org/2000/svg">
<path d="M9.57693 2.82422H6.4611C3.8986 2.82422 2.29193 4.63839 2.29193 7.20672V14.1351C2.29193 16.7034 3.8911 18.5176 6.4611 18.5176H13.8144C16.3853 18.5176 17.9844 16.7034 17.9844 14.1351V10.7784" stroke="#212121" stroke-linecap="round" stroke-linejoin="round"/>
<path fill-rule="evenodd" clip-rule="evenodd" d="M7.35652 9.60074L13.584 3.37324C14.3599 2.59824 15.6174 2.59824 16.3932 3.37324L17.4074 4.38741C18.1832 5.16324 18.1832 6.42158 17.4074 7.19658L11.1499 13.4541C10.8107 13.7932 10.3507 13.9841 9.87069 13.9841H6.74902L6.82736 10.8341C6.83902 10.3707 7.02819 9.92908 7.35652 9.60074Z" stroke="#212121" stroke-linecap="round" stroke-linejoin="round"/>
<path d="M12.6377 4.33496L16.4427 8.13996" stroke="#212121" stroke-linecap="round" stroke-linejoin="round"/>
</svg>
