<svg width="66" height="60" viewBox="0 0 66 60" fill="none" xmlns="http://www.w3.org/2000/svg">
<path d="M64.8078 39.1567C63.731 35.9907 61.4495 33.1195 59.0865 30.4433C59.7656 29.4313 60.2098 28.2778 60.3866 27.0569C60.7029 24.8843 60.1517 22.7211 58.8353 20.9617C57.5189 19.2023 55.5956 18.0627 53.421 17.7493C51.5255 17.4754 49.6626 17.8607 48.095 18.7753C48.095 18.6128 48.0625 18.4503 47.9973 18.3018C48.0601 18.2762 48.1229 18.2507 48.1834 18.2228C49.4323 17.6565 50.4091 16.5725 50.9324 15.1729C51.5115 13.6248 51.458 11.8375 50.7929 10.3938C50.144 8.98492 48.9207 7.91723 47.4647 7.43212C47.3043 3.85533 44.2575 0.759005 40.041 0.123029C36.2244 -0.454921 32.2893 1.05378 30.5008 3.59073C29.0844 3.03599 27.4959 3.06848 26.1121 3.72535C24.1305 4.66539 22.9095 6.25997 22.5816 8.34198C22.3444 9.84837 22.6072 11.5753 23.3003 13.084C23.6189 13.7756 24.0352 14.3582 24.5422 14.8317L24.5096 15.3447C23.2677 14.0356 21.5978 13.1466 19.7163 12.8751C17.5394 12.5594 15.3718 13.1095 13.6089 14.4232C11.846 15.737 10.704 17.6565 10.39 19.8267C10.211 21.0499 10.311 22.2824 10.6761 23.4476C7.86195 25.2348 6.16416 26.6414 4.29659 29.2596C2.42203 31.8894 0.940535 35.6077 0.335841 39.2077C-0.47817 44.0495 0.193971 48.7892 2.28249 52.9137C2.60112 53.5428 3.37094 53.7958 4.00122 53.4778C4.63149 53.1598 4.885 52.3915 4.56637 51.7625C0.240486 43.2163 3.86167 34.2731 6.38045 30.7404C8.19454 28.1965 9.79465 26.9826 12.9228 25.0561C13.4786 24.7149 13.6856 24.0116 13.4065 23.4221C12.9274 22.4124 12.76 21.2959 12.9204 20.1911C13.1367 18.694 13.9252 17.371 15.1392 16.4658C16.3533 15.5606 17.8487 15.1822 19.3488 15.3981C21.6629 15.7323 23.5096 17.4151 24.0538 19.6851C24.2073 20.3234 24.8236 20.7435 25.4748 20.6507C28.8402 20.1818 32.3148 20.1865 35.7825 20.6646C39.2572 21.1915 42.59 22.1687 45.6879 23.5729C46.2879 23.8445 46.9973 23.617 47.3252 23.0484C48.4927 21.0244 50.744 19.9358 53.0558 20.27C54.5559 20.4859 55.8816 21.2727 56.7887 22.4843C57.6957 23.6959 58.0748 25.1884 57.8585 26.6855C57.698 27.7903 57.2212 28.8139 56.477 29.6426C56.0421 30.1277 56.0421 30.8611 56.477 31.3462C58.9028 34.0503 61.3587 36.9447 62.389 39.9714C66.2405 51.282 59.0888 56.3257 56.8049 57.6023C56.1886 57.9482 55.9677 58.7257 56.3142 59.3408C56.5491 59.7586 56.984 59.993 57.4306 59.993C57.6422 59.993 57.8562 59.9397 58.0539 59.8306C66.5987 55.0538 67.1475 46.0155 64.8102 39.1497L64.8078 39.1567ZM25.105 8.73889C25.3004 7.49479 25.9888 6.60813 27.2052 6.03251C28.1773 5.57061 29.3495 5.69363 30.2635 6.35282C30.5868 6.58724 31.0031 6.65688 31.3869 6.54082C31.7706 6.42477 32.0753 6.13695 32.2148 5.76094C33.0033 3.62322 36.4803 2.1679 39.6549 2.64837C42.9365 3.14508 45.2274 5.61703 44.8739 8.27699C44.8274 8.61819 44.9227 8.96403 45.1367 9.23328C45.3506 9.50253 45.6623 9.67661 46.0065 9.71374C47.095 9.8298 48.0159 10.4843 48.4671 11.4638C48.8532 12.3041 48.8788 13.3578 48.5323 14.284C48.2485 15.043 47.7485 15.6163 47.1229 15.8994C46.7298 16.0782 46.1786 16.2174 45.7693 16.243C45.5716 16.106 45.3576 15.9667 45.1274 15.8275C45.7437 15.0685 46.0646 14.0426 46.1367 13.7872C46.26 13.3555 46.0112 12.9076 45.5786 12.7845C45.146 12.6615 44.6971 12.9099 44.5715 13.3393C44.4087 13.9033 44.0064 14.7667 43.6505 15.0174C43.404 14.8967 43.1435 14.7783 42.8737 14.66C43.3203 14.0774 43.5435 13.4344 43.5807 13.3277C43.7226 12.9006 43.49 12.4433 43.0644 12.3018C42.6365 12.1602 42.1783 12.3923 42.0365 12.8194C41.9225 13.1652 41.5597 13.8731 41.2015 14.0194C41.2015 14.0194 41.1992 14.0194 41.1969 14.0194C38.8269 13.2279 35.7453 12.6453 31.8264 12.6754C31.5915 12.3876 31.4031 11.884 31.3357 11.5544C31.2473 11.1157 30.8194 10.8325 30.3798 10.9184C29.9379 11.0066 29.6519 11.4337 29.7402 11.8724C29.7565 11.9513 29.8333 12.3087 30.0077 12.7335C29.7565 12.7474 29.503 12.7613 29.2449 12.7799C29.0355 12.3737 28.8658 11.7865 28.8006 11.371C28.7309 10.9277 28.3146 10.6259 27.8703 10.6932C27.4261 10.7629 27.1215 11.1783 27.1912 11.6217C27.2191 11.8004 27.3168 12.3435 27.5378 12.9354C27.1656 12.9772 26.7889 13.0213 26.4028 13.0724C26.0818 12.8101 25.8307 12.4665 25.6237 12.0163C25.1422 10.9694 24.9492 9.74392 25.1074 8.73657L25.105 8.73889ZM26.6679 17.9489L26.8354 15.3586C38.7967 13.7942 44.2366 17.8166 45.6414 19.1072L45.2483 20.6182C42.3667 19.4553 39.3177 18.6221 36.1477 18.1416C32.9591 17.7029 29.7798 17.6402 26.6679 17.9466V17.9489Z" fill="#E0E0E0"/>
<path d="M35.5105 37.0239C35.664 37.0889 35.8268 37.1283 35.9896 37.1446C36.785 37.2188 37.6409 36.7291 37.7432 35.7914C37.8269 35.0301 37.3502 34.401 36.6176 34.3036C36.0082 34.2223 35.2058 34.5403 34.8732 35.1275C34.6942 35.4432 34.6476 35.8401 34.75 36.186C34.8639 36.5782 35.1616 36.8753 35.5105 37.0239Z" fill="#E0E0E0"/>
<path d="M27.8797 34.5449C27.9658 33.7117 27.5076 33.1407 26.7099 33.0803C25.8633 33.0177 25.0726 33.6699 25.0005 34.4939C24.9284 35.3109 25.5633 36.1604 26.4238 36.1326C27.2355 36.107 27.803 35.2923 27.8797 34.5449Z" fill="#E0E0E0"/>
<path d="M35.6245 45.1089C35.2779 44.7677 34.8756 44.1735 34.6918 43.4354C33.7964 43.1244 29.2705 41.8037 24.9726 45.1066C24.7725 45.2598 24.4841 45.2226 24.3306 45.023C24.1772 44.8234 24.2144 44.5356 24.4144 44.3824C26.9285 42.4512 29.4845 41.9615 31.48 41.9824C32.8545 41.9963 33.9569 42.2516 34.5988 42.442C34.636 41.8269 34.8523 41.1584 35.3617 40.483C35.4384 40.3808 35.55 40.3205 35.6663 40.3042C35.7803 40.288 35.9012 40.3182 36.0036 40.3924C36.2059 40.5433 36.2454 40.8311 36.0943 41.0331C34.7151 42.8598 36.2059 44.394 36.271 44.459C36.4501 44.6377 36.4501 44.9255 36.2734 45.1042C36.0943 45.283 35.8059 45.2853 35.6245 45.1089Z" fill="#E0E0E0"/>
<path d="M32.5684 38.7087C32.6312 38.096 31.8684 37.7316 30.8893 37.6294C29.9101 37.5273 29.0868 37.7269 29.0217 38.3374C28.9566 38.9478 29.6729 39.7811 30.652 39.8832C31.6312 39.9876 32.5057 39.3215 32.5684 38.7087Z" fill="#E0E0E0"/>
<path d="M43.4687 48.1157C46.4292 47.6361 48.4396 44.8522 47.9591 41.8976C47.4785 38.9431 44.689 36.9367 41.7285 37.4163C38.768 37.8959 36.7576 40.6798 37.2382 43.6344C37.7187 46.5889 40.5082 48.5953 43.4687 48.1157Z" fill="#E0E0E0"/>
</svg>
