<svg width="108" height="98" viewBox="0 0 108 98" fill="none" xmlns="http://www.w3.org/2000/svg">
<path d="M85.8115 49.1567C84.7347 45.9907 82.4531 43.1195 80.0902 40.4433C80.7693 39.4313 81.2135 38.2778 81.3902 37.0569C81.7066 34.8843 81.1553 32.7211 79.839 30.9617C78.5226 29.2023 76.5992 28.0627 74.4246 27.7493C72.5292 27.4754 70.6662 27.8607 69.0987 28.7753C69.0987 28.6128 69.0661 28.4503 69.001 28.3018C69.0638 28.2762 69.1266 28.2507 69.1871 28.2228C70.436 27.6565 71.4128 26.5725 71.9361 25.1729C72.5152 23.6248 72.4617 21.8375 71.7965 20.3938C71.1477 18.9849 69.9243 17.9172 68.4684 17.4321C68.3079 13.8553 65.2612 10.759 61.0446 10.123C57.2281 9.54508 53.2929 11.0538 51.5044 13.5907C50.088 13.036 48.4996 13.0685 47.1157 13.7253C45.1342 14.6654 43.9132 16.26 43.5853 18.342C43.348 19.8484 43.6108 21.5753 44.3039 23.084C44.6225 23.7756 45.0388 24.3582 45.5459 24.8317L45.5133 25.3447C44.2714 24.0356 42.6015 23.1466 40.7199 22.8751C38.543 22.5594 36.3754 23.1095 34.6125 24.4232C32.8496 25.737 31.7077 27.6565 31.3937 29.8267C31.2146 31.0499 31.3146 32.2824 31.6798 33.4476C28.8656 35.2348 27.1678 36.6414 25.3002 39.2596C23.4257 41.8894 21.9442 45.6077 21.3395 49.2077C20.5255 54.0495 21.1976 58.7892 23.2862 62.9137C23.6048 63.5428 24.3746 63.7958 25.0049 63.4778C25.6352 63.1598 25.8887 62.3915 25.57 61.7625C21.2441 53.2163 24.8653 44.2731 27.3841 40.7404C29.1982 38.1965 30.7983 36.9826 33.9264 35.0561C34.4823 34.7149 34.6893 34.0116 34.4102 33.4221C33.9311 32.4124 33.7636 31.2959 33.9241 30.1911C34.1404 28.694 34.9288 27.371 36.1429 26.4658C37.3569 25.5606 38.8524 25.1822 40.3525 25.3981C42.6666 25.7323 44.5132 27.4151 45.0575 29.6851C45.211 30.3234 45.8273 30.7435 46.4785 30.6507C49.8438 30.1818 53.3185 30.1865 56.7862 30.6646C60.2608 31.1915 63.5936 32.1687 66.6915 33.5729C67.2916 33.8445 68.0009 33.617 68.3289 33.0484C69.4964 31.0244 71.7477 29.9358 74.0595 30.27C75.5596 30.4859 76.8853 31.2727 77.7923 32.4843C78.6994 33.6959 79.0785 35.1884 78.8622 36.6855C78.7017 37.7903 78.2249 38.8139 77.4807 39.6426C77.0458 40.1277 77.0458 40.8611 77.4807 41.3462C79.9064 44.0503 82.3624 46.9447 83.3927 49.9714C87.2441 61.282 80.0925 66.3257 77.8086 67.6023C77.1923 67.9482 76.9713 68.7257 77.3179 69.3408C77.5528 69.7586 77.9877 69.993 78.4342 69.993C78.6459 69.993 78.8598 69.9397 79.0575 69.8306C87.6023 65.0538 88.1512 56.0155 85.8138 49.1497L85.8115 49.1567ZM46.1087 18.7389C46.3041 17.4948 46.9925 16.6081 48.2088 16.0325C49.181 15.5706 50.3532 15.6936 51.2672 16.3528C51.5905 16.5872 52.0068 16.6569 52.3905 16.5408C52.7743 16.4248 53.0789 16.137 53.2185 15.7609C54.0069 13.6232 57.4839 12.1679 60.6586 12.6484C63.9402 13.1451 66.231 15.617 65.8775 18.277C65.831 18.6182 65.9264 18.964 66.1403 19.2333C66.3543 19.5025 66.666 19.6766 67.0102 19.7137C68.0986 19.8298 69.0196 20.4843 69.4708 21.4638C69.8569 22.3041 69.8825 23.3578 69.5359 24.284C69.2522 25.043 68.7521 25.6163 68.1265 25.8994C67.7335 26.0782 67.1823 26.2174 66.7729 26.243C66.5752 26.106 66.3613 25.9667 66.131 25.8275C66.7474 25.0685 67.0683 24.0426 67.1404 23.7872C67.2637 23.3555 67.0148 22.9076 66.5822 22.7845C66.1496 22.6615 65.7008 22.9099 65.5752 23.3393C65.4124 23.9033 65.01 24.7667 64.6542 25.0174C64.4077 24.8967 64.1472 24.7783 63.8774 24.66C64.3239 24.0774 64.5472 23.4344 64.5844 23.3277C64.7263 22.9006 64.4937 22.4433 64.0681 22.3018C63.6402 22.1602 63.182 22.3923 63.0401 22.8194C62.9262 23.1652 62.5633 23.8731 62.2052 24.0194C62.2052 24.0194 62.2028 24.0194 62.2005 24.0194C59.8306 23.2279 56.749 22.6453 52.8301 22.6754C52.5952 22.3876 52.4068 21.884 52.3394 21.5544C52.251 21.1157 51.823 20.8325 51.3835 20.9184C50.9416 21.0066 50.6555 21.4337 50.7439 21.8724C50.7602 21.9513 50.8369 22.3087 51.0114 22.7335C50.7602 22.7474 50.5067 22.7613 50.2485 22.7799C50.0392 22.3737 49.8694 21.7865 49.8043 21.371C49.7345 20.9277 49.3182 20.6259 48.874 20.6932C48.4298 20.7629 48.1251 21.1783 48.1949 21.6217C48.2228 21.8004 48.3205 22.3435 48.5414 22.9354C48.1693 22.9772 47.7925 23.0213 47.4065 23.0724C47.0855 22.8101 46.8343 22.4665 46.6273 22.0163C46.1459 20.9694 45.9529 19.7439 46.111 18.7366L46.1087 18.7389ZM47.6716 27.9489L47.839 25.3586C59.8004 23.7942 65.2403 27.8166 66.645 29.1072L66.252 30.6182C63.3704 29.4553 60.3213 28.6221 57.1513 28.1416C53.9627 27.7029 50.7834 27.6402 47.6716 27.9466V27.9489Z" fill="#F04C28"/>
<path d="M56.5142 47.0236C56.6677 47.0886 56.8305 47.1281 56.9933 47.1443C57.7887 47.2186 58.6445 46.7288 58.7469 45.7911C58.8306 45.0298 58.3538 44.4008 57.6212 44.3033C57.0119 44.2221 56.2095 44.5401 55.8769 45.1273C55.6978 45.443 55.6513 45.8399 55.7536 46.1857C55.8676 46.578 56.1653 46.8751 56.5142 47.0236Z" fill="#F04C28"/>
<path d="M48.8834 44.5447C48.9694 43.7114 48.5113 43.1404 47.7135 43.0801C46.867 43.0174 46.0762 43.6696 46.0041 44.4936C45.932 45.3107 46.5669 46.1602 47.4275 46.1323C48.2392 46.1068 48.8066 45.2921 48.8834 44.5447Z" fill="#F04C28"/>
<path d="M56.6281 50.431C56.2816 50.7722 55.8792 51.3664 55.6955 52.1045C54.8001 52.4155 50.2742 53.7362 45.9762 50.4333C45.7762 50.2801 45.4878 50.3172 45.3343 50.5169C45.1808 50.7165 45.218 51.0043 45.418 51.1575C47.9322 53.0886 50.4882 53.5784 52.4837 53.5575C53.8582 53.5435 54.9606 53.2882 55.6025 53.0979C55.6397 53.713 55.856 54.3815 56.3653 55.0569C56.4421 55.159 56.5537 55.2194 56.67 55.2356C56.784 55.2519 56.9049 55.2217 57.0072 55.1474C57.2096 54.9965 57.2491 54.7087 57.0979 54.5068C55.7188 52.6801 57.2096 51.1459 57.2747 51.0809C57.4538 50.9022 57.4538 50.6143 57.277 50.4356C57.0979 50.2569 56.8095 50.2546 56.6281 50.431Z" fill="#F04C28"/>
<path d="M53.5721 48.7087C53.6349 48.096 52.8721 47.7316 51.8929 47.6294C50.9138 47.5273 50.0905 47.7269 50.0253 48.3374C49.9602 48.9478 50.6766 49.7811 51.6557 49.8832C52.6348 49.9876 53.5093 49.3215 53.5721 48.7087Z" fill="#F04C28"/>
<path d="M64.4724 58.1159C67.4329 57.6363 69.4433 54.8524 68.9627 51.8978C68.4822 48.9432 65.6927 46.9369 62.7322 47.4165C59.7717 47.8961 57.7613 50.68 58.2418 53.6346C58.7224 56.5891 61.5119 58.5955 64.4724 58.1159Z" fill="#F04C28"/>
<g clip-path="url(#clip0_1388_35844)">
<path d="M2.66138 91.7236C2.66138 91.7236 2.79166 91.62 2.88471 91.5786C4.00138 91.1022 6.32776 90.6258 7.5747 90.6258C9.32414 90.605 10.4966 90.6465 11.1294 90.8122C13.9025 91.3714 15.1494 92.5314 15.075 94.2092C15.0936 96.032 14.0513 97.0469 11.4086 97.3576C10.143 97.5855 8.7472 97.6476 7.20248 97.6062C5.97415 97.6062 4.33638 97.4405 3.01499 97.1298C1.34 96.7569 0.0930553 96.2598 0 94.5406C0 92.5728 1.30277 91.8893 2.64277 91.7236H2.66138ZM1.56333 84.4946C2.49388 84.4946 3.46166 84.4739 4.48527 84.4531L4.44804 82.4854C4.29915 81.8018 4.28054 81.0768 5.08082 80.8904C5.86248 80.994 6.14165 81.5118 6.06721 82.3611L6.10443 84.391C7.03498 84.3496 8.03998 84.2667 9.06359 84.2046C9.02636 83.6039 8.97053 82.7339 8.9147 81.574C8.89609 81.0354 9.15664 80.704 9.65914 80.5797C10.1616 80.6004 10.4594 80.8904 10.5339 81.429C10.7014 83.086 10.8875 85.6338 10.7758 87.4566C10.7572 88.3887 10.385 88.9272 9.71497 89.1137C8.9147 89.3415 7.20248 89.4865 5.00637 89.5072C4.11304 89.5279 2.25194 89.6315 1.56333 89.5072C0.632776 89.4244 0.0744442 88.9894 0.0744442 87.4773C0.0372221 85.8409 0 84.8881 0.0372221 84.5567C0.0744442 84.2253 0.0744442 83.5417 0.130277 82.4025C0.111666 81.6775 0.204722 81.0768 0.986386 81.0768C1.65638 81.1804 1.60055 81.5118 1.61916 82.2989C1.60055 83.086 1.58194 83.7075 1.58194 84.2253V84.5153L1.56333 84.4946ZM2.62416 93.1114C2.41944 93.1942 2.23333 93.2771 2.02861 93.4221C1.69361 93.6706 1.52611 93.9606 1.5075 94.292C1.5075 95.2656 2.60555 95.4727 4.15027 95.7627C4.78304 95.8663 5.43443 95.9077 6.06721 95.9284C6.69998 95.9491 7.18387 95.9491 7.55609 95.9698C9.06359 96.0113 10.2733 95.9491 11.2225 95.742C12.73 95.452 13.4558 95.1827 13.4744 94.2092C13.493 93.3185 12.5997 92.7592 11.055 92.345C10.0872 92.1171 9.00775 92.1171 7.61192 92.1585C6.42082 92.1585 4.41082 92.5935 3.46166 93.0492C3.10805 93.1735 2.82888 93.1735 2.62416 93.0699V93.1114ZM4.50388 85.9652C3.51749 85.9859 2.56833 85.9859 1.58194 85.9859C1.58194 86.2966 1.58194 86.6695 1.60055 87.0837C1.61916 87.643 1.675 87.8709 2.12166 87.8916C2.56833 87.9123 3.0336 87.933 3.49888 87.9123H4.5411L4.50388 85.9652ZM6.12304 85.9238L6.19748 87.8709C6.45804 87.8501 6.71859 87.8501 6.96054 87.8294C7.59331 87.8087 8.0772 87.788 8.44942 87.7259C9.04497 87.643 9.28692 87.5394 9.21247 86.6281C9.19386 86.3381 9.19386 86.0688 9.17525 85.8202C8.17025 85.8617 7.16526 85.9031 6.14165 85.9238H6.12304ZM15.8566 83.7489C16.4522 83.8317 16.7313 84.0803 16.6569 84.5567C16.6383 85.116 16.3591 85.3645 15.8008 85.261C15.3169 85.2402 14.9075 85.2195 14.5352 85.1781V85.4888C14.5725 87.0837 14.6655 88.5751 14.7772 89.9629C14.7958 90.4393 14.5538 90.75 14.0327 90.8536C13.5302 90.895 13.2325 90.5636 13.1394 89.8594C13.065 88.2851 13.0464 86.918 13.0464 85.7581C13.0277 84.5981 13.0091 82.9618 12.9347 80.9111C13.0464 80.0619 13.1952 80.0826 13.6047 80.0205C14.0327 79.979 14.3491 80.2069 14.5352 80.7247C14.498 81.6982 14.4608 82.6925 14.4608 83.6867C14.833 83.6867 15.2611 83.7075 15.8194 83.7696L15.8566 83.7489Z" fill="#F04C28"/>
<path d="M32.7927 95.3489C33.258 95.3489 33.7791 95.6182 33.7791 96.136C33.7605 96.6745 33.5185 96.9645 33.0719 96.9852C28.3819 97.0681 22.8916 97.1095 18.7041 96.8817C18.2016 96.9645 17.9411 96.716 17.8666 96.0946C17.8852 95.4317 18.1644 95.2867 18.7227 95.2867C22.7613 95.5146 27.7305 95.4317 32.7927 95.3282V95.3489ZM31.2666 92.4283C30.8013 92.304 30.671 91.8897 30.8385 91.2476C31.2666 88.9484 31.3969 85.7378 31.248 83.7286C31.1549 83.0658 30.8385 82.7551 30.0197 82.7551C26.8558 82.8794 24.4177 82.9208 21.7936 82.8379C21.0677 82.8587 20.6955 82.8379 20.3233 82.8172C19.858 82.8172 19.6161 82.548 19.5975 82.0094C19.5789 81.1602 20.0255 81.1602 21.0677 81.1394C24.2316 81.2223 26.9302 81.1809 29.7963 81.098C31.6947 81.0152 32.4391 81.678 32.6997 82.8379C33.0347 85.7585 32.9044 89.632 32.3088 91.6412C32.1972 92.2211 31.8435 92.4904 31.2666 92.449V92.4283Z" fill="#F04C28"/>
<path d="M41.1677 81.823C42.0982 81.8023 42.8241 81.8023 43.2893 81.8023C44.406 81.8023 45.0946 81.9887 45.4668 83.5215C45.5599 84.0807 45.5785 84.64 45.5599 85.1993C45.5599 85.9449 45.5227 86.6492 45.411 87.3327C45.3365 87.9334 45.0388 88.617 43.7174 88.8034C42.3029 88.8034 40.6838 88.762 38.8785 88.6791C38.2085 88.6998 38.0038 88.8034 38.0038 89.5698C37.9666 90.5226 37.9666 91.6826 38.0224 93.0704C38.041 93.4432 38.2457 93.6296 38.5621 93.6089C39.3252 93.5882 39.9207 93.4846 40.3674 93.3604C40.8141 93.2361 41.5399 93.1325 42.5635 93.0497C44.4246 92.8218 45.7088 92.7183 46.9557 92.8218C47.4768 92.8425 47.7374 93.1532 47.7374 93.7125C47.6443 94.2925 47.3838 94.5617 46.9743 94.4996C45.5785 94.3753 44.1454 94.541 42.5635 94.7275C41.7074 94.831 41.056 94.9553 40.5535 95.0589C40.051 95.1624 39.381 95.2867 38.5063 95.3281C36.6452 95.411 36.3846 94.6446 36.366 93.5468C36.3474 92.2211 36.3474 90.7298 36.3846 89.1141C36.4032 87.7884 36.7382 87.2913 38.0224 87.022C40.5721 87.1256 41.4096 87.167 43.0474 87.1049C43.8104 87.0842 43.9593 87.0013 43.9779 86.0692C43.9965 85.2407 43.9779 84.6193 43.9035 84.1429C43.8104 83.8322 43.6988 83.5422 43.1591 83.5422C41.6888 83.5215 40.8327 83.5215 40.5349 83.5008C40.2557 83.5008 39.0088 83.6043 36.7755 83.77C36.3102 83.77 36.0682 83.5008 36.0682 82.9622C36.0682 82.3615 36.2171 82.1544 36.9057 82.0301C38.7668 81.9058 40.1813 81.8437 41.1304 81.8023L41.1677 81.823ZM49.7101 80.953C50.2499 81.0359 50.5104 81.3673 50.4732 81.9887C50.3057 84.2879 50.3801 87.0842 50.4546 89.9219C50.4732 92.3247 50.4918 94.541 50.6779 95.8253C50.7524 96.5295 50.5476 97.0474 49.8776 97.0681C49.5054 96.9852 49.2449 96.6952 49.1146 96.1774C49.0029 95.1624 48.9657 94.2096 48.9657 93.3397C48.9471 92.4697 48.9285 91.2476 48.8913 89.6734C48.8913 88.1613 48.8913 87.0013 48.8726 86.1935C48.854 85.3857 48.8726 84.0807 48.9471 82.258C48.9285 81.5744 48.9657 80.9737 49.7288 80.953H49.7101Z" fill="#F04C28"/>
<path d="M67.7256 81.7609C68.2654 81.8437 68.5073 82.1751 68.4515 82.7965C68.284 85.0957 68.1537 87.8299 68.1537 90.7298C68.1723 91.724 68.1723 92.6147 68.1723 93.4225C68.1723 94.2304 68.2095 94.9968 68.3026 95.701C68.3398 96.1153 68.3956 96.571 68.4515 97.0888C68.5631 97.5445 68.3026 97.9588 67.614 97.9795C67.2418 97.9795 66.9812 97.6688 66.8323 97.0474C66.7951 96.7367 66.7393 96.3846 66.702 96.0532L65.3806 96.1567C60.5976 96.1774 57.0429 96.1774 54.6793 96.1981C54.0465 96.1981 53.0601 96.3017 53.0601 95.3903C53.0787 94.7896 53.4323 94.4996 54.1023 94.5204L66.5904 94.4375V93.8782C66.5717 92.8011 66.5904 91.4962 66.609 89.9427C66.6834 86.8564 66.6834 86.6492 66.8509 82.983C66.8509 82.2994 66.944 81.7194 67.7256 81.7194V81.7609ZM57.0243 81.9059C57.3965 81.7401 57.7687 81.6159 58.1223 81.533C58.5318 81.4502 58.9598 81.4294 59.4065 81.4294C60.0765 81.4294 60.914 81.4502 62.3098 82.1544C63.5009 82.838 64.6362 84.6815 64.5804 87.1049C64.4129 89.922 63.594 91.2891 62.012 92.0555C61.5468 92.3247 60.2068 92.6354 59.0901 92.6147C55.9262 92.6354 54.2512 91.7655 53.7301 89.0727C53.6185 88.3685 53.5998 87.7056 53.6185 87.1049C53.7859 85.0336 54.1582 84.3293 54.7537 83.4386C55.1818 82.7758 55.8518 82.258 56.5404 81.9266C56.7451 81.8437 56.894 81.8437 57.0429 81.8851L57.0243 81.9059ZM55.5354 85.0957C55.2934 85.8 55.1632 86.5042 55.1446 87.2085C55.1259 87.9335 55.1446 88.5342 55.2562 89.0106C55.8518 90.8748 57.3779 91.0198 59.0529 91.0198C61.9562 91.0198 62.9426 89.6941 62.9984 86.9807C63.017 84.8265 61.6212 83.4179 60.6348 83.1901C60.244 83.0865 59.9648 83.0451 59.7601 83.0244C59.5554 83.0037 59.4623 83.0037 59.3879 83.0037C58.9598 83.0244 58.5318 83.0865 58.1409 83.1694C57.8432 83.2937 57.5454 83.4179 57.3034 83.5836C57.0987 83.7079 56.9312 83.7286 56.7823 83.6044C56.1496 83.9979 55.7215 84.4743 55.5168 85.075L55.5354 85.0957Z" fill="#F04C28"/>
<path d="M82.689 81.5124C83.1915 81.4916 83.694 81.4916 84.1592 81.4916C85.1828 81.6159 86.1692 81.8645 87.1184 82.2166C88.4398 82.7966 89.7053 84.2051 89.6123 86.3386C89.6123 88.3478 88.3467 90.3363 86.0948 90.6056C85.5923 90.6884 85.127 90.7298 84.7176 90.7506C84.699 91.5377 84.7176 92.3455 84.7548 93.2569C84.7734 93.9197 84.8292 94.4376 84.8664 94.8932H86.2623C87.5837 94.8725 89.0912 94.8518 90.7475 94.7897C91.1756 94.7897 91.6037 95.1625 91.6037 95.6596C91.585 96.1982 91.3245 96.4675 90.8592 96.4675C88.7376 96.4882 87.5464 96.5089 87.2114 96.5089C86.8764 96.5296 85.8156 96.5296 83.9545 96.5089C82.0004 96.6332 79.7856 96.6953 77.329 96.7367C76.9195 96.8196 76.6776 96.5918 76.5659 96.0532C76.5845 95.3904 76.9009 95.0797 77.329 95.0797C78.9295 94.9968 80.9023 94.9554 83.2659 94.914C83.2473 94.4997 83.1915 93.9611 83.1728 93.3397C83.1356 92.3869 83.1356 91.5377 83.1542 90.8334C82.5401 90.8127 82.019 90.792 81.6095 90.7506C81.1442 90.7298 80.344 90.502 79.1901 90.1292C77.329 89.4249 76.8823 88.1614 76.9009 86.4836C76.9009 83.6458 79.432 82.0095 80.8837 81.7195C80.9581 81.6988 80.9954 81.6988 81.0512 81.7195C81.7212 81.5745 82.2423 81.4916 82.6703 81.4916L82.689 81.5124ZM80.6417 83.6251C80.1579 83.7908 79.7112 84.0808 79.2831 84.4951C78.7248 85.0336 78.427 85.6758 78.427 86.4629C78.5387 88.3064 79.9345 89.2799 83.1728 89.1763C84.3267 89.1763 85.3317 89.0728 86.1878 88.8863C87.0812 88.7206 88.0862 87.6228 88.1048 86.38C88.1978 84.2465 86.9137 83.2316 83.694 83.0244C83.0984 83.0451 82.7076 83.0659 82.4656 83.128C82.2237 83.2109 81.7956 83.2937 81.1442 83.4594H81.1256C81.1256 83.4594 80.9954 83.5008 80.9209 83.5423C80.8092 83.5837 80.7162 83.6251 80.6231 83.6251H80.6417Z" fill="#F04C28"/>
<path d="M107.051 90.1083C107.479 90.1083 107.907 90.2947 107.907 90.8125C107.888 91.3511 107.628 91.6411 107.163 91.6825C103.347 91.7653 100.481 91.7239 94.3767 92.0968C93.9859 92.0968 93.7626 91.8482 93.7067 91.3925C93.7253 90.7297 94.0789 90.5225 94.507 90.5225C98.9364 90.2533 103.124 90.1083 107.051 90.1083ZM100.686 83.8735C101.97 83.7907 103.478 83.7492 105.208 83.7699C105.134 82.6307 105.059 81.6986 104.948 80.9943C104.873 80.5594 105.041 80.2487 105.413 80.0622C105.916 80.0415 106.251 80.1865 106.344 80.5386C106.548 81.2222 106.641 82.5064 106.697 84.3913C106.734 85.1992 106.734 86.1934 106.716 87.3534C106.623 88.4512 105.934 88.6169 105.301 88.6376C103.291 88.6169 101.635 88.6169 100.351 88.679C99.0667 88.7412 97.5964 88.824 95.9959 88.8447C95.2328 88.8447 94.3953 88.6169 94.4326 87.1462C94.414 86.6077 94.4139 85.8206 94.4139 84.7435C94.4139 83.6664 94.3953 82.8793 94.3767 82.2579C94.3023 81.6572 94.2837 80.9529 95.0467 80.9529C95.6795 81.0358 95.9587 81.74 95.847 82.2164C95.8656 82.7343 95.8842 83.335 95.8842 84.0392C97.7826 83.9978 99.4017 83.9149 100.704 83.8114L100.686 83.8735ZM96.4612 93.2981C96.8706 93.6088 96.9451 94.0024 96.6845 94.4374C96.4798 94.7274 96.1634 95.3281 96.0517 95.7216C95.9773 96.1773 96.2006 96.3016 96.7031 96.2809C97.4662 96.3016 98.0803 96.3016 98.5642 96.2395C99.0481 96.1773 99.9414 96.1152 101.263 96.053C103.794 95.9702 104.464 96.053 105.692 96.1359C106.418 96.1152 106.958 96.1359 107.33 96.1566C107.795 96.1566 108.037 96.4259 108.037 96.9644C108.037 97.9587 106.883 97.7515 105.748 97.7515C105.264 97.7515 104.706 97.7308 104.073 97.6687C103.44 97.6065 102.51 97.648 101.263 97.7101C100.09 97.793 99.3087 97.8137 98.9364 97.8344C98.5642 97.8551 97.8198 97.8758 96.7403 97.9172C95.1398 97.9172 94.5814 97.5858 94.4139 96.1359C94.4326 95.0588 94.8978 94.251 95.3259 93.5881C95.7353 93.0703 96.1262 93.1117 96.4984 93.3189L96.4612 93.2981ZM100.723 85.4063C99.6995 85.5099 98.0803 85.572 95.8656 85.6342V86.8148C95.9028 87.1877 96.0703 87.3741 96.3309 87.3741C99.7553 87.2084 101.709 87.1255 105.041 87.1255C105.246 87.1462 105.32 87.0012 105.32 86.6491C105.32 86.4213 105.32 86.0691 105.301 85.5513C105.301 85.4685 105.301 85.3856 105.283 85.282C103.254 85.3027 101.747 85.3235 100.742 85.4063H100.723Z" fill="#F04C28"/>
</g>
<defs>
<clipPath id="clip0_1388_35844">
<rect width="108" height="18" fill="white" transform="translate(0 80)"/>
</clipPath>
</defs>
</svg>
