<svg width="570" height="379" viewBox="0 0 570 379" fill="none" xmlns="http://www.w3.org/2000/svg">
<g clip-path="url(#clip0_6556_267)">
<mask id="mask0_6556_267" style="mask-type:luminance" maskUnits="userSpaceOnUse" x="155" y="0" width="260" height="259">
<path d="M414.318 0H155.68V258.307H414.318V0Z" fill="white"/>
</mask>
<g mask="url(#mask0_6556_267)">
<path d="M372.569 258.307H197.429C174.413 258.307 155.68 239.598 155.68 216.611V41.6961C155.68 18.6998 174.413 0 197.429 0H372.569C395.595 0 414.318 18.6998 414.318 41.6961V216.611C414.318 239.598 395.585 258.307 372.569 258.307ZM197.429 10.8148C180.379 10.8148 166.508 24.6676 166.508 41.6961V216.611C166.508 233.64 180.379 247.492 197.429 247.492H372.569C389.619 247.492 403.49 233.64 403.49 216.611V41.6961C403.49 24.6676 389.619 10.8148 372.569 10.8148H197.429Z" fill="#FDF1EE"/>
<path d="M403.775 191.461C399.414 178.641 389.018 166.381 378.751 154.927C376.91 152.872 376.91 149.765 378.751 147.711C381.901 144.201 383.929 139.865 384.598 135.185C385.524 128.844 383.909 122.522 380.07 117.39C376.231 112.258 370.62 108.925 364.27 108.01C354.475 106.595 344.956 111.215 340.014 119.779C338.626 122.197 335.623 123.161 333.083 122.001C319.971 116.053 305.864 111.913 291.157 109.682C276.469 107.656 261.771 107.637 247.527 109.623C244.77 110.006 242.162 108.236 241.512 105.533C239.208 95.9174 231.382 88.7894 221.597 87.3737C215.247 86.4593 208.917 88.0619 203.779 91.8962C198.64 95.7306 195.303 101.335 194.387 107.676C193.708 112.356 194.417 117.085 196.445 121.362C197.626 123.849 196.74 126.828 194.397 128.283C181.157 136.434 174.384 141.585 166.715 152.361L157.895 146.088C165.799 134.988 172.986 129.04 184.897 121.47C183.352 116.534 182.929 111.304 183.687 106.132C185.016 96.9399 189.859 88.8091 197.311 83.2444C204.773 77.6797 213.958 75.3496 223.162 76.6867C235.733 78.5055 246.06 86.8133 250.588 98.3655C264.39 96.8317 278.536 97.048 292.722 99.0045C306.927 101.158 320.561 104.963 333.369 110.34C340.988 100.538 353.254 95.5045 365.825 97.3233C375.03 98.6506 383.171 103.488 388.743 110.93C394.315 118.383 396.648 127.546 395.309 136.748C394.561 141.92 392.681 146.806 389.806 151.093C399.808 162.429 409.455 174.58 414.023 188.001L403.765 191.481L403.775 191.461Z" fill="#FDF1EE"/>
<path d="M296.344 171.09C296.993 171.366 297.683 171.533 298.372 171.602C301.738 171.916 305.361 169.842 305.794 165.87C306.149 162.645 304.131 159.981 301.03 159.568C298.45 159.224 295.054 160.571 293.646 163.058C292.888 164.395 292.692 166.076 293.125 167.541C293.607 169.203 294.867 170.461 296.344 171.09Z" fill="#FDF1EE"/>
<path d="M257.882 167.314C261.318 167.206 263.72 163.755 264.045 160.59C264.409 157.06 262.47 154.641 259.093 154.386C255.51 154.12 252.163 156.883 251.858 160.373C251.552 163.834 254.24 167.432 257.882 167.314Z" fill="#FDF1EE"/>
<path d="M296.827 185.523C295.36 186.968 293.657 189.485 292.88 192.612C289.09 193.929 269.933 199.523 251.74 185.533C250.894 184.884 249.673 185.041 249.023 185.887C248.374 186.732 248.531 187.951 249.378 188.6C260.019 196.78 270.838 198.855 279.285 198.766C285.103 198.707 289.769 197.626 292.486 196.82C292.643 199.425 293.559 202.257 295.715 205.118C296.04 205.55 296.512 205.806 297.004 205.875C297.487 205.943 297.999 205.816 298.432 205.501C299.288 204.862 299.456 203.643 298.816 202.787C292.978 195.05 299.288 188.551 299.564 188.276C300.322 187.519 300.322 186.3 299.564 185.543C298.806 184.786 297.585 184.776 296.817 185.523H296.827Z" fill="#FDF1EE"/>
<path d="M275.78 183.223C279.924 183.655 283.625 180.834 283.891 178.238C284.157 175.642 280.928 174.099 276.784 173.666C272.639 173.234 269.154 174.079 268.879 176.665C268.603 179.251 271.635 182.78 275.78 183.213V183.223Z" fill="#FDF1EE"/>
<path d="M326.34 218.381C339.039 218.381 349.326 208.107 349.326 195.424C349.326 182.741 339.039 172.467 326.34 172.467C313.641 172.467 303.354 182.741 303.354 195.424C303.354 208.107 313.641 218.381 326.34 218.381Z" fill="#FDF1EE"/>
<path d="M334.837 120.133C334.423 120.133 334.01 120.084 333.596 119.976C330.968 119.297 329.383 116.613 330.072 113.978L332.986 102.78C328.221 97.7166 308.178 81.2388 253.306 87.2754L252.519 99.4667C252.342 102.18 249.989 104.235 247.292 104.058C244.574 103.881 242.517 101.551 242.694 98.8375L243.748 82.5661C243.905 80.2163 245.707 78.2991 248.04 78.0042C322.728 68.5854 341.777 97.7953 342.555 99.0439C343.263 100.184 343.47 101.571 343.135 102.868L339.601 116.466C339.03 118.678 337.032 120.152 334.837 120.152V120.133Z" fill="#FDF1EE"/>
<path d="M332.818 101.758C332.74 101.758 332.661 101.758 332.592 101.758L332.74 90.9427C334.492 90.9821 337.288 90.3332 339.188 89.468C341.836 88.2685 343.952 85.8303 345.153 82.6252C346.62 78.7023 346.512 74.2388 344.878 70.6797C342.968 66.5307 339.069 63.768 334.462 63.2666C333.015 63.1093 331.686 62.3818 330.781 61.2315C329.875 60.0812 329.481 58.6261 329.668 57.1808C331.165 45.9138 321.468 35.443 307.578 33.3391C294.14 31.3039 279.433 37.4684 276.086 46.5233C275.495 48.1062 274.206 49.3352 272.581 49.8268C270.957 50.3183 269.205 50.0234 267.826 49.0304C263.958 46.2382 258.996 45.7171 254.881 47.6736C249.723 50.1217 246.819 53.8676 245.982 59.1373C245.313 63.4043 246.13 68.5954 248.167 73.0295C249.615 76.1756 251.564 78.1026 254.487 79.2726L250.451 89.3107C244.988 87.1182 240.902 83.1659 238.323 77.5422C235.39 71.1615 234.277 63.8369 235.281 57.4561C236.669 48.6371 241.838 41.8729 250.225 37.901C256.082 35.1186 262.806 34.981 268.801 37.3307C276.371 26.5847 293.038 20.1941 309.182 22.6422C327.03 25.3361 339.926 38.4515 340.605 53.6021C346.768 55.6668 351.946 60.1795 354.692 66.1473C357.508 72.2626 357.724 79.833 355.283 86.3907C353.068 92.3192 348.943 96.9106 343.647 99.3095C340.359 100.804 336.126 101.758 332.809 101.758H332.818Z" fill="#FDF1EE"/>
<path d="M262.786 84.2278C262.087 84.2278 261.388 84.0213 260.777 83.5789C256.426 80.4623 255.048 72.8526 254.812 71.3582C254.516 69.4803 255.806 67.7205 257.686 67.4255C259.566 67.1404 261.329 68.4185 261.624 70.2963C262.028 72.8624 263.356 76.9622 264.804 77.9945C266.349 79.1055 266.704 81.2488 265.591 82.7924C264.922 83.7264 263.859 84.2278 262.795 84.2278H262.786Z" fill="#FDF1EE"/>
<path d="M273.545 82.999C272.974 82.999 272.393 82.8515 271.852 82.5566C267.215 79.9414 265.748 73.1772 265.601 72.4103C265.227 70.5423 266.447 68.7333 268.308 68.3695C270.168 67.9959 271.98 69.2052 272.354 71.0634C272.718 72.8331 273.88 75.7924 275.238 76.5593C276.892 77.4933 277.483 79.5973 276.547 81.249C275.917 82.3698 274.746 82.999 273.545 82.999Z" fill="#FDF1EE"/>
<path d="M325.927 92.3291C324.707 92.3291 323.525 91.6802 322.895 90.5299C321.99 88.8585 322.6 86.7742 324.274 85.8599C325.839 85.0045 327.66 81.1112 328.379 78.6238C328.9 76.7951 330.81 75.7431 332.641 76.2642C334.472 76.7853 335.526 78.6926 335.004 80.5213C334.59 81.9764 332.267 89.3501 327.571 91.9064C327.05 92.1915 326.488 92.3291 325.927 92.3291Z" fill="#FDF1EE"/>
<path d="M315.412 88.121C314.054 88.121 312.764 87.3148 312.223 85.9777C311.504 84.2179 312.351 82.2122 314.113 81.4945C315.629 80.8751 317.165 77.8764 317.647 76.4115C318.247 74.6025 320.187 73.6292 321.998 74.2191C323.8 74.8188 324.784 76.7655 324.184 78.5647C323.937 79.302 321.654 85.8401 316.712 87.8556C316.288 88.0325 315.845 88.1112 315.412 88.1112V88.121Z" fill="#FDF1EE"/>
</g>
</g>
<g clip-path="url(#clip1_6556_267)">
<path d="M14.0462 345.05C14.0462 345.05 14.7338 344.504 15.2249 344.285C21.1184 341.771 33.3965 339.256 39.9776 339.256C49.2107 339.147 55.3989 339.366 58.7386 340.24C73.3741 343.192 79.9552 349.314 79.5623 358.169C79.6605 367.789 74.1599 373.146 60.212 374.786C53.5326 375.988 46.1658 376.316 38.0131 376.098C31.5302 376.098 22.8864 375.223 15.9125 373.583C7.0722 371.615 0.491125 368.992 0 359.918C0 349.533 6.87575 345.925 13.948 345.05H14.0462ZM8.2509 306.897C13.1622 306.897 18.2699 306.788 23.6722 306.679L23.4758 296.293C22.69 292.686 22.5918 288.859 26.8154 287.875C30.9409 288.422 32.4143 291.155 32.0214 295.637L32.2178 306.351C37.1291 306.132 42.4332 305.695 47.8356 305.367C47.6391 302.197 47.3445 297.605 47.0498 291.483C46.9516 288.641 48.3267 286.892 50.9788 286.236C53.6309 286.345 55.2025 287.875 55.5954 290.718C56.4794 299.463 57.4616 312.91 56.8723 322.53C56.7741 327.45 54.8096 330.292 51.2735 331.276C47.0498 332.478 38.0131 333.244 26.4225 333.353C21.7077 333.462 11.8852 334.009 8.2509 333.353C3.33965 332.916 0.3929 330.62 0.3929 322.64C0.19645 314.003 0 308.974 0.19645 307.225C0.3929 305.476 0.3929 301.869 0.687575 295.856C0.58935 292.03 1.08048 288.859 5.20593 288.859C8.74203 289.406 8.44735 291.155 8.54558 295.309C8.44735 299.463 8.34913 302.743 8.34913 305.476V307.007L8.2509 306.897ZM13.8497 352.375C12.7693 352.812 11.787 353.249 10.7065 354.015C8.93848 355.327 8.05445 356.857 7.95623 358.606C7.95623 363.744 13.7515 364.837 21.9042 366.368C25.2438 366.915 28.6817 367.133 32.0214 367.243C35.361 367.352 37.9149 367.352 39.8794 367.461C47.8356 367.68 54.2202 367.352 59.2297 366.259C67.1859 364.728 71.0167 363.307 71.1149 358.169C71.2132 353.468 66.4984 350.516 58.3457 348.33C53.238 347.127 47.5409 347.127 40.174 347.346C33.8876 347.346 23.2793 349.642 18.2699 352.047C16.4036 352.703 14.9302 352.703 13.8497 352.156V352.375ZM23.7705 314.659C18.5645 314.768 13.5551 314.768 8.34913 314.768C8.34913 316.408 8.34913 318.376 8.44735 320.562C8.54558 323.514 8.84025 324.717 11.1977 324.826C13.5551 324.935 16.0107 325.045 18.4663 324.935H23.9669L23.7705 314.659ZM32.316 314.44L32.7089 324.717C34.0841 324.607 35.4592 324.607 36.7362 324.498C40.0758 324.389 42.6297 324.279 44.5942 323.951C47.7374 323.514 49.0143 322.968 48.6214 318.157C48.5232 316.627 48.5232 315.206 48.4249 313.894C43.1208 314.113 37.8166 314.331 32.4143 314.44H32.316ZM83.6877 302.962C86.8309 303.399 88.3043 304.711 87.9114 307.225C87.8132 310.177 86.3398 311.489 83.3931 310.942C80.8392 310.833 78.6783 310.724 76.7138 310.505V312.145C76.9102 320.562 77.4013 328.434 77.9907 335.758C78.0889 338.272 76.812 339.912 74.0617 340.459C71.4096 340.678 69.838 338.928 69.3469 335.211C68.954 326.903 68.8558 319.688 68.8558 313.566C68.7575 307.444 68.6593 298.808 68.2664 287.985C68.8558 283.503 69.6416 283.612 71.8025 283.284C74.0617 283.065 75.7315 284.268 76.7138 287.001C76.5173 292.139 76.3209 297.386 76.3209 302.634C78.2854 302.634 80.5445 302.743 83.4913 303.071L83.6877 302.962Z" fill="#FDF1EE"/>
<path d="M173.073 364.184C175.529 364.184 178.279 365.605 178.279 368.338C178.181 371.181 176.904 372.711 174.547 372.821C149.794 373.258 120.818 373.476 98.717 372.274C96.0649 372.711 94.6898 371.399 94.2969 368.12C94.3951 364.621 95.8685 363.856 98.8152 363.856C120.13 365.059 146.356 364.621 173.073 364.075V364.184ZM165.019 348.77C162.563 348.114 161.876 345.928 162.76 342.539C165.019 330.404 165.706 313.459 164.921 302.855C164.43 299.357 162.76 297.717 158.438 297.717C141.74 298.373 128.872 298.591 115.022 298.154C111.192 298.264 109.227 298.154 107.263 298.045C104.807 298.045 103.53 296.624 103.432 293.781C103.334 289.299 105.691 289.299 111.192 289.19C127.89 289.627 142.132 289.409 157.259 288.971C167.278 288.534 171.207 292.032 172.582 298.154C174.35 313.568 173.663 334.012 170.52 344.616C169.93 347.677 168.064 349.098 165.019 348.879V348.77Z" fill="#FDF1EE"/>
<path d="M217.273 292.798C222.184 292.688 226.015 292.688 228.471 292.688C234.364 292.688 237.999 293.672 239.963 301.762C240.454 304.714 240.552 307.665 240.454 310.617C240.454 314.552 240.258 318.269 239.668 321.877C239.275 325.047 237.704 328.655 230.73 329.639C223.265 329.639 214.719 329.42 205.191 328.983C201.655 329.092 200.575 329.639 200.575 333.684C200.378 338.712 200.378 344.834 200.673 352.159C200.771 354.127 201.852 355.111 203.522 355.001C207.549 354.892 210.692 354.345 213.049 353.689C215.407 353.033 219.238 352.487 224.64 352.05C234.462 350.847 241.24 350.3 247.821 350.847C250.571 350.956 251.946 352.596 251.946 355.548C251.455 358.609 250.08 360.03 247.919 359.702C240.552 359.046 232.989 359.921 224.64 360.905C220.122 361.451 216.684 362.107 214.032 362.654C211.38 363.2 207.843 363.856 203.227 364.075C193.404 364.512 192.029 360.467 191.931 354.673C191.833 347.677 191.833 339.806 192.029 331.279C192.127 324.282 193.895 321.658 200.673 320.237C214.13 320.784 218.55 321.002 227.194 320.674C231.221 320.565 232.007 320.128 232.105 315.208C232.203 310.836 232.105 307.556 231.712 305.042C231.221 303.402 230.632 301.871 227.783 301.871C220.023 301.762 215.505 301.762 213.933 301.653C212.46 301.653 205.879 302.199 194.092 303.074C191.636 303.074 190.359 301.653 190.359 298.81C190.359 295.64 191.145 294.547 194.78 293.891C204.602 293.235 212.067 292.907 217.077 292.688L217.273 292.798ZM262.358 288.206C265.207 288.643 266.582 290.392 266.386 293.672C265.502 305.807 265.894 320.565 266.287 335.542C266.386 348.223 266.484 359.921 267.466 366.699C267.859 370.416 266.778 373.149 263.242 373.258C261.278 372.821 259.903 371.29 259.215 368.557C258.626 363.2 258.429 358.172 258.429 353.58C258.331 348.989 258.233 342.539 258.036 334.23C258.036 326.25 258.036 320.128 257.938 315.864C257.84 311.601 257.938 304.714 258.331 295.093C258.233 291.486 258.429 288.315 262.457 288.206H262.358Z" fill="#FDF1EE"/>
<path d="M357.44 292.47C360.289 292.907 361.566 294.656 361.271 297.936C360.387 310.071 359.7 324.501 359.7 339.806C359.798 345.053 359.798 349.754 359.798 354.018C359.798 358.281 359.994 362.326 360.485 366.043C360.682 368.229 360.976 370.634 361.271 373.367C361.861 375.772 360.485 377.959 356.851 378.068C354.887 378.068 353.511 376.428 352.726 373.149C352.529 371.509 352.234 369.651 352.038 367.901L345.064 368.448C319.82 368.557 301.059 368.557 288.585 368.667C285.245 368.667 280.039 369.213 280.039 364.403C280.137 361.233 282.004 359.702 285.54 359.812L351.449 359.374V356.423C351.35 350.738 351.449 343.851 351.547 335.652C351.94 319.363 351.94 318.27 352.824 298.92C352.824 295.312 353.315 292.251 357.44 292.251V292.47ZM300.961 293.235C302.925 292.361 304.89 291.705 306.756 291.267C308.917 290.83 311.176 290.721 313.534 290.721C317.07 290.721 321.49 290.83 328.857 294.547C335.143 298.155 341.135 307.884 340.84 320.675C339.956 335.542 335.634 342.758 327.285 346.802C324.83 348.224 317.757 349.863 311.864 349.754C295.166 349.863 286.325 345.272 283.575 331.06C282.986 327.343 282.888 323.845 282.986 320.675C283.87 309.743 285.834 306.026 288.978 301.325C291.237 297.827 294.773 295.094 298.407 293.344C299.488 292.907 300.273 292.907 301.059 293.126L300.961 293.235ZM293.103 310.071C291.826 313.787 291.138 317.504 291.04 321.221C290.942 325.048 291.04 328.218 291.63 330.732C294.773 340.571 302.827 341.336 311.668 341.336C326.991 341.336 332.197 334.34 332.491 320.019C332.589 308.649 325.223 301.216 320.017 300.013C317.954 299.466 316.481 299.248 315.4 299.138C314.32 299.029 313.828 299.029 313.436 299.029C311.176 299.138 308.917 299.466 306.854 299.904C305.283 300.56 303.711 301.216 302.434 302.09C301.354 302.746 300.47 302.855 299.684 302.199C296.344 304.277 294.085 306.791 293.005 309.961L293.103 310.071Z" fill="#FDF1EE"/>
<path d="M436.414 291.158C439.066 291.049 441.718 291.049 444.173 291.049C449.576 291.705 454.782 293.017 459.791 294.875C466.765 297.936 473.445 305.37 472.953 316.63C472.953 327.234 466.274 337.729 454.389 339.15C451.737 339.587 449.281 339.806 447.12 339.915C447.022 344.07 447.12 348.333 447.317 353.143C447.415 356.641 447.71 359.374 447.906 361.78H455.273C462.247 361.67 470.203 361.561 478.945 361.233C481.204 361.233 483.464 363.201 483.464 365.824C483.365 368.667 481.99 370.088 479.535 370.088C468.337 370.197 462.05 370.307 460.282 370.307C458.514 370.416 452.916 370.416 443.093 370.307C432.779 370.963 421.091 371.29 408.125 371.509C405.964 371.946 404.687 370.744 404.098 367.902C404.196 364.403 405.866 362.763 408.125 362.763C416.572 362.326 426.984 362.108 439.459 361.889C439.36 359.702 439.066 356.86 438.968 353.58C438.771 348.552 438.771 344.07 438.869 340.353C435.628 340.243 432.878 340.134 430.717 339.915C428.261 339.806 424.037 338.603 417.947 336.636C408.125 332.919 405.767 326.25 405.866 317.395C405.866 302.418 419.224 293.782 426.886 292.251C427.279 292.142 427.475 292.142 427.77 292.251C431.306 291.486 434.056 291.049 436.315 291.049L436.414 291.158ZM425.609 302.309C423.055 303.183 420.698 304.714 418.439 306.9C415.492 309.743 413.92 313.132 413.92 317.286C414.51 327.015 421.876 332.154 438.968 331.607C445.057 331.607 450.362 331.06 454.88 330.076C459.595 329.202 464.899 323.408 464.997 316.849C465.488 305.589 458.711 300.232 441.718 299.139C438.575 299.248 436.512 299.357 435.235 299.685C433.958 300.122 431.699 300.56 428.261 301.434H428.163C428.163 301.434 427.475 301.653 427.082 301.872C426.493 302.09 426.002 302.309 425.511 302.309H425.609Z" fill="#FDF1EE"/>
<path d="M564.99 336.525C567.249 336.525 569.508 337.509 569.508 340.242C569.41 343.084 568.035 344.615 565.579 344.833C545.443 345.271 530.316 345.052 498.099 347.02C496.036 347.02 494.857 345.708 494.562 343.303C494.661 339.805 496.527 338.711 498.786 338.711C522.164 337.29 544.264 336.525 564.99 336.525ZM531.397 303.619C538.174 303.182 546.131 302.963 555.266 303.073C554.873 297.06 554.48 292.141 553.89 288.424C553.498 286.128 554.382 284.488 556.346 283.504C558.998 283.395 560.766 284.16 561.257 286.019C562.338 289.626 562.829 296.404 563.124 306.352C563.32 310.616 563.32 315.863 563.222 321.985C562.731 327.779 559.096 328.654 555.757 328.763C545.148 328.654 536.406 328.654 529.629 328.982C522.851 329.31 515.092 329.747 506.644 329.856C502.617 329.856 498.197 328.654 498.393 320.892C498.295 318.05 498.295 313.896 498.295 308.211C498.295 302.526 498.197 298.372 498.099 295.092C497.706 291.922 497.607 288.205 501.635 288.205C504.974 288.642 506.448 292.359 505.858 294.874C505.957 297.607 506.055 300.777 506.055 304.494C516.074 304.275 524.619 303.838 531.495 303.291L531.397 303.619ZM509.1 353.361C511.261 355 511.654 357.077 510.279 359.373C509.198 360.904 507.528 364.074 506.939 366.151C506.546 368.556 507.725 369.212 510.377 369.103C514.404 369.212 517.645 369.212 520.199 368.884C522.753 368.556 527.468 368.228 534.442 367.9C547.801 367.463 551.337 367.9 557.819 368.337C561.65 368.228 564.499 368.337 566.463 368.447C568.919 368.447 570.196 369.868 570.196 372.71C570.196 377.958 564.106 376.865 558.114 376.865C555.56 376.865 552.614 376.755 549.274 376.427C545.934 376.099 541.023 376.318 534.442 376.646C528.254 377.083 524.128 377.192 522.164 377.302C520.199 377.411 516.27 377.52 510.573 377.739C502.126 377.739 499.179 375.99 498.295 368.337C498.393 362.653 500.849 358.389 503.108 354.891C505.269 352.158 507.332 352.377 509.296 353.47L509.1 353.361ZM531.593 311.709C526.191 312.256 517.645 312.584 505.957 312.912V319.143C506.153 321.111 507.037 322.095 508.412 322.095C526.486 321.22 536.799 320.783 554.382 320.783C555.462 320.892 555.855 320.127 555.855 318.268C555.855 317.066 555.855 315.207 555.757 312.474C555.757 312.037 555.757 311.6 555.659 311.053C544.952 311.163 536.996 311.272 531.692 311.709H531.593Z" fill="#FDF1EE"/>
</g>
<defs>
<clipPath id="clip0_6556_267">
<rect width="258.639" height="258.307" fill="white" transform="translate(155.68)"/>
</clipPath>
<clipPath id="clip1_6556_267">
<rect width="570" height="95" fill="white" transform="translate(0 283.176)"/>
</clipPath>
</defs>
</svg>
