<svg width="current" height="current" viewBox="0 0 80 80" fill="curent" xmlns="http://www.w3.org/2000/svg">
<path d="M71.8078 49.1567C70.731 45.9907 68.4495 43.1195 66.0865 40.4433C66.7656 39.4313 67.2098 38.2778 67.3866 37.0569C67.7029 34.8843 67.1517 32.7211 65.8353 30.9617C64.5189 29.2023 62.5956 28.0627 60.421 27.7493C58.5255 27.4754 56.6626 27.8607 55.095 28.7753C55.095 28.6128 55.0625 28.4503 54.9973 28.3018C55.0601 28.2762 55.1229 28.2507 55.1834 28.2228C56.4323 27.6565 57.4091 26.5725 57.9324 25.1729C58.5115 23.6248 58.458 21.8375 57.7929 20.3938C57.144 18.9849 55.9207 17.9172 54.4647 17.4321C54.3043 13.8553 51.2575 10.759 47.041 10.123C43.2244 9.54508 39.2893 11.0538 37.5008 13.5907C36.0844 13.036 34.4959 13.0685 33.1121 13.7253C31.1305 14.6654 29.9095 16.26 29.5816 18.342C29.3444 19.8484 29.6072 21.5753 30.3003 23.084C30.6189 23.7756 31.0352 24.3582 31.5422 24.8317L31.5096 25.3447C30.2677 24.0356 28.5978 23.1466 26.7163 22.8751C24.5394 22.5594 22.3718 23.1095 20.6089 24.4232C18.846 25.737 17.704 27.6565 17.39 29.8267C17.211 31.0499 17.311 32.2824 17.6761 33.4476C14.862 35.2348 13.1642 36.6414 11.2966 39.2596C9.42203 41.8894 7.94054 45.6077 7.33584 49.2077C6.52183 54.0495 7.19397 58.7892 9.28249 62.9137C9.60112 63.5428 10.3709 63.7958 11.0012 63.4778C11.6315 63.1598 11.885 62.3915 11.5664 61.7625C7.24049 53.2163 10.8617 44.2731 13.3805 40.7404C15.1945 38.1965 16.7946 36.9826 19.9228 35.0561C20.4786 34.7149 20.6856 34.0116 20.4065 33.4221C19.9274 32.4124 19.76 31.2959 19.9204 30.1911C20.1367 28.694 20.9252 27.371 22.1392 26.4658C23.3533 25.5606 24.8487 25.1822 26.3488 25.3981C28.6629 25.7323 30.5096 27.4151 31.0538 29.6851C31.2073 30.3234 31.8236 30.7435 32.4748 30.6507C35.8402 30.1818 39.3148 30.1865 42.7825 30.6646C46.2572 31.1915 49.59 32.1687 52.6879 33.5729C53.2879 33.8445 53.9973 33.617 54.3252 33.0484C55.4927 31.0244 57.744 29.9358 60.0558 30.27C61.5559 30.4859 62.8816 31.2727 63.7887 32.4843C64.6957 33.6959 65.0748 35.1884 64.8585 36.6855C64.698 37.7903 64.2212 38.8139 63.477 39.6426C63.0421 40.1277 63.0421 40.8611 63.477 41.3462C65.9028 44.0503 68.3587 46.9447 69.389 49.9714C73.2405 61.282 66.0888 66.3257 63.8049 67.6023C63.1886 67.9482 62.9677 68.7257 63.3142 69.3408C63.5491 69.7586 63.984 69.993 64.4306 69.993C64.6422 69.993 64.8562 69.9397 65.0539 69.8306C73.5987 65.0538 74.1475 56.0155 71.8102 49.1497L71.8078 49.1567ZM32.105 18.7389C32.3004 17.4948 32.9888 16.6081 34.2052 16.0325C35.1773 15.5706 36.3495 15.6936 37.2635 16.3528C37.5868 16.5872 38.0031 16.6569 38.3869 16.5408C38.7706 16.4248 39.0753 16.137 39.2148 15.7609C40.0033 13.6232 43.4803 12.1679 46.6549 12.6484C49.9365 13.1451 52.2274 15.617 51.8739 18.277C51.8274 18.6182 51.9227 18.964 52.1367 19.2333C52.3506 19.5025 52.6623 19.6766 53.0065 19.7137C54.095 19.8298 55.0159 20.4843 55.4671 21.4638C55.8532 22.3041 55.8788 23.3578 55.5323 24.284C55.2485 25.043 54.7485 25.6163 54.1229 25.8994C53.7298 26.0782 53.1786 26.2174 52.7693 26.243C52.5716 26.106 52.3576 25.9667 52.1274 25.8275C52.7437 25.0685 53.0646 24.0426 53.1367 23.7872C53.26 23.3555 53.0112 22.9076 52.5786 22.7845C52.146 22.6615 51.6971 22.9099 51.5715 23.3393C51.4087 23.9033 51.0064 24.7667 50.6505 25.0174C50.404 24.8967 50.1435 24.7783 49.8737 24.66C50.3203 24.0774 50.5435 23.4344 50.5807 23.3277C50.7226 22.9006 50.49 22.4433 50.0644 22.3018C49.6365 22.1602 49.1783 22.3923 49.0365 22.8194C48.9225 23.1652 48.5597 23.8731 48.2015 24.0194C48.2015 24.0194 48.1992 24.0194 48.1969 24.0194C45.8269 23.2279 42.7453 22.6453 38.8264 22.6754C38.5915 22.3876 38.4031 21.884 38.3357 21.5544C38.2473 21.1157 37.8194 20.8325 37.3798 20.9184C36.9379 21.0066 36.6519 21.4337 36.7402 21.8724C36.7565 21.9513 36.8333 22.3087 37.0077 22.7335C36.7565 22.7474 36.503 22.7613 36.2449 22.7799C36.0355 22.3737 35.8658 21.7865 35.8006 21.371C35.7309 20.9277 35.3146 20.6259 34.8703 20.6932C34.4261 20.7629 34.1215 21.1783 34.1912 21.6217C34.2191 21.8004 34.3168 22.3435 34.5378 22.9354C34.1656 22.9772 33.7889 23.0213 33.4028 23.0724C33.0818 22.8101 32.8307 22.4665 32.6237 22.0163C32.1422 20.9694 31.9492 19.7439 32.1074 18.7366L32.105 18.7389ZM33.6679 27.9489L33.8354 25.3586C45.7967 23.7942 51.2366 27.8166 52.6414 29.1072L52.2483 30.6182C49.3667 29.4553 46.3177 28.6221 43.1477 28.1416C39.9591 27.7029 36.7798 27.6402 33.6679 27.9466V27.9489Z" fill="#E0E0E0"/>
<path d="M42.5105 47.0239C42.664 47.0889 42.8268 47.1283 42.9896 47.1446C43.785 47.2188 44.6409 46.7291 44.7432 45.7914C44.8269 45.0301 44.3502 44.401 43.6176 44.3036C43.0082 44.2223 42.2058 44.5403 41.8732 45.1275C41.6942 45.4432 41.6476 45.8401 41.75 46.186C41.8639 46.5782 42.1616 46.8753 42.5105 47.0239Z" fill="#E0E0E0"/>
<path d="M34.8797 44.5449C34.9658 43.7117 34.5076 43.1407 33.7099 43.0803C32.8633 43.0177 32.0726 43.6699 32.0005 44.4939C31.9284 45.3109 32.5633 46.1604 33.4238 46.1326C34.2355 46.107 34.803 45.2923 34.8797 44.5449Z" fill="#E0E0E0"/>
<path d="M42.6245 50.4307C42.2779 50.7719 41.8756 51.3661 41.6918 52.1042C40.7964 52.4152 36.2705 53.7359 31.9726 50.433C31.7725 50.2798 31.4841 50.3169 31.3306 50.5165C31.1772 50.7162 31.2144 51.004 31.4144 51.1572C33.9285 53.0883 36.4845 53.5781 38.48 53.5572C39.8545 53.5432 40.9569 53.2879 41.5988 53.0976C41.636 53.7127 41.8523 54.3811 42.3617 55.0566C42.4384 55.1587 42.55 55.2191 42.6663 55.2353C42.7803 55.2516 42.9012 55.2214 43.0036 55.1471C43.2059 54.9962 43.2454 54.7084 43.0943 54.5065C41.7151 52.6798 43.2059 51.1456 43.271 51.0806C43.4501 50.9018 43.4501 50.614 43.2734 50.4353C43.0943 50.2566 42.8059 50.2543 42.6245 50.4307Z" fill="#E0E0E0"/>
<path d="M39.5684 48.7082C39.6312 48.0955 38.8684 47.7311 37.8893 47.6289C36.9101 47.5268 36.0868 47.7264 36.0217 48.3369C35.9566 48.9473 36.6729 49.7806 37.652 49.8827C38.6312 49.9872 39.5057 49.321 39.5684 48.7082Z" fill="#E0E0E0"/>
<path d="M50.4687 58.1162C53.4292 57.6366 55.4396 54.8527 54.9591 51.8981C54.4785 48.9435 51.689 46.9372 48.7285 47.4168C45.768 47.8964 43.7576 50.6803 44.2382 53.6349C44.7187 56.5894 47.5082 58.5958 50.4687 58.1162Z" fill="#E0E0E0"/>
</svg>
