<svg width="150" height="28" viewBox="0 0 150 28" fill="none" xmlns="http://www.w3.org/2000/svg">
<g clip-path="url(#clip0_7433_5913)">
<mask id="mask0_7433_5913" style="mask-type:luminance" maskUnits="userSpaceOnUse" x="4" y="0" width="28" height="28">
<path d="M32 0H4V28H32V0Z" fill="white"/>
</mask>
<g mask="url(#mask0_7433_5913)">
<path d="M27.4802 28H8.51977C6.02809 28 4 25.9719 4 23.4802V4.51977C4 2.02702 6.02809 0 8.51977 0H27.4802C29.973 0 32 2.02702 32 4.51977V23.4802C32 25.9719 29.9719 28 27.4802 28ZM8.51977 1.17231C6.67392 1.17231 5.17231 2.67392 5.17231 4.51977V23.4802C5.17231 25.3261 6.67392 26.8277 8.51977 26.8277H27.4802C29.3261 26.8277 30.8277 25.3261 30.8277 23.4802V4.51977C30.8277 2.67392 29.3261 1.17231 27.4802 1.17231H8.51977Z" fill="#F04C28"/>
<path d="M30.8586 20.7541C30.3865 19.3644 29.2611 18.0354 28.1495 16.7938C27.9502 16.5711 27.9502 16.2343 28.1495 16.0116C28.4905 15.6311 28.7101 15.1611 28.7826 14.6538C28.8827 13.9664 28.708 13.2812 28.2923 12.7249C27.8767 12.1685 27.2692 11.8073 26.5818 11.7081C25.5214 11.5547 24.4908 12.0556 23.9558 12.9838C23.8056 13.246 23.4805 13.3504 23.2056 13.2247C21.786 12.5799 20.2588 12.1312 18.6666 11.8893C17.0765 11.6698 15.4854 11.6676 13.9433 11.8829C13.6449 11.9245 13.3625 11.7327 13.2921 11.4396C13.0427 10.3973 12.1955 9.62463 11.1361 9.47117C10.4487 9.37206 9.76348 9.54577 9.20717 9.96141C8.65086 10.377 8.28957 10.9845 8.19046 11.6719C8.11693 12.1792 8.19366 12.6918 8.4132 13.1554C8.54109 13.425 8.44517 13.748 8.19153 13.9057C6.75812 14.7892 6.02489 15.3476 5.19469 16.5157L4.23979 15.8357C5.09557 14.6325 5.87356 13.9877 7.1631 13.1671C6.99578 12.6321 6.94995 12.0652 7.03201 11.5046C7.17588 10.5081 7.70022 9.62677 8.50698 9.02356C9.31481 8.42036 10.3091 8.16778 11.3056 8.31272C12.6665 8.50988 13.7845 9.41042 14.2747 10.6627C15.7689 10.4964 17.3003 10.5198 18.8361 10.7319C20.3739 10.9653 21.85 11.3778 23.2365 11.9607C24.0614 10.8982 25.3893 10.3525 26.7502 10.5497C27.7467 10.6936 28.628 11.2179 29.2312 12.0247C29.8344 12.8325 30.087 13.8258 29.9421 14.8233C29.8611 15.3839 29.6575 15.9135 29.3463 16.3782C30.4291 17.607 31.4735 18.9242 31.968 20.3789L30.8575 20.7562L30.8586 20.7541Z" fill="#F04C28"/>
<path d="M19.2283 18.5459C19.2986 18.5757 19.3732 18.5938 19.4478 18.6013C19.8123 18.6354 20.2045 18.4105 20.2514 17.98C20.2897 17.6304 20.0713 17.3416 19.7355 17.2968C19.4563 17.2595 19.0886 17.4056 18.9362 17.6752C18.8542 17.8201 18.8329 18.0024 18.8798 18.1612C18.932 18.3413 19.0684 18.4777 19.2283 18.5459Z" fill="#F04C28"/>
<path d="M15.0644 18.1366C15.4364 18.1249 15.6964 17.7508 15.7316 17.4077C15.771 17.0251 15.5611 16.7629 15.1955 16.7352C14.8076 16.7064 14.4452 17.0059 14.4122 17.3842C14.3792 17.7594 14.6701 18.1494 15.0644 18.1366Z" fill="#F04C28"/>
<path d="M19.2805 20.1104C19.1217 20.267 18.9373 20.5399 18.8531 20.8788C18.4428 21.0216 16.3689 21.628 14.3994 20.1114C14.3078 20.0411 14.1756 20.0582 14.1053 20.1498C14.0349 20.2415 14.052 20.3736 14.1436 20.444C15.2957 21.3306 16.4669 21.5555 17.3813 21.5459C18.0112 21.5395 18.5163 21.4223 18.8105 21.3349C18.8275 21.6173 18.9267 21.9243 19.1601 22.2344C19.1952 22.2813 19.2464 22.309 19.2997 22.3164C19.3519 22.3239 19.4073 22.3101 19.4542 22.2759C19.5469 22.2067 19.565 22.0745 19.4958 21.9818C18.8638 21.1431 19.5469 20.4386 19.5768 20.4088C19.6588 20.3267 19.6588 20.1946 19.5768 20.1125C19.4947 20.0304 19.3625 20.0294 19.2794 20.1104H19.2805Z" fill="#F04C28"/>
<path d="M17.0019 19.861C17.4506 19.9079 17.8513 19.602 17.8801 19.3207C17.9089 19.0393 17.5593 18.872 17.1106 18.8251C16.662 18.7782 16.2847 18.8699 16.2549 19.1502C16.225 19.4304 16.5533 19.813 17.0019 19.8599V19.861Z" fill="#F04C28"/>
<path d="M22.4755 23.6721C23.8503 23.6721 24.964 22.5584 24.964 21.1836C24.964 19.8088 23.8503 18.6951 22.4755 18.6951C21.1007 18.6951 19.9871 19.8088 19.9871 21.1836C19.9871 22.5584 21.1007 23.6721 22.4755 23.6721Z" fill="#F04C28"/>
<path d="M23.3953 13.0222C23.3505 13.0222 23.3057 13.0169 23.261 13.0051C22.9764 12.9316 22.8049 12.6407 22.8795 12.355L23.1949 11.1412C22.6791 10.5923 20.5093 8.80615 14.5689 9.46051L14.4836 10.782C14.4644 11.0762 14.2097 11.2989 13.9177 11.2797C13.6236 11.2605 13.4008 11.008 13.42 10.7138L13.534 8.95003C13.5511 8.69532 13.7461 8.4875 13.9987 8.45552C22.0844 7.43455 24.1466 10.6008 24.2308 10.7362C24.3075 10.8598 24.3299 11.0101 24.2937 11.1508L23.9111 12.6247C23.8493 12.8645 23.6329 13.0243 23.3953 13.0243V13.0222Z" fill="#F04C28"/>
<path d="M23.1768 11.0303C23.1683 11.0303 23.1597 11.0303 23.1523 11.0303L23.1683 9.85803C23.358 9.86229 23.6606 9.79195 23.8663 9.69817C24.153 9.56815 24.3821 9.30385 24.5122 8.95642C24.671 8.53119 24.6592 8.04735 24.4823 7.66156C24.2756 7.21182 23.8535 6.91234 23.3548 6.85799C23.1981 6.84094 23.0542 6.76208 22.9562 6.63739C22.8581 6.51269 22.8155 6.35497 22.8358 6.1983C22.9978 4.97697 21.948 3.84197 20.4443 3.6139C18.9895 3.3933 17.3973 4.06151 17.035 5.04305C16.971 5.21463 16.8314 5.34785 16.6556 5.40114C16.4797 5.45442 16.29 5.42245 16.1408 5.31481C15.722 5.01214 15.1849 4.95566 14.7394 5.16774C14.1809 5.43311 13.8666 5.83915 13.776 6.41039C13.7035 6.87291 13.792 7.43562 14.0126 7.91627C14.1692 8.2573 14.3802 8.46618 14.6968 8.59301L14.2598 9.68112C13.6683 9.44346 13.226 9.01504 12.9468 8.40544C12.6292 7.71378 12.5088 6.91981 12.6175 6.22814C12.7678 5.27218 13.3273 4.53896 14.2353 4.1084C14.8694 3.8068 15.5973 3.79188 16.2463 4.04659C17.0659 2.88174 18.8702 2.18902 20.618 2.45438C22.5501 2.7464 23.9463 4.16808 24.0198 5.81038C24.6869 6.03418 25.2475 6.52335 25.5449 7.17025C25.8497 7.83314 25.8731 8.65375 25.6088 9.3646C25.369 10.0072 24.9225 10.5049 24.3491 10.765C23.9931 10.927 23.5349 11.0303 23.1757 11.0303H23.1768Z" fill="#F04C28"/>
<path d="M15.5952 9.13013C15.5195 9.13013 15.4438 9.10775 15.3778 9.0598C14.9067 8.72196 14.7575 7.89708 14.7319 7.73509C14.7 7.53153 14.8396 7.34077 15.0431 7.3088C15.2467 7.27789 15.4374 7.41643 15.4694 7.61999C15.5131 7.89815 15.657 8.34256 15.8136 8.45446C15.981 8.57489 16.0193 8.80722 15.8989 8.97454C15.8264 9.07578 15.7113 9.13013 15.5962 9.13013H15.5952Z" fill="#F04C28"/>
<path d="M16.76 8.99692C16.6982 8.99692 16.6353 8.98093 16.5767 8.94896C16.0748 8.66548 15.916 7.93225 15.9 7.84912C15.8595 7.64663 15.9916 7.45054 16.1931 7.41111C16.3945 7.37061 16.5906 7.50169 16.6311 7.70312C16.6705 7.89495 16.7963 8.21574 16.9433 8.29886C17.1224 8.40011 17.1863 8.62817 17.0851 8.80722C17.0169 8.92871 16.89 8.99692 16.76 8.99692Z" fill="#F04C28"/>
<path d="M22.4308 10.0083C22.2986 10.0083 22.1707 9.93796 22.1025 9.81327C22.0045 9.63209 22.0706 9.40616 22.2517 9.30704C22.4212 9.21433 22.6184 8.7923 22.6962 8.52267C22.7526 8.32444 22.9594 8.21041 23.1576 8.26689C23.3558 8.32337 23.4699 8.53013 23.4134 8.72835C23.3686 8.88608 23.1171 9.68538 22.6088 9.96247C22.5523 9.99338 22.4915 10.0083 22.4308 10.0083Z" fill="#F04C28"/>
<path d="M21.2926 9.55216C21.1455 9.55216 21.0059 9.46477 20.9473 9.31983C20.8695 9.12907 20.9611 8.91166 21.1519 8.83386C21.316 8.76672 21.4823 8.44167 21.5345 8.28287C21.5995 8.08678 21.8095 7.98127 22.0056 8.04522C22.2006 8.11023 22.3072 8.32124 22.2422 8.51627C22.2155 8.5962 21.9683 9.30491 21.4333 9.52339C21.3874 9.54257 21.3395 9.5511 21.2926 9.5511V9.55216Z" fill="#F04C28"/>
</g>
</g>
<g clip-path="url(#clip1_7433_5913)">
<path d="M40.6614 16.7236C40.6614 16.7236 40.7917 16.62 40.8847 16.5786C42.0014 16.1022 44.3278 15.6257 45.5747 15.6257C47.3241 15.605 48.4966 15.6465 49.1294 15.8122C51.9025 16.3714 53.1494 17.5314 53.075 19.2092C53.0936 21.032 52.0514 22.0469 49.4086 22.3576C48.143 22.5855 46.7472 22.6476 45.2025 22.6062C43.9742 22.6062 42.3364 22.4405 41.015 22.1298C39.34 21.7569 38.0931 21.2598 38 19.5406C38 17.5728 39.3028 16.8893 40.6428 16.7236H40.6614ZM39.5633 9.49456C40.4939 9.49456 41.4617 9.47384 42.4853 9.45313L42.4481 7.48535C42.2992 6.80181 42.2806 6.07684 43.0808 5.89041C43.8625 5.99398 44.1417 6.51182 44.0672 7.36107L44.1044 9.39099C45.035 9.34956 46.04 9.26671 47.0636 9.20457C47.0264 8.60388 46.9705 7.73391 46.9147 6.57396C46.8961 6.03541 47.1566 5.70399 47.6591 5.57971C48.1616 5.60043 48.4594 5.89041 48.5339 6.42896C48.7014 8.08604 48.8875 10.6338 48.7758 12.4566C48.7572 13.3887 48.385 13.9272 47.715 14.1137C46.9147 14.3415 45.2025 14.4865 43.0064 14.5072C42.1131 14.5279 40.2519 14.6315 39.5633 14.5072C38.6328 14.4244 38.0745 13.9894 38.0745 12.4773C38.0372 10.8409 38 9.88811 38.0372 9.5567C38.0745 9.22528 38.0745 8.54174 38.1303 7.4025C38.1117 6.67753 38.2047 6.07684 38.9864 6.07684C39.6564 6.1804 39.6006 6.51182 39.6192 7.29893C39.6006 8.08604 39.5819 8.70745 39.5819 9.22528V9.51527L39.5633 9.49456ZM40.6242 18.1114C40.4194 18.1942 40.2333 18.2771 40.0286 18.4221C39.6936 18.6706 39.5261 18.9606 39.5075 19.292C39.5075 20.2656 40.6056 20.4727 42.1503 20.7627C42.7831 20.8663 43.4344 20.9077 44.0672 20.9284C44.7 20.9491 45.1839 20.9491 45.5561 20.9698C47.0636 21.0112 48.2733 20.9491 49.2225 20.742C50.73 20.452 51.4558 20.1827 51.4744 19.2092C51.493 18.3185 50.5997 17.7592 49.055 17.345C48.0872 17.1171 47.0078 17.1171 45.6119 17.1585C44.4208 17.1585 42.4108 17.5935 41.4617 18.0492C41.1081 18.1735 40.8289 18.1735 40.6242 18.0699V18.1114ZM42.5039 10.9652C41.5175 10.9859 40.5683 10.9859 39.5819 10.9859C39.5819 11.2966 39.5819 11.6695 39.6006 12.0837C39.6192 12.643 39.675 12.8709 40.1217 12.8916C40.5683 12.9123 41.0336 12.933 41.4989 12.9123H42.5411L42.5039 10.9652ZM44.123 10.9238L44.1975 12.8709C44.458 12.8501 44.7186 12.8501 44.9605 12.8294C45.5933 12.8087 46.0772 12.788 46.4494 12.7259C47.045 12.643 47.2869 12.5394 47.2125 11.628C47.1939 11.3381 47.1939 11.0688 47.1753 10.8202C46.1703 10.8616 45.1653 10.9031 44.1417 10.9238H44.123ZM53.8566 8.74887C54.4522 8.83173 54.7313 9.08029 54.6569 9.5567C54.6383 10.116 54.3591 10.3645 53.8008 10.261C53.3169 10.2402 52.9075 10.2195 52.5352 10.1781V10.4888C52.5725 12.0837 52.6655 13.5751 52.7772 14.9629C52.7958 15.4393 52.5539 15.75 52.0327 15.8536C51.5302 15.895 51.2325 15.5636 51.1394 14.8593C51.065 13.2851 51.0464 11.918 51.0464 10.7581C51.0277 9.59812 51.0091 7.96176 50.9347 5.91113C51.0464 5.06188 51.1952 5.08259 51.6047 5.02045C52.0327 4.97902 52.3491 5.20687 52.5352 5.72471C52.498 6.69824 52.4608 7.69249 52.4608 8.68673C52.833 8.68673 53.2611 8.70745 53.8194 8.76959L53.8566 8.74887Z" fill="#F04C28"/>
<path d="M70.7927 20.3489C71.258 20.3489 71.7791 20.6182 71.7791 21.136C71.7605 21.6746 71.5185 21.9645 71.0719 21.9853C66.3819 22.0681 60.8916 22.1095 56.7041 21.8817C56.2016 21.9645 55.9411 21.716 55.8666 21.0946C55.8852 20.4317 56.1644 20.2868 56.7227 20.2868C60.7613 20.5146 65.7305 20.4317 70.7927 20.3282V20.3489ZM69.2666 17.4283C68.8013 17.304 68.671 16.8897 68.8385 16.2476C69.2666 13.9484 69.3969 10.7378 69.248 8.72864C69.1549 8.06581 68.8385 7.75511 68.0197 7.75511C64.8558 7.87939 62.4177 7.92082 59.7936 7.83796C59.0677 7.85868 58.6955 7.83796 58.3233 7.81725C57.858 7.81725 57.6161 7.54797 57.5975 7.00942C57.5788 6.16017 58.0255 6.16017 59.0677 6.13946C62.2316 6.22231 64.9302 6.18089 67.7963 6.09803C69.6946 6.01518 70.4391 6.67801 70.6996 7.83796C71.0346 10.7586 70.9044 14.632 70.3088 16.6412C70.1971 17.2212 69.8435 17.4904 69.2666 17.449V17.4283Z" fill="#F04C28"/>
<path d="M79.1677 6.82297C80.0982 6.80225 80.8241 6.80225 81.2893 6.80225C82.406 6.80225 83.0946 6.98868 83.4668 8.52147C83.5599 9.08074 83.5785 9.64 83.5599 10.1993C83.5599 10.9449 83.5227 11.6492 83.411 12.3327C83.3365 12.9334 83.0388 13.617 81.7174 13.8034C80.3029 13.8034 78.6838 13.762 76.8785 13.6791C76.2085 13.6998 76.0038 13.8034 76.0038 14.5698C75.9666 15.5226 75.9666 16.6826 76.0224 18.0704C76.041 18.4432 76.2457 18.6296 76.5621 18.6089C77.3252 18.5882 77.9207 18.4846 78.3674 18.3604C78.8141 18.2361 79.5399 18.1325 80.5635 18.0497C82.4246 17.8218 83.7088 17.7183 84.9557 17.8218C85.4768 17.8425 85.7374 18.1532 85.7374 18.7125C85.6443 19.2925 85.3838 19.5617 84.9743 19.4996C83.5785 19.3753 82.1454 19.541 80.5635 19.7275C79.7074 19.831 79.056 19.9553 78.5535 20.0589C78.051 20.1624 77.381 20.2867 76.5063 20.3281C74.6452 20.411 74.3846 19.6446 74.366 18.5468C74.3474 17.2211 74.3474 15.7298 74.3846 14.1141C74.4032 12.7884 74.7382 12.2913 76.0224 12.022C78.5721 12.1256 79.4096 12.167 81.0474 12.1049C81.8104 12.0842 81.9593 12.0013 81.9779 11.0692C81.9965 10.2407 81.9779 9.61929 81.9035 9.14288C81.8104 8.83217 81.6988 8.54219 81.1591 8.54219C79.6888 8.52147 78.8327 8.52147 78.5349 8.50076C78.2557 8.50076 77.0088 8.60433 74.7755 8.77003C74.3102 8.77003 74.0682 8.50076 74.0682 7.96221C74.0682 7.36152 74.2171 7.15438 74.9057 7.0301C76.7668 6.90582 78.1813 6.84368 79.1304 6.80225L79.1677 6.82297ZM87.7101 5.953C88.2499 6.03586 88.5104 6.36727 88.4732 6.98868C88.3057 9.28787 88.3801 12.0842 88.4546 14.9219C88.4732 17.3247 88.4918 19.541 88.6779 20.8253C88.7524 21.5295 88.5476 22.0474 87.8776 22.0681C87.5054 21.9852 87.2449 21.6952 87.1146 21.1774C87.0029 20.1624 86.9657 19.2096 86.9657 18.3397C86.9471 17.4697 86.9285 16.2476 86.8913 14.6734C86.8913 13.1613 86.8913 12.0013 86.8726 11.1935C86.854 10.3857 86.8726 9.08074 86.9471 7.25795C86.9285 6.57441 86.9657 5.97372 87.7288 5.953H87.7101Z" fill="#F04C28"/>
<path d="M105.726 6.76087C106.265 6.84372 106.507 7.17514 106.451 7.79654C106.284 10.0957 106.154 12.8299 106.154 15.7298C106.172 16.724 106.172 17.6147 106.172 18.4225C106.172 19.2304 106.21 19.9968 106.303 20.701C106.34 21.1153 106.396 21.571 106.451 22.0888C106.563 22.5445 106.303 22.9588 105.614 22.9795C105.242 22.9795 104.981 22.6688 104.832 22.0474C104.795 21.7367 104.739 21.3846 104.702 21.0532L103.381 21.1567C98.5976 21.1774 95.0429 21.1774 92.6793 21.1982C92.0465 21.1982 91.0601 21.3017 91.0601 20.3903C91.0787 19.7896 91.4323 19.4996 92.1023 19.5204L104.59 19.4375V18.8782C104.572 17.8011 104.59 16.4962 104.609 14.9427C104.683 11.8564 104.683 11.6492 104.851 7.98296C104.851 7.29942 104.944 6.71944 105.726 6.71944V6.76087ZM95.0243 6.90586C95.3965 6.74015 95.7687 6.61587 96.1223 6.53302C96.5318 6.45016 96.9598 6.42945 97.4065 6.42945C98.0765 6.42945 98.914 6.45016 100.31 7.15442C101.501 7.83797 102.636 9.68147 102.58 12.1049C102.413 14.922 101.594 16.2891 100.012 17.0555C99.5468 17.3247 98.2068 17.6354 97.0901 17.6147C93.9262 17.6354 92.2512 16.7655 91.7301 14.0727C91.6184 13.3685 91.5998 12.7056 91.6184 12.1049C91.7859 10.0336 92.1582 9.32934 92.7537 8.43866C93.1818 7.77583 93.8518 7.25799 94.5404 6.92657C94.7451 6.84372 94.894 6.84372 95.0429 6.88515L95.0243 6.90586ZM93.5354 10.0957C93.2934 10.8 93.1632 11.5043 93.1445 12.2085C93.1259 12.9335 93.1446 13.5342 93.2562 14.0106C93.8518 15.8748 95.3779 16.0198 97.0529 16.0198C99.9562 16.0198 100.943 14.6941 100.998 11.9807C101.017 9.82646 99.6212 8.41794 98.6348 8.1901C98.244 8.08653 97.9648 8.0451 97.7601 8.02439C97.5554 8.00367 97.4623 8.00367 97.3879 8.00367C96.9598 8.02439 96.5318 8.08653 96.1409 8.16938C95.8432 8.29366 95.5454 8.41794 95.3034 8.58365C95.0987 8.70793 94.9312 8.72865 94.7823 8.60436C94.1495 8.99792 93.7215 9.47433 93.5168 10.075L93.5354 10.0957Z" fill="#F04C28"/>
<path d="M120.689 6.51237C121.191 6.49165 121.694 6.49165 122.159 6.49165C123.183 6.61593 124.169 6.8645 125.118 7.21662C126.44 7.7966 127.705 9.20512 127.612 11.3386C127.612 13.3478 126.347 15.3363 124.095 15.6056C123.592 15.6884 123.127 15.7299 122.718 15.7506C122.699 16.5377 122.718 17.3455 122.755 18.2569C122.773 18.9197 122.829 19.4376 122.866 19.8933H124.262C125.584 19.8726 127.091 19.8518 128.748 19.7897C129.176 19.7897 129.604 20.1625 129.604 20.6597C129.585 21.1982 129.324 21.4675 128.859 21.4675C126.738 21.4882 125.546 21.5089 125.211 21.5089C124.876 21.5296 123.816 21.5296 121.955 21.5089C120 21.6332 117.786 21.6953 115.329 21.7368C114.92 21.8196 114.678 21.5918 114.566 21.0532C114.585 20.3904 114.901 20.0797 115.329 20.0797C116.93 19.9968 118.902 19.9554 121.266 19.914C121.247 19.4997 121.191 18.9612 121.173 18.3398C121.136 17.3869 121.136 16.5377 121.154 15.8334C120.54 15.8127 120.019 15.792 119.61 15.7506C119.144 15.7299 118.344 15.502 117.19 15.1292C115.329 14.4249 114.882 13.1614 114.901 11.4836C114.901 8.64585 117.432 7.00949 118.884 6.7195C118.958 6.69879 118.995 6.69879 119.051 6.7195C119.721 6.57451 120.242 6.49165 120.67 6.49165L120.689 6.51237ZM118.642 8.62514C118.158 8.79085 117.711 9.08084 117.283 9.49511C116.725 10.0337 116.427 10.6758 116.427 11.4629C116.539 13.3064 117.935 14.2799 121.173 14.1763C122.327 14.1763 123.332 14.0728 124.188 13.8864C125.081 13.7207 126.086 12.6228 126.105 11.38C126.198 9.24654 124.914 8.23158 121.694 8.02445C121.098 8.04516 120.708 8.06588 120.466 8.12802C120.224 8.21087 119.796 8.29372 119.144 8.45943H119.126C119.126 8.45943 118.995 8.50086 118.921 8.54229C118.809 8.58371 118.716 8.62514 118.623 8.62514H118.642Z" fill="#F04C28"/>
<path d="M145.051 15.1083C145.479 15.1083 145.907 15.2947 145.907 15.8125C145.888 16.3511 145.628 16.6411 145.163 16.6825C141.347 16.7654 138.481 16.7239 132.377 17.0968C131.986 17.0968 131.763 16.8482 131.707 16.3925C131.725 15.7297 132.079 15.5225 132.507 15.5225C136.936 15.2533 141.124 15.1083 145.051 15.1083ZM138.686 8.87352C139.97 8.79067 141.478 8.74924 143.208 8.76996C143.134 7.63072 143.059 6.69861 142.948 5.99435C142.873 5.55937 143.041 5.24867 143.413 5.06225C143.916 5.04153 144.251 5.18653 144.344 5.53866C144.548 6.2222 144.641 7.50644 144.697 9.39136C144.734 10.1992 144.734 11.1934 144.716 12.3534C144.623 13.4512 143.934 13.6169 143.301 13.6376C141.291 13.6169 139.635 13.6169 138.351 13.679C137.067 13.7412 135.596 13.824 133.996 13.8448C133.233 13.8448 132.395 13.6169 132.433 12.1463C132.414 11.6077 132.414 10.8206 132.414 9.74349C132.414 8.66639 132.395 7.87928 132.377 7.25787C132.302 6.65718 132.284 5.95293 133.047 5.95293C133.68 6.03578 133.959 6.74004 133.847 7.21645C133.866 7.73428 133.884 8.33497 133.884 9.03923C135.783 8.99781 137.402 8.91495 138.704 8.81138L138.686 8.87352ZM134.461 18.2982C134.871 18.6089 134.945 19.0024 134.685 19.4374C134.48 19.7274 134.163 20.3281 134.052 20.7216C133.977 21.1773 134.201 21.3016 134.703 21.2809C135.466 21.3016 136.08 21.3016 136.564 21.2395C137.048 21.1773 137.941 21.1152 139.263 21.053C141.794 20.9702 142.464 21.053 143.692 21.1359C144.418 21.1152 144.958 21.1359 145.33 21.1566C145.795 21.1566 146.037 21.4259 146.037 21.9644C146.037 22.9587 144.883 22.7515 143.748 22.7515C143.264 22.7515 142.706 22.7308 142.073 22.6687C141.44 22.6066 140.51 22.648 139.263 22.7101C138.09 22.793 137.309 22.8137 136.936 22.8344C136.564 22.8551 135.82 22.8758 134.74 22.9173C133.14 22.9173 132.581 22.5858 132.414 21.1359C132.433 20.0588 132.898 19.251 133.326 18.5881C133.735 18.0703 134.126 18.1117 134.498 18.3189L134.461 18.2982ZM138.723 10.4063C137.699 10.5099 136.08 10.572 133.866 10.6342V11.8148C133.903 12.1877 134.07 12.3741 134.331 12.3741C137.755 12.2084 139.709 12.1255 143.041 12.1255C143.246 12.1463 143.32 12.0013 143.32 11.6491C143.32 11.4213 143.32 11.0692 143.301 10.5513C143.301 10.4685 143.301 10.3856 143.283 10.282C141.254 10.3028 139.747 10.3235 138.742 10.4063H138.723Z" fill="#F04C28"/>
</g>
<defs>
<clipPath id="clip0_7433_5913">
<rect width="28" height="28" fill="white" transform="translate(4)"/>
</clipPath>
<clipPath id="clip1_7433_5913">
<rect width="108" height="18" fill="white" transform="translate(38 5)"/>
</clipPath>
</defs>
</svg>
