<svg width="24" height="24" viewBox="0 0 24 24" fill="none" xmlns="http://www.w3.org/2000/svg">
<g clip-path="url(#clip0_9116_12377)">
<path d="M17.6154 18.999H20.3369C20.9819 18.999 21.496 18.4801 21.496 17.8515V7.62135C21.496 6.98272 20.9719 6.47381 20.3369 6.47381H16.5368V5.2664C16.5368 4.8473 16.1941 4.49805 15.7607 4.49805H9.7533C9.32995 4.49805 8.97717 4.83732 8.97717 5.2664V6.47381H7.24348V5.16661H4.23356V6.47381H3.65903C3.01394 6.47381 2.49988 6.9927 2.49988 7.62135L2.49988 17.8515C2.49988 18.4901 3.02402 18.999 3.65903 18.999H15.6095" stroke="#9E9E9E" stroke-linecap="round" stroke-linejoin="round"/>
<path d="M18.0992 8.21094H19.591" stroke="#9E9E9E" stroke-miterlimit="10" stroke-linecap="round"/>
<path d="M11.8 16.5239C13.8987 16.5239 15.6 14.8396 15.6 12.7619C15.6 10.6843 13.8987 9 11.8 9C9.70132 9 8 10.6843 8 12.7619C8 14.8396 9.70132 16.5239 11.8 16.5239Z" stroke="#9E9E9E" stroke-width="0.84" stroke-miterlimit="10" stroke-linecap="round"/>
<path d="M10.3384 11.1643C10.7214 10.815 11.2455 10.6055 11.81 10.6055C13.0095 10.6055 13.9872 11.5734 13.9872 12.7608C13.9872 13.9483 13.0095 14.9162 11.81 14.9162C10.6105 14.9162 9.63281 13.9483 9.63281 12.7608" stroke="#9E9E9E" stroke-width="0.84" stroke-miterlimit="10" stroke-linecap="round"/>
</g>
<defs>
<clipPath id="clip0_9116_12377">
<rect width="20" height="16" fill="white" transform="translate(2 4)"/>
</clipPath>
</defs>
</svg>
