<svg width="21" height="20" viewBox="0 0 21 20" fill="none" xmlns="http://www.w3.org/2000/svg">
<g clip-path="url(#clip0_8450_4919)">
<path d="M17.1108 10.8675C16.9535 12.0675 16.4724 13.202 15.7193 14.1493C14.9662 15.0967 13.9694 15.8211 12.8358 16.245C11.7022 16.6689 10.4747 16.7763 9.28472 16.5555C8.09479 16.3347 6.9874 15.7942 6.0813 14.9919C5.17521 14.1897 4.5046 13.1558 4.1414 12.0014C3.7782 10.8469 3.73611 9.6154 4.01964 8.43884C4.30317 7.26228 4.90162 6.1851 5.75082 5.32281C6.60002 4.46053 7.66793 3.84567 8.84001 3.54418C12.0892 2.71085 15.4525 4.38335 16.6942 7.50002" stroke="#212121" stroke-linecap="round" stroke-linejoin="round"/>
<path d="M17.1667 3.33337V7.50004H13" stroke="#212121" stroke-linecap="round" stroke-linejoin="round"/>
</g>
<defs>
<clipPath id="clip0_8450_4919">
<rect width="20" height="20" fill="white" transform="translate(0.5)"/>
</clipPath>
</defs>
</svg>
