<svg width="24" height="24" viewBox="0 0 24 24" fill="none" xmlns="http://www.w3.org/2000/svg">
<g clip-path="url(#clip0_493_23496)">
<path d="M9.20455 8.43422L3.7343 9.22732L3.63741 9.24704C3.49074 9.28597 3.35704 9.36314 3.24994 9.47065C3.14285 9.57816 3.06621 9.71217 3.02785 9.85899C2.98949 10.0058 2.99078 10.1602 3.03159 10.3063C3.0724 10.4525 3.15128 10.5852 3.26015 10.6909L7.22308 14.5484L6.28851 19.9972L6.27737 20.0915C6.26839 20.2432 6.29989 20.3946 6.36864 20.5301C6.43739 20.6656 6.54092 20.7804 6.66863 20.8628C6.79634 20.9451 6.94365 20.992 7.09546 20.9987C7.24727 21.0054 7.39814 20.9717 7.53261 20.9009L12.425 18.3287L17.3062 20.9009L17.3919 20.9403C17.5334 20.9961 17.6873 21.0132 17.8376 20.9899C17.9879 20.9666 18.1293 20.9037 18.2473 20.8077C18.3653 20.7117 18.4556 20.586 18.509 20.4436C18.5624 20.3012 18.5769 20.1471 18.5511 19.9972L17.6157 14.5484L21.5804 10.6901L21.6472 10.6172C21.7428 10.4995 21.8054 10.3586 21.8288 10.2089C21.8521 10.0591 21.8354 9.90585 21.7802 9.76468C21.725 9.62351 21.6334 9.49948 21.5148 9.40524C21.3961 9.31099 21.2545 9.2499 21.1045 9.22817L15.6342 8.43422L13.1889 3.47841C13.1182 3.33482 13.0086 3.21391 12.8727 3.12936C12.7368 3.04481 12.5799 3 12.4198 3C12.2598 3 12.1029 3.04481 11.967 3.12936C11.831 3.21391 11.7215 3.33482 11.6507 3.47841L9.20455 8.43422Z" fill="#FFD569"/>
</g>
<defs>
<clipPath id="clip0_493_23496">
<rect width="24" height="24" fill="white"/>
</clipPath>
</defs>
</svg>
