<svg xmlns="http://www.w3.org/2000/svg" width="18" height="18" viewBox="0 0 18 18" fill="none">
  <path d="M2.80806 7.36304H5.45325V14.4057H2.80806C2.66005 14.4057 2.51811 14.347 2.41345 14.2422C2.30879 14.1376 2.25 13.9956 2.25 13.8477V7.92109C2.25 7.77309 2.30879 7.63115 2.41345 7.52649C2.51811 7.42184 2.66005 7.36304 2.80806 7.36304Z" stroke="#F04C28" stroke-linecap="round" stroke-linejoin="round"/>
  <path d="M5.45312 7.3626L8.28805 2.83118C8.39791 2.65208 8.5523 2.50448 8.73616 2.40277C8.92001 2.30106 9.12709 2.24871 9.3372 2.25081C9.50268 2.24483 9.66767 2.27209 9.82242 2.33097C9.97719 2.38986 10.1186 2.47916 10.2382 2.59362C10.3579 2.70807 10.4534 2.84535 10.5191 2.99735C10.5848 3.14933 10.6193 3.31295 10.6207 3.47853V6.72642H15.5205C15.7015 6.73229 15.8792 6.77641 16.042 6.8559C16.2048 6.93539 16.3489 7.04841 16.4649 7.18758C16.5809 7.32674 16.6661 7.48886 16.7149 7.66331C16.7637 7.83775 16.7751 8.02055 16.7482 8.19968L15.8553 13.9588C15.8173 14.2666 15.668 14.5499 15.4358 14.7555C15.2036 14.961 14.9042 15.0746 14.594 15.075H7.27239C6.92385 15.0763 6.57984 14.9961 6.26788 14.8405L5.46428 14.4388" stroke="#F04C28" stroke-linecap="round" stroke-linejoin="round"/>
</svg>