<svg xmlns="http://www.w3.org/2000/svg" width="18" height="18" viewBox="0 0 18 18" fill="none">
  <path d="M2.80806 7.36304H5.45325V14.4057H2.80806C2.66005 14.4057 2.51811 14.347 2.41345 14.2422C2.30879 14.1376 2.25 13.9956 2.25 13.8477V7.92109C2.25 7.77309 2.30879 7.63115 2.41345 7.52649C2.51811 7.42184 2.66005 7.36304 2.80806 7.36304Z" stroke="#9E9E9E" stroke-linecap="round" stroke-linejoin="round"/>
  <mask id="path-2-inside-1_7859_17444" fill="white">
    <path d="M5.45312 7.3626L8.28805 2.83118C8.39791 2.65208 8.5523 2.50448 8.73616 2.40277C8.92001 2.30106 9.12709 2.24871 9.3372 2.25081C9.50268 2.24483 9.66767 2.27209 9.82242 2.33097C9.97719 2.38986 10.1186 2.47916 10.2382 2.59362C10.3579 2.70807 10.4534 2.84535 10.5191 2.99735C10.5848 3.14933 10.6193 3.31295 10.6207 3.47853V6.72642H15.5205C15.7015 6.73229 15.8792 6.77641 16.042 6.8559C16.2048 6.93539 16.3489 7.04841 16.4649 7.18758C16.5809 7.32674 16.6661 7.48886 16.7149 7.66331C16.7637 7.83775 16.7751 8.02055 16.7482 8.19968L15.8553 13.9588C15.8173 14.2666 15.668 14.5499 15.4358 14.7555C15.2036 14.961 14.9042 15.0746 14.594 15.075H7.27239C6.92385 15.0763 6.57984 14.9961 6.26788 14.8405L5.46428 14.4388"/>
  </mask>
  <path d="M4.60536 6.83223C4.31244 7.30044 4.45454 7.91745 4.92275 8.21037C5.39096 8.50329 6.00797 8.36118 6.30089 7.89298L4.60536 6.83223ZM8.28805 2.83118L9.13584 3.36158L9.14044 3.35408L8.28805 2.83118ZM9.3372 2.25081L9.32724 3.25076C9.34259 3.25091 9.35794 3.25071 9.37328 3.25016L9.3372 2.25081ZM9.82242 2.33097L9.46681 3.26561L9.46683 3.26561L9.82242 2.33097ZM10.2382 2.59362L10.9295 1.87099L10.9294 1.87096L10.2382 2.59362ZM10.5191 2.99735L9.60113 3.39405L9.60117 3.39413L10.5191 2.99735ZM10.6207 3.47853H11.6208L11.6207 3.47017L10.6207 3.47853ZM10.6207 6.72642H9.62072C9.62072 7.2787 10.0684 7.72642 10.6207 7.72642V6.72642ZM15.5205 6.72642L15.5529 5.72694C15.5421 5.72659 15.5313 5.72642 15.5205 5.72642V6.72642ZM16.042 6.8559L15.6032 7.75449L15.6033 7.75451L16.042 6.8559ZM16.7482 8.19968L17.7364 8.3529L17.7371 8.34812L16.7482 8.19968ZM15.8553 13.9588L14.8671 13.8056C14.8655 13.8158 14.8641 13.826 14.8628 13.8362L15.8553 13.9588ZM14.594 15.075V16.075L14.5951 16.075L14.594 15.075ZM7.27239 15.075V14.0749L7.26851 14.075L7.27239 15.075ZM6.26788 14.8405L5.82073 15.735L5.82156 15.7354L6.26788 14.8405ZM5.91144 13.5443C5.41745 13.2974 4.81679 13.4976 4.56983 13.9916C4.32287 14.4856 4.52313 15.0863 5.01713 15.3332L5.91144 13.5443ZM6.30089 7.89298L9.13581 3.36156L7.44028 2.30081L4.60536 6.83223L6.30089 7.89298ZM9.14044 3.35408C9.16001 3.32219 9.1875 3.29591 9.22023 3.2778L8.25209 1.52774C7.9171 1.71306 7.63582 1.98198 7.43565 2.30829L9.14044 3.35408ZM9.22023 3.2778C9.25291 3.25972 9.28978 3.25038 9.32724 3.25076L9.34716 1.25086C8.9644 1.24704 8.58712 1.3424 8.25209 1.52774L9.22023 3.2778ZM9.37328 3.25016C9.40518 3.249 9.43699 3.25426 9.46681 3.26561L10.178 1.39634C9.89835 1.28992 9.60017 1.24066 9.30112 1.25146L9.37328 3.25016ZM9.46683 3.26561C9.49667 3.27697 9.52394 3.29419 9.54703 3.31628L10.9294 1.87096C10.7132 1.66413 10.4577 1.50274 10.178 1.39633L9.46683 3.26561ZM9.547 3.31624C9.5701 3.33834 9.58849 3.3648 9.60113 3.39405L11.437 2.60064C11.3183 2.32589 11.1457 2.07781 10.9295 1.87099L9.547 3.31624ZM9.60117 3.39413C9.61382 3.42341 9.62049 3.45495 9.62076 3.48689L11.6207 3.47017C11.6182 3.17095 11.5557 2.87525 11.437 2.60056L9.60117 3.39413ZM9.62072 3.47853V6.72642H11.6207V3.47853H9.62072ZM10.6207 7.72642H15.5205V5.72642H10.6207V7.72642ZM15.4881 7.72589C15.528 7.72719 15.5673 7.73693 15.6032 7.75449L16.4808 5.95732C16.1912 5.8159 15.875 5.73739 15.5529 5.72694L15.4881 7.72589ZM15.6033 7.75451C15.6393 7.77208 15.6711 7.79705 15.6967 7.82782L17.2331 6.54733C17.0268 6.29977 16.7704 6.09869 16.4808 5.95729L15.6033 7.75451ZM15.6967 7.82782C15.7223 7.85845 15.7411 7.89421 15.7519 7.93284L17.6779 7.39377C17.591 7.08351 17.4395 6.79503 17.2331 6.54733L15.6967 7.82782ZM15.7519 7.93284C15.7627 7.97143 15.7652 8.01179 15.7593 8.05125L17.7371 8.34812C17.785 8.02931 17.7647 7.70407 17.6779 7.39377L15.7519 7.93284ZM15.76 8.04647L14.8671 13.8056L16.8435 14.1121L17.7364 8.35289L15.76 8.04647ZM14.8628 13.8362C14.8547 13.9018 14.8229 13.9625 14.773 14.0067L16.0986 15.5042C16.5131 15.1373 16.7798 14.6315 16.8477 14.0814L14.8628 13.8362ZM14.773 14.0067C14.7234 14.0505 14.6594 14.0749 14.593 14.075L14.5951 16.075C15.149 16.0743 15.6837 15.8714 16.0986 15.5042L14.773 14.0067ZM14.594 14.075H7.27239V16.075H14.594V14.075ZM7.26851 14.075C7.07598 14.0757 6.88618 14.0314 6.71421 13.9456L5.82156 15.7354C6.27349 15.9608 6.77171 16.0769 7.27626 16.0749L7.26851 14.075ZM6.71504 13.946L5.91144 13.5443L5.01713 15.3332L5.82073 15.735L6.71504 13.946Z" fill="#9E9E9E" mask="url(#path-2-inside-1_7859_17444)"/>
</svg>