<svg width="24" height="24" viewBox="0 0 24 24" fill="none" xmlns="http://www.w3.org/2000/svg">
<g id="category-icons" clip-path="url(#clip0_1220_2203)">
<path id="Subtract" fill-rule="evenodd" clip-rule="evenodd" d="M24 11.9985C24 15.0764 22.8495 17.9763 20.7517 20.209V20.212L21.828 21.275C21.957 21.401 21.9956 21.5923 21.9274 21.7598C21.8592 21.9274 21.6976 22.0356 21.5167 22.0356H18.5797C16.6242 23.3195 14.3529 24 12 24C5.38325 24 0 18.6168 0 12C0 9.11787 1.03781 6.33062 2.9192 4.15271C3.07932 3.9659 3.36101 3.94663 3.54633 4.10675C3.73314 4.26686 3.75241 4.54855 3.59229 4.73388C1.84878 6.75019 0.888065 9.32987 0.888065 11.9985C0.888065 18.1245 5.8725 23.109 11.9985 23.109C13.6664 23.109 15.2913 22.7413 16.7739 22.0341H16.5738C16.3277 22.0341 16.129 21.8354 16.129 21.5893V20.0267C14.8718 20.6583 13.4781 20.9889 12.0578 20.9889C7.05263 20.9889 2.98147 16.9177 2.98147 11.9125C2.98147 6.90734 7.05263 2.83617 12.0578 2.83617C17.063 2.83617 21.1342 6.90734 21.1342 11.9125C21.1342 13.7494 20.5886 15.5196 19.5552 17.0304C19.1831 17.576 18.8421 17.9896 18.4477 18.3751C18.2787 18.5411 18.0074 18.5441 17.834 18.3825L17.7331 18.2876L17.7213 18.2758L17.02 17.5745V19.2543V19.2854V21.1446H20.4329L19.8132 20.5337C19.6397 20.3632 19.6368 20.0845 19.8043 19.9096L19.8488 19.8636C21.9555 17.7569 23.1105 14.9681 23.1105 12C23.1105 5.87398 18.126 0.889548 12 0.889548C9.3699 0.889548 6.81987 1.82506 4.8169 3.52409C4.6301 3.68273 4.34841 3.65901 4.18977 3.4722C4.03113 3.28391 4.05486 3.00371 4.24166 2.84507C6.40474 1.00964 9.15938 0 12 0C18.6168 0 24 5.38325 24 11.9985ZM16.1929 11.9169C16.1926 11.7616 16.1923 11.6062 16.1923 11.4508V11.4514C16.192 11.2213 16.1922 10.9911 16.1923 10.761C16.1925 10.4159 16.1927 10.0709 16.1917 9.72583C16.1911 9.42353 16.0279 9.23603 15.77 9.23141C15.508 9.2268 15.3309 9.42468 15.3298 9.73218C15.3282 10.0843 15.3285 10.4367 15.3289 10.7891C15.329 10.9401 15.3292 11.0911 15.3292 11.242C15.3292 11.492 15.329 11.7421 15.3289 11.9923V11.9924V11.9925C15.3285 12.5762 15.3282 13.1602 15.3298 13.7441C15.3304 14.021 15.474 14.2166 15.7175 14.2276C16.0902 14.2449 16.4652 14.2437 16.8384 14.2287C17.0715 14.2195 17.2325 14.0181 17.2273 13.792C17.2221 13.5641 17.0536 13.3881 16.8171 13.3755C16.6665 13.3674 16.5142 13.3639 16.3642 13.3772C16.2188 13.3899 16.1871 13.3362 16.1888 13.1983C16.1947 12.7712 16.1938 12.3444 16.1929 11.9174V11.9174V11.9169ZM12.4694 11.7353L12.4691 11.0742C12.4689 10.6334 12.4686 10.1926 12.4694 9.75186C12.47 9.41724 12.6333 9.22513 12.9061 9.2309C13.164 9.23666 13.3313 9.43513 13.3319 9.7484L13.3322 9.95064C13.3339 11.026 13.3355 12.101 13.329 13.1765C13.3279 13.3322 13.3561 13.398 13.5252 13.3772C13.6485 13.3619 13.7753 13.3674 13.9006 13.3729L13.9342 13.3744C14.1777 13.3842 14.3623 13.567 14.3663 13.7955C14.3704 14.0222 14.1898 14.2236 13.9481 14.2317C13.5961 14.2426 13.2436 14.2426 12.8917 14.2317C12.6246 14.2236 12.4717 14.047 12.47 13.762C12.4675 13.2795 12.468 12.7969 12.4685 12.3144C12.4686 12.1214 12.4688 11.9283 12.4688 11.7353H12.4694ZM9.20886 13.2206H9.2088H9.20878C9.01985 13.2216 8.8308 13.2227 8.64204 13.2174C8.5307 13.2145 8.47531 13.2508 8.44012 13.3587C8.3755 13.556 8.29935 13.7499 8.21858 13.9414C8.113 14.1906 7.88916 14.2933 7.663 14.2074C7.42474 14.1162 7.3232 13.8878 7.42243 13.6247C7.93127 12.277 8.44358 10.931 8.95762 9.58506C9.04243 9.36352 9.20743 9.23775 9.44974 9.23141C9.6782 9.22564 9.86339 9.35371 9.9557 9.5966C10.4651 10.9362 10.9717 12.277 11.4747 13.6189C11.5734 13.882 11.4707 14.1122 11.2353 14.2056C11.0017 14.2979 10.7744 14.1883 10.6682 13.927C10.5926 13.7412 10.517 13.5549 10.457 13.3633C10.4201 13.2451 10.3578 13.2128 10.239 13.2168C10.05 13.2233 9.86109 13.222 9.67194 13.2207C9.59483 13.2202 9.51769 13.2197 9.44051 13.2197C9.36333 13.2197 9.2861 13.2201 9.20886 13.2206ZM9.45208 10.7078L9.47181 10.7601L9.47452 10.7672C9.68313 11.32 9.87288 11.8228 10.0728 12.352L9.68006 12.3521H9.67925C9.42699 12.3523 9.18148 12.3524 8.93573 12.352C8.81722 12.352 8.84433 12.2941 8.86994 12.2394L8.86996 12.2393C8.87501 12.2285 8.88 12.2179 8.88381 12.2078C9.06039 11.7397 9.23806 11.2716 9.43481 10.7533L9.45208 10.7078Z" fill="#473F3F"/>
</g>
<defs>
<clipPath id="clip0_1220_2203">
<rect width="24" height="24" fill="white"/>
</clipPath>
</defs>
</svg>
