<svg width="22" height="22" viewBox="0 0 22 22" fill="none" xmlns="http://www.w3.org/2000/svg">
<g clip-path="url(#clip0_1426_4655)">
<path d="M15.2137 17.858C14.0026 18.6033 12.5765 19.0332 11.0573 19.0332C6.6645 19.0332 3.1101 15.4717 3.1101 11.086C3.1101 6.70032 6.6645 3.13159 11.0502 3.13159C15.4358 3.13159 18.9974 6.69316 18.9974 11.0788C18.9974 12.7414 18.4886 14.2821 17.6143 15.5577C17.3205 15.9948 17.0195 16.3674 16.6469 16.7329L16.5537 16.6469L15.2065 15.2997V17.8508L15.2137 17.858Z" fill="#47433F"/>
<path d="M11 22C4.93746 22 0 17.0625 0 11C0 8.35569 0.953095 5.80455 2.68013 3.8052C2.80912 3.65472 3.03844 3.64038 3.18893 3.76937C3.33941 3.89836 3.35375 4.12768 3.22476 4.27817C1.61238 6.14136 0.723779 8.53485 0.723779 11C0.723779 16.6684 5.33876 21.2834 11.0072 21.2834C13.0638 21.2834 15.0489 20.6814 16.7472 19.5348C16.9121 19.4274 17.1342 19.4704 17.2417 19.6352C17.3492 19.8 17.3062 20.0221 17.1414 20.1296C15.3212 21.355 13.2 22 11 22Z" fill="#47433F"/>
<path d="M19.7642 20.187H15.2137C15.013 20.187 14.8554 20.0293 14.8554 19.8287V18.3023C13.6873 18.9042 12.3831 19.2195 11.0573 19.2195C6.47818 19.2195 2.75179 15.4932 2.75179 10.914C2.75179 6.33485 6.47101 2.60847 11.0502 2.60847C15.6293 2.60847 19.3557 6.33485 19.3557 10.914C19.3557 12.598 18.8541 14.2176 17.9081 15.6007C17.5642 16.1023 17.256 16.4821 16.8906 16.8332C16.7544 16.9694 16.5322 16.9694 16.3961 16.8332L16.3029 16.7472L15.5577 16.002V19.4632H18.8756L18.2163 18.8111C18.0801 18.6749 18.073 18.4456 18.2163 18.3094C20.2013 16.3244 21.2762 13.7375 21.2762 10.9928C21.2762 5.32443 16.6612 0.709446 10.9928 0.709446C8.55635 0.709446 6.1987 1.57655 4.34267 3.14593C4.19218 3.27492 3.96287 3.25342 3.84104 3.10293C3.71205 2.95244 3.73355 2.72313 3.88404 2.6013C5.86906 0.92443 8.3987 0 11 0C17.0625 0 22 4.93746 22 11C22 13.8378 20.9322 16.5107 18.9902 18.5603L20.015 19.5778C20.1153 19.6782 20.1511 19.8358 20.0938 19.972C20.0365 20.1081 19.9075 20.1941 19.7642 20.1941V20.187ZM11.0502 3.32508C6.86515 3.32508 3.46124 6.72899 3.46124 10.914C3.46124 15.099 6.86515 18.5029 11.0502 18.5029C12.3902 18.5029 13.7016 18.1518 14.8482 17.4853V15.142C14.8482 14.9987 14.9342 14.8697 15.0704 14.8124C15.2065 14.755 15.357 14.7909 15.4573 14.8912L16.6326 16.0664C16.8619 15.8156 17.0769 15.5362 17.3134 15.1922C18.1805 13.9309 18.6319 12.4476 18.6319 10.914C18.6319 6.72899 15.228 3.32508 11.043 3.32508H11.0502Z" fill="#47433F"/>
<path d="M14.4903 10.285C14.4903 10.8192 14.4945 11.3528 14.4871 11.8869C14.4855 12.0133 14.5146 12.0625 14.6479 12.0508C14.7854 12.0387 14.925 12.0419 15.063 12.0493C15.2799 12.0609 15.4343 12.2222 15.4391 12.4311C15.4438 12.6384 15.2963 12.823 15.0826 12.8314C14.7405 12.8452 14.3967 12.8462 14.0551 12.8304C13.8319 12.8203 13.7002 12.641 13.6997 12.3872C13.6976 11.6225 13.6992 10.8578 13.6992 10.0936C13.6992 9.63244 13.6976 9.17075 13.6997 8.7096C13.7007 8.42772 13.8631 8.24633 14.1032 8.25056C14.3396 8.25479 14.4892 8.42667 14.4898 8.70378C14.4914 9.23104 14.4898 9.7583 14.4903 10.2856V10.285Z" fill="#FAFAFA"/>
<path d="M11.0777 10.5458C11.0777 9.93978 11.0766 9.33372 11.0777 8.72766C11.0782 8.42093 11.2279 8.24483 11.478 8.25012C11.7144 8.2554 11.8678 8.43733 11.8683 8.72449C11.8699 9.77214 11.872 10.8193 11.8657 11.8669C11.8646 12.0097 11.8905 12.07 12.0455 12.0509C12.1687 12.0356 12.2956 12.043 12.4204 12.0483C12.6436 12.0573 12.8128 12.2249 12.8165 12.4343C12.8202 12.6422 12.6547 12.8268 12.4331 12.8342C12.1105 12.8442 11.7874 12.8442 11.4648 12.8342C11.22 12.8268 11.0798 12.6649 11.0782 12.4037C11.0751 11.7844 11.0772 11.1651 11.0772 10.5458H11.0777Z" fill="#FAFAFA"/>
<path fill-rule="evenodd" clip-rule="evenodd" d="M8.08884 11.9073C8.15966 11.9069 8.23047 11.9065 8.30123 11.9065C8.37199 11.9065 8.4427 11.907 8.51338 11.9075C8.68677 11.9087 8.85996 11.9098 9.03316 11.9038C9.1421 11.9001 9.19921 11.9298 9.23306 12.0382C9.28806 12.2137 9.35734 12.3846 9.42662 12.5548C9.52393 12.7944 9.73229 12.8949 9.94647 12.8103C10.1622 12.7246 10.2564 12.5136 10.1659 12.2724C9.70479 11.0423 9.24046 9.81331 8.77349 8.58533C8.68888 8.36268 8.51912 8.24528 8.30969 8.25057C8.08758 8.25639 7.93633 8.37167 7.85859 8.57475C7.38739 9.80855 6.91777 11.0423 6.45133 12.2777C6.36037 12.5189 6.45344 12.7283 6.67186 12.8119C6.87917 12.8907 7.08436 12.7965 7.18114 12.5681C7.25518 12.3925 7.32498 12.2148 7.38421 12.0339C7.41647 11.935 7.46724 11.9017 7.56931 11.9044C7.74234 11.9092 7.91565 11.9083 8.08884 11.9073ZM8.32963 9.65105L8.31184 9.60391L8.29605 9.64551C8.11568 10.1207 7.9528 10.5498 7.79093 10.9789C7.78744 10.9882 7.78285 10.998 7.77821 11.0079C7.75474 11.058 7.72989 11.1111 7.83852 11.1111C8.06404 11.1115 8.28933 11.1114 8.52083 11.1112C8.63894 11.1112 8.75867 11.1111 8.88088 11.1111C8.69669 10.6237 8.52195 10.1607 8.32963 9.65105Z" fill="#FAFAFA"/>
</g>
<defs>
<clipPath id="clip0_1426_4655">
<rect width="22" height="22" fill="white"/>
</clipPath>
</defs>
</svg>
