<svg width="18" height="23" viewBox="0 0 18 23" fill="none" xmlns="http://www.w3.org/2000/svg">
<g id="OBJECTS" clip-path="url(#clip0_1220_4015)">
<g id="Group">
<path id="Vector" d="M16.3267 6.32865C15.3587 5.53878 14.0979 5.31218 12.9569 5.68445C13.1632 4.43168 13.2197 1.98438 10.8545 0.890226C9.68692 0.34962 8.31305 0.34962 7.14875 0.890226C4.78357 1.98438 4.84012 4.43168 5.04637 5.68445C3.89871 5.30571 2.63129 5.52583 1.66659 6.31246C0.605417 7.18002 0.236169 8.48136 0.701887 9.71472C1.18756 10.9966 2.34521 11.9354 3.22009 12.4922C2.3951 12.7641 1.82294 13.3954 1.57012 14.0557C1.15097 15.1596 1.53353 16.3185 2.54813 17.0016C3.1835 17.4321 3.94195 17.7332 4.6372 17.9403C5.63184 18.2381 6.66973 18.3676 7.70762 18.3676H11.2737H11.2936C11.3968 18.3579 13.8518 18.1022 15.4851 16.9886C16.4797 16.3088 16.8457 15.1596 16.4165 14.0622C16.1604 13.4051 15.5916 12.7771 14.7765 12.5019C15.6481 11.9484 16.8091 11.0161 17.3014 9.73738C17.7771 8.50726 17.4045 7.20268 16.3334 6.32865H16.3267Z" fill="#8BD2AC"/>
<g id="Group_2">
<path id="Vector_2" d="M6.90595 2.89077C6.84607 2.89077 6.78619 2.87459 6.72964 2.84222C6.56664 2.74834 6.51342 2.5444 6.60989 2.38578C6.62652 2.35664 6.64648 2.32427 6.66644 2.29514C6.76956 2.13975 6.98246 2.09767 7.13881 2.19802C7.29848 2.29837 7.34173 2.50555 7.2386 2.6577L7.19536 2.72568C7.13215 2.82927 7.01905 2.88754 6.90262 2.88754L6.90595 2.89077Z" fill="white"/>
<path id="Vector_3" d="M6.13753 4.56114C6.13753 4.56114 6.12755 4.56114 6.12422 4.56114C5.93793 4.55466 5.78824 4.40252 5.79489 4.218C5.79489 4.19858 5.81485 3.76156 6.06102 3.26304C6.14418 3.09794 6.3471 3.02996 6.52008 3.11089C6.68974 3.19182 6.75959 3.38929 6.67643 3.55438C6.49347 3.91694 6.47684 4.23742 6.47684 4.24066C6.47018 4.4187 6.31716 4.56114 6.1342 4.56114H6.13753Z" fill="white"/>
</g>
<path id="Vector_4" opacity="0.2" d="M14.7699 12.5051C15.5849 12.7803 16.1537 13.4083 16.4099 14.0655C16.8423 15.1661 16.4731 16.3153 15.4784 16.9951C13.8451 18.1087 11.3934 18.3644 11.2903 18.3709H11.2704H7.70429C6.6664 18.3709 5.62519 18.2382 4.63387 17.9403C3.97189 17.7429 3.25668 17.4612 2.64459 17.0663C8.76546 18.7302 11.6962 17.95 13.1033 16.8397C14.6634 15.6063 14.2343 13.2044 12.3215 12.5958C11.8758 12.4566 11.5398 12.4145 11.5398 12.4145C13.9848 11.7315 14.8431 10.1712 15.1425 9.16116C15.3387 8.50402 15.3387 7.79832 15.1059 7.15413C14.5337 5.55821 12.9602 5.68446 12.9602 5.68446C14.1013 5.31218 15.362 5.53555 16.33 6.32865C17.0918 6.95342 17.501 7.79508 17.501 8.66912C17.501 9.0252 17.4345 9.38453 17.2981 9.74061C16.8024 11.0193 15.6414 11.9548 14.7732 12.5051H14.7699Z" fill="black"/>
<path id="Vector_5" d="M9.00167 0.485573C9.63705 0.485573 10.2724 0.621534 10.8546 0.890218C13.2197 1.98438 13.1632 4.4349 12.957 5.68445C13.3162 5.56791 13.6855 5.50964 14.0547 5.50964C14.8597 5.50964 15.6648 5.78804 16.3268 6.32864C17.3979 7.20267 17.7672 8.51048 17.2948 9.73737C16.8025 11.016 15.6382 11.9516 14.7699 12.5019C15.5849 12.7771 16.1538 13.4051 16.4099 14.0622C16.839 15.1628 16.4731 16.312 15.4785 16.9886C14.9063 17.3771 14.2343 17.6619 13.599 17.8691C12.5312 18.2122 11.4101 18.3676 10.2891 18.3676H7.70764C6.66643 18.3676 5.62522 18.2349 4.63058 17.9403C3.93533 17.7331 3.1802 17.4321 2.54483 17.0015C1.53023 16.3153 1.14767 15.1596 1.56682 14.0557C1.81964 13.3954 2.39181 12.7641 3.21679 12.4922C2.34191 11.9354 1.18427 10.9966 0.698588 9.71471C0.23287 8.48135 0.602118 7.17678 1.66329 6.31246C2.32195 5.77509 3.11699 5.50317 3.92202 5.50317C4.29792 5.50317 4.67715 5.56467 5.04307 5.68445C4.83682 4.43167 4.78027 1.98761 7.14545 0.890218C7.7276 0.621534 8.36298 0.485573 8.99835 0.485573M9.00167 0C8.28646 0 7.57125 0.155383 6.93256 0.453202C5.19609 1.25602 4.32121 2.91344 4.46758 5.0532C4.28794 5.0273 4.10498 5.01759 3.92202 5.01759C2.98726 5.01759 2.07246 5.34455 1.34061 5.94018C0.11644 6.94046 -0.309359 8.45222 0.229543 9.88304C0.63871 10.9675 1.47035 11.8156 2.26207 12.4242C1.73647 12.7835 1.32065 13.295 1.09777 13.8874C0.595465 15.2082 1.0512 16.5872 2.25874 17.403C2.8542 17.8044 3.60267 18.141 4.48421 18.4065C5.48218 18.7043 6.56663 18.8564 7.70764 18.8564H10.2891C11.5166 18.8564 12.6808 18.6816 13.7587 18.332C14.547 18.0763 15.2257 17.759 15.7679 17.39C16.9555 16.5807 17.3913 15.2082 16.879 13.8939C16.6494 13.308 16.2403 12.7997 15.7213 12.4436C16.513 11.8383 17.348 10.9934 17.7638 9.91217C18.316 8.48459 17.8902 6.9696 16.6494 5.95961C15.9109 5.35749 14.9895 5.0273 14.0547 5.0273C13.8784 5.0273 13.7054 5.03702 13.5324 5.05968C13.6821 2.91344 12.8073 1.25602 11.0675 0.453202C10.4321 0.155383 9.71688 0 9.00167 0Z" fill="#695040"/>
</g>
<g id="Group_3">
<g id="Group_4">
<path id="Vector_6" d="M10.2325 10.8186C10.1194 10.2424 9.60375 9.82477 9.00164 9.82477C8.39954 9.82477 7.88392 10.2424 7.77082 10.8186L5.94121 20.2225C5.81813 20.8473 5.99111 21.4915 6.40693 21.9803C6.82275 22.4723 7.44482 22.7572 8.10015 22.7572H9.90647C10.5618 22.7572 11.1805 22.4723 11.5997 21.9803C12.0155 21.4915 12.1852 20.8473 12.0654 20.2225L10.2358 10.8186H10.2325Z" fill="white"/>
<g id="Group_5">
<path id="Vector_7" d="M10.4853 15.807C10.3223 15.807 10.1593 15.7455 10.0395 15.6193C9.80998 15.3797 9.82329 15.0042 10.0661 14.7808L12.1685 12.8612C12.4147 12.6379 12.8006 12.6508 13.0301 12.8871C13.2596 13.1267 13.2463 13.5022 13.0035 13.7255L10.9011 15.6452C10.7847 15.752 10.635 15.807 10.4853 15.807Z" fill="white"/>
<path id="Vector_8" d="M8.00699 13.9716C7.85729 13.9716 7.7076 13.9198 7.59117 13.8097L5.48878 11.8901C5.24262 11.6667 5.22931 11.2912 5.46217 11.0516C5.6917 10.8121 6.07758 10.7991 6.32375 11.0257L8.42613 12.9454C8.6723 13.1687 8.68561 13.5443 8.45275 13.7838C8.33299 13.9068 8.16999 13.9716 8.00699 13.9716Z" fill="white"/>
</g>
<path id="Vector_9" d="M12.102 20.6207C12.102 21.1127 11.9257 21.5951 11.5997 21.9803C11.1838 22.4723 10.5618 22.7572 9.90644 22.7572H9.00162C9.61038 22.5274 9.90977 22.0515 10.0561 21.6307C10.1792 21.2843 10.2058 20.912 10.1626 20.5495L8.99829 9.82477C9.6004 9.82477 10.116 10.2424 10.2291 10.8153L12.0587 20.2193C12.082 20.352 12.0986 20.4847 12.0986 20.6174L12.102 20.6207Z" fill="#FFE7ED"/>
</g>
<path id="Vector_10" d="M9.90646 23H8.10014C7.3683 23 6.6797 22.686 6.21398 22.1357C5.74826 21.5886 5.56198 20.8764 5.69504 20.1772L6.97576 13.5863L5.31249 12.0681C5.14616 11.916 5.04969 11.7088 5.04303 11.4854C5.03638 11.2621 5.11954 11.0484 5.27589 10.8865C5.43224 10.7247 5.64514 10.6308 5.87467 10.6243C6.10421 10.6179 6.32376 10.6988 6.49009 10.8509L7.35832 11.6408L7.52797 10.7732C7.66103 10.0837 8.2831 9.58197 9.00496 9.58197C9.72683 9.58197 10.3456 10.0837 10.482 10.7732L11.0275 13.5766L12.0055 12.6832C12.3515 12.3692 12.897 12.3853 13.2197 12.722C13.5424 13.0587 13.5258 13.5863 13.1798 13.9036L11.4067 15.5222L12.3116 20.1772C12.4479 20.8732 12.2583 21.5886 11.7926 22.1357C11.3269 22.686 10.6383 23 9.90646 23ZM5.90461 11.1099H5.89131C5.79484 11.1099 5.70502 11.152 5.64181 11.22C5.57528 11.288 5.54202 11.3786 5.54534 11.4725C5.54534 11.5663 5.58859 11.6537 5.65845 11.7153L7.52132 13.4148L6.18737 20.2678C6.08092 20.8214 6.23061 21.3911 6.59986 21.8249C6.96911 22.2619 7.51799 22.5112 8.10014 22.5112H9.90646C10.4886 22.5112 11.0375 22.2619 11.4067 21.8249C11.776 21.3911 11.9257 20.8214 11.8192 20.2678L10.8612 15.3506L12.8338 13.5507C12.9802 13.418 12.9869 13.1979 12.8505 13.0554C12.7141 12.913 12.4879 12.9065 12.3415 13.0393L10.7015 14.5348L9.9863 10.8639C9.89648 10.4042 9.48066 10.0675 9.00164 10.0675C8.52261 10.0675 8.10679 10.401 8.01698 10.8639L7.68099 12.599L6.15078 11.2038C6.08425 11.1423 5.99776 11.1099 5.90461 11.1099Z" fill="#695040"/>
<path id="Vector_11" d="M9.00161 23C8.90514 23 8.81199 22.9449 8.77208 22.8511C8.71885 22.7281 8.77873 22.5856 8.90846 22.5338C10.1293 22.045 9.92972 20.6466 9.91974 20.5883L9.66359 18.2284C9.65029 18.0957 9.75008 17.9759 9.88647 17.9597C10.0262 17.9435 10.1459 18.0439 10.1593 18.1766L10.4154 20.5268C10.5152 21.1451 10.3688 22.4723 9.09808 22.9838C9.06814 22.9967 9.03487 23.0032 9.00161 23.0032V23Z" fill="#695040"/>
</g>
<path id="Vector_12" d="M9.76344 17.0857C9.63703 17.0857 9.53058 16.9918 9.51395 16.8688L9.42746 16.0595C9.41415 15.9268 9.51395 15.807 9.65034 15.7941C9.79005 15.7779 9.90981 15.8782 9.92312 16.011L10.0096 16.8203C10.0229 16.953 9.92312 17.0727 9.78673 17.0857C9.77675 17.0857 9.7701 17.0857 9.76012 17.0857H9.76344Z" fill="#695040"/>
</g>
<defs>
<clipPath id="clip0_1220_4015">
<rect width="18" height="23" fill="white"/>
</clipPath>
</defs>
</svg>
