<svg width="24" height="24" viewBox="0 0 24 24" fill="none" xmlns="http://www.w3.org/2000/svg">
<g clip-path="url(#clip0_4999_1259)">
<path d="M19.3267 7.32865C18.3587 6.53878 17.0979 6.31218 15.9569 6.68445C16.1632 5.43168 16.2197 2.98438 13.8545 1.89023C12.6869 1.34962 11.313 1.34962 10.1488 1.89023C7.78357 2.98438 7.84012 5.43168 8.04637 6.68445C6.89871 6.30571 5.63129 6.52583 4.66659 7.31246C3.60542 8.18002 3.23617 9.48136 3.70189 10.7147C4.18756 11.9966 5.34521 12.9354 6.22009 13.4922C5.3951 13.7641 4.82294 14.3954 4.57012 15.0557C4.15097 16.1596 4.53353 17.3185 5.54813 18.0016C6.1835 18.4321 6.94195 18.7332 7.6372 18.9403C8.63184 19.2381 9.66973 19.3676 10.7076 19.3676H14.2737H14.2936C14.3968 19.3579 16.8518 19.1022 18.4851 17.9886C19.4797 17.3088 19.8457 16.1596 19.4165 15.0622C19.1604 14.4051 18.5916 13.7771 17.7765 13.5019C18.6481 12.9484 19.8091 12.0161 20.3014 10.7374C20.7771 9.50726 20.4045 8.20268 19.3334 7.32865H19.3267Z" fill="#72CE9C"/>
<path d="M9.90595 3.89077C9.84607 3.89077 9.78619 3.87459 9.72964 3.84222C9.56664 3.74834 9.51342 3.5444 9.60989 3.38578C9.62652 3.35664 9.64648 3.32427 9.66644 3.29514C9.76956 3.13975 9.98246 3.09767 10.1388 3.19802C10.2985 3.29837 10.3417 3.50555 10.2386 3.6577L10.1954 3.72568C10.1322 3.82927 10.0191 3.88754 9.90262 3.88754L9.90595 3.89077Z" fill="white"/>
<path d="M9.13753 5.56114C9.13753 5.56114 9.12755 5.56114 9.12422 5.56114C8.93793 5.55466 8.78824 5.40252 8.79489 5.218C8.79489 5.19858 8.81485 4.76156 9.06102 4.26304C9.14418 4.09794 9.3471 4.02996 9.52008 4.11089C9.68974 4.19182 9.75959 4.38929 9.67643 4.55438C9.49347 4.91694 9.47684 5.23742 9.47684 5.24066C9.47018 5.4187 9.31716 5.56114 9.1342 5.56114H9.13753Z" fill="white"/>
<path opacity="0.2" d="M17.7699 13.5051C18.5849 13.7803 19.1537 14.4083 19.4099 15.0655C19.8423 16.1661 19.4731 17.3153 18.4784 17.9951C16.8451 19.1087 14.3934 19.3644 14.2903 19.3709H14.2704H10.7043C9.6664 19.3709 8.62519 19.2382 7.63387 18.9403C6.97189 18.7429 6.25668 18.4612 5.64459 18.0663C11.7655 19.7302 14.6962 18.95 16.1033 17.8397C17.6634 16.6063 17.2343 14.2044 15.3215 13.5958C14.8758 13.4566 14.5398 13.4145 14.5398 13.4145C16.9848 12.7315 17.8431 11.1712 18.1425 10.1612C18.3387 9.50402 18.3387 8.79832 18.1059 8.15413C17.5337 6.55821 15.9602 6.68446 15.9602 6.68446C17.1013 6.31218 18.362 6.53555 19.33 7.32865C20.0918 7.95342 20.501 8.79508 20.501 9.66912C20.501 10.0252 20.4345 10.3845 20.2981 10.7406C19.8024 12.0193 18.6414 12.9548 17.7732 13.5051H17.7699Z" fill="black"/>
<path d="M12.0017 1.48557C12.637 1.48557 13.2724 1.62153 13.8546 1.89022C16.2197 2.98438 16.1632 5.4349 15.957 6.68445C16.3162 6.56791 16.6855 6.50964 17.0547 6.50964C17.8597 6.50964 18.6648 6.78804 19.3268 7.32864C20.3979 8.20267 20.7672 9.51048 20.2948 10.7374C19.8025 12.016 18.6382 12.9516 17.7699 13.5019C18.5849 13.7771 19.1538 14.4051 19.4099 15.0622C19.839 16.1628 19.4731 17.312 18.4785 17.9886C17.9063 18.3771 17.2343 18.6619 16.599 18.8691C15.5312 19.2122 14.4101 19.3676 13.2891 19.3676H10.7076C9.66643 19.3676 8.62522 19.2349 7.63058 18.9403C6.93533 18.7331 6.1802 18.4321 5.54483 18.0015C4.53023 17.3153 4.14767 16.1596 4.56682 15.0557C4.81964 14.3954 5.39181 13.7641 6.21679 13.4922C5.34191 12.9354 4.18427 11.9966 3.69859 10.7147C3.23287 9.48135 3.60212 8.17678 4.66329 7.31246C5.32195 6.77509 6.11699 6.50317 6.92202 6.50317C7.29792 6.50317 7.67715 6.56467 8.04307 6.68445C7.83682 5.43167 7.78027 2.98761 10.1455 1.89022C10.7276 1.62153 11.363 1.48557 11.9983 1.48557M12.0017 1C11.2865 1 10.5713 1.15538 9.93256 1.4532C8.19609 2.25602 7.32121 3.91344 7.46758 6.0532C7.28794 6.0273 7.10498 6.01759 6.92202 6.01759C5.98726 6.01759 5.07246 6.34455 4.34061 6.94018C3.11644 7.94046 2.69064 9.45222 3.22954 10.883C3.63871 11.9675 4.47035 12.8156 5.26207 13.4242C4.73647 13.7835 4.32065 14.295 4.09777 14.8874C3.59546 16.2082 4.0512 17.5872 5.25874 18.403C5.8542 18.8044 6.60267 19.141 7.48421 19.4065C8.48218 19.7043 9.56663 19.8564 10.7076 19.8564H13.2891C14.5166 19.8564 15.6808 19.6816 16.7587 19.332C17.547 19.0763 18.2257 18.759 18.7679 18.39C19.9555 17.5807 20.3913 16.2082 19.879 14.8939C19.6494 14.308 19.2403 13.7997 18.7213 13.4436C19.513 12.8383 20.348 11.9934 20.7638 10.9122C21.316 9.48459 20.8902 7.9696 19.6494 6.95961C18.9109 6.35749 17.9895 6.0273 17.0547 6.0273C16.8784 6.0273 16.7054 6.03702 16.5324 6.05968C16.6821 3.91344 15.8073 2.25602 14.0675 1.4532C13.4321 1.15538 12.7169 1 12.0017 1Z" fill="#222020"/>
<path d="M13.2325 11.8186C13.1194 11.2424 12.6038 10.8248 12.0016 10.8248C11.3995 10.8248 10.8839 11.2424 10.7708 11.8186L8.94121 21.2225C8.81813 21.8473 8.99111 22.4915 9.40693 22.9803C9.82275 23.4723 10.4448 23.7572 11.1001 23.7572H12.9065C13.5618 23.7572 14.1805 23.4723 14.5997 22.9803C15.0155 22.4915 15.1852 21.8473 15.0654 21.2225L13.2358 11.8186H13.2325Z" fill="white"/>
<path d="M13.4853 16.807C13.3223 16.807 13.1593 16.7455 13.0395 16.6193C12.81 16.3797 12.8233 16.0042 13.0661 15.7808L15.1685 13.8612C15.4147 13.6379 15.8006 13.6508 16.0301 13.8871C16.2596 14.1267 16.2463 14.5022 16.0035 14.7255L13.9011 16.6452C13.7847 16.752 13.635 16.807 13.4853 16.807Z" fill="white"/>
<path d="M11.007 14.9716C10.8573 14.9716 10.7076 14.9198 10.5912 14.8097L8.48878 12.8901C8.24262 12.6667 8.22931 12.2912 8.46217 12.0516C8.6917 11.8121 9.07758 11.7991 9.32375 12.0257L11.4261 13.9454C11.6723 14.1687 11.6856 14.5443 11.4527 14.7838C11.333 14.9068 11.17 14.9716 11.007 14.9716Z" fill="white"/>
<path d="M15.102 21.6207C15.102 22.1127 14.9257 22.5951 14.5997 22.9803C14.1838 23.4723 13.5618 23.7572 12.9064 23.7572H12.0016C12.6104 23.5274 12.9098 23.0515 13.0561 22.6307C13.1792 22.2843 13.2058 21.912 13.1626 21.5495L11.9983 10.8248C12.6004 10.8248 13.116 11.2424 13.2291 11.8153L15.0587 21.2193C15.082 21.352 15.0986 21.4847 15.0986 21.6174L15.102 21.6207Z" fill="#FFE7ED"/>
<path d="M12.9065 24H11.1001C10.3683 24 9.6797 23.686 9.21398 23.1357C8.74826 22.5886 8.56198 21.8764 8.69504 21.1772L9.97576 14.5863L8.31249 13.0681C8.14616 12.916 8.04969 12.7088 8.04303 12.4854C8.03638 12.2621 8.11954 12.0484 8.27589 11.8865C8.43224 11.7247 8.64514 11.6308 8.87467 11.6243C9.10421 11.6179 9.32376 11.6988 9.49009 11.8509L10.3583 12.6408L10.528 11.7732C10.661 11.0837 11.2831 10.582 12.005 10.582C12.7268 10.582 13.3456 11.0837 13.482 11.7732L14.0275 14.5766L15.0055 13.6832C15.3515 13.3692 15.897 13.3853 16.2197 13.722C16.5424 14.0587 16.5258 14.5863 16.1798 14.9036L14.4067 16.5222L15.3116 21.1772C15.4479 21.8732 15.2583 22.5886 14.7926 23.1357C14.3269 23.686 13.6383 24 12.9065 24ZM8.90461 12.1099H8.89131C8.79484 12.1099 8.70502 12.152 8.64181 12.22C8.57528 12.288 8.54202 12.3786 8.54534 12.4725C8.54534 12.5663 8.58859 12.6537 8.65845 12.7153L10.5213 14.4148L9.18737 21.2678C9.08092 21.8214 9.23061 22.3911 9.59986 22.8249C9.96911 23.2619 10.518 23.5112 11.1001 23.5112H12.9065C13.4886 23.5112 14.0375 23.2619 14.4067 22.8249C14.776 22.3911 14.9257 21.8214 14.8192 21.2678L13.8612 16.3506L15.8338 14.5507C15.9802 14.418 15.9869 14.1979 15.8505 14.0554C15.7141 13.913 15.4879 13.9065 15.3415 14.0393L13.7015 15.5348L12.9863 11.8639C12.8965 11.4042 12.4807 11.0675 12.0016 11.0675C11.5226 11.0675 11.1068 11.401 11.017 11.8639L10.681 13.599L9.15078 12.2038C9.08425 12.1423 8.99776 12.1099 8.90461 12.1099Z" fill="#222020"/>
<path d="M12.0016 24C11.9051 24 11.812 23.9449 11.7721 23.8511C11.7189 23.7281 11.7787 23.5856 11.9085 23.5338C13.1293 23.045 12.9297 21.6466 12.9197 21.5883L12.6636 19.2284C12.6503 19.0957 12.7501 18.9759 12.8865 18.9597C13.0262 18.9435 13.1459 19.0439 13.1593 19.1766L13.4154 21.5268C13.5152 22.1451 13.3688 23.4723 12.0981 23.9838C12.0681 23.9967 12.0349 24.0032 12.0016 24.0032V24Z" fill="#222020"/>
<path d="M12.7634 18.0857C12.637 18.0857 12.5306 17.9918 12.514 17.8688L12.4275 17.0595C12.4142 16.9268 12.514 16.807 12.6503 16.7941C12.7901 16.7779 12.9098 16.8782 12.9231 17.011L13.0096 17.8203C13.0229 17.953 12.9231 18.0727 12.7867 18.0857C12.7767 18.0857 12.7701 18.0857 12.7601 18.0857H12.7634Z" fill="#222020"/>
</g>
<defs>
<clipPath id="clip0_4999_1259">
<rect width="18" height="23" fill="white" transform="translate(3 1)"/>
</clipPath>
</defs>
</svg>
