<svg width="23" height="17" viewBox="0 0 23 17" fill="none" xmlns="http://www.w3.org/2000/svg">
<g id="Layer_1" clip-path="url(#clip0_1426_2984)">
<path id="Vector" d="M11.29 16.18V0.269999H16.06C20.17 0.249999 23.64 3.19 21.23 6.23V16.17H11.29V16.18Z" fill="#FFA90A"/>
<path id="Vector_2" d="M6.12 6.23C3.7 3.2 7.17 0.259999 11.28 0.269999C15.39 0.249999 18.86 3.19 16.45 6.23V16.17H6.12V6.23Z" fill="#FFD69B"/>
<path id="Vector_3" d="M14.33 14.99L12.08 16.18H6.12V6.23001C3.94 3.58001 6.54 0.800006 10.1 0.350006C8.41 1.49001 7.95 3.54001 9.3 5.04001V7.83001C9.3 11.79 10.38 14.99 14.33 14.99Z" fill="#FFC975"/>
<path id="Vector_4" d="M16.45 12.84C16.3 12.84 16.18 12.72 16.18 12.57V6.22999C16.18 6.16999 16.2 6.10999 16.24 6.05999C17.01 5.08999 17.18 4.07999 16.73 3.13999C15.99 1.60999 13.77 0.54999 11.33 0.54999H11.25C10.7 0.54999 10.15 0.60999 9.61 0.71999C9.52 0.73999 9.44 0.75999 9.36 0.76999C9.26 0.78999 9.17 0.81999 9.07 0.83999C8.93 0.87999 8.79 0.91999 8.65 0.96999L8.47 1.02999C8.38 1.05999 8.3 1.09999 8.21 1.12999C8.09 1.17999 7.98 1.22999 7.87 1.28999L7.71 1.36999C7.57 1.43999 7.44 1.51999 7.31 1.59999C6.2 2.30999 5.6 3.21999 5.59 4.17999C5.59 4.22999 5.59 4.27999 5.59 4.32999C5.59 4.40999 5.6 4.47999 5.61 4.55999C5.64 4.78999 5.72 5.02999 5.82 5.25999C5.9 5.41999 5.98 5.56999 6.07 5.70999C6.15 5.82999 6.23 5.93999 6.32 6.05999C6.41 6.17999 6.39 6.34999 6.28 6.43999C6.16 6.52999 5.99 6.50999 5.9 6.39999C5.8 6.26999 5.71 6.13999 5.62 6.00999C5.52 5.84999 5.42 5.67999 5.34 5.50999C5.2 5.20999 5.12 4.92999 5.08 4.64999C5.07 4.55999 5.06 4.45999 5.05 4.35999C5.05 4.29999 5.05 4.22999 5.05 4.16999C5.05 3.01999 5.75 1.94999 6.99 1.15999C7.16 1.04999 7.3 0.96999 7.45 0.88999C7.51 0.85999 7.56 0.82999 7.62 0.79999C7.74 0.73999 7.86 0.67999 7.99 0.62999C8.08 0.58999 8.17 0.54999 8.27 0.51999L8.43 0.45999C8.61 0.39999 8.76 0.34999 8.92 0.30999C9.02 0.27999 9.12 0.25999 9.22 0.22999C9.31 0.20999 9.4 0.18999 9.49 0.16999C10.08 0.0499902 10.68 -0.0100098 11.28 -0.0100098H11.32C13.96 -0.0100098 16.38 1.17999 17.21 2.88999C17.74 3.98999 17.57 5.19999 16.72 6.30999V12.55C16.72 12.7 16.6 12.82 16.45 12.82V12.84Z" fill="#000202"/>
<path id="Vector_5" d="M21.08 16.45H10.22C10.07 16.45 9.95 16.33 9.95 16.18C9.95 16.03 10.07 15.91 10.22 15.91H20.81V6.31C20.81 6.25 20.83 6.19 20.87 6.14C21.64 5.17 21.81 4.16 21.36 3.22C20.62 1.69 18.4 0.629996 15.96 0.629996H12.49C12.34 0.629996 12.22 0.509996 12.22 0.359996C12.22 0.209996 12.34 0.0899963 12.49 0.0899963H15.96C18.6 0.0899963 21.02 1.28 21.85 2.99C22.38 4.09 22.21 5.3 21.36 6.41V16.18C21.36 16.33 21.24 16.45 21.09 16.45H21.08Z" fill="#000202"/>
<path id="Vector_6" d="M16.94 13.67C16.94 16.43 13.2 16.17 8.59001 16.17C3.98001 16.17 0.240005 16.43 0.240005 13.67C0.240005 10.91 3.98001 7.42999 8.59001 7.42999C13.2 7.42999 16.94 10.92 16.94 13.67Z" fill="#FFA90A"/>
<path id="Vector_7" d="M16.89 14.17C16.46 16.41 12.92 16.2 8.60001 16.2C3.99001 16.2 0.240005 16.43 0.240005 13.68C0.240005 12.25 1.24001 10.63 2.85001 9.39999C2.20001 10.28 1.83001 11.22 1.83001 12.09C1.83001 14.85 5.57001 14.59 10.18 14.59C12.93 14.59 15.37 14.68 16.89 14.17Z" fill="#FF9200"/>
<g id="Group">
<path id="Vector_8" d="M8.12 7.45C7.99 7.45 7.86 7.45 7.73 7.47C7.73 7.47 7.73 7.47 7.72 7.47V9.42C7.72 9.55 7.76 9.67 7.81 9.77C7.81 9.79 7.84 9.8 7.85 9.82C7.89 9.89 7.93 9.95 7.99 10C8.02 10.03 8.06 10.05 8.1 10.07C8.15 10.1 8.2 10.13 8.26 10.15C8.29 10.15 8.32 10.16 8.35 10.17C8.41 10.18 8.46 10.21 8.53 10.21C8.55 10.21 8.56 10.21 8.58 10.2C8.58 10.2 8.58 10.2 8.59 10.2C8.69 10.2 8.78 10.17 8.87 10.13C8.88 10.13 8.89 10.11 8.91 10.11C8.98 10.07 9.05 10.03 9.11 9.97C9.14 9.94 9.16 9.9 9.18 9.86C9.21 9.81 9.25 9.76 9.27 9.7C9.28 9.66 9.29 9.62 9.29 9.58C9.3 9.52 9.32 9.47 9.32 9.41V7.46C8.93 7.43 8.53 7.43 8.13 7.44L8.12 7.45Z" fill="#FFD69B"/>
<path id="Vector_9" d="M11.84 8.16C11.73 8.1 11.61 8.06 11.5 8.02C11.48 8.02 11.47 8.01 11.45 8V10.62C11.45 10.74 11.48 10.85 11.53 10.95C11.56 11.02 11.61 11.08 11.65 11.13C11.67 11.15 11.68 11.17 11.69 11.19C11.74 11.24 11.8 11.28 11.87 11.31C11.9 11.33 11.92 11.35 11.96 11.36C11.99 11.37 12.02 11.37 12.06 11.38C12.12 11.4 12.19 11.42 12.26 11.42C12.31 11.42 12.35 11.4 12.39 11.39C12.45 11.39 12.51 11.37 12.57 11.35C12.6 11.34 12.63 11.32 12.65 11.3C12.72 11.26 12.78 11.22 12.84 11.16C12.86 11.14 12.87 11.12 12.88 11.1C12.93 11.04 12.97 10.98 12.99 10.9C13.01 10.84 13.02 10.78 13.03 10.72C13.03 10.68 13.05 10.66 13.05 10.62V8.75C12.67 8.52 12.26 8.34 11.85 8.17L11.84 8.16Z" fill="#FFD69B"/>
<path id="Vector_10" d="M4.54999 8.51999C4.40999 8.58999 4.27999 8.65999 4.14999 8.73999V10.61C4.14999 10.75 4.18999 10.87 4.23999 10.97C4.28999 11.06 4.34999 11.14 4.41999 11.21C4.44999 11.24 4.47999 11.25 4.51999 11.27C4.56999 11.3 4.61999 11.33 4.67999 11.35C4.71999 11.36 4.75999 11.36 4.79999 11.37C4.85999 11.37 4.90999 11.39 4.96999 11.39C4.99999 11.39 5.02999 11.38 5.05999 11.37C5.12999 11.36 5.19999 11.35 5.25999 11.32C5.27999 11.32 5.29999 11.29 5.31999 11.28C5.38999 11.25 5.44999 11.21 5.49999 11.15C5.51999 11.13 5.53999 11.1 5.55999 11.07C5.59999 11.02 5.63999 10.96 5.65999 10.9C5.67999 10.85 5.68999 10.79 5.69999 10.73C5.69999 10.68 5.72999 10.65 5.72999 10.6V7.98999C5.31999 8.13999 4.91999 8.31999 4.53999 8.51999H4.54999Z" fill="#FFD69B"/>
</g>
<path id="Vector_11" d="M9.3 2.81C9.83 2.82 9.83 3.59 9.3 3.61C8.77 3.6 8.77 2.83 9.3 2.81Z" fill="#FF9200"/>
<path id="Vector_12" d="M11.28 2.01001C11.81 2.02001 11.81 2.79001 11.28 2.81001C10.76 2.79001 10.76 2.03001 11.28 2.01001Z" fill="#FF9200"/>
<path id="Vector_13" d="M13.27 2.81C13.8 2.82 13.8 3.59 13.27 3.61C12.74 3.6 12.74 2.83 13.27 2.81Z" fill="#FF9200"/>
<path id="Vector_14" d="M12.08 4.39999C12.61 4.40999 12.61 5.17999 12.08 5.19999C11.55 5.17999 11.55 4.41999 12.08 4.39999Z" fill="#FF9200"/>
<path id="Vector_15" d="M10.49 4.39999C11.02 4.40999 11.02 5.17999 10.49 5.19999C9.96 5.17999 9.96 4.41999 10.49 4.39999Z" fill="#FF9200"/>
<path id="Vector_16" d="M10.76 16.47C10.42 16.47 10.08 16.47 9.72 16.47H9.58C9.43 16.47 9.31 16.35 9.31 16.19C9.31 16.04 9.44 15.91 9.59 15.92H9.73C12.68 15.93 15.24 15.95 16.23 14.96C16.55 14.65 16.7 14.23 16.7 13.7C16.7 11.01 12.97 7.73 8.62 7.73C4.27 7.73 0.55 11.01 0.55 13.69C0.55 14.22 0.7 14.64 1.02 14.95C1.93 15.86 4.12 15.92 6.89 15.92C7.04 15.92 7.16 16.04 7.16 16.19C7.16 16.34 7.04 16.46 6.89 16.46C3.89 16.46 1.7 16.39 0.63 15.33C0.21 14.91 0 14.36 0 13.68C0 10.73 3.85 7.16 8.62 7.16C13.39 7.16 17.24 10.73 17.24 13.68C17.24 14.36 17.03 14.91 16.61 15.33C15.58 16.35 13.47 16.46 10.76 16.46V16.47Z" fill="#000202"/>
<path id="Vector_17" d="M5.85 8V10.53C5.85 10.94 5.49 11.27 5.05 11.27C4.61 11.27 4.25 10.94 4.25 10.53V8.37" stroke="#000202" stroke-width="0.5" stroke-miterlimit="10"/>
<path id="Vector_18" d="M9.4 7.47001V9.42001C9.4 9.83001 9.04 10.16 8.6 10.16C8.16 10.16 7.8 9.83001 7.8 9.42001V7.26001" stroke="#000202" stroke-width="0.5" stroke-miterlimit="10"/>
<path id="Vector_19" d="M13.24 8.74V10.6C13.24 11.01 12.88 11.34 12.44 11.34C12 11.34 11.64 11.01 11.64 10.6V8" stroke="#000202" stroke-width="0.5" stroke-miterlimit="10"/>
</g>
<defs>
<clipPath id="clip0_1426_2984">
<rect width="22.15" height="16.47" fill="white"/>
</clipPath>
</defs>
</svg>
