<svg width="24" height="24" viewBox="0 0 24 24" fill="none" xmlns="http://www.w3.org/2000/svg">
<g id="category-icons">
<path id="Vector" d="M11 20V2.00008H16.3338C20.9299 1.98093 24.8073 5.30326 22.1121 8.74048V19.9904H11V20Z" fill="#FD7C05"/>
<path id="Vector_2" d="M4.87106 8.74406C2.23291 5.30502 6.01487 1.98092 10.4979 2.00008C14.9809 1.98092 18.7629 5.30502 16.1339 8.74406V20H4.87106V8.74406Z" fill="#FAFAFA"/>
<path id="Vector_3" d="M13 17.7942V19H4.64585V8.94335C2.88204 6.25815 4.98767 3.45323 7.86582 3C6.49853 4.14591 6.12936 6.22394 7.21636 7.73757V10.551C7.21636 14.5532 9.80737 17.7857 13 17.7857V17.7942Z" fill="#FAFAFA"/>
<path id="Vector_4" d="M17.2061 17.383C17.2061 20.1079 13.4431 19.8488 8.80316 19.8488C4.16321 19.8488 0.400177 20.1079 0.400177 17.383C0.400177 14.6581 4.16321 11.2143 8.80316 11.2143C13.4431 11.2143 17.2061 14.6581 17.2061 17.383Z" fill="#FD7C05"/>
<path id="Vector_5" d="M16.7549 17.7143C16.3207 19.921 12.7449 19.6953 8.40298 19.6953C3.76304 19.6953 0 19.9544 0 17.2295C0 15.8169 1.00461 14.212 2.63072 13C1.97517 13.8693 1.60057 14.7971 1.60057 15.6581C1.60057 18.383 5.3636 18.1239 10.0035 18.1239C12.7705 18.1239 15.2224 18.2074 16.7549 17.7059V17.7143Z" fill="#FAFAFA"/>
<path id="Vector_6" d="M9.60338 11.2478V13.1786C9.60338 13.6133 9.2458 13.9644 8.80309 13.9644C8.36038 13.9644 8.00281 13.6133 8.00281 13.1786V11.2478C8.53065 11.1976 9.07553 11.1976 9.60338 11.2478Z" fill="#FAFAFA"/>
<path id="Vector_7" d="M5.60197 11.7743V14.3571C5.56792 15.3936 4.03546 15.3936 4.0014 14.3571V12.5099C4.50371 12.2173 5.04007 11.9749 5.60197 11.7743Z" fill="#FAFAFA"/>
<path id="Vector_8" d="M13.6048 12.5099V14.3571C13.5707 15.3936 12.0383 15.3936 12.0042 14.3571V11.7743C12.5576 11.9749 13.094 12.2173 13.6048 12.5099Z" fill="#FAFAFA"/>
<path id="Vector_9" d="M9.60338 13.07C9.67148 14.1817 8.0624 14.282 8.00281 13.1786V11.2478C8.13051 11.2311 8.26673 11.2311 8.40295 11.2227V12.3929C8.39444 12.978 9.09256 13.3793 9.60338 13.0783V13.07Z" fill="#FAFAFA"/>
<path id="Vector_10" d="M5.60197 14.2485C5.67008 15.3602 4.061 15.4605 4.0014 14.3572V12.5099C4.12911 12.4347 4.26533 12.3595 4.40155 12.2926V13.5715C4.38452 14.1566 5.08264 14.5578 5.60197 14.2569V14.2485Z" fill="#FAFAFA"/>
<path id="Vector_11" d="M13.6048 14.2485C13.6559 14.7166 13.2898 15.1429 12.8045 15.1429C12.3618 15.1429 12.0042 14.7918 12.0042 14.3571V11.7743C12.1404 11.8245 12.2681 11.8746 12.4044 11.9248V13.5714C12.4044 14.1649 13.1025 14.5661 13.6133 14.2568L13.6048 14.2485Z" fill="#FAFAFA"/>
<path id="Vector_12" d="M16.096 2.00061H10.912C7.84203 1.96415 4.10111 3.56815 4 6.71235C4 7.45966 4.24817 8.17964 4.68936 8.77202C4.82723 8.96341 5.09378 9.00898 5.296 8.88139C5.49821 8.7538 5.53497 8.48039 5.40629 8.27989C4.38604 6.87639 4.89157 5.21771 6.41735 4.15142C9.45973 1.74543 16.8864 2.83906 16.9692 6.71235C16.9692 7.36853 16.7118 7.98825 16.2063 8.57152C16.1419 8.64443 16.096 8.74468 16.096 8.85405V13.8574C16.096 14.4225 16.9324 14.4407 16.96 13.8756C16.9692 13.8756 16.9508 9.01809 16.96 9.01809C18.7707 6.84905 17.539 4.0694 14.8735 2.8664H16.096C20.1862 2.8664 23.7524 5.58226 21.3811 8.58064C21.3167 8.65355 21.2708 8.7538 21.2708 8.86316V19.1433H16.3533C15.7835 19.1615 15.7835 19.9909 16.3533 20H21.7028C21.9417 20 22.1348 19.8086 22.1348 19.5717V9.00898C24.8095 5.45467 20.8571 1.97327 16.096 2.00061Z" fill="#212121"/>
<path id="Vector_13" d="M10.5 4C11.1667 4.02128 11.1667 4.98936 10.5 5C9.83333 4.97872 9.83333 4.01064 10.5 4Z" fill="#212121"/>
<path id="Vector_14" d="M12.5 5C13.1667 5.02128 13.1667 5.98936 12.5 6C11.8333 5.97872 11.8333 5.01064 12.5 5Z" fill="#212121"/>
<path id="Vector_15" d="M8.5 5C9.16667 5.02128 9.16667 5.98936 8.5 6C7.83333 5.97872 7.83333 5.01064 8.5 5Z" fill="#212121"/>
<path id="Vector_16" d="M10.5 6C11.1667 6.02128 11.1667 6.98936 10.5 7C9.83333 6.97872 9.83333 6.01064 10.5 6Z" fill="#212121"/>
<path id="Vector_17" d="M8.80312 10.8215C3.9248 10.8215 0 14.4073 0 17.383C0 20.1915 3.46506 20.2249 5.99361 20.25C6.21497 20.25 6.39376 20.0745 6.39376 19.8572C6.39376 19.6398 6.22348 19.4643 6.00213 19.4643C2.62221 19.4392 0.79177 19.0965 0.800284 17.3914C0.800284 16.0874 1.85598 14.4324 3.60128 13.2287V14.3655C3.65236 15.9202 5.95105 15.9202 6.00213 14.3655V12.0585C6.52146 11.8914 7.05782 11.7743 7.6027 11.7075V13.187C7.6027 13.8389 8.13906 14.3655 8.80312 14.3655C9.46719 14.3655 10.0035 13.8389 10.0035 13.187V11.6991C10.5484 11.766 11.0848 11.8914 11.6041 12.0502V14.3572C11.6552 15.9119 13.9539 15.9119 14.005 14.3572V13.2204C15.9205 14.5243 17.6573 17.0654 16.3718 18.5449C15.4353 19.6148 11.4934 19.4643 8.81164 19.4559H7.61121C7.38985 19.4559 7.21107 19.6315 7.21107 19.8488C7.21107 20.0661 7.38985 20.2417 7.61121 20.2417H8.81164C9.5353 20.2417 10.259 20.2417 10.9741 20.2417C13.724 20.2417 15.878 20.133 16.9422 19.0882C19.6155 15.8617 13.8943 10.6208 8.81164 10.8215H8.80312ZM5.20184 14.3572C5.18482 14.8754 4.41007 14.8754 4.40156 14.3572V12.7356C4.65697 12.5935 4.92941 12.4681 5.20184 12.3511V14.3572ZM13.2047 14.3572C13.2047 14.5745 13.0259 14.75 12.8045 14.75C12.5832 14.75 12.4044 14.5745 12.4044 14.3572V12.3511C12.6768 12.4681 12.9493 12.5935 13.2047 12.7356V14.3572ZM9.20326 13.1786C9.18624 13.6968 8.41149 13.6968 8.40298 13.1786V11.6239C8.6669 11.6072 8.93934 11.6072 9.20326 11.6239V13.1786Z" fill="#212121"/>
</g>
</svg>
