<svg width="24" height="24" viewBox="0 0 24 24" fill="none" xmlns="http://www.w3.org/2000/svg">
<g id="img-category-bread" clip-path="url(#clip0_407_714)">
<path id="Vector" d="M1.83125 13.3744C1.50375 13.2119 1.44688 13.0544 1.60625 12.7181C1.68313 12.5569 1.76813 12.3987 1.86 12.2456C1.91125 12.1606 1.90375 12.12 1.815 12.0681C1.16375 11.6887 0.840628 10.8269 1.10625 9.95312C1.29188 9.34374 1.63875 8.83312 2.07188 8.37499C2.16313 8.27874 2.26 8.18812 2.35375 8.095C2.44813 8.00187 2.57625 7.92437 2.6275 7.81124C2.69875 7.65624 2.47563 7.67312 2.42563 7.56124C2.27 7.21499 2.18 6.85437 2.16 6.47937C2.04813 4.40437 3.815 2.57937 5.8875 2.62437C6.22438 2.63187 6.55125 2.70062 6.87 2.80937C7.0525 2.87187 7.21125 2.97624 7.31313 3.13624C7.40375 3.27874 7.45813 3.27812 7.58063 3.16312C8.22938 2.55374 8.93688 2.01812 9.69063 1.54499C10.5719 0.992494 11.3619 1.10874 12.0269 1.90749C12.1538 2.05999 12.2563 2.07562 12.4381 2.03437C13.6725 1.75374 14.8925 1.73437 16.0681 2.29499C16.3081 2.40937 16.5294 2.55312 16.7375 2.71874C17.2981 3.16437 17.4875 3.78124 17.2756 4.46999C17.1256 4.95749 16.835 5.35999 16.505 5.73624C15.9306 6.39124 15.2556 6.92999 14.535 7.41312C14.4125 7.49499 14.3594 7.57749 14.3588 7.73062C14.3581 8.13812 14.2006 8.50437 14.0069 8.85437C13.5456 9.68999 12.8988 10.375 12.215 11.0269C11.3731 11.8294 10.46 12.5444 9.50125 13.2025C9.13063 13.4562 8.72938 13.6425 8.29125 13.7312C8.1225 13.7656 8.01688 13.8469 7.91625 13.9731C7.12063 14.9675 6.20063 15.8225 5.08313 16.4475C4.56563 16.7369 4.02625 16.9787 3.43813 17.0856C2.87563 17.1881 2.40375 17.0081 2.04188 16.5744C1.515 15.9437 1.2525 15.2062 1.225 14.3862C1.2125 14.01 1.3425 13.8875 1.72625 13.8931C1.94875 13.9612 2.01188 14.0512 2.02688 14.3225C2.0575 14.87 2.20625 15.3769 2.52063 15.8331C2.8375 16.2931 3.08313 16.3906 3.61 16.2256C4.53188 15.9375 5.3275 15.43 6.05063 14.7994C6.36063 14.5294 6.67563 14.265 6.93313 13.91C5.46313 13.7919 4.12313 13.3081 2.835 12.66C2.67625 12.58 2.58313 12.595 2.4975 12.7556C2.4175 12.9069 2.34813 13.065 2.25313 13.2069C2.15438 13.3544 2.03125 13.4694 1.83063 13.3744H1.83125Z" fill="#766A6B"/>
<path id="Vector_2" d="M15.8144 12.2912C15.7425 11.9712 15.79 11.8625 16.0831 11.71C16.4563 11.5156 16.8131 11.2956 17.16 11.0581C17.4694 10.8462 17.8063 10.6819 18.1669 10.5806C18.3031 10.5425 18.3731 10.4669 18.4313 10.3481C18.7313 9.73311 18.8769 9.07499 18.9931 8.40686C19.0144 8.28499 19.0444 8.16311 19.0831 8.04499C19.2706 7.47186 19.7181 7.22811 20.29 7.43374C21.1813 7.75436 21.7781 8.40811 22.1713 9.24686C22.6 10.1637 22.595 11.1312 22.4363 12.1075C22.4231 12.1869 22.4131 12.2544 22.4569 12.33C23.1156 13.47 23.0275 14.64 22.5769 15.815C22.2506 16.6662 21.7325 17.3894 21.0319 17.975C20.9225 18.0669 20.9088 18.1356 20.9569 18.2656C21.1888 18.8962 21.1094 19.5 20.7131 20.0362C19.7638 21.3219 18.4875 22.0431 16.8913 22.1831C16.425 22.2237 15.9906 22.1119 15.6219 21.8169C15.5 21.72 15.4231 21.7337 15.3013 21.805C14.0813 22.5119 12.7663 22.8562 11.355 22.8212C10.6844 22.805 10.0706 22.6231 9.5275 22.2125C9.26563 22.0144 8.935 21.945 8.63938 21.81C8.3425 21.6744 8.28063 21.5587 8.36188 21.2437C8.34813 21.1912 8.37375 21.1494 8.41063 21.1212C8.515 21.0412 8.51688 20.9456 8.4775 20.83C8.26 20.1869 8.2975 19.5437 8.4875 18.9025C8.53813 18.7306 8.57813 18.5562 8.6275 18.3837C8.65563 18.285 8.63188 18.2394 8.5175 18.2462C7.89438 18.2819 7.27438 18.2694 6.65813 18.1437C6.4125 18.0937 6.26063 18.2112 6.21813 18.4769C6.13563 18.9981 6.22125 19.4887 6.55938 19.9094C6.7875 20.1931 7.06688 20.4131 7.425 20.5175C7.52188 20.5456 7.6225 20.5719 7.705 20.6319C7.85 20.7375 7.96625 20.8594 7.87313 21.0606C7.76188 21.3212 7.61125 21.4137 7.37438 21.3675C6.1175 21.1212 5.14438 19.65 5.40438 18.3887C5.57125 17.5794 6.08125 17.2262 6.89438 17.3731C7.51125 17.4844 8.12563 17.5506 8.74688 17.4081C9.08125 17.3312 9.41 17.2581 9.66688 16.9975C9.77313 16.8894 9.92125 16.8206 10.0544 16.7412C10.8706 16.255 11.4931 15.5869 11.9325 14.7456C11.985 14.6456 12 14.5519 11.9894 14.4362C11.93 13.8044 12.0875 13.2306 12.5006 12.7425C12.8288 12.355 13.2619 12.1681 13.75 12.3094C14.0925 12.4087 14.3869 12.3381 14.6988 12.2537C15.0256 12.165 15.1231 12.2031 15.2925 12.4881C15.4344 12.7844 15.1644 12.8681 15.0094 13.0244C15.7413 13.61 16.4625 14.2025 17.1888 14.79C18.1819 15.5937 19.1769 16.3937 20.1675 17.2C20.4531 17.4325 20.4856 17.4394 20.7444 17.1737C21.5931 16.3044 22.1031 15.2794 22.1113 14.045C22.12 12.6969 21.0475 11.4931 19.7138 11.2862C18.8613 11.1537 18.1144 11.35 17.4244 11.8525C17.085 12.1 16.7188 12.3112 16.3294 12.475C16.0825 12.5787 15.9294 12.5187 15.8144 12.2912Z" fill="#766A6B"/>
<path id="Vector_3" d="M15.8144 12.2913C16.0519 12.5094 16.145 12.5219 16.4369 12.3706C16.8038 12.1806 17.1575 11.97 17.4956 11.7319C19.3163 10.4488 21.8188 11.5075 22.1575 13.7106C22.2506 14.3175 22.1144 14.9025 21.9069 15.4725C21.6319 16.2269 21.1906 16.8669 20.585 17.395C20.5031 17.4669 20.4475 17.5113 20.3344 17.4188C18.5525 15.9688 16.7656 14.525 14.9794 13.0806C14.9494 13.0563 14.9088 13.045 14.8825 13.0063C15.1575 12.915 15.3113 12.7675 15.2931 12.4888C15.4669 12.4231 15.6413 12.3575 15.815 12.2919L15.8144 12.2913Z" fill="#F7C36E"/>
<path id="Vector_4" d="M1.83125 13.3744C2.05062 13.3731 2.19312 13.2681 2.27625 13.0638C2.35562 12.8694 2.42312 12.6156 2.59125 12.5338C2.75875 12.4525 2.94875 12.6631 3.12687 12.7456C4.14687 13.2188 5.19312 13.6094 6.31187 13.7744C6.55 13.8094 6.79062 13.8306 7.05562 13.8619C6.855 14.1288 6.62562 14.3556 6.39062 14.5756C5.5575 15.3569 4.63375 15.9894 3.52437 16.3156C3.09562 16.4419 2.835 16.355 2.56312 15.9994C2.19312 15.5144 1.99375 14.965 1.97625 14.3569C1.97 14.1481 1.9025 13.9975 1.72562 13.8931C1.7325 13.7144 1.78937 13.5463 1.83062 13.3744H1.83125Z" fill="#F7C36E"/>
<path id="Vector_5" d="M7.87313 21.0606C7.875 20.8144 7.75063 20.6862 7.515 20.6156C6.56875 20.3331 6.04688 19.5606 6.12688 18.585C6.1625 18.1487 6.32188 18.0244 6.74563 18.0894C7.07563 18.14 7.40375 18.2037 7.74063 18.2087C8.07375 18.2137 8.405 18.2044 8.7525 18.1525C8.66063 18.5037 8.57313 18.8319 8.48938 19.1606C8.36 19.6681 8.345 20.1794 8.50563 20.6794C8.58063 20.9137 8.64125 21.1125 8.36313 21.2431C8.2 21.1825 8.03688 21.1212 7.87375 21.0606H7.87313Z" fill="#F7C36E"/>
<path id="Vector_6" d="M9.05125 10.2581C8.6325 10.0381 8.27563 9.84751 7.91625 9.66188C7.66688 9.53313 7.46 9.57938 7.35063 9.78126C7.2425 9.98126 7.3175 10.185 7.565 10.3169C8.31313 10.7169 9.065 11.1094 9.81313 11.51C9.99688 11.6088 10.1706 11.6338 10.3256 11.475C10.4906 11.3063 10.4475 11.1256 10.335 10.9425C9.48688 9.56063 8.73438 8.12876 8.09 6.64064C7.7925 5.95439 7.53438 5.25376 7.46313 4.49938C7.45313 4.39126 7.43125 4.28876 7.53375 4.20001C8.30563 3.53313 9.06125 2.84438 9.91188 2.27563C10.6969 1.75063 11.1988 1.87001 11.6838 2.68751C11.8631 2.99001 11.995 3.31313 12.0994 3.64938C12.1881 3.93501 12.3619 4.04626 12.5963 3.97876C12.8144 3.91626 12.9 3.70626 12.8119 3.42376C12.7563 3.24563 12.6963 3.06814 12.6219 2.89751C12.5794 2.79939 12.5938 2.75876 12.6969 2.73751C13.94 2.48563 15.1463 2.48751 16.2319 3.27064C16.6575 3.57751 16.7438 3.90314 16.5319 4.38939C16.3256 4.86314 15.9813 5.23563 15.6163 5.58876C15.2125 5.97938 14.7688 6.32251 14.3175 6.65626C14.1881 6.75188 14.1369 6.74126 14.08 6.58564C13.9013 6.09626 13.7106 5.61126 13.5181 5.12688C13.4094 4.85188 13.2156 4.74813 12.9956 4.83188C12.78 4.91438 12.7131 5.12751 12.8194 5.40439C13.0506 6.00689 13.2713 6.61439 13.5181 7.21064C13.6819 7.60564 13.63 7.96876 13.445 8.33314C13.11 8.99439 12.6331 9.54876 12.1244 10.0775C11.1963 11.0419 10.1538 11.8688 9.04688 12.615C8.33625 13.0944 7.53375 13.1681 6.71313 13.0744C5.07125 12.8881 3.60563 12.2106 2.19313 11.3994C1.84375 11.1988 1.6925 10.705 1.80563 10.235C1.9275 9.72751 2.21125 9.31188 2.55813 8.93626C2.76938 8.70751 3.00188 8.49813 3.2125 8.26813C3.32438 8.14563 3.41313 8.11813 3.5675 8.20688C3.95125 8.42876 4.34625 8.63126 4.73938 8.83751C4.98063 8.96376 5.19875 8.91001 5.30313 8.70814C5.40875 8.50376 5.33125 8.31126 5.07938 8.17501C4.4625 7.84251 3.8475 7.50689 3.22438 7.18814C3.05875 7.10376 2.98375 6.99126 2.94938 6.81876C2.74688 5.80251 3.09625 4.96626 3.7875 4.24439C4.52313 3.47626 5.41063 3.20813 6.4475 3.46626C6.75063 3.54188 6.78875 3.60938 6.7375 3.90938C6.61063 4.65126 6.81438 5.34813 7.05125 6.03376C7.53063 7.42126 8.20063 8.72188 8.91438 10.0006C8.95125 10.0669 8.98688 10.1338 9.05375 10.2569L9.05125 10.2581Z" fill="#F7C36E"/>
<path id="Vector_7" d="M12.3481 15.4912C12.7538 16.3387 13.1356 17.1375 13.5181 17.9362C13.575 18.0556 13.6288 18.1769 13.6906 18.2937C13.805 18.5081 14.0031 18.5831 14.1956 18.4912C14.385 18.4006 14.4556 18.1937 14.3519 17.9744C13.865 16.9481 13.375 15.9231 12.8813 14.9C12.7669 14.6631 12.71 14.42 12.7175 14.1562C12.7256 13.8756 12.8044 13.62 12.9531 13.3844C13.2038 12.9862 13.5725 12.9175 13.9406 13.2119C14.7194 13.8344 15.4938 14.4625 16.2694 15.0887C17.4513 16.0431 18.6313 17 19.8144 17.9525C20.4306 18.4487 20.5213 19.0919 20.04 19.7081C19.2194 20.76 18.135 21.3412 16.8094 21.4525C16.31 21.4944 15.9413 21.2425 15.7181 20.7969C15.5163 20.3937 15.3263 19.9837 15.1344 19.5756C15.0556 19.4081 14.9444 19.2869 14.745 19.2962C14.4619 19.3087 14.3144 19.5781 14.4438 19.8631C14.6106 20.2319 14.7863 20.5962 14.9675 20.9581C15.025 21.0725 15.0113 21.1312 14.8963 21.1956C13.6725 21.8806 12.3656 22.2044 10.9675 22.0337C9.73438 21.8837 8.91188 20.6431 9.19563 19.4231C9.26063 19.1431 9.33125 18.8637 9.40875 18.5869C9.53813 18.1269 9.79 17.74 10.2038 17.5006C11.0613 17.0044 11.7906 16.3781 12.3469 15.4931L12.3481 15.4912Z" fill="#F7C36E"/>
<path id="Vector_8" d="M21.7819 11.4387C21.045 10.7612 20.1906 10.48 19.2213 10.4231C19.5313 9.74 19.6375 9.01812 19.7925 8.3075C19.8419 8.08 19.9375 8.04 20.1744 8.15937C20.8356 8.49125 21.29 9.015 21.5613 9.70125C21.7738 10.24 21.8438 10.7975 21.7825 11.4387H21.7819Z" fill="#F7C36E"/>
<path id="Vector_9" d="M21.4231 14.2456C21.4113 14.6975 21.3019 15.1219 21.0619 15.5081C20.9281 15.7231 20.7119 15.7906 20.5275 15.6781C20.3469 15.5675 20.2975 15.3619 20.4194 15.1481C20.7631 14.5475 20.7606 13.9538 20.41 13.3563C20.2863 13.145 20.3363 12.9381 20.5181 12.825C20.7069 12.7081 20.9156 12.7675 21.0538 12.985C21.2975 13.3694 21.41 13.7925 21.4231 14.2456Z" fill="#766A6B"/>
<path id="Vector_10" d="M3.60375 6.06311C3.64437 5.42311 4.00625 4.82749 4.71687 4.45624C4.9725 4.32249 5.19625 4.38061 5.30125 4.58999C5.40187 4.79124 5.31812 4.98061 5.06312 5.11686C4.6125 5.35749 4.36875 5.72936 4.35375 6.24186C4.34375 6.59499 4.21562 6.77686 3.96937 6.76686C3.72375 6.75686 3.59937 6.57124 3.60375 6.06311Z" fill="#766A6B"/>
<path id="Vector_11" d="M6.58688 9.74627C6.51625 9.74252 6.45 9.72939 6.38563 9.69501C6.11813 9.55126 5.84688 9.41564 5.58188 9.26814C5.37563 9.15314 5.30688 8.94189 5.40188 8.75564C5.49875 8.56626 5.70813 8.50001 5.92438 8.60814C6.20938 8.75064 6.49188 8.90001 6.76875 9.05751C6.92438 9.14626 6.99688 9.29002 6.94813 9.47314C6.9025 9.64564 6.76438 9.74689 6.58625 9.74627H6.58688Z" fill="#766A6B"/>
</g>
<defs>
<clipPath id="clip0_407_714">
<rect width="24" height="24" fill="white"/>
</clipPath>
</defs>
</svg>
