<svg width="21" height="20" viewBox="0 0 21 20" fill="none" xmlns="http://www.w3.org/2000/svg">
<g id="Layer_1" clip-path="url(#clip0_1220_5489)">
<path id="Vector" d="M19.4312 19.6413H1.56879C0.903541 19.6413 0.367371 19.1178 0.367371 18.4682V8.86087H20.6326V18.4779C20.6326 19.1275 20.0964 19.651 19.4312 19.651V19.6413Z" fill="#F04C28"/>
<path id="Vector_2" d="M0.367371 16.3063V18.4586C0.367371 19.1081 0.91347 19.6413 1.57872 19.6413H19.4213C20.0865 19.6413 20.6326 19.1081 20.6326 18.4586V16.3063C19.2326 16.3063 18.1007 15.2012 18.1007 13.8342C18.1007 12.4673 16.9688 11.3621 15.5688 11.3621C14.1688 11.3621 13.0369 12.4673 13.0369 13.8342C13.0369 15.2012 11.905 16.3063 10.505 16.3063C9.10496 16.3063 7.97304 15.2012 7.97304 13.8342C7.97304 12.4673 6.84113 11.3621 5.44113 11.3621C4.04113 11.3621 2.90921 12.4673 2.90921 13.8342C2.90921 15.2012 1.7773 16.3063 0.3773 16.3063" fill="#FAFAFA"/>
<path id="Vector_3" d="M13.156 2.32672L0.367371 8.8512H20.6326C18.7461 6.10762 16.1745 3.84878 13.1461 2.32672H13.156Z" fill="#FAFAFA"/>
<path id="Vector_4" d="M20.6326 16.665C20.434 16.665 20.2652 16.5002 20.2652 16.3063V9.20988H0.367374C0.19858 9.20988 0.049644 9.09355 0.00992765 8.93843C-0.0297887 8.77362 0.049644 8.60881 0.19858 8.53126L13.4638 1.90983C13.5929 1.85166 13.7418 1.86136 13.8511 1.94861C14.0099 2.06495 17.8326 4.92486 18.9546 6.21424C19.0837 6.36936 19.0638 6.59233 18.9149 6.71836C18.756 6.84439 18.5277 6.825 18.3986 6.67958C17.4553 5.60348 14.3773 3.24769 13.5929 2.65632L1.88652 8.49248H20.6326C20.8312 8.49248 21 8.65729 21 8.85118V16.3063C21 16.5002 20.8312 16.665 20.6326 16.665Z" fill="#000202"/>
<path id="Vector_5" d="M19.4213 20H1.57872C0.704965 20 0 19.3117 0 18.4586V10.2472C0 10.0533 0.168794 9.88852 0.367376 9.88852C0.565957 9.88852 0.734752 10.0533 0.734752 10.2472V15.9186C1.75745 15.7441 2.53191 14.8812 2.53191 13.8342C2.53191 12.2734 3.83262 11.0034 5.43121 11.0034C7.02979 11.0034 8.3305 12.2734 8.3305 13.8342C8.3305 14.9976 9.30355 15.9477 10.495 15.9477C11.6865 15.9477 12.6596 14.9976 12.6596 13.8342C12.6596 12.2734 13.9603 11.0034 15.5589 11.0034C17.1574 11.0034 18.4582 12.2734 18.4582 13.8342C18.4582 14.9976 19.4312 15.9477 20.6227 15.9477C20.8213 15.9477 20.9901 16.1125 20.9901 16.3064V18.4586C20.9901 19.3117 20.2851 20 19.4113 20H19.4213ZM0.734752 16.6457V18.4683C0.734752 18.9239 1.11206 19.2923 1.57872 19.2923H19.4213C19.8879 19.2923 20.2652 18.9239 20.2652 18.4683V16.6457C18.8454 16.4712 17.7333 15.2787 17.7333 13.8342C17.7333 12.6709 16.7603 11.7208 15.5688 11.7208C14.3773 11.7208 13.4043 12.6709 13.4043 13.8342C13.4043 15.3951 12.1035 16.6651 10.505 16.6651C8.90638 16.6651 7.60567 15.3951 7.60567 13.8342C7.60567 12.6709 6.63262 11.7208 5.44113 11.7208C4.24965 11.7208 3.2766 12.6709 3.2766 13.8342C3.2766 15.2787 2.16454 16.4712 0.744681 16.6457H0.734752Z" fill="#000202"/>
<path id="Vector_6" d="M11.478 2.57877C11.478 3.80999 12.5007 4.79884 13.7518 4.79884C15.0029 4.79884 16.0255 3.80029 16.0255 2.57877C16.0255 1.35725 15.0128 0.358704 13.7617 0.358704C12.5107 0.358704 11.488 1.35725 11.488 2.57877H11.478Z" fill="#F04C28"/>
<path id="Vector_7" d="M13.7617 5.15754C12.3021 5.15754 11.1206 4.00388 11.1206 2.57877C11.1206 1.15366 12.3021 0 13.7617 0C15.2213 0 16.4028 1.15366 16.4028 2.57877C16.4028 4.00388 15.2213 5.15754 13.7617 5.15754ZM13.7617 0.717402C12.7092 0.717402 11.8553 1.55114 11.8553 2.57877C11.8553 3.6064 12.7092 4.44014 13.7617 4.44014C14.8142 4.44014 15.6681 3.6064 15.6681 2.57877C15.6681 1.55114 14.8142 0.717402 13.7617 0.717402Z" fill="#000202"/>
<path id="Vector_8" d="M12.8284 1.68334C12.8284 1.84197 12.9159 1.9884 13.0535 2.07382C13.1911 2.15924 13.3662 2.15924 13.5163 2.07382C13.6539 1.9884 13.7414 1.84197 13.7414 1.68334C13.7414 1.5247 13.6539 1.37827 13.5163 1.29285C13.3787 1.20744 13.2036 1.20744 13.0535 1.29285C12.9159 1.37827 12.8284 1.5247 12.8284 1.68334Z" fill="white"/>
</g>
<defs>
<clipPath id="clip0_1220_5489">
<rect width="21" height="20" fill="white"/>
</clipPath>
</defs>
</svg>
