<svg width="18" height="18" viewBox="0 0 18 18" fill="none" xmlns="http://www.w3.org/2000/svg">
<g id="Group">
<path id="Vector" d="M16.7537 17.2883H1.74636C1.19148 17.2883 0.739044 16.8359 0.739044 16.281V8.00906H17.7525V16.281C17.7525 16.8359 17.3 17.2883 16.7451 17.2883H16.7537Z" fill="#F6364D"/>
<path id="Vector_2" d="M0.739044 14.4115V16.2639C0.739044 16.8273 1.19148 17.2798 1.7549 17.2798H16.7366C17.3 17.2798 17.7525 16.8273 17.7525 16.2639V14.4115C16.5744 14.4115 15.6268 13.4639 15.6268 12.2859C15.6268 11.1078 14.6708 10.1602 13.5012 10.1602C12.3317 10.1602 11.3756 11.1078 11.3756 12.2859C11.3756 13.4639 10.4195 14.4115 9.25002 14.4115C8.08051 14.4115 7.12441 13.4639 7.12441 12.2859C7.12441 11.1078 6.17685 10.1602 4.9988 10.1602C3.82075 10.1602 2.87319 11.1078 2.87319 12.2859C2.87319 13.4639 1.91709 14.4115 0.747581 14.4115" fill="white"/>
<path id="Vector_3" d="M11.4781 2.39199L0.739044 8.00053H17.761C16.1732 5.64443 14.0134 3.69809 11.4781 2.38345V2.39199Z" fill="white"/>
<path id="Vector_4" d="M17.7525 14.6505C17.6244 14.6505 17.522 14.5481 17.522 14.42V8.23952H0.739041C0.628066 8.23952 0.534163 8.16269 0.508554 8.06025C0.482944 7.95781 0.534163 7.84683 0.628066 7.79561L11.7683 2.09317C11.8451 2.05049 11.9476 2.05903 12.0159 2.11878C12.1525 2.22122 15.3537 4.67122 16.2927 5.77244C16.3781 5.86635 16.361 6.02 16.2671 6.10537C16.1732 6.19074 16.0195 6.17366 15.9342 6.07976C15.1232 5.1322 12.4427 3.04074 11.8451 2.57976L1.70368 7.77H17.7525C17.8805 7.77 17.9829 7.87244 17.9829 8.00049V14.4115C17.9829 14.5395 17.8805 14.642 17.7525 14.642V14.6505Z" fill="#000202"/>
<path id="Vector_5" d="M16.7366 17.5188H1.75488C1.06341 17.5188 0.5 16.9554 0.5 16.2639V9.20415C0.5 9.0761 0.602439 8.97366 0.730488 8.97366C0.858537 8.97366 0.960976 9.0761 0.960976 9.20415V14.1724C1.9 14.0615 2.62561 13.259 2.62561 12.2944C2.62561 10.9883 3.68415 9.92976 4.99024 9.92976C6.29634 9.92976 7.35488 10.9883 7.35488 12.2944C7.35488 13.3359 8.2 14.1895 9.25 14.1895C10.3 14.1895 11.1451 13.3359 11.1451 12.2944C11.1451 10.9883 12.2037 9.92976 13.5098 9.92976C14.8159 9.92976 15.8744 10.9883 15.8744 12.2944C15.8744 13.3359 16.7195 14.1895 17.7695 14.1895C17.8976 14.1895 18 14.292 18 14.42V16.2724C18 16.9639 17.4366 17.5273 16.7451 17.5273L16.7366 17.5188ZM0.969512 14.6334V16.2639C0.969512 16.6993 1.31951 17.0493 1.75488 17.0493H16.7366C17.172 17.0493 17.522 16.6993 17.522 16.2639V14.6334C16.3354 14.5139 15.3963 13.5066 15.3963 12.2859C15.3963 11.2444 14.5427 10.3907 13.5012 10.3907C12.4598 10.3907 11.6061 11.2444 11.6061 12.2859C11.6061 13.592 10.5476 14.6505 9.24146 14.6505C7.93537 14.6505 6.88537 13.592 6.88537 12.2859C6.88537 11.2444 6.03171 10.3907 4.99024 10.3907C3.94878 10.3907 3.09512 11.2444 3.09512 12.2859C3.09512 13.5066 2.1561 14.5224 0.969512 14.6334Z" fill="#000202"/>
<path id="Vector_6" d="M10.0695 2.6054C10.0695 3.66394 10.9232 4.5176 11.9817 4.5176C13.0403 4.5176 13.8939 3.66394 13.8939 2.6054C13.8939 1.54687 13.0403 0.693207 11.9817 0.693207C10.9232 0.693207 10.0695 1.54687 10.0695 2.6054Z" fill="#F6364D"/>
<path id="Vector_7" d="M11.9817 4.74807C10.7951 4.74807 9.83902 3.78344 9.83902 2.60539C9.83902 1.42734 10.8037 0.462708 11.9817 0.462708C13.1598 0.462708 14.1244 1.42734 14.1244 2.60539C14.1244 3.78344 13.1598 4.74807 11.9817 4.74807ZM11.9817 0.923683C11.0598 0.923683 10.3 1.6749 10.3 2.60539C10.3 3.53588 11.0512 4.2871 11.9817 4.2871C12.9122 4.2871 13.6634 3.53588 13.6634 2.60539C13.6634 1.6749 12.9122 0.923683 11.9817 0.923683Z" fill="#000202"/>
<path id="Vector_8" d="M11.2049 1.76026C11.2049 1.87124 11.2646 1.97368 11.3585 2.0249C11.4524 2.07612 11.5719 2.07612 11.6658 2.0249C11.7597 1.97368 11.8195 1.87124 11.8195 1.76026C11.8195 1.64929 11.7597 1.54685 11.6658 1.49563C11.5719 1.44441 11.4524 1.44441 11.3585 1.49563C11.2646 1.54685 11.2049 1.64929 11.2049 1.76026Z" fill="white"/>
</g>
</svg>
