<svg width="24" height="24" viewBox="0 0 24 24" fill="none" xmlns="http://www.w3.org/2000/svg">
<path d="M21.5271 4.91011L20.8224 3.79345L19.4347 4.1729L18.6975 2.94782L17.3207 3.32727L16.5834 2.1022L15.2066 2.48165L14.4802 1.25658L13.2335 1.6035L12.0084 1.23489L11.4338 2.37323L10.3388 3.03456L10.7183 4.41141L9.49321 5.14862L9.87266 6.52547L8.68011 7.24099L10.1329 7.59876L11.6615 7.08921L12.4312 8.52027L13.7972 9.29001L13.4503 10.6777L14.6862 11.3824L14.3501 12.7701L15.586 13.4748L15.2391 14.8625L16.475 15.5671L16.3991 15.9141L17.1472 15.7081L18.3723 16.0767L18.9469 14.9275L20.0527 14.2662L19.6732 12.8893L20.8983 12.163L20.5189 10.7861L21.7439 10.0489L21.3645 8.67205L22.5895 7.93484L22.2426 6.69893L22.6112 5.47386L21.5271 4.91011Z" fill="#FAFAFA"/>
<path d="M18.5349 16.4886C18.5349 16.4886 18.4807 16.4886 18.459 16.4778L17.3098 16.1309L16.2474 16.4019C16.0956 16.4344 15.9547 16.3477 15.9113 16.2067C15.8788 16.055 15.9655 15.914 16.1065 15.8707L17.2448 15.5888C17.2448 15.5888 17.3424 15.5888 17.3966 15.5888L18.4048 15.8923L18.8818 14.96C18.8818 14.96 18.936 14.8733 18.9903 14.8516L19.9118 14.2987L19.5865 13.1278C19.554 13.0085 19.6082 12.8785 19.7058 12.8242L20.7466 12.1954L20.4213 11.0246C20.3888 10.9053 20.443 10.7752 20.5406 10.721L21.5813 10.0922L21.2561 8.92137C21.2236 8.80211 21.2778 8.67201 21.3753 8.61781L22.4161 7.98901L22.1342 6.94824C22.1342 6.94824 22.1234 6.85067 22.1342 6.79646L22.4378 5.78822L21.5488 5.33288C21.5488 5.33288 21.4729 5.27868 21.4404 5.23531L20.8441 4.29212L19.6624 4.61736C19.5432 4.64988 19.4131 4.59567 19.3589 4.4981L18.7301 3.45733L17.5592 3.78257C17.4399 3.8151 17.3099 3.76089 17.2556 3.66332L16.6268 2.62255L15.456 2.94779C15.3367 2.98031 15.2066 2.92611 15.1524 2.82853L14.5236 1.78777L13.4829 2.06964C13.4829 2.06964 13.3853 2.08048 13.3311 2.06964L12.3228 1.76608L11.8458 2.69844C11.8458 2.69844 11.7916 2.78517 11.7374 2.80685L10.8159 3.35976L11.1411 4.53062C11.1737 4.64988 11.1194 4.77998 11.0219 4.83418L9.98111 5.46298L10.2955 6.42786C10.3389 6.54711 10.2847 6.68805 10.1654 6.7531L9.40652 7.18675C9.5583 7.21928 9.64503 7.37105 9.60166 7.52283C9.56914 7.67461 9.41736 7.76134 9.26558 7.71798L8.60426 7.55536C8.49585 7.53367 8.40911 7.4361 8.39827 7.32769C8.38743 7.21928 8.44164 7.11086 8.52837 7.05666L9.67755 6.39533L9.36315 5.43046C9.31979 5.3112 9.36315 5.1811 9.48241 5.11606L10.5232 4.48726L10.1979 3.31639C10.1654 3.19714 10.2196 3.06704 10.3172 3.01284L11.3471 2.39488L11.8892 1.32159C11.9542 1.20233 12.0843 1.14813 12.2144 1.18065L13.3636 1.52757L14.5236 1.21318C14.6429 1.18065 14.773 1.23486 14.8272 1.33243L15.456 2.3732L16.6268 2.04796C16.7461 2.01543 16.8762 2.06964 16.9304 2.16721L17.5592 3.20798L18.7301 2.88274C18.8493 2.85022 18.9794 2.90442 19.0336 3.002L19.6624 4.04276L20.8441 3.71752C20.9634 3.685 21.0826 3.72837 21.1477 3.83678L21.8198 4.88839L22.8498 5.40877C22.969 5.47382 23.0232 5.60392 22.9907 5.73401L22.6438 6.88319L22.9582 8.04322C22.9907 8.16247 22.9365 8.29257 22.8389 8.34677L21.7982 8.97557L22.1234 10.1464C22.1559 10.2657 22.1017 10.3958 22.0041 10.45L20.9634 11.0788L21.2886 12.2497C21.3211 12.3689 21.2669 12.499 21.1694 12.5532L20.1286 13.182L20.4538 14.3529C20.4864 14.4721 20.4322 14.6022 20.3346 14.6564L19.3047 15.2744L18.7626 16.3477C18.7192 16.4453 18.6216 16.4995 18.5132 16.4995L18.5349 16.4886Z" fill="#000202"/>
<path d="M16.1715 16.1309L16.2691 15.7081L16.3666 15.3069L15.8571 15.0142L15.2933 14.6998L15.1199 14.5914L15.1632 14.4179L15.456 13.2146L14.2201 12.499L14.567 11.1222L13.3202 10.4175L13.3636 10.2766L13.4612 9.87543L13.6671 9.0298L12.8866 8.58531L12.5505 8.39016L12.5396 8.37932L11.9542 7.26266L10.7291 7.66379L9.48239 7.36024L9.43903 7.44697L9.22219 7.82641L9.12463 7.99988L8.81023 8.54194L8.7777 8.59615L8.74518 8.58531L8.32237 8.47689L7.89955 8.37932L7.40085 8.24923L6.68533 9.49598L5.30848 9.14906L4.60379 10.385L3.2161 10.0489L2.57646 11.1547L1.44896 11.7618L1.85009 12.976L1.54653 14.2228L2.78244 14.9275L2.43552 16.3152L3.68228 17.0199L3.33535 18.4076L4.57126 19.1122L4.23518 20.4999L5.341 21.1287L5.94811 22.2562L7.16234 21.8659L8.4091 22.1695L9.11378 20.9336L10.5015 21.2697L11.2062 20.0338L12.5939 20.3807L13.2985 19.1339L14.6862 19.4809L15.315 18.3642L16.4425 17.7571L16.0739 16.5971L16.1715 16.1309Z" fill="#D56A1E"/>
<path d="M5.93727 22.5164C5.8397 22.5164 5.74213 22.4622 5.69876 22.3755L5.13501 21.313L4.0834 20.7168C3.97499 20.6517 3.92078 20.5325 3.95331 20.4132L4.24603 19.2315L3.18357 18.6244C3.07516 18.5593 3.02095 18.4401 3.05348 18.3208L3.34619 17.1391L2.28374 16.532C2.17533 16.467 2.12112 16.3477 2.15365 16.2284L2.44636 15.0467L1.38391 14.4396C1.2755 14.3746 1.22129 14.2553 1.25381 14.1361L1.54653 12.9652L1.16709 11.8269C1.12372 11.6968 1.17793 11.5667 1.29718 11.5016L2.35963 10.9379L2.9559 9.88626C3.02095 9.77785 3.14021 9.72364 3.25946 9.75617L4.44117 10.0489L5.04828 8.98643C5.11333 8.87802 5.23259 8.82381 5.35184 8.85633L6.53355 9.14905L7.14066 8.0866C7.20571 7.97819 7.32496 7.92398 7.44422 7.9565L8.62592 8.24922L9.23304 7.18677C9.29809 7.07836 9.41734 7.02415 9.53659 7.05667L10.7075 7.34939L11.8458 6.96994C11.9759 6.92658 12.106 6.98078 12.171 7.10004L12.7348 8.16249L13.7864 8.75876C13.8948 8.82381 13.949 8.94307 13.9165 9.06232L13.6238 10.244L14.6862 10.8511C14.7946 10.9162 14.8489 11.0354 14.8163 11.1547L14.5236 12.3364L15.5861 12.9435C15.6945 13.0086 15.7487 13.1278 15.7162 13.2471L15.4234 14.4288L16.4859 15.0359C16.5943 15.1009 16.6485 15.2202 16.616 15.3395L16.4317 16.1742L16.345 16.5645L16.7027 17.6595C16.7461 17.7896 16.6919 17.9197 16.5726 17.9847L15.5102 18.5485L14.9139 19.6001C14.8488 19.7085 14.7296 19.7627 14.6103 19.7302L13.4286 19.4375L12.8215 20.4999C12.7565 20.6083 12.6372 20.6625 12.518 20.63L11.3363 20.3373L10.7291 21.3998C10.6641 21.5082 10.5448 21.5624 10.4256 21.5299L9.24388 21.2371L8.63677 22.2996C8.57172 22.408 8.45246 22.4622 8.33321 22.4297L7.16234 22.137L6.024 22.5164C6.024 22.5164 5.96979 22.5273 5.93727 22.5273V22.5164ZM4.53874 20.3481L5.47109 20.8794C5.47109 20.8794 5.55783 20.9444 5.57951 20.9878L6.07821 21.9093L7.07561 21.5841C7.07561 21.5841 7.17319 21.5624 7.22739 21.5841L8.26816 21.8443L8.87528 20.7818C8.94032 20.6734 9.05957 20.6192 9.17883 20.6517L10.3605 20.9444L10.9676 19.882C11.0327 19.7736 11.152 19.7194 11.2712 19.7519L12.4529 20.0446L13.06 18.9821C13.1251 18.8737 13.2443 18.8195 13.3636 18.852L14.5453 19.1448L15.0765 18.2124C15.0765 18.2124 15.1416 18.1257 15.1849 18.104L16.1064 17.6053L15.8029 16.6513C15.8029 16.6513 15.7812 16.5537 15.8029 16.5103L16.0522 15.4153L14.9789 14.8082C14.8705 14.7432 14.8163 14.6239 14.8488 14.5047L15.1416 13.323L14.0791 12.7158C13.9707 12.6508 13.9165 12.5315 13.949 12.4123L14.2417 11.2306L13.1793 10.6235C13.0709 10.5584 13.0167 10.4392 13.0492 10.3199L13.3419 9.13821L12.4095 8.60698C12.4095 8.60698 12.3228 8.54194 12.3011 8.49857L11.8024 7.57706L10.805 7.9023C10.805 7.9023 10.7075 7.92398 10.6532 7.9023L9.61248 7.64211L9.00537 8.70456C8.94032 8.81297 8.82107 8.86718 8.70181 8.83465L7.52011 8.54194L6.91299 9.60439C6.84794 9.7128 6.72869 9.76701 6.60944 9.73448L5.42773 9.44177L4.82061 10.5042C4.75557 10.6126 4.63631 10.6668 4.51706 10.6343L3.33535 10.3416L2.80413 11.274C2.80413 11.274 2.73908 11.3607 2.69571 11.3824L1.7742 11.8811L2.09944 12.8785C2.09944 12.8785 2.12112 12.976 2.09944 13.0302L1.83925 14.071L2.9017 14.6781C3.01011 14.7432 3.06432 14.8624 3.03179 14.9817L2.73908 16.1634L3.80153 16.7705C3.90994 16.8356 3.96415 16.9548 3.93163 17.0741L3.63891 18.2558L4.70136 18.8629C4.80977 18.9279 4.86398 19.0472 4.83145 19.1664L4.53874 20.3481Z" fill="#000202"/>
<path d="M15.0006 4.33547C14.8814 4.28127 14.7513 4.25958 14.6212 4.25958C14.1984 4.25958 13.8189 4.51977 13.6563 4.91006C13.5587 5.17025 13.5587 5.45213 13.6563 5.70148C13.7647 5.95083 13.9707 6.15682 14.2201 6.25439C14.3393 6.30859 14.4694 6.33028 14.5995 6.33028C15.0223 6.33028 15.4018 6.07009 15.5644 5.6798C15.7812 5.14857 15.521 4.54146 14.9898 4.33547H15.0006ZM14.4586 5.69064C14.3502 5.64727 14.2743 5.57138 14.2309 5.46297C14.1875 5.35456 14.1875 5.24614 14.2309 5.13773C14.2959 4.97511 14.4477 4.8667 14.6212 4.8667C14.6754 4.8667 14.7296 4.8667 14.7838 4.89922C15.0006 4.98595 15.1091 5.2353 15.0223 5.45213C14.9573 5.61475 14.8055 5.72316 14.632 5.72316C14.5778 5.72316 14.5236 5.72316 14.4694 5.69064H14.4586Z" fill="#D56A1E"/>
<path d="M17.3207 9.90795C17.2014 9.85375 17.0714 9.83206 16.9413 9.83206C16.5184 9.83206 16.139 10.0923 15.9764 10.4825C15.8788 10.7427 15.8788 11.0246 15.9764 11.274C16.0848 11.5233 16.2908 11.7293 16.5401 11.8269C16.6594 11.8811 16.7895 11.9028 16.9196 11.9028C17.3424 11.9028 17.7218 11.6426 17.8845 11.2523C18.1013 10.7211 17.8411 10.1139 17.3099 9.90795H17.3207ZM16.7786 11.2631C16.6702 11.2198 16.5943 11.1439 16.551 11.0355C16.5076 10.927 16.5076 10.8186 16.551 10.7102C16.616 10.5476 16.7678 10.4392 16.9413 10.4392C16.9955 10.4392 17.0497 10.4392 17.1039 10.4717C17.3207 10.5584 17.4291 10.8078 17.3424 11.0246C17.2773 11.1872 17.1256 11.2956 16.9521 11.2956C16.8979 11.2956 16.8437 11.2956 16.7895 11.2631H16.7786Z" fill="#D56A1E"/>
<path d="M18.9144 5.90749C18.7951 5.85329 18.665 5.8316 18.5349 5.8316C18.1121 5.8316 17.7327 6.0918 17.5701 6.48208C17.3532 7.01331 17.6134 7.62042 18.1447 7.82641C18.2639 7.88062 18.394 7.9023 18.5241 7.9023C18.9469 7.9023 19.3264 7.64211 19.489 7.25182C19.7058 6.72059 19.4456 6.11348 18.9144 5.90749ZM18.3723 7.26266C18.1555 7.17593 18.0471 6.92658 18.1338 6.70975C18.1989 6.54713 18.3506 6.43872 18.5241 6.43872C18.5783 6.43872 18.6325 6.43872 18.6867 6.47124C18.9035 6.55797 19.012 6.80732 18.9252 7.02415C18.8602 7.18677 18.7084 7.29518 18.5349 7.29518C18.4807 7.29518 18.4265 7.29518 18.3723 7.26266Z" fill="#D56A1E"/>
<path d="M7.09728 13.2579C6.93466 12.8785 6.55522 12.6291 6.14325 12.6291C6.00231 12.6291 5.86137 12.6616 5.73128 12.7159C5.21089 12.9435 4.96154 13.5506 5.18921 14.0819C5.35183 14.4613 5.73128 14.7107 6.14325 14.7107C6.28419 14.7107 6.42512 14.6781 6.55522 14.6239C7.0756 14.3963 7.32495 13.7891 7.09728 13.2579ZM5.75296 13.8325C5.65539 13.6157 5.75296 13.3663 5.98063 13.2688C6.03483 13.2471 6.08904 13.2362 6.14325 13.2362C6.31671 13.2362 6.46849 13.3338 6.53354 13.4964C6.63111 13.7133 6.53354 13.9626 6.30587 14.0602C6.25166 14.0819 6.19746 14.0927 6.14325 14.0927C5.96979 14.0927 5.81801 13.9951 5.75296 13.8325Z" fill="#FAFAFA"/>
<path d="M9.81849 12.976C9.90522 12.9977 10.0028 13.0194 10.1004 13.0194C10.2413 13.0194 10.3822 12.9868 10.5123 12.9326C10.5991 12.8893 10.6858 12.8459 10.7508 12.7809C11.0978 12.499 11.2387 12.0003 11.0544 11.5666C10.8918 11.1872 10.5123 10.9378 10.1004 10.9378C9.95943 10.9378 9.81849 10.9704 9.68839 11.0246C9.43904 11.133 9.23306 11.339 9.13549 11.5883C9.13549 11.61 9.12464 11.6317 9.1138 11.6534C9.08128 11.7618 9.0596 11.8593 9.0596 11.9678C9.0596 12.1087 9.08128 12.2496 9.14633 12.3797C9.27642 12.6724 9.52577 12.8893 9.81849 12.9652V12.976ZM9.69924 11.816C9.7426 11.7076 9.81849 11.6317 9.9269 11.5883C9.98111 11.5666 10.0353 11.5558 10.0895 11.5558C10.263 11.5558 10.4148 11.6534 10.4798 11.816C10.5774 12.0328 10.4798 12.2822 10.2521 12.3797C10.1979 12.4014 10.1437 12.4123 10.0895 12.4123C9.91606 12.4123 9.76428 12.3147 9.69924 12.1521C9.65587 12.0437 9.65587 11.9352 9.69924 11.8268V11.816Z" fill="#FAFAFA"/>
<path d="M8.76689 17.9414C8.86446 17.6812 8.86446 17.3993 8.76689 17.1499C8.60427 16.7705 8.22482 16.5211 7.81285 16.5211C7.67191 16.5211 7.53098 16.5537 7.40088 16.6079C6.8805 16.8355 6.63114 17.4427 6.85881 17.9739C7.02143 18.3533 7.40088 18.6027 7.81285 18.6027C7.95378 18.6027 8.09472 18.5702 8.22482 18.516C8.47417 18.4075 8.68016 18.2016 8.77773 17.9522L8.76689 17.9414ZM7.41172 17.7245C7.31415 17.5077 7.41172 17.2584 7.63939 17.1608C7.69359 17.1391 7.7478 17.1283 7.80201 17.1283C7.97547 17.1283 8.12725 17.2258 8.1923 17.3885C8.23566 17.4969 8.23566 17.6053 8.1923 17.7137C8.14893 17.8221 8.07304 17.898 7.96463 17.9414C7.91042 17.963 7.85621 17.9739 7.80201 17.9739C7.62855 17.9739 7.47677 17.8763 7.41172 17.7137V17.7245Z" fill="#FAFAFA"/>
<path d="M10.7942 15.4695C10.6966 15.7297 10.6966 16.0116 10.7942 16.2609C10.9568 16.6404 11.3363 16.8897 11.7482 16.8897C11.8892 16.8897 12.0301 16.8572 12.1602 16.803C12.4095 16.6946 12.6155 16.4886 12.7131 16.2392C12.8107 15.9791 12.8107 15.6972 12.7131 15.4478C12.5505 15.0684 12.171 14.819 11.7591 14.819C11.6181 14.819 11.4772 14.8516 11.3471 14.9058C11.0977 15.0142 10.8918 15.2202 10.7942 15.4695ZM12.1494 15.6863C12.1927 15.7948 12.1927 15.9032 12.1494 16.0116C12.106 16.12 12.0301 16.1959 11.9217 16.2392C11.8675 16.2609 11.8133 16.2718 11.7591 16.2718C11.5856 16.2718 11.4338 16.1742 11.3688 16.0116C11.3254 15.9032 11.3254 15.7948 11.3688 15.6863C11.4121 15.5779 11.488 15.502 11.5964 15.4587C11.6507 15.437 11.7049 15.4261 11.7591 15.4261C11.9325 15.4261 12.0843 15.5237 12.1494 15.6863Z" fill="#FAFAFA"/>
</svg>
