<svg width="24" height="24" viewBox="0 0 24 24" fill="none" xmlns="http://www.w3.org/2000/svg">
<g id="category-icons" clip-path="url(#clip0_1220_3915)">
<path id="Vector" d="M22.115 4.59245L21.3832 3.42893L19.9554 3.82355L19.1944 2.55136L17.7717 2.94471L17.0114 1.67252L15.5887 2.06523L14.8278 0.79368L13.5484 1.147L12.2823 0.762543L11.6855 1.95085L10.5482 2.63905L10.9391 4.07138L9.6749 4.83647L10.0658 6.26816L8.83755 7.01164L10.3354 7.38656L11.9223 6.86167L12.7123 8.34293L14.123 9.15123L13.7669 10.5918L15.0494 11.3258L14.6933 12.767L15.9752 13.5009L15.619 14.9422L16.8965 15.6736L16.8163 16.0345L17.5918 15.8204L18.8579 16.2048L19.4546 15.0172L20.5919 14.3283L20.201 12.8966L21.4652 12.1309L21.0744 10.6992L22.3386 9.93412L21.9483 8.50243L23.2125 7.7367L22.8608 6.44926L23.2435 5.1739L22.115 4.59245Z" fill="#FAFAFA"/>
<path id="Vector_2" d="M15.9846 16.8587L16.085 16.4101L16.1779 15.9932L15.6575 15.6952L15.0772 15.3622L14.8909 15.2561L14.9364 15.0718L15.2471 13.8149L13.9645 13.0809L14.3207 11.6397L13.0388 10.9057L13.0741 10.7628L13.1764 10.3491L13.3949 9.46516L12.581 8.99937L12.2412 8.80492L12.2311 8.78522L11.6167 7.63187L10.3594 8.04746L9.07183 7.72528L9.01689 7.8225L8.79587 8.21268L8.69105 8.39759L8.37215 8.96188L8.34184 9.01526L8.30016 9.00509L7.86697 8.89643L7.43377 8.7884L6.90964 8.6575L6.18028 9.94748L4.74809 9.58908L4.01873 10.8797L2.58717 10.5213L1.93106 11.6816L0.76535 12.3107L1.17834 13.5753L0.858178 14.8716L2.14008 15.6062L1.78456 17.0468L3.06646 17.7814L2.71031 19.222L3.99284 19.9566L3.63669 21.3972L4.78977 22.0574L5.41493 23.2305L6.67158 22.8149L7.95979 23.1371L8.68978 21.8464L10.1213 22.2048L10.8513 20.9142L12.2829 21.2726L13.0129 19.9826L14.4445 20.341L15.1006 19.1801L16.2675 18.5503L15.8779 17.3366L15.9846 16.8587Z" fill="#AE4400"/>
<path id="Vector_3" d="M23.5182 6.45753L24.0006 4.84982L22.5564 4.1057L21.6673 2.69117L20.2496 3.08261L19.4887 1.81042L18.066 2.20377L17.3051 0.931582L15.8823 1.32493L15.1227 0.0527431L13.5572 0.48549L11.9577 0L11.2043 1.50032L9.81319 2.34294L10.2041 3.77462L8.93985 4.53972L9.33074 5.9714L8.06652 6.73713L8.33931 7.73671L8.03052 8.28257L6.59896 7.92417L5.86897 9.21415L4.4374 8.85575L3.70805 10.1457L2.27648 9.78733L1.47387 11.2076L0 12.0025L0.521602 13.6001L0.130085 15.1856L1.41262 15.9201L1.05646 17.3607L2.339 18.0953L1.98284 19.5359L3.26475 20.2699L2.90859 21.7104L4.31995 22.5181L5.1093 23.9994L6.69684 23.4745L8.27238 23.8685L9.00237 22.5778L10.4339 22.9362L11.1639 21.6463L12.5955 22.0047L13.3255 20.7147L14.757 21.0731L15.5596 19.6528L17.0304 18.8591L16.5321 17.3054L16.6597 16.7361L17.5842 16.4806L19.1831 16.9661L19.9364 15.4658L21.3276 14.6232L20.9367 13.1915L22.2009 12.4258L21.81 10.9941L23.0743 10.2283L22.6834 8.79665L23.9476 8.03156L23.5176 6.45626L23.5182 6.45753ZM21.075 10.6992L21.4659 12.1309L20.2017 12.8966L20.5925 14.3283L19.4552 15.0172L18.8585 16.2055L17.5924 15.821L16.8169 16.0352L16.8978 15.6742L15.6203 14.9428L15.9764 13.5022L14.6939 12.7676L15.05 11.327L13.7681 10.5931L14.1243 9.15251L12.7129 8.34484L11.9236 6.86359L10.3367 7.38848L8.83881 7.01356L10.067 6.27007L9.67616 4.83838L10.9404 4.07329L10.5495 2.6416L11.6868 1.95276L12.2835 0.764457L13.5497 1.14891L14.829 0.794959L15.5893 2.06715L17.0121 1.6738L17.773 2.94599L19.1957 2.55264L19.9566 3.82483L21.385 3.43021L22.1169 4.59373L23.2454 5.17518L22.8627 6.45054L23.2144 7.73798L21.9502 8.50307L22.3411 9.93476L21.0769 10.6999L21.075 10.6992ZM5.41493 23.2305L4.78977 22.0574L3.63669 21.3972L3.99284 19.9566L2.71094 19.2226L3.06709 17.782L1.78456 17.0474L2.14071 15.6069L0.85818 14.8723L1.17834 13.5759L0.765353 12.3114L1.93106 11.6823L2.58717 10.5219L4.01873 10.8803L4.74809 9.59034L6.17966 9.94874L6.90965 8.65876L7.43314 8.78966L7.86634 8.89833L8.29953 9.00699L8.34121 9.01716L8.37152 8.96314L8.69042 8.39949L8.79524 8.21457L9.01626 7.8244L9.0712 7.72718L10.3594 8.04935L11.6161 7.63376L12.2305 8.78712L12.2412 8.80682L12.581 9.00127L13.3949 9.46706L13.1764 10.351L13.0741 10.7647L13.0388 10.9076L14.3207 11.6416L13.9645 13.0822L15.2471 13.8168L14.9364 15.0737L14.8909 15.258L15.0772 15.3648L15.6575 15.6971L16.1785 15.9951L16.085 16.412L15.9846 16.8606L15.8779 17.3385L16.2675 18.5528L15.1006 19.1826L14.4445 20.3429L13.0129 19.9845L12.2829 21.2752L10.8513 20.9168L10.1213 22.2067L8.68979 21.8483L7.9598 23.139L6.67158 22.8168L5.41493 23.2324V23.2305Z" fill="#212121"/>
<path id="Vector_4" d="M14.7678 4.58802C14.6402 4.53655 14.5063 4.5105 14.3699 4.5105C13.9292 4.5105 13.5389 4.77676 13.3754 5.18853C13.2693 5.45606 13.2724 5.74901 13.3855 6.01336C13.4985 6.27771 13.7069 6.48296 13.9721 6.58972C14.0997 6.64119 14.2335 6.66724 14.3699 6.66724C14.8107 6.66724 15.201 6.40099 15.3652 5.98921C15.5843 5.437 15.3172 4.80853 14.7684 4.58802H14.7678ZM14.2064 6.00001C14.0971 5.95617 14.0119 5.87229 13.9658 5.76362C13.9197 5.65496 13.9178 5.53486 13.962 5.42492C14.0289 5.25589 14.1893 5.14659 14.3706 5.14659C14.4261 5.14659 14.4811 5.15739 14.5335 5.17836C14.7589 5.26924 14.8688 5.52723 14.7785 5.75345C14.7109 5.92249 14.5505 6.03179 14.3699 6.03179C14.3144 6.03179 14.2594 6.02098 14.207 6.00001H14.2064Z" fill="#AE4400"/>
<path id="Vector_5" d="M17.168 10.377C17.0405 10.3256 16.9066 10.2995 16.7702 10.2995C16.3294 10.2995 15.9392 10.5658 15.775 10.9775C15.6689 11.2451 15.672 11.538 15.7851 11.8024C15.8975 12.0673 16.1059 12.272 16.3717 12.3787C16.4993 12.4302 16.6332 12.4562 16.7696 12.4562C17.2103 12.4562 17.6006 12.19 17.7641 11.7782C17.9833 11.226 17.7168 10.5975 17.168 10.377ZM16.6066 11.789C16.4974 11.7452 16.4121 11.6613 16.3654 11.5526C16.3193 11.444 16.3174 11.3239 16.3616 11.2139C16.4292 11.0449 16.5896 10.9356 16.7702 10.9356C16.8258 10.9356 16.8807 10.9464 16.9331 10.9674C17.1585 11.0582 17.2684 11.3162 17.1781 11.5431C17.1112 11.7121 16.9508 11.8214 16.7696 11.8214C16.714 11.8214 16.6591 11.81 16.6066 11.789Z" fill="#AE4400"/>
<path id="Vector_6" d="M18.8212 6.21986C18.6937 6.16839 18.5598 6.14233 18.4234 6.14233C17.9826 6.14233 17.5924 6.40859 17.4282 6.82037C17.2091 7.37258 17.4762 8.00105 18.0249 8.22155C18.1525 8.27303 18.2864 8.29908 18.4228 8.29908C18.8635 8.29908 19.2538 8.03282 19.418 7.62105C19.6371 7.06883 19.37 6.44036 18.8212 6.21986ZM18.2599 7.63185C18.0344 7.54098 17.9245 7.28298 18.0148 7.05676C18.0818 6.88773 18.2422 6.77843 18.4234 6.77843C18.479 6.77843 18.5339 6.78923 18.5863 6.8102C18.8118 6.90107 18.9216 7.15907 18.8313 7.38529C18.7638 7.55432 18.6034 7.66362 18.4228 7.66362C18.3672 7.66362 18.3123 7.65282 18.2599 7.63185Z" fill="#AE4400"/>
<path id="Vector_7" d="M6.5958 13.8689C6.42656 13.4717 6.04009 13.215 5.61069 13.215C5.46545 13.215 5.32337 13.2442 5.18886 13.3021C4.64579 13.5365 4.3932 14.1714 4.62621 14.7179C4.79545 15.115 5.18191 15.3717 5.61132 15.3717C5.75656 15.3717 5.89864 15.3425 6.03315 15.2847C6.57622 15.0508 6.82881 14.4154 6.5958 13.8689ZM5.20654 14.4681C5.11119 14.2438 5.21475 13.9833 5.43766 13.8867C5.49323 13.8625 5.55133 13.8505 5.61069 13.8505C5.78687 13.8505 5.946 13.9559 6.01547 14.1186C6.11082 14.3429 6.00726 14.6035 5.78435 14.7001C5.72878 14.7242 5.67068 14.7363 5.61132 14.7363C5.43514 14.7363 5.27601 14.6308 5.20654 14.4681Z" fill="#FAFAFA"/>
<path id="Vector_8" d="M9.4122 13.5683C9.50503 13.5944 9.60165 13.609 9.70142 13.609C9.84666 13.609 9.98874 13.5797 10.1232 13.5213C10.2161 13.4813 10.2994 13.4291 10.3739 13.3681C10.7377 13.0727 10.8791 12.5586 10.6859 12.1055C10.5167 11.7083 10.1302 11.4516 9.70079 11.4516C9.55555 11.4516 9.41347 11.4808 9.27896 11.5387C9.01563 11.6518 8.8123 11.8615 8.70621 12.129C8.698 12.15 8.69169 12.1709 8.68474 12.1919C8.64938 12.2993 8.63106 12.4092 8.6298 12.5198C8.62854 12.6672 8.65695 12.814 8.71631 12.9538C8.8464 13.2588 9.10467 13.4806 9.4122 13.567V13.5683ZM9.29222 12.366C9.33579 12.2561 9.41915 12.1703 9.52713 12.1239C9.5827 12.0998 9.6408 12.0877 9.70016 12.0877C9.87634 12.0877 10.0355 12.1932 10.1049 12.3559C10.2003 12.5802 10.0967 12.8407 9.87382 12.9373C9.81824 12.9614 9.76015 12.9735 9.70079 12.9735C9.52461 12.9735 9.36547 12.868 9.29601 12.7047C9.24991 12.5961 9.24802 12.476 9.29159 12.366H9.29222Z" fill="#FAFAFA"/>
<path id="Vector_9" d="M8.32479 18.732C8.43088 18.4645 8.42772 18.1716 8.31468 17.9072C8.14545 17.5101 7.75898 17.2533 7.32958 17.2533C7.18434 17.2533 7.04225 17.2826 6.90775 17.3404C6.36468 17.5749 6.11208 18.2097 6.3451 18.7562C6.51434 19.1533 6.9008 19.4101 7.33021 19.4101C7.47545 19.4101 7.61753 19.3808 7.75204 19.323C8.01473 19.2099 8.2187 19.0002 8.32479 18.7327V18.732ZM6.92606 18.5058C6.83071 18.2815 6.93427 18.0203 7.15718 17.9244C7.21275 17.9002 7.27085 17.8881 7.33021 17.8881C7.50639 17.8881 7.66552 17.9936 7.73499 18.1569C7.78108 18.2656 7.78298 18.3857 7.73878 18.4956C7.69457 18.6056 7.61185 18.6914 7.50386 18.7384C7.44829 18.7625 7.3902 18.7746 7.33084 18.7746C7.15466 18.7746 6.99552 18.6691 6.92606 18.5065V18.5058Z" fill="#FAFAFA"/>
<path id="Vector_10" d="M10.4257 16.168C10.3196 16.4355 10.3228 16.7284 10.4358 16.9928C10.6051 17.39 10.9915 17.6467 11.4209 17.6467C11.5662 17.6467 11.7083 17.6174 11.8428 17.5596C12.1055 17.4465 12.3094 17.2368 12.4155 16.9693C12.5216 16.7018 12.5184 16.4088 12.4054 16.1445C12.2362 15.7473 11.8497 15.4906 11.4203 15.4906C11.2751 15.4906 11.133 15.5198 10.9985 15.5776C10.7351 15.6907 10.5318 15.9004 10.4257 16.168ZM11.8251 16.3942C11.8712 16.5029 11.8731 16.623 11.8289 16.7329C11.7853 16.8428 11.7019 16.9286 11.594 16.9756C11.5384 16.9998 11.4803 17.0119 11.4209 17.0119C11.2447 17.0119 11.0856 16.9064 11.0162 16.7437C10.9701 16.635 10.9682 16.5149 11.0117 16.405C11.0553 16.2951 11.1387 16.2093 11.2466 16.1622C11.3022 16.1381 11.3603 16.126 11.4197 16.126C11.5959 16.126 11.755 16.2315 11.8244 16.3948L11.8251 16.3942Z" fill="#FAFAFA"/>
</g>
<defs>
<clipPath id="clip0_1220_3915">
<rect width="24" height="24" fill="white"/>
</clipPath>
</defs>
</svg>
