<svg width="22" height="22" viewBox="0 0 22 22" fill="none" xmlns="http://www.w3.org/2000/svg">
<g id="Group">
<path id="Vector" d="M20.5271 3.91011L19.8224 2.79345L18.4347 3.1729L17.6975 1.94782L16.3207 2.32727L15.5834 1.1022L14.2066 1.48165L13.4802 0.256576L12.2335 0.603499L11.0084 0.234894L10.4338 1.37323L9.33883 2.03456L9.71829 3.41141L8.49321 4.14862L8.87266 5.52547L7.68011 6.24099L9.13285 6.59876L10.6615 6.08921L11.4312 7.52027L12.7972 8.29001L12.4503 9.6777L13.6862 10.3824L13.3501 11.7701L14.586 12.4748L14.2391 13.8625L15.475 14.5671L15.3991 14.9141L16.1472 14.7081L17.3723 15.0767L17.9469 13.9275L19.0527 13.2662L18.6732 11.8893L19.8983 11.163L19.5189 9.78611L20.7439 9.0489L20.3645 7.67205L21.5895 6.93484L21.2426 5.69893L21.6112 4.47386L20.5271 3.91011Z" fill="#FAFAFA"/>
<path id="Vector_2" d="M17.5349 15.4886C17.5349 15.4886 17.4807 15.4886 17.459 15.4778L16.3098 15.1309L15.2474 15.4019C15.0956 15.4344 14.9547 15.3477 14.9113 15.2067C14.8788 15.055 14.9655 14.914 15.1065 14.8707L16.2448 14.5888C16.2448 14.5888 16.3424 14.5888 16.3966 14.5888L17.4048 14.8923L17.8818 13.96C17.8818 13.96 17.936 13.8733 17.9903 13.8516L18.9118 13.2987L18.5865 12.1278C18.554 12.0085 18.6082 11.8785 18.7058 11.8242L19.7466 11.1954L19.4213 10.0246C19.3888 9.90533 19.443 9.77523 19.5406 9.72103L20.5813 9.09223L20.2561 7.92137C20.2236 7.80211 20.2778 7.67201 20.3753 7.61781L21.4161 6.98901L21.1342 5.94824C21.1342 5.94824 21.1234 5.85067 21.1342 5.79646L21.4378 4.78822L20.5488 4.33288C20.5488 4.33288 20.4729 4.27868 20.4404 4.23531L19.8441 3.29212L18.6624 3.61736C18.5432 3.64988 18.4131 3.59567 18.3589 3.4981L17.7301 2.45733L16.5592 2.78257C16.4399 2.8151 16.3099 2.76089 16.2556 2.66332L15.6268 1.62255L14.456 1.94779C14.3367 1.98031 14.2066 1.92611 14.1524 1.82853L13.5236 0.787767L12.4829 1.06964C12.4829 1.06964 12.3853 1.08048 12.3311 1.06964L11.3228 0.766084L10.8458 1.69844C10.8458 1.69844 10.7916 1.78517 10.7374 1.80685L9.81589 2.35976L10.1411 3.53062C10.1737 3.64988 10.1194 3.77998 10.0219 3.83418L8.98111 4.46298L9.29551 5.42786C9.33887 5.54711 9.28466 5.68805 9.16541 5.7531L8.40652 6.18675C8.5583 6.21928 8.64503 6.37105 8.60166 6.52283C8.56914 6.67461 8.41736 6.76134 8.26558 6.71798L7.60426 6.55536C7.49585 6.53367 7.40911 6.4361 7.39827 6.32769C7.38743 6.21928 7.44164 6.11086 7.52837 6.05666L8.67755 5.39533L8.36315 4.43045C8.31979 4.3112 8.36315 4.1811 8.48241 4.11606L9.52318 3.48726L9.19793 2.31639C9.16541 2.19714 9.21962 2.06704 9.31719 2.01284L10.3471 1.39488L10.8892 0.321589C10.9542 0.202334 11.0843 0.148128 11.2144 0.180652L12.3636 0.527574L13.5236 0.213176C13.6429 0.180652 13.773 0.234858 13.8272 0.33243L14.456 1.3732L15.6268 1.04796C15.7461 1.01543 15.8762 1.06964 15.9304 1.16721L16.5592 2.20798L17.7301 1.88274C17.8493 1.85022 17.9794 1.90442 18.0336 2.002L18.6624 3.04276L19.8441 2.71752C19.9634 2.685 20.0826 2.72837 20.1477 2.83678L20.8198 3.88839L21.8498 4.40877C21.969 4.47382 22.0232 4.60392 21.9907 4.73401L21.6438 5.88319L21.9582 7.04322C21.9907 7.16247 21.9365 7.29257 21.8389 7.34677L20.7982 7.97557L21.1234 9.14644C21.1559 9.26569 21.1017 9.39579 21.0041 9.44999L19.9634 10.0788L20.2886 11.2497C20.3211 11.3689 20.2669 11.499 20.1694 11.5532L19.1286 12.182L19.4538 13.3529C19.4864 13.4721 19.4322 13.6022 19.3346 13.6564L18.3047 14.2744L17.7626 15.3477C17.7192 15.4453 17.6216 15.4995 17.5132 15.4995L17.5349 15.4886Z" fill="#000202"/>
<path id="Vector_3" d="M15.1715 15.1309L15.2691 14.7081L15.3666 14.3069L14.8571 14.0142L14.2933 13.6998L14.1199 13.5914L14.1632 13.4179L14.456 12.2146L13.2201 11.499L13.567 10.1222L12.3202 9.41749L12.3636 9.27656L12.4612 8.87543L12.6671 8.0298L11.8866 7.58531L11.5505 7.39016L11.5396 7.37932L10.9542 6.26266L9.72914 6.66379L8.48239 6.36024L8.43903 6.44697L8.22219 6.82641L8.12463 6.99988L7.81023 7.54194L7.7777 7.59615L7.74518 7.58531L7.32237 7.47689L6.89955 7.37932L6.40085 7.24923L5.68533 8.49598L4.30848 8.14906L3.60379 9.38497L2.2161 9.04889L1.57646 10.1547L0.448959 10.7618L0.850088 11.976L0.546532 13.2228L1.78244 13.9275L1.43552 15.3152L2.68228 16.0199L2.33535 17.4076L3.57127 18.1122L3.23518 19.4999L4.341 20.1287L4.94812 21.2562L6.16234 20.8659L7.4091 21.1695L8.11378 19.9336L9.50147 20.2697L10.2062 19.0338L11.5939 19.3807L12.2985 18.1339L13.6862 18.4808L14.315 17.3642L15.4425 16.7571L15.0739 15.5971L15.1715 15.1309Z" fill="#D56A1E"/>
<path id="Vector_4" d="M4.93727 21.5164C4.8397 21.5164 4.74213 21.4622 4.69876 21.3755L4.13501 20.313L3.0834 19.7168C2.97499 19.6517 2.92078 19.5325 2.95331 19.4132L3.24603 18.2315L2.18357 17.6244C2.07516 17.5593 2.02095 17.4401 2.05348 17.3208L2.34619 16.1391L1.28374 15.532C1.17533 15.467 1.12112 15.3477 1.15365 15.2284L1.44636 14.0467L0.383913 13.4396C0.2755 13.3746 0.22129 13.2553 0.253814 13.1361L0.546531 11.9652L0.167086 10.8269C0.12372 10.6968 0.177926 10.5667 0.297181 10.5016L1.35963 9.93787L1.9559 8.88626C2.02095 8.77785 2.14021 8.72364 2.25946 8.75617L3.44117 9.04888L4.04828 7.98643C4.11333 7.87802 4.23259 7.82381 4.35184 7.85633L5.53355 8.14905L6.14066 7.0866C6.20571 6.97819 6.32496 6.92398 6.44422 6.9565L7.62592 7.24922L8.23304 6.18677C8.29809 6.07836 8.41734 6.02415 8.53659 6.05667L9.70746 6.34939L10.8458 5.96994C10.9759 5.92658 11.106 5.98078 11.171 6.10004L11.7348 7.16249L12.7864 7.75876C12.8948 7.82381 12.949 7.94307 12.9165 8.06232L12.6238 9.24403L13.6862 9.85114C13.7946 9.91619 13.8489 10.0354 13.8163 10.1547L13.5236 11.3364L14.5861 11.9435C14.6945 12.0086 14.7487 12.1278 14.7162 12.2471L14.4234 13.4288L15.4859 14.0359C15.5943 14.1009 15.6485 14.2202 15.616 14.3395L15.4317 15.1742L15.345 15.5645L15.7027 16.6595C15.7461 16.7896 15.6919 16.9197 15.5726 16.9847L14.5102 17.5485L13.9139 18.6001C13.8488 18.7085 13.7296 18.7627 13.6103 18.7302L12.4286 18.4375L11.8215 19.4999C11.7565 19.6083 11.6372 19.6625 11.518 19.63L10.3363 19.3373L9.72914 20.3998C9.66409 20.5082 9.54484 20.5624 9.42558 20.5299L8.24388 20.2371L7.63676 21.2996C7.57172 21.408 7.45246 21.4622 7.33321 21.4297L6.16234 21.137L5.024 21.5164C5.024 21.5164 4.96979 21.5273 4.93727 21.5273V21.5164ZM3.53874 19.3481L4.47109 19.8794C4.47109 19.8794 4.55783 19.9444 4.57951 19.9878L5.07821 20.9093L6.07561 20.5841C6.07561 20.5841 6.17319 20.5624 6.22739 20.5841L7.26816 20.8443L7.87528 19.7818C7.94032 19.6734 8.05957 19.6192 8.17883 19.6517L9.36054 19.9444L9.96765 18.882C10.0327 18.7736 10.152 18.7194 10.2712 18.7519L11.4529 19.0446L12.06 17.9821C12.1251 17.8737 12.2443 17.8195 12.3636 17.852L13.5453 18.1448L14.0765 17.2124C14.0765 17.2124 14.1416 17.1257 14.1849 17.104L15.1064 16.6053L14.8029 15.6513C14.8029 15.6513 14.7812 15.5537 14.8029 15.5103L15.0522 14.4153L13.9789 13.8082C13.8705 13.7432 13.8163 13.6239 13.8488 13.5047L14.1416 12.323L13.0791 11.7158C12.9707 11.6508 12.9165 11.5315 12.949 11.4123L13.2417 10.2306L12.1793 9.62347C12.0709 9.55842 12.0167 9.43917 12.0492 9.31991L12.3419 8.13821L11.4095 7.60698C11.4095 7.60698 11.3228 7.54194 11.3011 7.49857L10.8024 6.57706L9.80503 6.9023C9.80503 6.9023 9.70746 6.92398 9.65325 6.9023L8.61248 6.64211L8.00537 7.70456C7.94032 7.81297 7.82107 7.86718 7.70181 7.83465L6.52011 7.54194L5.91299 8.60439C5.84794 8.7128 5.72869 8.76701 5.60944 8.73448L4.42773 8.44177L3.82061 9.50422C3.75557 9.61263 3.63631 9.66684 3.51706 9.63431L2.33535 9.3416L1.80413 10.274C1.80413 10.274 1.73908 10.3607 1.69571 10.3824L0.774198 10.8811L1.09944 11.8785C1.09944 11.8785 1.12112 11.976 1.09944 12.0302L0.839247 13.071L1.9017 13.6781C2.01011 13.7432 2.06432 13.8624 2.03179 13.9817L1.73908 15.1634L2.80153 15.7705C2.90994 15.8356 2.96415 15.9548 2.93163 16.0741L2.63891 17.2558L3.70136 17.8629C3.80977 17.9279 3.86398 18.0472 3.83145 18.1664L3.53874 19.3481Z" fill="#000202"/>
<path id="Vector_5" d="M14.0006 3.33547C13.8814 3.28127 13.7513 3.25958 13.6212 3.25958C13.1984 3.25958 12.8189 3.51977 12.6563 3.91006C12.5587 4.17025 12.5587 4.45213 12.6563 4.70148C12.7647 4.95083 12.9707 5.15682 13.2201 5.25439C13.3393 5.30859 13.4694 5.33028 13.5995 5.33028C14.0223 5.33028 14.4018 5.07009 14.5644 4.6798C14.7812 4.14857 14.521 3.54146 13.9898 3.33547H14.0006ZM13.4586 4.69064C13.3502 4.64727 13.2743 4.57138 13.2309 4.46297C13.1875 4.35456 13.1875 4.24614 13.2309 4.13773C13.2959 3.97511 13.4477 3.8667 13.6212 3.8667C13.6754 3.8667 13.7296 3.8667 13.7838 3.89922C14.0006 3.98595 14.1091 4.2353 14.0223 4.45213C13.9573 4.61475 13.8055 4.72316 13.632 4.72316C13.5778 4.72316 13.5236 4.72316 13.4694 4.69064H13.4586Z" fill="#D56A1E"/>
<path id="Vector_6" d="M16.3207 8.90795C16.2014 8.85375 16.0714 8.83206 15.9413 8.83206C15.5184 8.83206 15.139 9.09225 14.9764 9.48254C14.8788 9.74273 14.8788 10.0246 14.9764 10.274C15.0848 10.5233 15.2908 10.7293 15.5401 10.8269C15.6594 10.8811 15.7895 10.9028 15.9196 10.9028C16.3424 10.9028 16.7218 10.6426 16.8845 10.2523C17.1013 9.72105 16.8411 9.11394 16.3099 8.90795H16.3207ZM15.7786 10.2631C15.6702 10.2198 15.5943 10.1439 15.551 10.0355C15.5076 9.92704 15.5076 9.81862 15.551 9.71021C15.616 9.54759 15.7678 9.43918 15.9413 9.43918C15.9955 9.43918 16.0497 9.43918 16.1039 9.4717C16.3207 9.55843 16.4291 9.80778 16.3424 10.0246C16.2773 10.1872 16.1256 10.2956 15.9521 10.2956C15.8979 10.2956 15.8437 10.2956 15.7895 10.2631H15.7786Z" fill="#D56A1E"/>
<path id="Vector_7" d="M17.9144 4.90749C17.7951 4.85329 17.665 4.8316 17.5349 4.8316C17.1121 4.8316 16.7327 5.0918 16.5701 5.48208C16.3532 6.01331 16.6134 6.62042 17.1447 6.82641C17.2639 6.88062 17.394 6.9023 17.5241 6.9023C17.9469 6.9023 18.3264 6.64211 18.489 6.25182C18.7058 5.72059 18.4456 5.11348 17.9144 4.90749ZM17.3723 6.26266C17.1555 6.17593 17.0471 5.92658 17.1338 5.70975C17.1989 5.54713 17.3506 5.43872 17.5241 5.43872C17.5783 5.43872 17.6325 5.43872 17.6867 5.47124C17.9035 5.55797 18.012 5.80732 17.9252 6.02415C17.8602 6.18677 17.7084 6.29518 17.5349 6.29518C17.4807 6.29518 17.4265 6.29518 17.3723 6.26266Z" fill="#D56A1E"/>
<path id="Vector_8" d="M6.09728 12.2579C5.93466 11.8785 5.55522 11.6291 5.14325 11.6291C5.00231 11.6291 4.86137 11.6616 4.73128 11.7159C4.21089 11.9435 3.96154 12.5506 4.18921 13.0819C4.35183 13.4613 4.73128 13.7107 5.14325 13.7107C5.28419 13.7107 5.42512 13.6781 5.55522 13.6239C6.0756 13.3963 6.32495 12.7891 6.09728 12.2579ZM4.75296 12.8325C4.65539 12.6157 4.75296 12.3663 4.98063 12.2688C5.03483 12.2471 5.08904 12.2362 5.14325 12.2362C5.31671 12.2362 5.46849 12.3338 5.53354 12.4964C5.63111 12.7133 5.53354 12.9626 5.30587 13.0602C5.25166 13.0819 5.19746 13.0927 5.14325 13.0927C4.96979 13.0927 4.81801 12.9951 4.75296 12.8325Z" fill="#FAFAFA"/>
<path id="Vector_9" d="M8.81849 11.976C8.90522 11.9977 9.0028 12.0194 9.10037 12.0194C9.24131 12.0194 9.38224 11.9868 9.51234 11.9326C9.59907 11.8893 9.6858 11.8459 9.75085 11.7809C10.0978 11.499 10.2387 11.0003 10.0544 10.5666C9.89178 10.1872 9.51234 9.93784 9.10037 9.93784C8.95943 9.93784 8.81849 9.97036 8.68839 10.0246C8.43904 10.133 8.23306 10.339 8.13549 10.5883C8.13549 10.61 8.12464 10.6317 8.1138 10.6534C8.08128 10.7618 8.0596 10.8593 8.0596 10.9678C8.0596 11.1087 8.08128 11.2496 8.14633 11.3797C8.27642 11.6724 8.52577 11.8893 8.81849 11.9652V11.976ZM8.69924 10.816C8.7426 10.7076 8.81849 10.6317 8.9269 10.5883C8.98111 10.5666 9.03532 10.5558 9.08952 10.5558C9.26299 10.5558 9.41477 10.6534 9.47981 10.816C9.57739 11.0328 9.47981 11.2822 9.25215 11.3797C9.19794 11.4014 9.14373 11.4123 9.08952 11.4123C8.91606 11.4123 8.76428 11.3147 8.69924 11.1521C8.65587 11.0437 8.65587 10.9352 8.69924 10.8268V10.816Z" fill="#FAFAFA"/>
<path id="Vector_10" d="M7.76689 16.9414C7.86446 16.6812 7.86446 16.3993 7.76689 16.1499C7.60427 15.7705 7.22482 15.5211 6.81285 15.5211C6.67191 15.5211 6.53098 15.5537 6.40088 15.6079C5.8805 15.8355 5.63114 16.4427 5.85881 16.9739C6.02143 17.3533 6.40088 17.6027 6.81285 17.6027C6.95378 17.6027 7.09472 17.5702 7.22482 17.516C7.47417 17.4075 7.68016 17.2016 7.77773 16.9522L7.76689 16.9414ZM6.41172 16.7245C6.31415 16.5077 6.41172 16.2584 6.63939 16.1608C6.69359 16.1391 6.7478 16.1283 6.80201 16.1283C6.97547 16.1283 7.12725 16.2258 7.1923 16.3885C7.23566 16.4969 7.23566 16.6053 7.1923 16.7137C7.14893 16.8221 7.07304 16.898 6.96463 16.9414C6.91042 16.963 6.85621 16.9739 6.80201 16.9739C6.62855 16.9739 6.47677 16.8763 6.41172 16.7137V16.7245Z" fill="#FAFAFA"/>
<path id="Vector_11" d="M9.79419 14.4695C9.69662 14.7297 9.69662 15.0116 9.79419 15.2609C9.95681 15.6404 10.3363 15.8897 10.7482 15.8897C10.8892 15.8897 11.0301 15.8572 11.1602 15.803C11.4095 15.6946 11.6155 15.4886 11.7131 15.2392C11.8107 14.9791 11.8107 14.6972 11.7131 14.4478C11.5505 14.0684 11.171 13.819 10.7591 13.819C10.6181 13.819 10.4772 13.8516 10.3471 13.9058C10.0977 14.0142 9.89176 14.2202 9.79419 14.4695ZM11.1494 14.6863C11.1927 14.7948 11.1927 14.9032 11.1494 15.0116C11.106 15.12 11.0301 15.1959 10.9217 15.2392C10.8675 15.2609 10.8133 15.2718 10.7591 15.2718C10.5856 15.2718 10.4338 15.1742 10.3688 15.0116C10.3254 14.9032 10.3254 14.7948 10.3688 14.6863C10.4121 14.5779 10.488 14.502 10.5964 14.4587C10.6507 14.437 10.7049 14.4261 10.7591 14.4261C10.9325 14.4261 11.0843 14.5237 11.1494 14.6863Z" fill="#FAFAFA"/>
</g>
</svg>
