<svg width="14" height="22" viewBox="0 0 14 22" fill="none" xmlns="http://www.w3.org/2000/svg">
<g id="Layer_1" clip-path="url(#clip0_1426_4716)">
<g id="Group">
<path id="Vector" d="M5.94608 16.6931C5.94608 17.127 5.876 17.5503 5.75201 17.9418C5.36387 18.0582 4.95417 18.1217 4.52829 18.1217C2.17789 18.1217 0.269531 16.2487 0.269531 13.9418C0.269531 13.5079 0.339612 13.0846 0.463601 12.6878C0.851742 12.5767 1.26145 12.5132 1.68732 12.5132C4.03773 12.5132 5.94608 14.3862 5.94608 16.6931Z" fill="#FFCA37"/>
<path id="Vector_2" d="M4.18327 13.619C5.02964 14.3651 5.2884 15.4391 4.76009 16.0159C4.23179 16.5926 3.12128 16.455 2.27492 15.7037C1.42856 14.9577 1.1698 13.8836 1.6981 13.3069C2.2264 12.7301 3.33691 12.8677 4.18327 13.619Z" fill="#FCDB3A"/>
</g>
<g id="Group_2">
<path id="Vector_3" d="M6.30725 16.7989C6.12396 17.1958 6.01076 17.6032 5.95685 18.0159C6.26413 18.2804 6.60914 18.5026 6.99728 18.6772C9.13744 19.6296 11.6604 18.6984 12.6307 16.5979C12.814 16.201 12.9326 15.7883 12.9811 15.3756C12.6738 15.1164 12.3288 14.8942 11.9353 14.7196C9.79512 13.7672 7.27221 14.6984 6.30186 16.7989H6.30725Z" fill="#FFCA37"/>
<path id="Vector_4" d="M9.2129 14.7143C8.12934 15.0529 7.43932 15.9206 7.67651 16.6614C7.91371 17.4021 8.98649 17.7249 10.07 17.3862C11.1536 17.0476 11.8436 16.1799 11.6064 15.4392C11.3692 14.7037 10.2965 14.3757 9.2129 14.7143Z" fill="#FCDB3A"/>
</g>
<g id="Group_3">
<path id="Vector_5" d="M6.80861 9.96827C6.9326 10.3863 6.9919 10.8095 6.98112 11.2222C6.6415 11.4392 6.26414 11.6138 5.85444 11.7355C3.60107 12.3863 1.2291 11.1217 0.566026 8.91007C0.442037 8.49208 0.382738 8.0688 0.393519 7.6561C0.733142 7.43917 1.1105 7.26986 1.5202 7.14816C3.77357 6.49737 6.14015 7.76192 6.80861 9.97885V9.96827Z" fill="#FFCA37"/>
<path id="Vector_6" d="M4.23178 7.50265C5.26143 7.98413 5.81668 8.9418 5.47706 9.64021C5.13744 10.3386 4.02693 10.5132 3.00267 10.0317C1.97841 9.55027 1.41776 8.5926 1.75738 7.89418C2.09701 7.19577 3.20752 7.02117 4.23178 7.50265Z" fill="#FCDB3A"/>
</g>
<g id="Group_4">
<path id="Vector_7" d="M7.22908 9.97885C7.08892 10.3915 7.01345 10.8095 7.00806 11.2222C7.3369 11.455 7.70887 11.6402 8.11318 11.7778C10.3396 12.5132 12.7547 11.3386 13.5094 9.15345C13.6496 8.74075 13.725 8.31747 13.7358 7.90477C13.4016 7.67726 13.035 7.48678 12.6307 7.35451C10.4043 6.61906 7.98919 7.79366 7.23447 9.97885H7.22908Z" fill="#FFCA37"/>
<path id="Vector_8" d="M9.90295 7.61906C8.85712 8.06351 8.26413 8.99472 8.5768 9.70372C8.88947 10.4127 9.9892 10.6296 11.035 10.1905C12.0808 9.74605 12.6738 8.81483 12.3612 8.10583C12.0485 7.39684 10.9488 7.17991 9.90295 7.61906Z" fill="#FCDB3A"/>
</g>
<path id="Vector_9" d="M2.65767 22C2.58759 22 2.51751 21.9735 2.4636 21.9206C2.36117 21.8148 2.36117 21.6508 2.4636 21.545L3.00807 21.0264C5.407 18.7354 6.78705 15.5344 6.78705 12.2487V5.57671C6.78705 5.42857 6.90565 5.31216 7.05659 5.31216C7.20754 5.31216 7.32613 5.42857 7.32613 5.57671V12.2487C7.32613 15.6772 5.89217 19.0159 3.38543 21.4021L2.84096 21.9206C2.78705 21.9682 2.72236 21.9947 2.65228 21.9947L2.65767 22Z" fill="#222020"/>
<path id="Vector_10" d="M4.5283 18.3863C2.03234 18.3863 0 16.3915 0 13.9418C0 13.4868 0.0700809 13.037 0.204852 12.6085L0.247978 12.4762L0.38814 12.4339C0.814016 12.3122 1.25067 12.2487 1.69272 12.2487C4.18868 12.2487 6.22102 14.2434 6.22102 16.6931C6.22102 17.1482 6.15094 17.5926 6.01617 18.0212L5.97305 18.1535L5.83828 18.1958C5.41779 18.3228 4.97574 18.3863 4.53369 18.3863H4.5283ZM0.679245 12.9048C0.587601 13.2381 0.539084 13.5873 0.539084 13.9418C0.539084 16.1005 2.32884 17.8572 4.5283 17.8572C4.87332 17.8572 5.20755 17.8148 5.53639 17.7302C5.62803 17.3968 5.67655 17.0476 5.67655 16.6931C5.67655 14.5344 3.88679 12.7778 1.68733 12.7778C1.34771 12.7778 1.00809 12.8201 0.679245 12.9048Z" fill="#222020"/>
<path id="Vector_11" d="M8.7547 19.3122C8.12936 19.3122 7.49864 19.1852 6.88947 18.9154C6.48516 18.7355 6.11319 18.4974 5.77896 18.2116L5.67114 18.1217L5.68731 17.9841C5.74122 17.5397 5.86521 17.1058 6.05928 16.6878C7.08893 14.4603 9.77896 13.4656 12.0539 14.4762C12.4528 14.6561 12.8248 14.8889 13.1644 15.1746L13.2722 15.2646L13.256 15.4021C13.2021 15.8466 13.0781 16.2857 12.8841 16.6984C12.1294 18.3333 10.4798 19.3069 8.7547 19.3069V19.3122ZM6.24796 17.9048C6.51211 18.1164 6.80322 18.291 7.11589 18.4339C9.11589 19.328 11.4879 18.4497 12.3935 16.4868C12.5445 16.164 12.6469 15.8254 12.7008 15.4868C12.4366 15.2751 12.1455 15.1005 11.8329 14.963C9.83287 14.0688 7.4609 14.9471 6.55524 16.9101C6.4043 17.2328 6.30187 17.5661 6.24796 17.9101V17.9048Z" fill="#222020"/>
<path id="Vector_12" d="M4.6577 12.164C2.70082 12.164 0.894893 10.9101 0.312682 8.97355C0.183302 8.53439 0.118612 8.08466 0.129394 7.64021V7.49736L0.253383 7.42328C0.625351 7.18519 1.02966 7.00529 1.45015 6.8836C3.84907 6.19048 6.36659 7.53968 7.07279 9.88889C7.20217 10.328 7.26686 10.7725 7.25608 11.2222V11.3598L7.13209 11.4339C6.76012 11.672 6.3612 11.8571 5.93532 11.9788C5.50945 12.1005 5.08357 12.1587 4.6577 12.1587V12.164ZM0.668478 7.79365C0.673868 8.13757 0.727777 8.48677 0.830203 8.8254C1.45015 10.8942 3.67117 12.0847 5.78438 11.4762C6.11322 11.381 6.42589 11.2487 6.71699 11.0741C6.7116 10.7249 6.6577 10.381 6.55527 10.0423C5.93532 7.97355 3.7143 6.78307 1.60109 7.39154C1.27764 7.48677 0.964973 7.61905 0.668478 7.79365Z" fill="#222020"/>
<path id="Vector_13" d="M9.46631 12.2593C8.98652 12.2593 8.50135 12.1852 8.02156 12.0264C7.60108 11.8889 7.20755 11.6878 6.84636 11.4391L6.73315 11.3598V11.2222C6.74394 10.7725 6.8248 10.328 6.97035 9.89946C7.76819 7.57671 10.3396 6.32804 12.7062 7.1111C13.1213 7.24867 13.5148 7.44444 13.8814 7.69311L14 7.77248V7.91534C13.9892 8.36507 13.9084 8.80952 13.7574 9.24338C13.1213 11.0952 11.3531 12.2645 9.46631 12.2645V12.2593ZM7.27763 11.0846C7.56334 11.2698 7.87062 11.4127 8.19407 11.5238C10.2803 12.2169 12.5445 11.1111 13.2453 9.06348C13.3585 8.73015 13.4286 8.38095 13.4501 8.03703C13.1644 7.85184 12.8518 7.70899 12.5337 7.60317C10.4474 6.91534 8.18329 8.01587 7.48248 10.0635C7.36927 10.3968 7.29919 10.7407 7.27763 11.0899V11.0846Z" fill="#222020"/>
<g id="Group_5">
<path id="Vector_14" d="M7.06203 0.338623C7.06203 0.338623 2.06472 4.20635 7.06203 8.01587C12.0593 4.21164 7.06203 0.338623 7.06203 0.338623Z" fill="#FFCA37"/>
<path id="Vector_15" d="M8.00765 5.72562C8.8498 5.46104 9.22126 4.29222 8.83732 3.115C8.45337 1.93777 7.45942 1.19793 6.61727 1.46252C5.77511 1.7271 5.40365 2.89592 5.7876 4.07314C6.17154 5.25037 7.16549 5.99021 8.00765 5.72562Z" fill="#FCDB3A"/>
<path id="Vector_16" d="M7.06202 8.34391L6.8949 8.21693C5.35851 7.04762 4.57684 5.74074 4.57145 4.34391C4.56067 1.96296 6.79787 0.201058 6.8949 0.126984L7.06202 0L7.22913 0.126984C7.32617 0.201058 9.56336 1.96296 9.55258 4.34391C9.54719 5.74603 8.76552 7.04762 7.22913 8.21693L7.06202 8.34391ZM7.06202 0.68254C6.56067 1.12698 5.10514 2.57672 5.11053 4.34391C5.11592 5.52381 5.77361 6.64021 7.06202 7.67196C8.35043 6.64021 9.00811 5.52381 9.0135 4.34391C9.02428 2.57672 7.56336 1.12698 7.06202 0.68254Z" fill="#222020"/>
</g>
<g id="Group_6">
<path id="Vector_17" d="M7.5418 2.65078C7.44476 2.65078 7.35312 2.60316 7.3046 2.51321L7.26148 2.43914C7.186 2.31215 7.22374 2.15342 7.35312 2.07406C7.4825 1.99469 7.64422 2.03702 7.72509 2.15872L7.779 2.25395C7.84908 2.38094 7.80595 2.54496 7.67657 2.61374C7.63344 2.63491 7.59032 2.64549 7.54719 2.64549L7.5418 2.65078Z" fill="white"/>
<path id="Vector_18" d="M8.27495 4.39682C8.12939 4.39682 8.0054 4.28042 8.0054 4.13227C8.0054 4.12169 7.99462 3.77777 7.81672 3.38624C7.75742 3.25396 7.81672 3.09523 7.95149 3.03703C8.08627 2.97883 8.24799 3.03703 8.30729 3.16931C8.5391 3.67195 8.54449 4.11111 8.54449 4.13227C8.54449 4.28042 8.42589 4.39682 8.27495 4.39682Z" fill="white"/>
</g>
<g id="Group_7">
<path id="Vector_19" d="M2.65228 8.22753C2.65228 8.22753 2.62533 8.22753 2.61455 8.22753L2.52829 8.21695C2.38274 8.20107 2.27492 8.0688 2.2911 7.92594C2.30727 7.78308 2.44204 7.67726 2.58759 7.69314L2.69541 7.70901C2.84096 7.73017 2.94339 7.86245 2.92182 8.0106C2.90026 8.14287 2.78705 8.23811 2.65767 8.23811L2.65228 8.22753Z" fill="white"/>
<path id="Vector_20" d="M4.50132 8.73545C4.44202 8.73545 4.38812 8.71958 4.3396 8.68254C4.3396 8.68254 4.05388 8.4709 3.62262 8.37037C3.47706 8.33333 3.39081 8.19048 3.42316 8.05291C3.46089 7.91005 3.60644 7.8254 3.74661 7.85714C4.29647 7.98942 4.64688 8.25397 4.66305 8.26455C4.78165 8.3545 4.80321 8.51852 4.71157 8.63492C4.65766 8.7037 4.5768 8.73545 4.49593 8.73545H4.50132Z" fill="white"/>
</g>
<g id="Group_8">
<path id="Vector_21" d="M2.5121 13.8836C2.46897 13.8836 2.43124 13.873 2.38811 13.8572L2.31264 13.8201C2.17787 13.7619 2.11857 13.6032 2.17787 13.4709C2.23717 13.3386 2.39889 13.2804 2.53366 13.3386L2.63609 13.3863C2.77086 13.4497 2.81938 13.6138 2.75469 13.7408C2.70617 13.8307 2.61453 13.8836 2.5121 13.8836Z" fill="white"/>
<path id="Vector_22" d="M4.11857 14.926C4.03232 14.926 3.95146 14.8836 3.89755 14.8096C3.89755 14.8096 3.6927 14.5238 3.31534 14.2963C3.18596 14.2222 3.14822 14.0582 3.22369 13.9312C3.30456 13.8043 3.46628 13.7672 3.59566 13.8413C4.07545 14.1323 4.33421 14.4921 4.3396 14.508C4.42585 14.6297 4.39351 14.7937 4.26952 14.8783C4.221 14.9101 4.17248 14.926 4.11857 14.926Z" fill="white"/>
</g>
<g id="Group_9">
<path id="Vector_23" d="M11.3154 8.39153C11.186 8.39153 11.0728 8.30159 11.0513 8.16931C11.0243 8.02645 11.1267 7.88889 11.2723 7.86772L11.3801 7.85185C11.531 7.83069 11.6604 7.93651 11.682 8.07936C11.7035 8.22222 11.5957 8.3545 11.4502 8.37566L11.3639 8.38624C11.3639 8.38624 11.3316 8.38624 11.3208 8.38624L11.3154 8.39153Z" fill="white"/>
<path id="Vector_24" d="M9.46093 8.89947C9.38007 8.89947 9.29921 8.86243 9.2453 8.79894C9.15366 8.68254 9.17522 8.51852 9.29382 8.42857C9.30999 8.41799 9.6604 8.14815 10.2103 8.02117C10.3558 7.98413 10.5014 8.07408 10.5337 8.21693C10.5714 8.35979 10.4798 8.50265 10.3342 8.53439C9.90298 8.64021 9.62266 8.84656 9.61727 8.84656C9.56875 8.8836 9.50945 8.89947 9.45554 8.89947H9.46093Z" fill="white"/>
</g>
<g id="Group_10">
<path id="Vector_25" d="M10.4529 15.5873C10.3127 15.5873 10.1941 15.4815 10.1833 15.3386C10.1725 15.1905 10.2858 15.0688 10.4367 15.0582H10.5445C10.6847 15.0529 10.8194 15.164 10.8248 15.3122C10.8248 15.4603 10.7116 15.582 10.5661 15.5873H10.4744C10.4744 15.5873 10.4637 15.5873 10.4583 15.5873H10.4529Z" fill="white"/>
<path id="Vector_26" d="M8.55528 15.9206C8.46363 15.9206 8.37738 15.8783 8.32886 15.7989C8.248 15.6772 8.28574 15.5132 8.40973 15.4339C8.4259 15.4233 8.80326 15.1905 9.3639 15.1111C9.50946 15.0952 9.64962 15.1905 9.67118 15.3333C9.69274 15.4762 9.59032 15.6137 9.44477 15.6349C9.00811 15.6984 8.70622 15.8783 8.70083 15.8783C8.6577 15.9048 8.60919 15.9206 8.56067 15.9206H8.55528Z" fill="white"/>
</g>
</g>
<defs>
<clipPath id="clip0_1426_4716">
<rect width="14" height="22" fill="white"/>
</clipPath>
</defs>
</svg>
