<svg width="24" height="24" viewBox="0 0 24 24" fill="none" xmlns="http://www.w3.org/2000/svg">
<g clip-path="url(#clip0_4999_1150)">
<path d="M11.9461 17.6931C11.9461 18.127 11.876 18.5503 11.752 18.9418C11.3639 19.0582 10.9542 19.1217 10.5283 19.1217C8.17789 19.1217 6.26953 17.2487 6.26953 14.9418C6.26953 14.5079 6.33961 14.0846 6.4636 13.6878C6.85174 13.5767 7.26145 13.5132 7.68732 13.5132C10.0377 13.5132 11.9461 15.3862 11.9461 17.6931Z" fill="#FFCA37"/>
<path d="M10.1833 14.619C11.0296 15.3651 11.2884 16.4391 10.7601 17.0159C10.2318 17.5926 9.12128 17.455 8.27492 16.7037C7.42856 15.9577 7.1698 14.8836 7.6981 14.3069C8.2264 13.7301 9.33691 13.8677 10.1833 14.619Z" fill="#FCDB3A"/>
<path d="M12.3073 17.7989C12.124 18.1958 12.0108 18.6032 11.9568 19.0159C12.2641 19.2804 12.6091 19.5026 12.9973 19.6772C15.1374 20.6296 17.6604 19.6984 18.6307 17.5979C18.814 17.201 18.9326 16.7883 18.9811 16.3756C18.6738 16.1164 18.3288 15.8942 17.9353 15.7196C15.7951 14.7672 13.2722 15.6984 12.3019 17.7989H12.3073Z" fill="#FFCA37"/>
<path d="M15.2129 15.7143C14.1293 16.0529 13.4393 16.9206 13.6765 17.6614C13.9137 18.4021 14.9865 18.7249 16.07 18.3862C17.1536 18.0476 17.8436 17.1799 17.6064 16.4392C17.3692 15.7037 16.2965 15.3757 15.2129 15.7143Z" fill="#FCDB3A"/>
<path d="M12.8086 10.9683C12.9326 11.3863 12.9919 11.8095 12.9811 12.2222C12.6415 12.4392 12.2641 12.6138 11.8544 12.7355C9.60107 13.3863 7.2291 12.1217 6.56603 9.91007C6.44204 9.49208 6.38274 9.0688 6.39352 8.6561C6.73314 8.43917 7.1105 8.26986 7.5202 8.14816C9.77357 7.49737 12.1402 8.76192 12.8086 10.9788V10.9683Z" fill="#FFCA37"/>
<path d="M10.2318 8.50265C11.2614 8.98413 11.8167 9.9418 11.4771 10.6402C11.1374 11.3386 10.0269 11.5132 9.00267 11.0317C7.97841 10.5503 7.41776 9.5926 7.75738 8.89418C8.09701 8.19577 9.20752 8.02117 10.2318 8.50265Z" fill="#FCDB3A"/>
<path d="M13.2291 10.9788C13.0889 11.3915 13.0134 11.8095 13.0081 12.2222C13.3369 12.455 13.7089 12.6402 14.1132 12.7778C16.3396 13.5132 18.7547 12.3386 19.5094 10.1534C19.6496 9.74075 19.725 9.31747 19.7358 8.90477C19.4016 8.67726 19.035 8.48678 18.6307 8.35451C16.4043 7.61906 13.9892 8.79366 13.2345 10.9788H13.2291Z" fill="#FFCA37"/>
<path d="M15.9029 8.61906C14.8571 9.06351 14.2641 9.99472 14.5768 10.7037C14.8895 11.4127 15.9892 11.6296 17.035 11.1905C18.0808 10.746 18.6738 9.81483 18.3612 9.10583C18.0485 8.39684 16.9488 8.17991 15.9029 8.61906Z" fill="#FCDB3A"/>
<path d="M8.65767 23C8.58759 23 8.51751 22.9735 8.4636 22.9206C8.36117 22.8148 8.36117 22.6508 8.4636 22.545L9.00807 22.0264C11.407 19.7354 12.787 16.5344 12.787 13.2487V6.57671C12.787 6.42857 12.9056 6.31216 13.0566 6.31216C13.2075 6.31216 13.3261 6.42857 13.3261 6.57671V13.2487C13.3261 16.6772 11.8922 20.0159 9.38543 22.4021L8.84096 22.9206C8.78705 22.9682 8.72236 22.9947 8.65228 22.9947L8.65767 23Z" fill="#222020"/>
<path d="M10.5283 19.3863C8.03234 19.3863 6 17.3915 6 14.9418C6 14.4868 6.07008 14.037 6.20485 13.6085L6.24798 13.4762L6.38814 13.4339C6.81402 13.3122 7.25067 13.2487 7.69272 13.2487C10.1887 13.2487 12.221 15.2434 12.221 17.6931C12.221 18.1482 12.1509 18.5926 12.0162 19.0212L11.973 19.1535L11.8383 19.1958C11.4178 19.3228 10.9757 19.3863 10.5337 19.3863H10.5283ZM6.67925 13.9048C6.5876 14.2381 6.53908 14.5873 6.53908 14.9418C6.53908 17.1005 8.32884 18.8572 10.5283 18.8572C10.8733 18.8572 11.2075 18.8148 11.5364 18.7302C11.628 18.3968 11.6766 18.0476 11.6766 17.6931C11.6766 15.5344 9.88679 13.7778 7.68733 13.7778C7.34771 13.7778 7.00809 13.8201 6.67925 13.9048Z" fill="#222020"/>
<path d="M14.7547 20.3122C14.1294 20.3122 13.4986 20.1852 12.8895 19.9153C12.4852 19.7355 12.1132 19.4974 11.779 19.2116L11.6711 19.1217L11.6873 18.9841C11.7412 18.5397 11.8652 18.1058 12.0593 17.6878C13.0889 15.4603 15.779 14.4656 18.0539 15.4762C18.4528 15.6561 18.8248 15.8889 19.1644 16.1746L19.2722 16.2646L19.256 16.4021C19.2021 16.8466 19.0781 17.2857 18.8841 17.6984C18.1294 19.3333 16.4798 20.3069 14.7547 20.3069V20.3122ZM12.248 18.9048C12.5121 19.1164 12.8032 19.291 13.1159 19.4339C15.1159 20.328 17.4879 19.4497 18.3935 17.4868C18.5445 17.164 18.6469 16.8254 18.7008 16.4868C18.4366 16.2751 18.1455 16.1005 17.8329 15.963C15.8329 15.0688 13.4609 15.9471 12.5552 17.9101C12.4043 18.2328 12.3019 18.5661 12.248 18.9101V18.9048Z" fill="#222020"/>
<path d="M10.6577 13.164C8.70082 13.164 6.89489 11.9101 6.31268 9.97355C6.1833 9.53439 6.11861 9.08466 6.12939 8.64021V8.49736L6.25338 8.42328C6.62535 8.18519 7.02966 8.00529 7.45015 7.8836C9.84907 7.19048 12.3666 8.53968 13.0728 10.8889C13.2022 11.328 13.2669 11.7725 13.2561 12.2222V12.3598L13.1321 12.4339C12.7601 12.672 12.3612 12.8571 11.9353 12.9788C11.5094 13.1005 11.0836 13.1587 10.6577 13.1587V13.164ZM6.66848 8.79365C6.67387 9.13757 6.72778 9.48677 6.8302 9.8254C7.45015 11.8942 9.67117 13.0847 11.7844 12.4762C12.1132 12.381 12.4259 12.2487 12.717 12.0741C12.7116 11.7249 12.6577 11.381 12.5553 11.0423C11.9353 8.97355 9.7143 7.78307 7.60109 8.39154C7.27764 8.48677 6.96497 8.61905 6.66848 8.79365Z" fill="#222020"/>
<path d="M15.4663 13.2593C14.9865 13.2593 14.5013 13.1852 14.0216 13.0264C13.6011 12.8889 13.2075 12.6878 12.8464 12.4391L12.7332 12.3598V12.2222C12.7439 11.7725 12.8248 11.328 12.9704 10.8995C13.7682 8.57671 16.3396 7.32804 18.7062 8.1111C19.1213 8.24867 19.5148 8.44444 19.8814 8.69311L20 8.77248V8.91534C19.9892 9.36507 19.9084 9.80952 19.7574 10.2434C19.1213 12.0952 17.3531 13.2645 15.4663 13.2645V13.2593ZM13.2776 12.0846C13.5633 12.2698 13.8706 12.4127 14.1941 12.5238C16.2803 13.2169 18.5445 12.1111 19.2453 10.0635C19.3585 9.73015 19.4286 9.38095 19.4501 9.03703C19.1644 8.85184 18.8518 8.70899 18.5337 8.60317C16.4474 7.91534 14.1833 9.01587 13.4825 11.0635C13.3693 11.3968 13.2992 11.7407 13.2776 12.0899V12.0846Z" fill="#222020"/>
<path d="M13.062 1.33862C13.062 1.33862 8.06472 5.20635 13.062 9.01587C18.0593 5.21164 13.062 1.33862 13.062 1.33862Z" fill="#FFCA37"/>
<path d="M14.0076 6.72562C14.8498 6.46104 15.2213 5.29222 14.8373 4.115C14.4534 2.93777 13.4594 2.19793 12.6173 2.46252C11.7751 2.7271 11.4037 3.89592 11.7876 5.07314C12.1715 6.25037 13.1655 6.99021 14.0076 6.72562Z" fill="#FCDB3A"/>
<path d="M13.062 9.34391L12.8949 9.21693C11.3585 8.04762 10.5768 6.74074 10.5714 5.34391C10.5607 2.96296 12.7979 1.20106 12.8949 1.12698L13.062 1L13.2291 1.12698C13.3262 1.20106 15.5634 2.96296 15.5526 5.34391C15.5472 6.74603 14.7655 8.04762 13.2291 9.21693L13.062 9.34391ZM13.062 1.68254C12.5607 2.12698 11.1051 3.57672 11.1105 5.34391C11.1159 6.52381 11.7736 7.64021 13.062 8.67196C14.3504 7.64021 15.0081 6.52381 15.0135 5.34391C15.0243 3.57672 13.5634 2.12698 13.062 1.68254Z" fill="#222020"/>
<path d="M13.5418 3.65078C13.4448 3.65078 13.3531 3.60316 13.3046 3.51321L13.2615 3.43914C13.186 3.31215 13.2237 3.15342 13.3531 3.07406C13.4825 2.99469 13.6442 3.03702 13.7251 3.15872L13.779 3.25395C13.8491 3.38094 13.8059 3.54496 13.6766 3.61374C13.6334 3.63491 13.5903 3.64549 13.5472 3.64549L13.5418 3.65078Z" fill="white"/>
<path d="M14.2749 5.39682C14.1294 5.39682 14.0054 5.28042 14.0054 5.13227C14.0054 5.12169 13.9946 4.77777 13.8167 4.38624C13.7574 4.25396 13.8167 4.09523 13.9515 4.03703C14.0863 3.97883 14.248 4.03703 14.3073 4.16931C14.5391 4.67195 14.5445 5.11111 14.5445 5.13227C14.5445 5.28042 14.4259 5.39682 14.2749 5.39682Z" fill="white"/>
<path d="M8.65228 9.22753C8.65228 9.22753 8.62533 9.22753 8.61455 9.22753L8.52829 9.21695C8.38274 9.20107 8.27492 9.0688 8.2911 8.92594C8.30727 8.78308 8.44204 8.67726 8.58759 8.69314L8.69541 8.70901C8.84096 8.73017 8.94339 8.86245 8.92182 9.0106C8.90026 9.14287 8.78705 9.23811 8.65767 9.23811L8.65228 9.22753Z" fill="white"/>
<path d="M10.5013 9.73545C10.442 9.73545 10.3881 9.71958 10.3396 9.68254C10.3396 9.68254 10.0539 9.4709 9.62262 9.37037C9.47706 9.33333 9.39081 9.19048 9.42316 9.05291C9.46089 8.91005 9.60644 8.8254 9.74661 8.85714C10.2965 8.98942 10.6469 9.25397 10.663 9.26455C10.7816 9.3545 10.8032 9.51852 10.7116 9.63492C10.6577 9.7037 10.5768 9.73545 10.4959 9.73545H10.5013Z" fill="white"/>
<path d="M8.5121 14.8836C8.46897 14.8836 8.43124 14.873 8.38811 14.8572L8.31264 14.8201C8.17787 14.7619 8.11857 14.6032 8.17787 14.4709C8.23717 14.3386 8.39889 14.2804 8.53366 14.3386L8.63609 14.3863C8.77086 14.4497 8.81938 14.6138 8.75469 14.7408C8.70617 14.8307 8.61453 14.8836 8.5121 14.8836Z" fill="white"/>
<path d="M10.1186 15.926C10.0323 15.926 9.95146 15.8836 9.89755 15.8096C9.89755 15.8096 9.6927 15.5238 9.31534 15.2963C9.18596 15.2222 9.14822 15.0582 9.22369 14.9312C9.30456 14.8043 9.46628 14.7672 9.59566 14.8413C10.0754 15.1323 10.3342 15.4921 10.3396 15.508C10.4259 15.6297 10.3935 15.7937 10.2695 15.8783C10.221 15.9101 10.1725 15.926 10.1186 15.926Z" fill="white"/>
<path d="M17.3154 9.39153C17.186 9.39153 17.0728 9.30159 17.0513 9.16931C17.0243 9.02645 17.1267 8.88889 17.2723 8.86772L17.3801 8.85185C17.531 8.83069 17.6604 8.93651 17.682 9.07936C17.7035 9.22222 17.5957 9.3545 17.4502 9.37566L17.3639 9.38624C17.3639 9.38624 17.3316 9.38624 17.3208 9.38624L17.3154 9.39153Z" fill="white"/>
<path d="M15.4609 9.89947C15.3801 9.89947 15.2992 9.86243 15.2453 9.79894C15.1537 9.68254 15.1752 9.51852 15.2938 9.42857C15.31 9.41799 15.6604 9.14815 16.2103 9.02117C16.3558 8.98413 16.5014 9.07408 16.5337 9.21693C16.5714 9.35979 16.4798 9.50265 16.3342 9.53439C15.903 9.64021 15.6227 9.84656 15.6173 9.84656C15.5688 9.8836 15.5095 9.89947 15.4555 9.89947H15.4609Z" fill="white"/>
<path d="M16.4529 16.5873C16.3127 16.5873 16.1941 16.4815 16.1833 16.3386C16.1725 16.1905 16.2858 16.0688 16.4367 16.0582H16.5445C16.6847 16.0529 16.8194 16.164 16.8248 16.3122C16.8248 16.4603 16.7116 16.582 16.5661 16.5873H16.4744C16.4744 16.5873 16.4637 16.5873 16.4583 16.5873H16.4529Z" fill="white"/>
<path d="M14.5553 16.9206C14.4636 16.9206 14.3774 16.8783 14.3289 16.7989C14.248 16.6772 14.2857 16.5132 14.4097 16.4339C14.4259 16.4233 14.8033 16.1905 15.3639 16.1111C15.5095 16.0952 15.6496 16.1905 15.6712 16.3333C15.6927 16.4762 15.5903 16.6137 15.4448 16.6349C15.0081 16.6984 14.7062 16.8783 14.7008 16.8783C14.6577 16.9048 14.6092 16.9206 14.5607 16.9206H14.5553Z" fill="white"/>
</g>
<defs>
<clipPath id="clip0_4999_1150">
<rect width="14" height="22" fill="white" transform="translate(6 1)"/>
</clipPath>
</defs>
</svg>
