<svg width="17" height="24" viewBox="0 0 17 24" fill="none" xmlns="http://www.w3.org/2000/svg">
<g id="OBJECTS" clip-path="url(#clip0_1220_3948)">
<g id="Group">
<g id="Group_2">
<path id="Vector" d="M7.2935 17.6662C7.2935 18.1069 7.21963 18.5266 7.07189 18.9254C6.62868 19.0513 6.13623 19.1142 5.64377 19.1142C2.93528 19.1142 0.719238 17.2255 0.719238 14.917C0.719238 14.4763 0.793106 14.0566 0.940842 13.6579C1.38405 13.5529 1.8765 13.49 2.36896 13.49C5.07745 13.49 7.2935 15.3787 7.2935 17.6872V17.6662Z" fill="#F9C708"/>
<path id="Vector_2" d="M5.24983 14.5813C6.23474 15.3368 6.53021 16.407 5.91464 16.9946C5.29907 17.5823 4.01869 17.4354 3.03379 16.6799C2.04888 15.9244 1.75341 14.8541 2.36897 14.2665C2.98454 13.6789 4.26492 13.8258 5.24983 14.5813Z" fill="#F9D908"/>
</g>
<g id="Group_3">
<path id="Vector_3" d="M7.71208 17.7921C7.49047 18.1909 7.36736 18.6106 7.31812 19.0093C7.66283 19.2821 8.08142 19.492 8.52463 19.6809C10.9869 20.6462 13.917 19.7019 15.0496 17.6032C15.2712 17.2045 15.3944 16.7848 15.4436 16.3861C15.0989 16.1342 14.6803 15.9034 14.2371 15.7355C11.7748 14.7701 8.84472 15.7145 7.71208 17.8131V17.7921Z" fill="#F9C708"/>
<path id="Vector_4" d="M11.0608 15.6935C9.80503 16.0293 9.0171 16.9107 9.28795 17.6452C9.5588 18.3797 10.7899 18.7155 12.0457 18.3797C13.3015 18.044 14.0894 17.1626 13.8185 16.428C13.5477 15.6935 12.3165 15.3578 11.0608 15.6935Z" fill="#F9D908"/>
</g>
<g id="Group_4">
<path id="Vector_5" d="M8.2784 10.9297C8.42614 11.3494 8.5 11.7691 8.47538 12.1889C8.08142 12.3987 7.63821 12.5876 7.17038 12.6925C4.56037 13.3431 1.82726 12.0839 1.06395 9.85941C0.916216 9.43969 0.842348 9.01997 0.866971 8.60025C1.26093 8.39039 1.70414 8.20152 2.17197 8.09659C4.78198 7.44602 7.5151 8.70518 8.2784 10.9297Z" fill="#F9C708"/>
<path id="Vector_6" d="M5.29905 8.45335C6.48094 8.93603 7.12113 9.90138 6.72717 10.5939C6.3332 11.2865 5.05282 11.4753 3.87093 10.9927C2.68905 10.51 2.04886 9.54462 2.44282 8.85208C2.83678 8.15954 4.11716 7.97067 5.29905 8.45335Z" fill="#F9D908"/>
</g>
<g id="Group_5">
<path id="Vector_7" d="M8.77088 10.9297C8.59853 11.3494 8.52466 11.7691 8.52466 12.1889C8.91862 12.4197 9.33721 12.6086 9.80504 12.7345C12.3904 13.469 15.1728 12.2938 16.0346 10.1113C16.2069 9.69153 16.2808 9.27181 16.3054 8.85209C15.9115 8.62125 15.4929 8.43237 15.025 8.30645C12.4397 7.57194 9.6573 8.74716 8.79551 10.9297H8.77088Z" fill="#F9C708"/>
<path id="Vector_8" d="M11.8487 8.55828C10.6422 8.99898 9.95279 9.94335 10.3221 10.6569C10.6915 11.3704 11.9472 11.5803 13.1537 11.1396C14.3602 10.6989 15.0497 9.75448 14.6803 9.04096C14.311 8.32743 13.0552 8.11757 11.8487 8.55828Z" fill="#F9D908"/>
</g>
<path id="Vector_9" d="M3.47698 23.1436C3.47698 23.1436 3.23075 23.1016 3.13226 23.0176C2.9599 22.8497 2.9599 22.5979 3.13226 22.451L3.77245 21.9264C6.50557 19.6599 8.08142 16.47 8.08142 13.2172V6.52264C8.08142 6.31278 8.2784 6.1239 8.54925 6.1239C8.8201 6.1239 9.01708 6.29179 9.01708 6.52264V13.2172C9.01708 16.7008 7.34274 20.0796 4.41264 22.493L3.77245 23.0176C3.77245 23.0176 3.57547 23.1226 3.45235 23.1226L3.47698 23.1436Z" fill="#DDA15B"/>
<path id="Vector_10" d="M5.64377 19.513C2.66443 19.513 0.251404 17.4564 0.251404 14.9171C0.251404 14.4344 0.325272 13.9727 0.49763 13.532L0.571498 13.3221L0.817726 13.2592C1.3348 13.1332 1.85188 13.0703 2.36895 13.0703C5.3483 13.0703 7.76132 15.1269 7.76132 17.6662C7.76132 18.1279 7.68746 18.5896 7.5151 19.0303L7.44123 19.2402L7.195 19.3031C6.70255 19.429 6.16085 19.492 5.64377 19.492V19.513ZM1.3348 13.9937C1.23631 14.2875 1.21169 14.6023 1.21169 14.9171C1.21169 17.0157 3.20613 18.7155 5.6684 18.7155C6.01311 18.7155 6.35783 18.6735 6.70255 18.6106C6.80104 18.3168 6.82566 18.002 6.82566 17.6872C6.82566 15.5886 4.83122 13.8887 2.36895 13.8887C2.02424 13.8887 1.67952 13.9307 1.3348 13.9937Z" fill="#DDA15B"/>
<path id="Vector_11" d="M10.5437 20.4364C9.78041 20.4364 9.04173 20.2895 8.32767 20.0167C7.83521 19.8278 7.39201 19.576 6.99804 19.2822L6.82568 19.1352V18.9254C6.92417 18.4637 7.07191 18.023 7.29351 17.5823C7.88446 16.47 8.96786 15.6096 10.2975 15.1899C11.6517 14.7492 13.1045 14.7911 14.4095 15.3158C14.8773 15.5047 15.3205 15.7355 15.7391 16.0293L15.9361 16.1762V16.3861C15.8376 16.8478 15.6898 17.2885 15.4682 17.7292C14.8773 18.8414 13.7939 19.7019 12.4643 20.1216C11.8487 20.3105 11.2085 20.4154 10.5683 20.4154L10.5437 20.4364ZM7.81059 18.8414C8.08144 19.0303 8.37691 19.1772 8.69701 19.3031C9.78041 19.7229 10.9869 19.7648 12.0949 19.4081C13.203 19.0513 14.0894 18.3378 14.5818 17.4144C14.7296 17.1206 14.8527 16.8268 14.9019 16.512C14.6311 16.3231 14.311 16.1762 14.0155 16.0503C12.9321 15.6306 11.7256 15.5886 10.6176 15.9454C9.50956 16.3021 8.62314 17.0157 8.13069 17.939C7.98295 18.2329 7.85984 18.5267 7.81059 18.8414Z" fill="#DDA15B"/>
<path id="Vector_12" d="M5.79151 13.2592C4.9051 13.2592 4.01868 13.0703 3.23075 12.6925C1.975 12.1049 1.03933 11.1396 0.645372 9.96435C0.497636 9.50266 0.423767 9.04096 0.423767 8.57927V8.36941L0.645372 8.26448C1.08858 8.01265 1.55641 7.82378 2.07349 7.69786C3.45236 7.36208 4.9051 7.488 6.18548 8.07561C7.44123 8.66322 8.37689 9.62857 8.77086 10.8038C8.91859 11.2655 8.99246 11.7272 8.99246 12.1889V12.3987L8.77086 12.5037C8.32765 12.7555 7.85982 12.9444 7.34274 13.0703C6.85029 13.1962 6.33321 13.2592 5.81614 13.2592H5.79151ZM1.33481 8.81012C1.33481 9.12491 1.40867 9.4397 1.50717 9.7335C1.85188 10.6989 2.61519 11.5173 3.64934 12C4.68349 12.4827 5.89 12.5876 7.04727 12.3148C7.39199 12.2308 7.71208 12.1049 8.00755 11.958C8.00755 11.6432 7.93369 11.3284 7.8352 11.0346C7.49048 10.0693 6.72717 9.25083 5.69302 8.76815C4.65887 8.28547 3.45236 8.18054 2.29509 8.45336C1.95037 8.5373 1.63028 8.66322 1.33481 8.81012Z" fill="#DDA15B"/>
<path id="Vector_13" d="M11.3562 13.3641C10.7899 13.3641 10.199 13.2801 9.63264 13.1332C9.14019 12.9863 8.67236 12.7765 8.22915 12.5246L8.03217 12.3987V12.1889C8.03217 11.7272 8.13066 11.2655 8.32764 10.8248C8.79547 9.67054 9.75575 8.72616 11.0361 8.18053C12.3165 7.63489 13.7939 7.55095 15.1481 7.94968C15.6406 8.09658 16.1084 8.28546 16.5516 8.55828L16.7486 8.68419V8.89405C16.7486 9.35575 16.6501 9.81744 16.4531 10.2581C15.6898 12.1679 13.5969 13.3851 11.3316 13.3851L11.3562 13.3641ZM8.99245 11.979C9.28792 12.1469 9.60802 12.2728 9.92811 12.3567C12.2426 13.0283 14.7788 11.958 15.5667 9.96434C15.6898 9.67054 15.7637 9.35574 15.7883 9.04095C15.4928 8.87307 15.1727 8.74715 14.8526 8.66321C13.72 8.34842 12.5135 8.41138 11.4547 8.85208C10.3959 9.29279 9.5834 10.0693 9.21405 11.0346C9.09094 11.3284 9.01707 11.6432 8.99245 11.958V11.979Z" fill="#DDA15B"/>
<g id="Group_6">
<path id="Vector_14" d="M8.57382 1.25516C8.57382 1.25516 2.81211 5.13757 8.57382 8.95702C14.3355 5.13757 8.57382 1.25516 8.57382 1.25516Z" fill="#F9C708"/>
<path id="Vector_15" d="M9.68093 6.65949C10.6523 6.39449 11.0801 5.22217 10.6365 4.04105C10.1929 2.85993 9.04588 2.11727 8.07453 2.38228C7.10317 2.64729 6.67534 3.81961 7.11894 5.00073C7.56254 6.18185 8.70958 6.9245 9.68093 6.65949Z" fill="#F9D908"/>
<path id="Vector_16" d="M8.57384 9.46069L8.27837 9.27181C6.45629 8.07561 5.54525 6.73251 5.52063 5.28447C5.52063 2.82911 8.15526 1.02431 8.25375 0.940369L8.54922 0.751495L8.84469 0.940369C8.84469 0.940369 11.6024 2.82911 11.5778 5.28447C11.5778 6.73251 10.6421 8.07561 8.82007 9.27181L8.5246 9.46069H8.57384ZM8.57384 1.77981C7.93365 2.28347 6.45629 3.64756 6.48091 5.28447C6.48091 6.39673 7.19497 7.46702 8.57384 8.45336C9.95271 7.46702 10.6668 6.39673 10.6668 5.28447C10.6668 3.64756 9.21403 2.30446 8.57384 1.8008V1.77981Z" fill="#DDA15B"/>
</g>
<g id="Group_7">
<path id="Vector_17" d="M9.11558 3.62659C8.99247 3.62659 8.86936 3.56363 8.79549 3.47969C8.79549 3.4587 8.77087 3.43771 8.74624 3.41673C8.64775 3.26983 8.697 3.08095 8.86936 2.99701C9.04171 2.91306 9.26332 2.95504 9.36181 3.10194C9.36181 3.12292 9.41105 3.1649 9.43568 3.18588C9.53417 3.33278 9.4603 3.52166 9.31256 3.6056C9.26332 3.62659 9.18945 3.64757 9.14021 3.64757L9.11558 3.62659Z" fill="white"/>
<path id="Vector_18" d="M9.97735 5.36841C9.78037 5.36841 9.63263 5.2425 9.63263 5.07461C9.63263 5.07461 9.63263 4.73883 9.41103 4.3401C9.33716 4.1932 9.41103 4.00432 9.58339 3.94136C9.75575 3.87841 9.97735 3.94136 10.0512 4.08827C10.3221 4.59193 10.3221 5.05362 10.3221 5.07461C10.3221 5.2425 10.1743 5.36841 9.97735 5.36841Z" fill="white"/>
</g>
<g id="Group_8">
<path id="Vector_19" d="M3.47699 9.20884H3.42774C3.40312 9.20884 3.35387 9.20884 3.32925 9.20884C3.13227 9.20884 2.98453 9.04096 3.00915 8.87307C3.00915 8.70518 3.20614 8.57926 3.40312 8.60025C3.45236 8.60025 3.50161 8.60025 3.52623 8.60025C3.72321 8.62124 3.84633 8.78912 3.8217 8.95701C3.79708 9.10391 3.64934 9.20884 3.47699 9.20884Z" fill="white"/>
<path id="Vector_20" d="M5.61915 9.73348C5.61915 9.73348 5.47141 9.73348 5.39754 9.67052C5.39754 9.67052 5.07745 9.46066 4.58499 9.35573C4.38801 9.31376 4.28952 9.14587 4.31414 8.99897C4.36339 8.83108 4.56037 8.74714 4.73273 8.76812C5.37292 8.89404 5.7915 9.16686 5.81613 9.18784C5.96386 9.29277 5.98849 9.48165 5.89 9.60756C5.81613 9.69151 5.71764 9.73348 5.61915 9.73348Z" fill="white"/>
</g>
<g id="Group_9">
<path id="Vector_21" d="M3.30459 14.8961C3.30459 14.8961 3.2061 14.8961 3.15686 14.8541C3.13223 14.8541 3.10761 14.8331 3.05836 14.8121C2.88601 14.7492 2.81214 14.5603 2.88601 14.4134C2.95987 14.2665 3.18148 14.2035 3.35384 14.2665C3.40308 14.2665 3.42771 14.2875 3.47695 14.3085C3.64931 14.3924 3.72318 14.5603 3.62469 14.7072C3.55082 14.8121 3.4277 14.8751 3.30459 14.8751V14.8961Z" fill="white"/>
<path id="Vector_22" d="M5.17589 15.9454C5.17589 15.9454 4.95429 15.9034 4.88042 15.8195C4.88042 15.8195 4.63419 15.5466 4.21561 15.3158C4.04325 15.2318 3.994 15.043 4.0925 14.8961C4.19099 14.7492 4.41259 14.7072 4.58495 14.7911C5.15127 15.0849 5.44674 15.4627 5.47137 15.4627C5.56986 15.6096 5.54523 15.7775 5.37288 15.8824C5.32363 15.9244 5.24976 15.9454 5.17589 15.9454Z" fill="white"/>
</g>
<g id="Group_10">
<path id="Vector_23" d="M13.4984 9.37675C13.3261 9.37675 13.1783 9.27182 13.1537 9.12492C13.1291 8.95703 13.2522 8.81013 13.4492 8.76816C13.4984 8.76816 13.5477 8.76816 13.5723 8.76816C13.7693 8.76816 13.9416 8.87309 13.9662 9.04098C13.9662 9.20886 13.8431 9.35577 13.6461 9.37675C13.6215 9.37675 13.5723 9.37675 13.5477 9.37675H13.4984Z" fill="white"/>
<path id="Vector_24" d="M11.3562 9.9014C11.3562 9.9014 11.1346 9.85943 11.0854 9.77548C10.9623 9.64957 10.9869 9.46069 11.1592 9.35576C11.1592 9.35576 11.6024 9.06196 12.2426 8.93604C12.4396 8.89407 12.6366 8.999 12.6612 9.16689C12.7105 9.33478 12.5874 9.50267 12.3904 9.52365C11.8979 9.62858 11.5778 9.83844 11.5778 9.83844C11.504 9.88041 11.4301 9.9014 11.3562 9.9014Z" fill="white"/>
</g>
<g id="Group_11">
<path id="Vector_25" d="M12.4889 16.5959C12.3165 16.5959 12.1442 16.47 12.1442 16.3231C12.1442 16.1552 12.2673 16.0083 12.4643 16.0083C12.5135 16.0083 12.5628 16.0083 12.5874 16.0083C12.7844 16.0083 12.9567 16.1342 12.9567 16.3021C12.9567 16.47 12.809 16.6169 12.612 16.6169C12.5874 16.6169 12.5381 16.6169 12.5135 16.6169L12.4889 16.5959Z" fill="white"/>
<path id="Vector_26" d="M10.2975 16.9317C10.2975 16.9317 10.0759 16.8897 10.002 16.7848C9.90349 16.6379 9.95274 16.449 10.1005 16.3651C10.1005 16.3651 10.5683 16.1132 11.2085 16.0293C11.4055 16.0083 11.5778 16.1132 11.6025 16.2811C11.6271 16.449 11.504 16.5959 11.307 16.6169C10.8145 16.6799 10.4698 16.8478 10.4698 16.8478C10.4206 16.8687 10.3467 16.8897 10.2728 16.8897L10.2975 16.9317Z" fill="white"/>
</g>
</g>
</g>
<defs>
<clipPath id="clip0_1220_3948">
<rect width="17" height="24" fill="white"/>
</clipPath>
</defs>
</svg>
