<svg width="17" height="20" viewBox="0 0 17 20" fill="none" xmlns="http://www.w3.org/2000/svg">
<g id="Layer_3" clip-path="url(#clip0_1426_3950)">
<g id="Group">
<path id="Vector" d="M1.09819 6.49683V5.52392C1.09819 4.06882 2.36056 2.88974 3.91845 2.88974H13.0852C14.6431 2.88974 15.9055 4.06882 15.9055 5.52392V6.49683" fill="#FF4357"/>
<path id="Vector_2" d="M15.9036 6.83762C15.703 6.83762 15.5388 6.68427 15.5388 6.49684V5.52393C15.5388 4.25966 14.437 3.23053 13.0834 3.23053H3.91663C2.56305 3.23053 1.46121 4.25966 1.46121 5.52393V6.49684C1.46121 6.68427 1.29703 6.83762 1.09637 6.83762C0.895702 6.83762 0.731522 6.68427 0.731522 6.49684V5.52393C0.731522 3.88481 2.15989 2.54898 3.91663 2.54898H13.0834C14.8401 2.54898 16.2685 3.88311 16.2685 5.52393V6.49684C16.2685 6.68427 16.1043 6.83762 15.9036 6.83762Z" fill="#3E3A39"/>
</g>
<g id="Group_2">
<path id="Vector_3" d="M15.9036 9.73247V17.0267C15.9036 18.4818 14.6413 19.6609 13.0834 19.6609H3.91663C2.35874 19.6609 1.09637 18.4818 1.09637 17.0267V5.52392C1.09637 4.06882 2.35874 2.88974 3.91663 2.88974H13.0834C14.6413 2.88974 15.9036 4.06882 15.9036 5.52392V8.17173" fill="#FF5F57"/>
<path id="Vector_4" d="M13.0834 20H3.91663C2.15989 20 0.731522 18.6659 0.731522 17.025V5.52393C0.731522 3.88481 2.15989 2.54898 3.91663 2.54898H13.0834C14.8401 2.54898 16.2685 3.88311 16.2685 5.52393V8.17174C16.2685 8.35917 16.1043 8.51252 15.9036 8.51252C15.703 8.51252 15.5388 8.35917 15.5388 8.17174V5.52393C15.5388 4.25966 14.437 3.23053 13.0834 3.23053H3.91663C2.56305 3.23053 1.46121 4.25966 1.46121 5.52393V17.0267C1.46121 18.291 2.56305 19.3202 3.91663 19.3202H13.0834C14.437 19.3202 15.5388 18.291 15.5388 17.0267V9.73249C15.5388 9.54506 15.703 9.39171 15.9036 9.39171C16.1043 9.39171 16.2685 9.54506 16.2685 9.73249V17.0267C16.2685 18.6659 14.8401 20.0017 13.0834 20.0017V20Z" fill="#3E3A39"/>
</g>
<g id="Group_3">
<path id="Vector_5" d="M5.76273 4.87134C7.13091 4.87134 7.13091 5.66023 8.5009 5.66023C9.8709 5.66023 9.86908 4.87134 11.2391 4.87134C12.6091 4.87134 12.6072 5.66023 13.9772 5.66023C15.3472 5.66023 15.3472 4.90201 16.637 4.87304L15.0937 2.35132H1.90814L0.364838 4.87134C1.65639 4.9003 1.68193 5.65853 3.02456 5.65853C4.3672 5.65853 4.39274 4.86963 5.76273 4.86963V4.87134Z" fill="white"/>
<path id="Vector_6" d="M13.9754 5.99931C13.1874 5.99931 12.7769 5.76247 12.4157 5.5546C12.0965 5.37058 11.8192 5.21042 11.2391 5.21042C10.659 5.21042 10.3817 5.36888 10.0624 5.5546C9.70125 5.76247 9.2908 5.99931 8.50273 5.99931C7.71466 5.99931 7.30421 5.76247 6.94301 5.5546C6.62377 5.37058 6.34649 5.21042 5.76638 5.21042C5.18628 5.21042 4.909 5.36888 4.58976 5.5546C4.22856 5.76417 3.81811 5.99931 3.03004 5.99931C2.24197 5.99931 1.83152 5.76247 1.4685 5.5546C1.1602 5.3774 0.893866 5.22405 0.361191 5.21212C0.233495 5.20871 0.11492 5.14397 0.052896 5.03833C-0.0109521 4.93439 -0.00912786 4.8066 0.052896 4.70096L1.59255 2.18094C1.65822 2.0753 1.77862 2.00885 1.90996 2.00885H15.0918C15.2232 2.00885 15.3436 2.0736 15.4093 2.18094L16.9526 4.70267C17.0164 4.8066 17.0164 4.93439 16.9526 5.04003C16.8887 5.14397 16.772 5.21042 16.6443 5.21383C16.1098 5.22575 15.8434 5.3791 15.5351 5.5563C15.1721 5.76417 14.7617 6.00101 13.9736 6.00101L13.9754 5.99931ZM11.2372 4.52887C12.0253 4.52887 12.4358 4.76571 12.7988 4.97358C13.118 5.1576 13.3953 5.31776 13.9754 5.31776C14.5555 5.31776 14.8328 5.1593 15.1539 4.97358C15.3965 4.83386 15.661 4.68222 16.0477 4.59703L14.8802 2.6904H2.11975L0.952241 4.59703C1.33898 4.68222 1.60349 4.83557 1.84611 4.97358C2.16718 5.1576 2.44264 5.31776 3.02457 5.31776C3.6065 5.31776 3.88195 5.1593 4.20119 4.97358C4.56239 4.764 4.97284 4.52887 5.76091 4.52887C6.54898 4.52887 6.95943 4.76571 7.32063 4.97358C7.63987 5.1576 7.91715 5.31776 8.49726 5.31776C9.07736 5.31776 9.35464 5.1593 9.67388 4.97358C10.0351 4.76571 10.4455 4.52887 11.2336 4.52887H11.2372Z" fill="#3E3A39"/>
</g>
<g id="Group_4">
<path id="Vector_7" d="M15.9602 1.93217C15.9602 2.26272 15.6738 2.53193 15.3181 2.53193H1.68195C1.32805 2.53193 1.03983 2.26443 1.03983 1.93217V0.940521C1.03983 0.60997 1.32623 0.340759 1.68195 0.340759H15.3181C15.672 0.340759 15.9602 0.608267 15.9602 0.940521V1.93388V1.93217Z" fill="#9FA0A0"/>
<path id="Vector_8" d="M15.3181 2.87272H1.68195C1.12738 2.87272 0.674973 2.45187 0.674973 1.93219V0.940535C0.674973 0.420855 1.12738 0 1.68195 0H15.3181C15.8726 0 16.325 0.420855 16.325 0.940535V1.93389C16.325 2.45187 15.8745 2.87443 15.3181 2.87443V2.87272ZM1.68195 0.681547C1.52871 0.681547 1.40466 0.79741 1.40466 0.940535V1.93389C1.40466 2.07702 1.52871 2.19288 1.68195 2.19288H15.3181C15.4713 2.19288 15.5954 2.07702 15.5954 1.93389V0.940535C15.5954 0.79741 15.4713 0.681547 15.3181 0.681547H1.68195Z" fill="#3E3A39"/>
</g>
<g id="Group_5">
<path id="Vector_9" d="M3.46604 7.5788H1.09819V16.5871H15.9036V7.5788H5.47634" fill="white"/>
<path id="Vector_10" d="M15.9036 16.9279H1.09818C0.897518 16.9279 0.733337 16.7746 0.733337 16.5872V7.57881C0.733337 7.39139 0.897518 7.23804 1.09818 7.23804H3.46603C3.6667 7.23804 3.83088 7.39139 3.83088 7.57881C3.83088 7.76624 3.6667 7.91958 3.46603 7.91958H1.46303V16.2464H15.5388V7.91958H5.47634C5.27567 7.91958 5.11149 7.76624 5.11149 7.57881C5.11149 7.39139 5.27567 7.23804 5.47634 7.23804H15.9036C16.1043 7.23804 16.2685 7.39139 16.2685 7.57881V16.5872C16.2685 16.7746 16.1043 16.9279 15.9036 16.9279Z" fill="#3E3A39"/>
</g>
<path id="Vector_11" d="M11.0548 13.0704C11.0548 11.5965 9.91104 9.59106 8.50091 9.59106C7.09078 9.59106 5.94699 11.5948 5.94699 13.0704C5.94699 14.5459 7.09078 14.931 8.50091 14.931C9.91104 14.931 11.0548 14.5442 11.0548 13.0704Z" fill="#FF4357"/>
<g id="Group_6">
<path id="Vector_12" d="M7.54319 13.5969C7.74469 13.5969 7.90804 13.3871 7.90804 13.1283C7.90804 12.8695 7.74469 12.6597 7.54319 12.6597C7.34169 12.6597 7.17834 12.8695 7.17834 13.1283C7.17834 13.3871 7.34169 13.5969 7.54319 13.5969Z" fill="#3E3A39"/>
<path id="Vector_13" d="M8.50091 11.68C8.70241 11.68 8.86575 11.4702 8.86575 11.2115C8.86575 10.9527 8.70241 10.7429 8.50091 10.7429C8.29941 10.7429 8.13606 10.9527 8.13606 11.2115C8.13606 11.4702 8.29941 11.68 8.50091 11.68Z" fill="#3E3A39"/>
<path id="Vector_14" d="M9.45863 13.5969C9.66013 13.5969 9.82347 13.3871 9.82347 13.1283C9.82347 12.8695 9.66013 12.6597 9.45863 12.6597C9.25713 12.6597 9.09378 12.8695 9.09378 13.1283C9.09378 13.3871 9.25713 13.5969 9.45863 13.5969Z" fill="#3E3A39"/>
</g>
</g>
<defs>
<clipPath id="clip0_1426_3950">
<rect width="17" height="20" fill="white"/>
</clipPath>
</defs>
</svg>
