<svg width="17" height="23" viewBox="0 0 17 23" fill="none" xmlns="http://www.w3.org/2000/svg">
<g id="Layer_1" clip-path="url(#clip0_1220_2562)">
<g id="Group">
<path id="Vector" d="M8.6152 22.7273C8.56207 22.7273 8.5233 22.7267 8.49982 22.7261C8.47649 22.7267 8.43757 22.7273 8.38443 22.7273C7.83732 22.7273 5.90884 22.6561 4.06732 21.7401C2.9836 21.201 2.11505 20.4621 1.48576 19.5442C0.721936 18.43 0.316005 17.0562 0.279088 15.4608C0.21792 12.8141 1.13466 10.4161 1.94328 8.30034C2.04847 8.02503 2.14795 7.76511 2.24449 7.50626C3.05774 5.32751 3.95873 3.60854 4.92243 2.39721C6.04415 0.987551 7.24773 0.272736 8.49982 0.272736C9.15675 0.272736 9.81369 0.470457 10.4521 0.860411C11.0302 1.21363 11.5987 1.7292 12.1419 2.39309C13.1589 3.63628 14.0812 5.37065 14.8829 7.54833C14.9315 7.6805 14.981 7.81404 15.0309 7.94896C15.8529 10.1698 16.7846 12.6871 16.7205 15.4607C16.6838 17.0562 16.2777 18.43 15.5139 19.5444C14.8846 20.4623 14.016 21.201 12.9322 21.7402C11.0908 22.6561 9.16262 22.7273 8.61536 22.7273H8.6152Z" fill="#4B8400"/>
<path id="Vector_2" d="M16.7207 15.461C16.6838 17.0563 16.2777 18.4302 15.5141 19.5445C14.8846 20.4626 14.0159 21.2013 12.9322 21.7402C11.0908 22.6561 9.1628 22.7274 8.61538 22.7274C8.56225 22.7274 8.52332 22.7268 8.5 22.7262C8.47667 22.7268 8.43775 22.7274 8.38461 22.7274C7.8375 22.7274 5.90917 22.6561 4.06765 21.7402C2.98378 21.201 2.11538 20.4622 1.48594 19.5442C0.72227 18.4302 0.316185 17.056 0.279268 15.461C0.275252 15.2875 0.275406 15.1148 0.279731 14.9434C0.316648 16.5194 0.706052 17.8774 1.43713 18.979C2.04093 19.8889 2.87442 20.6212 3.91442 21.1559C5.68165 22.064 7.53213 22.1344 8.0573 22.1344C8.10828 22.1344 8.1455 22.1338 8.16805 22.1332C8.1903 22.1338 8.22783 22.1344 8.27865 22.1344H8.2788C8.80383 22.1344 10.6542 22.064 12.4212 21.156C13.4612 20.6216 14.2947 19.8892 14.8985 18.9791C15.6316 17.8746 16.0212 16.5125 16.0565 14.9308C16.118 12.1813 15.224 9.6859 14.4351 7.48429C14.3871 7.35045 14.3397 7.21812 14.2929 7.08702C13.5236 4.9284 12.6386 3.20882 11.6626 1.9766C11.4689 1.73224 11.2722 1.50799 11.0726 1.30493C11.4367 1.60449 11.7944 1.96852 12.1418 2.39308C13.1589 3.63627 14.0811 5.37064 14.8829 7.54832C14.9314 7.68049 14.9808 7.81418 15.0309 7.94895C15.8531 10.1699 16.7847 12.6869 16.7207 15.4608V15.461Z" fill="#385B00"/>
<path id="Vector_3" d="M8.61532 23C8.56419 23 8.52526 22.9994 8.49993 22.9989C8.4746 22.9994 8.43567 23 8.38455 23C7.82199 23 5.83898 22.9267 3.94309 21.9835C2.81674 21.4233 1.91297 20.6539 1.25696 19.697C0.46286 18.5388 0.0410185 17.1156 0.00286591 15.4671C-0.0595376 12.7674 0.867247 10.3431 1.68482 8.20414L1.68637 8.20017C1.79079 7.92684 1.88949 7.6686 1.98526 7.41203C2.80855 5.20661 3.7236 3.46264 4.70521 2.22875C5.88177 0.749877 7.15841 0 8.49978 0C9.20892 0 9.91467 0.211441 10.5974 0.628531C11.202 0.997906 11.794 1.5339 12.3567 2.22173C13.393 3.4884 14.3303 5.24929 15.1423 7.45517C15.1867 7.57545 15.2316 7.69711 15.277 7.81982L15.2902 7.8555C16.1206 10.099 17.0619 12.642 16.9965 15.4671C16.9585 17.1156 16.5365 18.539 15.7424 19.6973C15.0864 20.6542 14.1827 21.4234 13.0562 21.9838C11.1603 22.9268 9.17756 23 8.61501 23H8.61532ZM8.49993 22.4533H8.50657C8.52866 22.4539 8.56527 22.4546 8.61532 22.4546C9.14698 22.4546 11.0208 22.3855 12.8078 21.4966C13.849 20.9787 14.6825 20.2705 15.2851 19.3915C16.0188 18.3213 16.4088 16.9967 16.4443 15.4544C16.5072 12.7322 15.585 10.2407 14.7713 8.04255L14.758 8.00672C14.7125 7.8837 14.6675 7.76189 14.623 7.64131C13.8319 5.49214 12.9247 3.78384 11.9269 2.56428C11.4034 1.92431 10.8583 1.42902 10.3067 1.09212C9.71263 0.729145 9.10481 0.545144 8.49993 0.545144C7.33682 0.545144 6.20645 1.2249 5.14003 2.56535C4.19409 3.75427 3.30731 5.44839 2.50395 7.6003C2.40741 7.85885 2.3084 8.11801 2.20352 8.39241L2.20197 8.39637C1.40216 10.4888 0.495606 12.8606 0.555384 15.4544C0.591065 16.9966 0.981087 18.3212 1.71464 19.3913C2.3172 20.2702 3.15053 20.9784 4.19178 21.4964C5.97892 22.3855 7.85273 22.4546 8.38455 22.4546C8.43459 22.4546 8.4712 22.4539 8.49329 22.4535H8.49993V22.4533Z" fill="black"/>
</g>
<g id="Group_2">
<path id="Vector_4" d="M8.50004 1.52734C6.53989 1.52734 4.77158 4.10626 3.39515 7.9465C2.63797 10.0592 1.59333 12.5295 1.65296 15.219C1.79738 21.7309 8.50004 21.4713 8.50004 21.4713C8.50004 21.4713 15.2027 21.731 15.3471 15.219C15.4061 12.5615 14.4606 10.0803 13.7195 7.98355C12.3471 4.10092 10.4732 1.52734 8.50004 1.52734Z" fill="#FFFCBD"/>
<path id="Vector_5" d="M15.347 15.219C15.2027 21.7309 8.49988 21.4713 8.49988 21.4713C8.49988 21.4713 2.85191 21.69 1.8136 16.6891C3.37291 20.3371 7.70501 20.1586 7.70501 20.1586C7.70501 20.1586 14.0098 20.4183 14.1457 13.9063C14.201 11.2489 13.3119 8.7677 12.6146 6.67097C12.1126 5.16116 11.5393 3.84952 10.9169 2.80984C11.9667 3.93535 12.9268 5.74106 13.7195 7.98383C14.4606 10.0806 15.406 12.5618 15.3471 15.2192L15.347 15.219Z" fill="#E2DC8D"/>
<path id="Vector_6" d="M8.60814 21.7455C8.55423 21.7455 8.51747 21.7446 8.49986 21.7441C8.39854 21.7472 7.65896 21.7609 6.68445 21.5612C5.73141 21.3658 4.36533 20.9194 3.27002 19.9028C2.05748 18.7771 1.42047 17.2033 1.3766 15.2251C1.32285 12.7979 2.14012 10.5711 2.86116 8.60658C2.95661 8.34651 3.04682 8.10092 3.13471 7.85563C4.21395 4.84439 6.02087 1.25476 8.50002 1.25476C9.54728 1.25476 10.5746 1.88649 11.5533 3.13258C12.4507 4.27516 13.2674 5.87705 13.9802 7.8939C14.0243 8.0186 14.0692 8.14467 14.1145 8.27211C14.8482 10.3365 15.6798 12.6764 15.6233 15.2251C15.5794 17.2033 14.9424 18.777 13.7299 19.9028C12.6347 20.9196 11.2686 21.3658 10.3156 21.5612C9.51006 21.7263 8.86517 21.7455 8.6083 21.7455H8.60814ZM8.49986 21.1984L8.51068 21.1988C8.51778 21.1992 9.25396 21.2237 10.2194 21.0238C11.099 20.8417 12.3568 20.4299 13.354 19.5026C14.4526 18.4811 15.03 17.0379 15.0705 15.2132C15.1248 12.7634 14.3108 10.4733 13.5927 8.45261C13.5473 8.32486 13.5023 8.19848 13.4582 8.07348C12.7747 6.14002 11.965 4.54696 11.1162 3.46659C10.2475 2.36075 9.36718 1.80006 8.49956 1.80006C6.81729 1.80006 5.09687 4.01524 3.65525 8.03735C3.56675 8.28446 3.47623 8.53112 3.38031 8.7921C2.6758 10.7118 1.87722 12.8877 1.92866 15.2129C1.96913 17.0376 2.54667 18.4807 3.64506 19.5023C4.64228 20.4296 5.90024 20.8414 6.77975 21.0235C7.74515 21.2234 8.48133 21.1988 8.48874 21.1985L8.4994 21.1981L8.49986 21.1984Z" fill="black"/>
</g>
<g id="Group_3">
<path id="Vector_7" d="M8.49982 18.682C10.4039 18.682 11.9475 17.0462 11.9475 15.0283C11.9475 13.0105 10.4039 11.3747 8.49982 11.3747C6.59575 11.3747 5.05219 13.0105 5.05219 15.0283C5.05219 17.0462 6.59575 18.682 8.49982 18.682Z" fill="#72420E"/>
<path id="Vector_8" d="M11.9475 15.0283C11.9475 17.0461 10.4039 18.682 8.49983 18.682C7.14009 18.682 5.9643 17.8477 5.40314 16.636C5.99427 17.2743 6.81741 17.6704 7.72813 17.6704C9.52717 17.6704 10.9855 16.1247 10.9855 14.2183C10.9855 13.2411 10.6024 12.3587 9.9867 11.731C11.1464 12.3192 11.9475 13.5746 11.9475 15.0282V15.0283Z" fill="#512B05"/>
<path id="Vector_9" d="M8.49982 18.9547C6.44653 18.9547 4.776 17.1934 4.776 15.0283C4.776 12.8633 6.44653 11.102 8.49982 11.102C10.5531 11.102 12.2238 12.8633 12.2238 15.0283C12.2238 17.1934 10.5533 18.9547 8.49982 18.9547ZM8.49982 11.6473C6.75113 11.6473 5.32852 13.1639 5.32852 15.0282C5.32852 16.8924 6.75113 18.4091 8.49982 18.4091C10.2485 18.4091 11.6711 16.8924 11.6711 15.0282C11.6711 13.1639 10.2485 11.6473 8.49982 11.6473Z" fill="black"/>
</g>
<g id="Group_4">
<path id="Vector_10" d="M6.66065 13.2696C6.52873 13.1665 6.33504 13.2028 6.25039 13.3464C6.12651 13.5562 5.96556 13.8832 5.86624 14.2948C5.7161 14.9174 5.68412 15.8517 6.31974 16.8725C6.40377 17.0075 6.58542 17.0452 6.71625 16.9533C6.83519 16.8697 6.86701 16.7097 6.7904 16.5869C6.35944 15.897 6.22753 15.1768 6.39867 14.4427C6.48239 14.083 6.62419 13.7972 6.72815 13.6208C6.79735 13.5034 6.76877 13.3539 6.66095 13.2697L6.66065 13.2694V13.2696Z" fill="white"/>
<path id="Vector_11" d="M7.28573 12.2825C7.20572 12.3368 7.13081 12.3952 7.06593 12.4494C6.94113 12.5537 6.93464 12.7414 7.05218 12.8536L7.05249 12.8539C7.15444 12.9513 7.31446 12.9565 7.4229 12.8661C7.47959 12.819 7.54075 12.7716 7.601 12.7305C7.70603 12.6591 7.74774 12.5258 7.70171 12.4083V12.408C7.63714 12.2427 7.43325 12.1822 7.28558 12.2825H7.28573Z" fill="white"/>
</g>
</g>
<defs>
<clipPath id="clip0_1220_2562">
<rect width="17" height="23" fill="white"/>
</clipPath>
</defs>
</svg>
