<svg width="24" height="24" viewBox="0 0 24 24" fill="none" xmlns="http://www.w3.org/2000/svg">
<g clip-path="url(#clip0_4999_995)">
<circle cx="12" cy="12" r="11.4" stroke="#DB3D34" stroke-width="1.2"/>
<g clip-path="url(#clip1_4999_995)">
<path d="M9.40327 5.27732L5.75047 6.62615C5.37619 6.76481 5.13248 7.085 5.13248 7.43796V11.0861C5.13248 11.4668 5.41101 11.8021 5.8259 11.9231L9.48741 12.9845C9.71952 13.0526 9.97194 13.045 10.1953 12.9618L14.1064 11.5575C14.4864 11.4214 14.7331 11.0987 14.7331 10.7432V7.11021C14.7331 6.72699 14.4458 6.38664 14.0251 6.26814L10.3056 5.24203C10.0097 5.16135 9.6905 5.17396 9.40617 5.27985L9.40327 5.27732Z" fill="white"/>
<path d="M14.4981 6.548L10.1402 8.11364C9.94873 8.18171 9.73693 8.18927 9.53964 8.13128L5.32977 6.91356C5.43422 6.79003 5.57929 6.6917 5.74757 6.62615L9.40327 5.27733C9.68761 5.17396 10.0068 5.15884 10.3056 5.24203L14.0251 6.26815C14.2166 6.32109 14.3791 6.41942 14.501 6.548H14.4981Z" fill="white"/>
<path d="M9.84718 8.75653V13.0274C9.72822 13.0324 9.60346 13.0173 9.48741 12.9845L5.8259 11.9231C5.42551 11.8071 5.15279 11.492 5.13248 11.1289C5.13248 11.1163 5.13248 11.1012 5.13248 11.0861V7.43796C5.13248 7.24383 5.20501 7.05979 5.33267 6.91104L9.2611 8.04808C9.61217 8.15145 9.85008 8.43634 9.85008 8.75653H9.84718Z" fill="white"/>
<path d="M14.7331 7.11021V10.7432C14.7331 11.0987 14.4865 11.4214 14.1064 11.5575L10.1954 12.9618C10.0851 13.0047 9.96616 13.0249 9.8443 13.0274V8.71871C9.8443 8.41617 10.0532 8.14389 10.3752 8.02791L14.4981 6.54547C14.646 6.69926 14.7331 6.89591 14.7331 7.10769V7.11021Z" fill="#D0D9DB"/>
<path d="M14.7331 8.35062V10.7432C14.7331 11.0987 14.4865 11.4214 14.1064 11.5575L10.1954 12.9618C10.0851 13.0047 9.96616 13.0248 9.8443 13.0274V11.3811C12.4584 10.8163 14.0832 9.14478 14.7302 8.35314L14.7331 8.35062Z" fill="#BCBCB8"/>
<path d="M9.84718 11.3786V13.0249C9.72822 13.0299 9.60346 13.0148 9.48741 12.982L5.8259 11.9206C5.42551 11.8046 5.15279 11.4895 5.13248 11.1264C6.95743 11.6634 8.52706 11.6634 9.84718 11.376V11.3786Z" fill="#D5D5D0"/>
<path d="M9.81526 8.35819C9.69921 8.35819 9.58606 8.34306 9.4758 8.31029L5.26014 7.09257C5.19341 7.0724 5.14118 7.02702 5.12087 6.96903C5.10056 6.91104 5.11217 6.84801 5.15279 6.80011C5.28045 6.65136 5.45453 6.53035 5.65762 6.45219L9.31913 5.10337C9.65279 4.98236 10.0242 4.96471 10.3694 5.06051L14.089 6.08662C14.3211 6.15217 14.5184 6.26815 14.6663 6.42698C14.7098 6.47236 14.7244 6.53539 14.7069 6.59338C14.6895 6.65136 14.6431 6.69927 14.5793 6.72196L10.2215 8.2876C10.0909 8.3355 9.94873 8.35819 9.80946 8.35819H9.81526ZM5.75337 6.83541L9.61217 7.95228C9.75724 7.99514 9.91681 7.9901 10.059 7.93968L14.0832 6.49505C14.0425 6.4774 14.0019 6.46228 13.9584 6.44967L10.2389 5.42104C9.99225 5.35297 9.72532 5.36305 9.48741 5.45129L5.8317 6.80011C5.80269 6.8102 5.77658 6.8228 5.75047 6.83541H5.75337Z" fill="#222020"/>
<path d="M9.79787 13.2165C9.67021 13.2165 9.53965 13.1988 9.41779 13.161L5.75628 12.1021C5.26885 11.9609 4.9381 11.5827 4.91489 11.1365C4.91489 11.134 4.91489 11.1088 4.91489 11.0836V7.43796C4.91489 7.20601 5.00193 6.9791 5.1586 6.79758C5.21373 6.73203 5.31237 6.70682 5.40231 6.73203L9.33075 7.86907C9.77175 7.99765 10.0677 8.35566 10.0677 8.75652V13.0274C10.0677 13.1282 9.97775 13.2114 9.8617 13.2165C9.84139 13.2165 9.82108 13.2165 9.80077 13.2165H9.79787ZM5.42552 7.13794C5.3733 7.23122 5.34719 7.33207 5.34719 7.43796V11.0836C5.34719 11.0836 5.34719 11.1113 5.34719 11.1188C5.3617 11.4063 5.5764 11.6508 5.89264 11.7416L9.55415 12.803C9.57736 12.8105 9.60057 12.8156 9.62669 12.8206V8.75652C9.62669 8.51701 9.4497 8.30271 9.18568 8.22708L5.42262 7.13794H5.42552Z" fill="#222020"/>
<path d="M9.84718 13.2165C9.78915 13.2165 9.73693 13.1963 9.69341 13.1635C9.65279 13.1282 9.62958 13.0803 9.62958 13.0274V8.71872C9.62958 8.33803 9.8907 7.99767 10.2969 7.85396L14.4168 6.37152C14.5039 6.34127 14.6054 6.36144 14.6663 6.42447C14.8491 6.61355 14.9507 6.85811 14.9507 7.1077V10.7407C14.9507 11.1743 14.6518 11.5651 14.1876 11.7315L10.2766 13.1358C10.1431 13.1862 9.99805 13.2114 9.84718 13.2139H9.84428L9.84718 13.2165ZM14.4197 6.77995L10.4594 8.20441C10.2186 8.29012 10.0619 8.49182 10.0619 8.71872V12.8055C10.0764 12.8005 10.0938 12.7954 10.1083 12.7904L14.0222 11.3861C14.3211 11.2777 14.5155 11.0281 14.5155 10.7457V7.11022C14.5155 6.99425 14.4806 6.8808 14.4197 6.77995Z" fill="#222020"/>
<path d="M10.4246 6.1194L11.1267 6.31101C11.2224 6.33622 11.324 6.29084 11.3559 6.20764C11.3849 6.12444 11.3327 6.0362 11.2369 6.00847L10.5348 5.81686C10.4391 5.79165 10.3375 5.83703 10.3056 5.92023C10.2766 6.00342 10.3288 6.09166 10.4246 6.1194Z" fill="white"/>
<path d="M9.8588 5.96309L9.94294 5.98578C10.0387 6.01099 10.1402 5.96561 10.1721 5.88241C10.2012 5.79921 10.1489 5.71097 10.0532 5.68324L9.96905 5.66055C9.87331 5.63534 9.77176 5.68072 9.73984 5.76391C9.71083 5.84711 9.76305 5.93535 9.8588 5.96309Z" fill="white"/>
<path d="M6.50772 8.12373L7.20985 8.31534C7.3056 8.34055 7.40714 8.29517 7.43906 8.21197C7.46807 8.12877 7.41585 8.04053 7.3201 8.0128L6.61798 7.82119C6.52223 7.79598 6.42068 7.84136 6.38877 7.92456C6.35976 8.00776 6.41198 8.096 6.50772 8.12373Z" fill="#ECECE7"/>
<path d="M5.94486 7.96742L6.029 7.99011C6.12474 8.01532 6.22629 7.96994 6.2582 7.88674C6.28722 7.80354 6.23499 7.7153 6.13925 7.68757L6.05511 7.66488C5.95936 7.63967 5.85782 7.68505 5.8259 7.76825C5.79689 7.85145 5.84911 7.93969 5.94486 7.96742Z" fill="#ECECE7"/>
<path d="M13.2186 7.58167L12.5367 7.82118C12.4439 7.85396 12.4004 7.94724 12.4381 8.02792C12.4758 8.10859 12.5832 8.14641 12.676 8.11364L13.3578 7.87413C13.4507 7.84135 13.4942 7.74807 13.4565 7.66739C13.4188 7.58671 13.3114 7.5489 13.2186 7.58167Z" fill="#ECECE7"/>
<path d="M13.7669 7.39005L13.6857 7.42031C13.5928 7.45308 13.5493 7.54636 13.587 7.62704C13.6247 7.70772 13.7321 7.74553 13.8249 7.71276L13.9062 7.68251C13.999 7.64973 14.0425 7.55645 14.0048 7.47577C13.9671 7.39509 13.8597 7.35728 13.7669 7.39005Z" fill="#ECECE7"/>
<path d="M15.4884 8.27722L11.8327 9.62352C11.4584 9.76218 11.2147 10.0824 11.2147 10.4353V14.0835C11.2147 14.4641 11.4932 14.7995 11.9081 14.9205L15.5696 15.9819C15.8017 16.05 16.0541 16.0424 16.2776 15.9592L20.1886 14.5549C20.5687 14.4188 20.8153 14.0961 20.8153 13.7406V10.1076C20.8153 9.72437 20.528 9.38401 20.1073 9.26552L16.3849 8.2394C16.089 8.15873 15.7698 8.17133 15.4855 8.27722H15.4884Z" fill="white"/>
<path d="M20.5832 9.54537L16.2253 11.111C16.0338 11.1791 15.822 11.1866 15.6248 11.1287L11.412 9.90842C11.5164 9.78488 11.6615 9.68656 11.8298 9.62101L15.4855 8.27471C15.7698 8.17134 16.089 8.15621 16.3878 8.23941L20.1073 9.26552C20.2988 9.31847 20.4613 9.41679 20.5832 9.54537Z" fill="#FBFBFB"/>
<path d="M15.9294 11.7564V16.0273C15.8104 16.0323 15.6857 16.0172 15.5696 15.9844L11.9081 14.923C11.5077 14.807 11.235 14.4919 11.2147 14.1288C11.2147 14.1162 11.2147 14.1011 11.2147 14.086V10.4404C11.2147 10.2462 11.2872 10.0622 11.4149 9.91345L15.3433 11.0505C15.6944 11.1539 15.9323 11.4388 15.9323 11.7589L15.9294 11.7564Z" fill="white"/>
<path d="M20.8182 10.1101V13.7431C20.8182 14.0986 20.5716 14.4213 20.1915 14.5574L16.2805 15.9617C16.1702 16.0046 16.0513 16.0248 15.9294 16.0273V11.7186C15.9294 11.4161 16.1383 11.1438 16.4604 11.0278L20.5832 9.54538C20.7312 9.69917 20.8182 9.89582 20.8182 10.1076V10.1101Z" fill="#D0D9DB"/>
<path d="M20.8182 11.3505V13.7431C20.8182 14.0986 20.5716 14.4213 20.1915 14.5574L16.2805 15.9617C16.1702 16.0046 16.0513 16.0248 15.9294 16.0273V14.381C18.5435 13.8162 20.1683 12.1447 20.8153 11.353L20.8182 11.3505Z" fill="#C3CACB"/>
<path d="M15.9294 14.3784V16.0247C15.8104 16.0298 15.6857 16.0147 15.5696 15.9819L11.9081 14.9205C11.5077 14.8045 11.235 14.4894 11.2147 14.1263C13.0396 14.6633 14.6093 14.6633 15.9294 14.3759V14.3784Z" fill="#C3CACB"/>
<path d="M15.8975 11.3581C15.7814 11.3581 15.6683 11.343 15.558 11.3102L11.3453 10.0899C11.2785 10.0698 11.2263 10.0244 11.206 9.96892C11.1857 9.91345 11.1973 9.8479 11.2379 9.8C11.3656 9.65125 11.5396 9.53024 11.7427 9.45208L15.4013 8.10326C15.735 7.98225 16.1064 7.96712 16.4516 8.0604L20.1712 9.08651C20.4033 9.15206 20.6035 9.26804 20.7485 9.42687C20.7921 9.47225 20.8066 9.53528 20.7892 9.59327C20.7718 9.65125 20.7253 9.69916 20.6615 9.72185L16.3037 11.2875C16.1731 11.3354 16.0309 11.3581 15.8917 11.3581H15.8975ZM11.8356 9.8353L15.6944 10.9522C15.8394 10.995 15.999 10.99 16.1412 10.9396L20.1654 9.49494C20.1247 9.47729 20.0841 9.46217 20.0406 9.44956L16.3211 8.42345C16.0745 8.35538 15.8075 8.36546 15.5696 8.4537L11.9139 9.8C11.8849 9.81009 11.8588 9.82269 11.8327 9.8353H11.8356Z" fill="#222020"/>
<path d="M15.8801 16.2164C15.7524 16.2164 15.6248 16.1987 15.5029 16.1609L11.8414 15.102C11.354 14.9608 11.0232 14.5826 11 14.1364C11 14.1339 11 14.1087 11 14.0835V10.4379C11 10.2059 11.087 9.97901 11.2437 9.79749C11.2988 9.73194 11.3975 9.70673 11.4874 9.73194L15.4159 10.869C15.8569 10.9976 16.1528 11.3556 16.1528 11.7564V16.0273C16.1528 16.1281 16.0629 16.2113 15.9468 16.2164C15.9265 16.2164 15.9062 16.2164 15.8859 16.2164H15.8801ZM11.5077 10.1404C11.4555 10.2336 11.4294 10.3345 11.4294 10.4404V14.086C11.4294 14.086 11.4294 14.1137 11.4294 14.1213C11.4439 14.4087 11.6586 14.6532 11.9749 14.744L15.6364 15.8054C15.6596 15.813 15.6857 15.818 15.7089 15.8231V11.7564C15.7089 11.5169 15.5319 11.3026 15.2679 11.227L11.5048 10.1378L11.5077 10.1404Z" fill="#222020"/>
<path d="M15.9294 16.2138C15.8714 16.2138 15.8191 16.1937 15.7756 16.1609C15.735 16.1256 15.7118 16.0777 15.7118 16.0247V11.7186C15.7118 11.3379 15.9729 10.9975 16.3791 10.8538L20.499 9.3714C20.5861 9.34115 20.6876 9.36132 20.7485 9.42434C20.9313 9.61343 21.0329 9.85798 21.0329 10.1076V13.7406C21.0329 14.1742 20.734 14.565 20.2698 14.7314L16.3588 16.1357C16.2253 16.1861 16.0803 16.2113 15.9294 16.2138ZM20.5019 9.77731L16.5416 11.2018C16.3008 11.2875 16.1441 11.4892 16.1441 11.7161V15.8004C16.1586 15.7953 16.176 15.7903 16.1905 15.7852L20.1044 14.3809C20.4033 14.2725 20.5977 14.0229 20.5977 13.7406V10.1076C20.5977 9.99161 20.5629 9.87815 20.5019 9.77731Z" fill="#222020"/>
<path d="M16.5068 9.11928L17.2089 9.31088C17.3046 9.3361 17.4062 9.29071 17.4381 9.20752C17.4671 9.12432 17.4149 9.03608 17.3192 9.00834L16.617 8.81674C16.5213 8.79152 16.4197 8.83691 16.3878 8.9201C16.3588 9.0033 16.411 9.09154 16.5068 9.11928Z" fill="white"/>
<path d="M15.941 8.96296L16.0252 8.98565C16.1209 9.01087 16.2224 8.96549 16.2544 8.88229C16.2834 8.79909 16.2311 8.71085 16.1354 8.68312L16.0513 8.66043C15.9555 8.63521 15.854 8.68059 15.8221 8.76379C15.793 8.84699 15.8453 8.93523 15.941 8.96296Z" fill="white"/>
<path d="M12.5928 11.1211L13.295 11.3127C13.3907 11.3379 13.4923 11.2925 13.5242 11.2093C13.5532 11.1261 13.501 11.0379 13.4052 11.0101L12.7031 10.8185C12.6073 10.7933 12.5058 10.8387 12.4739 10.9219C12.4449 11.0051 12.4971 11.0933 12.5928 11.1211Z" fill="#ECECE7"/>
<path d="M12.0271 10.9673L12.1112 10.99C12.207 11.0152 12.3085 10.9698 12.3404 10.8866C12.3694 10.8034 12.3172 10.7152 12.2215 10.6874L12.1373 10.6648C12.0416 10.6395 11.94 10.6849 11.9081 10.7681C11.8791 10.8513 11.9313 10.9396 12.0271 10.9673Z" fill="#ECECE7"/>
<path d="M19.3037 10.5815L18.6219 10.8211C18.529 10.8538 18.4855 10.9471 18.5232 11.0278C18.5609 11.1085 18.6683 11.1463 18.7611 11.1135L19.4429 10.874C19.5358 10.8412 19.5793 10.7479 19.5416 10.6673C19.5039 10.5866 19.3965 10.5488 19.3037 10.5815Z" fill="#ECECE7"/>
<path d="M19.852 10.3874L19.7708 10.4177C19.6779 10.4505 19.6344 10.5437 19.6721 10.6244C19.7099 10.7051 19.8172 10.7429 19.91 10.7101L19.9913 10.6799C20.0841 10.6471 20.1276 10.5538 20.0899 10.4731C20.0522 10.3925 19.9449 10.3547 19.852 10.3874Z" fill="#ECECE7"/>
<path d="M7.49128 11.0609L3.83848 12.4072C3.4642 12.5458 3.22049 12.866 3.22049 13.219V16.8671C3.22049 17.2478 3.49902 17.5831 3.91391 17.7041L7.57542 18.7655C7.80753 18.8336 8.05995 18.826 8.28335 18.7428L12.1944 17.3385C12.5745 17.2024 12.8211 16.8797 12.8211 16.5242V12.8912C12.8211 12.508 12.5338 12.1676 12.1131 12.0491L8.3907 11.023C8.09476 10.9424 7.77562 10.955 7.49128 11.0609Z" fill="white"/>
<path d="M12.589 12.329L8.23113 13.8946C8.03964 13.9627 7.82784 13.9703 7.63055 13.9123L3.41779 12.6946C3.52223 12.571 3.6673 12.4727 3.83558 12.4071L7.49129 11.0608C7.77562 10.9575 8.09477 10.9423 8.39361 11.0255L12.1131 12.0517C12.3046 12.1046 12.4671 12.2029 12.589 12.3315V12.329Z" fill="#FBFBFB"/>
<path d="M7.93519 14.5401V18.8109C7.81623 18.8159 7.69148 18.8008 7.57542 18.768L3.91391 17.7066C3.51353 17.5907 3.2408 17.2755 3.22049 16.9125C3.22049 16.8999 3.22049 16.8847 3.22049 16.8696V13.224C3.22049 13.0299 3.29302 12.8458 3.42068 12.6971L7.34912 13.8341C7.70018 13.9375 7.93809 14.2224 7.93809 14.5426L7.93519 14.5401Z" fill="white"/>
<path d="M12.8211 12.8912V16.5242C12.8211 16.8797 12.5745 17.2024 12.1944 17.3385L8.28338 18.7428C8.17312 18.7857 8.05417 18.8059 7.93231 18.8084V14.4997C7.93231 14.1972 8.14121 13.9249 8.46326 13.8089L12.5861 12.3265C12.7341 12.4803 12.8211 12.6769 12.8211 12.8887V12.8912Z" fill="#D0D9DB"/>
<path d="M12.8211 14.1316V16.5242C12.8211 16.8797 12.5745 17.2024 12.1944 17.3385L8.28338 18.7428C8.17312 18.7857 8.05417 18.8059 7.93231 18.8084V17.1621C10.5464 16.5973 12.1712 14.9258 12.8182 14.1341L12.8211 14.1316Z" fill="#C3CACB"/>
<path d="M7.93519 17.1621V18.8084C7.81623 18.8134 7.69148 18.7983 7.57542 18.7655L3.91391 17.7041C3.51353 17.5881 3.2408 17.273 3.22049 16.9099C5.04544 17.4469 6.61507 17.4469 7.93519 17.1595V17.1621Z" fill="#C3CACB"/>
<path d="M7.90327 14.1417C7.78722 14.1417 7.67407 14.1266 7.56382 14.0938L3.35105 12.8736C3.28432 12.8534 3.23209 12.808 3.21178 12.75C3.19148 12.692 3.20308 12.629 3.2437 12.5811C3.37136 12.4324 3.54544 12.3113 3.74854 12.2332L7.40714 10.8844C7.7408 10.7608 8.11217 10.7482 8.45743 10.8415L12.177 11.8676C12.4091 11.9332 12.6093 12.0491 12.7543 12.208C12.7979 12.2534 12.8124 12.3164 12.795 12.3744C12.7775 12.4324 12.7311 12.4803 12.6673 12.503L8.30946 14.0686C8.1789 14.1165 8.03674 14.1392 7.89747 14.1392L7.90327 14.1417ZM3.84138 12.6164L7.70018 13.7333C7.84525 13.7761 8.00482 13.7711 8.14699 13.7207L12.1712 12.2761C12.1305 12.2584 12.0899 12.2433 12.0464 12.2307L8.32687 11.2046C8.08026 11.1365 7.81333 11.1466 7.57542 11.2348L3.92262 12.5811C3.8936 12.5912 3.86749 12.6038 3.84138 12.6164Z" fill="#222020"/>
<path d="M7.88588 19C7.75822 19 7.62766 18.9823 7.5058 18.9445L3.84429 17.8856C3.35686 17.7445 3.02611 17.3663 3.0029 16.92C3.0029 16.915 3.0029 16.8923 3.0029 16.8671V13.2215C3.0029 12.9895 3.08994 12.7626 3.24951 12.5811C3.30464 12.5156 3.40329 12.4904 3.49033 12.5156L7.41876 13.6526C7.85977 13.7812 8.1557 14.1367 8.1557 14.5401V18.8109C8.1557 18.9118 8.06576 18.9949 7.94971 19C7.9294 19 7.90909 19 7.88878 19H7.88588ZM3.51354 12.9215C3.46131 13.0148 3.4352 13.1156 3.4352 13.2215V16.8671C3.4352 16.8671 3.4352 16.8973 3.4352 16.9024C3.44971 17.1898 3.66441 17.4344 3.98066 17.5251L7.64216 18.5865C7.66538 18.5941 7.69149 18.5991 7.7147 18.6042V14.5401C7.7147 14.3006 7.53772 14.0863 7.27369 14.0106L3.51354 12.9215Z" fill="#222020"/>
<path d="M7.93519 18.9975C7.87716 18.9975 7.82494 18.9773 7.78142 18.9445C7.7408 18.9092 7.71759 18.8613 7.71759 18.8084V14.4997C7.71759 14.119 7.97871 13.7787 8.3849 13.635L12.5048 12.1525C12.5948 12.1223 12.6934 12.1424 12.7543 12.2055C12.9371 12.3946 13.0387 12.6391 13.0387 12.8887V16.5217C13.0387 16.9553 12.7398 17.3461 12.2756 17.5125L8.36459 18.9168C8.23113 18.9672 8.08606 18.9924 7.93519 18.995H7.93229L7.93519 18.9975ZM12.5077 12.561L8.54738 13.9854C8.30657 14.0711 8.14989 14.2728 8.14989 14.4997V18.584C8.1644 18.579 8.18181 18.5739 8.19631 18.5689L12.1102 17.1646C12.4091 17.0562 12.6035 16.8066 12.6035 16.5242V12.8912C12.6035 12.7753 12.5687 12.6618 12.5077 12.561Z" fill="#222020"/>
<path d="M8.51258 11.9004L9.2147 12.092C9.31045 12.1172 9.412 12.0718 9.44391 11.9886C9.47292 11.9054 9.4207 11.8172 9.32496 11.7894L8.62283 11.5978C8.52708 11.5726 8.42554 11.618 8.39362 11.7012C8.36461 11.7844 8.41683 11.8726 8.51258 11.9004Z" fill="white"/>
<path d="M7.94681 11.7466L8.03095 11.7693C8.1267 11.7945 8.22824 11.7491 8.26016 11.6659C8.28917 11.5827 8.23695 11.4945 8.1412 11.4667L8.05706 11.4441C7.96132 11.4188 7.85977 11.4642 7.82786 11.5474C7.79884 11.6306 7.85107 11.7189 7.94681 11.7466Z" fill="white"/>
<path d="M4.59864 13.9047L5.30076 14.0963C5.39651 14.1215 5.49806 14.0761 5.52997 13.9929C5.55898 13.9097 5.50676 13.8215 5.41102 13.7938L4.70889 13.6022C4.61314 13.577 4.5116 13.6223 4.47968 13.7055C4.45067 13.7887 4.50289 13.877 4.59864 13.9047Z" fill="#ECECE7"/>
<path d="M4.03287 13.7484L4.11701 13.7711C4.21275 13.7963 4.3143 13.7509 4.34622 13.6677C4.37523 13.5845 4.32301 13.4963 4.22726 13.4685L4.14312 13.4459C4.04738 13.4206 3.94583 13.466 3.91392 13.5492C3.8849 13.6324 3.93713 13.7207 4.03287 13.7484Z" fill="#ECECE7"/>
<path d="M11.3066 13.3652L10.6248 13.6047C10.5319 13.6375 10.4884 13.7307 10.5261 13.8114C10.5638 13.8921 10.6712 13.9299 10.764 13.8971L11.4458 13.6576C11.5387 13.6249 11.5822 13.5316 11.5445 13.4509C11.5068 13.3702 11.3994 13.3324 11.3066 13.3652Z" fill="#ECECE7"/>
<path d="M11.8578 13.1711L11.7766 13.2013C11.6837 13.2341 11.6402 13.3274 11.6779 13.408C11.7156 13.4887 11.823 13.5265 11.9158 13.4938L11.9971 13.4635C12.0899 13.4307 12.1334 13.3375 12.0957 13.2568C12.058 13.1761 11.9507 13.1383 11.8578 13.1711Z" fill="#ECECE7"/>
</g>
<path d="M21.1997 18L3 5.82639" stroke="#DB3D34" stroke-width="1.2"/>
</g>
<defs>
<clipPath id="clip0_4999_995">
<rect width="24" height="24" fill="white"/>
</clipPath>
<clipPath id="clip1_4999_995">
<rect width="18" height="14" fill="white" transform="translate(3 5)"/>
</clipPath>
</defs>
</svg>
