<svg width="22" height="22" viewBox="0 0 22 22" fill="none" xmlns="http://www.w3.org/2000/svg">
<g id="Group">
<g id="Group_2">
<path id="Vector" d="M21.7442 11.1493C21.7442 10.3925 21.4457 9.7103 20.9448 9.20932C21.2112 8.55911 21.2219 7.81297 20.9448 7.10947C20.657 6.40596 20.1133 5.89432 19.4631 5.61718C19.4631 4.91368 19.186 4.21017 18.653 3.67722C18.1201 3.14426 17.4166 2.86712 16.7131 2.86712C16.4359 2.21691 15.9243 1.68395 15.2208 1.38549C14.5173 1.0977 13.7711 1.11902 13.1209 1.38549C12.62 0.895173 11.9378 0.58606 11.181 0.58606C10.4242 0.58606 9.74199 0.884514 9.241 1.38549C8.5908 1.11902 7.84465 1.10836 7.14115 1.38549C6.43765 1.67329 5.92601 2.21691 5.64887 2.86712C4.94536 2.86712 4.25252 3.14426 3.7089 3.67722C3.17594 4.21017 2.8988 4.91368 2.8988 5.61718C2.2486 5.89432 1.71564 6.40596 1.41718 7.10947C1.12938 7.81297 1.14004 8.55911 1.41718 9.20932C0.92686 9.7103 0.617744 10.3925 0.617744 11.1493C0.617744 11.9061 0.916201 12.5883 1.41718 13.0893C1.1507 13.7395 1.14004 14.4856 1.41718 15.1891C1.70498 15.8926 2.2486 16.4043 2.8988 16.6814C2.8988 17.3849 3.17594 18.0884 3.7089 18.6214C4.24186 19.1543 4.94536 19.4315 5.64887 19.4315C5.92601 20.0817 6.43765 20.6146 7.14115 20.9131C7.84465 21.2115 8.5908 21.1902 9.241 20.9131C9.74199 21.4034 10.4242 21.7125 11.181 21.7125C11.9378 21.7125 12.62 21.4141 13.1209 20.9131C13.7711 21.1796 14.5173 21.1902 15.2208 20.9131C15.9243 20.6253 16.4359 20.0817 16.7131 19.4315C17.4166 19.4315 18.1094 19.1543 18.653 18.6214C19.186 18.0884 19.4631 17.3849 19.4631 16.6814C20.1133 16.4043 20.6463 15.8926 20.9448 15.1891C21.2326 14.4856 21.2112 13.7395 20.9448 13.0893C21.4351 12.5883 21.7442 11.9061 21.7442 11.1493Z" fill="#FFB843"/>
<path id="Vector_2" d="M11.1703 21.9897C10.4242 21.9897 9.72065 21.7232 9.16637 21.2329C8.46287 21.4674 7.70607 21.4461 7.02388 21.1689C6.3417 20.8812 5.78742 20.3695 5.45699 19.7086C4.7215 19.666 4.02866 19.3462 3.50636 18.8239C2.98406 18.3016 2.67494 17.6088 2.62165 16.8733C1.96078 16.5429 1.43848 15.9993 1.16134 15.3064C0.873546 14.6242 0.852228 13.8674 1.08673 13.1639C0.596408 12.6096 0.329929 11.9061 0.329929 11.16C0.329929 10.4139 0.596408 9.71035 1.08673 9.15607C0.852228 8.45257 0.873546 7.70643 1.16134 7.01359C1.44914 6.3314 1.96078 5.77712 2.62165 5.44669C2.66429 4.71121 2.98406 4.01836 3.50636 3.49606C4.02866 2.97376 4.7215 2.66465 5.45699 2.61135C5.78742 1.95048 6.33104 1.42818 7.02388 1.15105C7.70607 0.863248 8.46287 0.84193 9.16637 1.08709C9.72065 0.59677 10.4242 0.330292 11.1703 0.330292C11.9164 0.330292 12.6199 0.59677 13.1742 1.08709C13.8777 0.85259 14.6239 0.873907 15.3167 1.15105C15.9989 1.43884 16.5532 1.95048 16.8836 2.61135C17.6191 2.65399 18.3119 2.97376 18.8342 3.49606C19.3565 4.01836 19.6656 4.71121 19.7189 5.44669C20.3798 5.77712 20.9021 6.32074 21.1792 7.01359C21.467 7.69577 21.4884 8.45257 21.2432 9.15607C21.7335 9.71035 22 10.4139 22 11.16C22 11.9061 21.7335 12.6096 21.2432 13.1639C21.4777 13.8674 21.4564 14.6136 21.1686 15.3064C20.8808 15.9886 20.3691 16.5429 19.7083 16.8733C19.6656 17.6088 19.3459 18.3016 18.8236 18.8239C18.3013 19.3462 17.6084 19.6553 16.8729 19.7086C16.5425 20.3695 15.9989 20.8918 15.306 21.1689C14.6239 21.4567 13.8671 21.4781 13.1636 21.2329C12.6093 21.7232 11.9058 21.9897 11.1596 21.9897H11.1703ZM9.23033 20.6786C9.29428 20.6786 9.35824 20.6999 9.41153 20.7532C9.8912 21.2222 10.5094 21.4781 11.1703 21.4781C11.8312 21.4781 12.4601 21.2222 12.9291 20.7532C13.0037 20.6786 13.1103 20.6573 13.2062 20.6999C13.8244 20.9451 14.496 20.9451 15.1142 20.6999C15.7218 20.4441 16.2014 19.9751 16.4679 19.3569C16.5105 19.261 16.6065 19.197 16.7024 19.197C17.3633 19.197 17.9922 18.9305 18.4612 18.4615C18.9302 17.9925 19.186 17.3743 19.1966 16.7028C19.1966 16.5962 19.2606 16.5109 19.3565 16.4683C19.9641 16.2124 20.4438 15.7221 20.6996 15.1145C20.9554 14.507 20.9554 13.8248 20.6996 13.2066C20.6569 13.1106 20.6783 13.004 20.7529 12.9294C21.2219 12.4498 21.4777 11.8315 21.4777 11.1707C21.4777 10.5098 21.2219 9.8809 20.7529 9.4119C20.6783 9.33728 20.6569 9.23069 20.6996 9.13476C20.9447 8.51652 20.9447 7.845 20.6996 7.22677C20.4438 6.61919 19.9748 6.13953 19.3565 5.87306C19.2606 5.83042 19.1966 5.73449 19.1966 5.63855C19.1966 4.97768 18.9302 4.34879 18.4612 3.87979C17.9922 3.41079 17.3739 3.15497 16.7024 3.14431C16.5958 3.14431 16.5105 3.08035 16.4679 2.98442C16.2121 2.37685 15.7218 1.89719 15.1142 1.64137C14.5066 1.38555 13.8244 1.38555 13.2062 1.64137C13.1103 1.684 13.0037 1.66269 12.9291 1.58807C12.4494 1.11907 11.8312 0.86325 11.1703 0.86325C10.5094 0.86325 9.88054 1.11907 9.41153 1.58807C9.33692 1.66269 9.23033 1.684 9.1344 1.64137C8.51616 1.39621 7.84464 1.39621 7.22641 1.64137C6.61883 1.89719 6.13917 2.36619 5.87269 2.98442C5.83006 3.08035 5.73412 3.14431 5.63819 3.14431C4.97732 3.14431 4.34843 3.41079 3.87943 3.87979C3.41043 4.34879 3.15461 4.96703 3.14395 5.63855C3.14395 5.74514 3.07999 5.83042 2.98406 5.87306C2.37649 6.12888 1.89683 6.61919 1.64101 7.22677C1.38519 7.83434 1.38519 8.51652 1.64101 9.13476C1.68364 9.23069 1.66232 9.33728 1.58771 9.4119C1.11871 9.89156 0.862887 10.5098 0.862887 11.1707C0.862887 11.8315 1.11871 12.4604 1.58771 12.9294C1.66232 13.004 1.68364 13.1106 1.64101 13.2066C1.39585 13.8248 1.39585 14.4963 1.64101 15.1145C1.89683 15.7221 2.36583 16.2018 2.98406 16.4683C3.07999 16.5109 3.14395 16.6068 3.14395 16.7028C3.14395 17.3636 3.41043 17.9925 3.87943 18.4615C4.34843 18.9305 4.96666 19.1863 5.63819 19.197C5.74478 19.197 5.83006 19.261 5.87269 19.3569C6.12851 19.9645 6.61883 20.4441 7.22641 20.6999C7.83398 20.9558 8.51616 20.9558 9.1344 20.6999C9.16637 20.6893 9.19835 20.6786 9.23033 20.6786Z" fill="#000202"/>
</g>
<g id="Group_3">
<path id="Vector_3" d="M12.7159 4.61529C14.5492 4.61529 16.2441 5.23352 17.6084 6.2568C16.1375 4.31683 13.8031 3.05905 11.1703 3.05905C6.70411 3.05905 3.09065 6.67251 3.09065 11.1387C3.09065 13.7608 4.34843 16.0952 6.2884 17.5768C5.25446 16.2231 4.63623 14.5283 4.63623 12.6843C4.63623 8.21809 8.24969 4.60463 12.7159 4.60463V4.61529Z" fill="#FFB843"/>
<path id="Vector_4" d="M19.25 11.1494C19.25 9.31598 18.6318 7.62118 17.6085 6.2568C16.2548 5.22286 14.56 4.6153 12.7159 4.6153C8.24973 4.6153 4.63628 8.22875 4.63628 12.6949C4.63628 14.5283 5.25451 16.2231 6.28845 17.5875C7.64216 18.6214 9.33697 19.229 11.1703 19.229C15.6365 19.229 19.25 15.6155 19.25 11.1494Z" fill="#FFE954"/>
</g>
<path id="Vector_5" d="M11.1702 19.5595C9.32621 19.5595 7.58877 18.9732 6.12847 17.8646C4.02861 16.2764 2.83479 13.8461 2.83479 11.224C2.83479 6.62989 6.57615 2.87787 11.1809 2.87787C13.8031 2.87787 16.2227 4.08235 17.8216 6.17155C18.9301 7.63185 19.5164 9.37996 19.5164 11.2133C19.5164 12.226 19.3352 13.2173 18.9834 14.1659C18.9301 14.3045 18.7809 14.3684 18.6423 14.3151C18.5037 14.2619 18.4398 14.1126 18.4931 13.9741C18.8235 13.0893 18.9941 12.162 18.9941 11.2133C18.9941 9.48655 18.4398 7.8557 17.4059 6.48067C15.9136 4.51938 13.6432 3.38951 11.1809 3.38951C6.86395 3.38951 3.35708 6.89637 3.35708 11.2133C3.35708 13.6756 4.48696 15.946 6.44824 17.4383C7.82327 18.4829 9.45412 19.0265 11.1809 19.0265C13.1955 19.0265 15.1141 18.259 16.5744 16.8733C16.8729 16.5855 17.1607 16.2764 17.4059 15.946C17.4911 15.8287 17.6617 15.8074 17.7683 15.8927C17.8855 15.978 17.9068 16.1379 17.8216 16.2551C17.5551 16.6069 17.2566 16.9373 16.9369 17.2464C15.3806 18.728 13.3341 19.5488 11.1809 19.5488L11.1702 19.5595Z" fill="#000202"/>
<path id="Vector_6" d="M14.3468 7.75974C14.3468 7.75974 15.0503 8.92159 14.4747 9.49719C13.8991 10.0728 14.4747 10.4672 15.2528 11.1707C16.0309 11.8742 15.7005 13.7502 16.4786 13.2919C17.2567 12.8335 16.4786 11.5544 16.7984 10.4565C17.1182 9.35862 16.9263 8.46325 15.9563 7.81304C14.9863 7.16284 13.8991 5.88373 13.3768 6.39537C12.8652 6.90701 13.4408 7.09888 14.3468 7.74909V7.75974Z" fill="#FFB843"/>
<path id="Vector_7" d="M11.8312 14.4537C11.8312 14.4537 13.121 15.0293 13.6326 14.5816C14.1443 14.1339 15.0503 13.6116 15.2421 14.3897C15.434 15.1678 14.0163 15.2957 13.5687 16.0632C13.121 16.8413 11.8312 17.8006 10.9891 17.225C10.1471 16.6495 10.4135 14.006 11.8312 14.4537Z" fill="#FFB843"/>
<path id="Vector_8" d="M7.62079 9.42252C7.62079 9.42252 8.74 10.1367 9.25164 9.31593C9.76328 8.50584 10.68 8.70836 10.8825 8.04749C11.085 7.38662 10.4774 5.91566 9.00648 6.21412C7.53552 6.52323 6.30971 8.34595 7.63145 9.42252H7.62079Z" fill="#FFB843"/>
<path id="Vector_9" d="M5.71277 9.4226C5.99534 9.4226 6.22441 9.19353 6.22441 8.91096C6.22441 8.62839 5.99534 8.39932 5.71277 8.39932C5.43019 8.39932 5.20113 8.62839 5.20113 8.91096C5.20113 9.19353 5.43019 9.4226 5.71277 9.4226Z" fill="#FFB843"/>
<path id="Vector_10" d="M14.7304 12.9721C14.7304 12.7269 14.5279 12.5244 14.2827 12.5244C14.0375 12.5244 13.835 12.7269 13.835 12.9721C13.835 13.2173 14.0375 13.4198 14.2827 13.4198C14.5279 13.4198 14.7304 13.2173 14.7304 12.9721Z" fill="#FFB843"/>
</g>
</svg>
