<svg width="24" height="24" viewBox="0 0 24 24" fill="none" xmlns="http://www.w3.org/2000/svg">
<path d="M22.5173 12.0012C22.5173 12.755 22.2154 13.4376 21.727 13.9357C21.9866 14.5837 22.0058 15.3298 21.7174 16.0259C21.429 16.722 20.8886 17.2373 20.2464 17.5104C20.2387 18.2084 19.9695 18.9045 19.4368 19.4371C18.9042 19.9698 18.2081 20.239 17.51 20.2467C17.2351 20.889 16.7217 21.4293 16.0256 21.7177C15.3295 22.0062 14.5834 21.9889 13.9353 21.7273C13.4354 22.2158 12.7547 22.5177 12.0009 22.5177C11.2471 22.5177 10.5644 22.2158 10.0664 21.7273C9.41839 21.9869 8.67229 22.0062 7.97619 21.7177C7.2801 21.4293 6.76475 20.889 6.4917 20.2467C5.79367 20.239 5.09758 19.9698 4.56493 19.4371C4.03228 18.9045 3.76307 18.2084 3.75537 17.5104C3.11312 17.2354 2.57278 16.722 2.28434 16.0259C1.9959 15.3298 2.01321 14.5837 2.27472 13.9357C1.7863 13.4357 1.4844 12.755 1.4844 12.0012C1.4844 11.2474 1.7863 10.5648 2.27472 10.0667C2.01513 9.41871 1.9959 8.67262 2.28434 7.97652C2.57278 7.28042 3.11312 6.76508 3.75537 6.49202C3.76307 5.794 4.03228 5.0979 4.56493 4.56525C5.09758 4.0326 5.79367 3.76339 6.4917 3.7557C6.76667 3.11344 7.2801 2.5731 7.97619 2.28466C8.67229 1.99622 9.41839 2.01353 10.0664 2.27505C10.5644 1.78663 11.2471 1.48473 12.0009 1.48473C12.7547 1.48473 13.4373 1.78663 13.9353 2.27505C14.5834 2.01545 15.3295 1.99622 16.0256 2.28466C16.7217 2.5731 17.237 3.11344 17.51 3.7557C18.2081 3.76339 18.9042 4.0326 19.4368 4.56525C19.9695 5.0979 20.2387 5.794 20.2464 6.49202C20.8886 6.767 21.429 7.28042 21.7174 7.97652C22.0058 8.67262 21.9885 9.41871 21.727 10.0667C22.2154 10.5667 22.5173 11.2474 22.5173 12.0012Z" fill="#FFA227"/>
<path d="M11.999 1.00208C11.2471 1.00208 10.5337 1.25783 9.95488 1.72702C9.24725 1.5155 8.47808 1.55396 7.78967 1.84048C7.09549 2.12892 6.53208 2.63849 6.17826 3.29228C5.43793 3.3692 4.75337 3.69418 4.22072 4.2249C3.69 4.75563 3.36502 5.44212 3.2881 6.18244C2.63431 6.53626 2.12474 7.09968 1.8363 7.79385C1.54786 8.48803 1.51132 9.24566 1.72284 9.95906C1.25365 10.5359 0.997902 11.2513 0.997902 12.0031C0.997902 12.755 1.25365 13.4684 1.72284 14.0472C1.5094 14.7606 1.54786 15.5182 1.8363 16.2124C2.12474 16.9066 2.63239 17.47 3.2881 17.8238C3.36502 18.5641 3.69 19.2506 4.22072 19.7814C4.75145 20.3121 5.43793 20.6371 6.17826 20.714C6.53208 21.3678 7.09549 21.8773 7.78967 22.1658C8.47808 22.4504 9.24725 22.4888 9.95488 22.2792C10.5318 22.7484 11.2471 23.0042 11.999 23.0042C12.7508 23.0042 13.4661 22.7484 14.043 22.2792C14.7507 22.4908 15.5198 22.4523 16.2082 22.1658C16.9024 21.8773 17.4658 21.3697 17.8196 20.714C18.56 20.6371 19.2445 20.3121 19.7772 19.7814C20.3079 19.2506 20.6329 18.5641 20.7098 17.8238C21.3636 17.47 21.8732 16.9066 22.1616 16.2124C22.4481 15.5182 22.4866 14.7606 22.2751 14.0472C22.7443 13.4703 23 12.755 23 12.0031C23 11.2513 22.7443 10.5379 22.2751 9.95906C22.4866 9.24566 22.45 8.48803 22.1616 7.79385C21.8751 7.09968 21.3655 6.53626 20.7098 6.18244C20.6329 5.44212 20.3079 4.75563 19.7772 4.2249C19.2465 3.69418 18.56 3.3692 17.8196 3.29228C17.4658 2.63849 16.9024 2.12892 16.2102 1.84048C15.814 1.67703 15.3968 1.59242 14.9699 1.59242C14.6545 1.59242 14.3449 1.63857 14.0449 1.72702C13.4681 1.25783 12.7527 1.00208 12.0009 1.00208H11.999ZM10.0645 2.75387C10.1876 2.75387 10.3087 2.70579 10.401 2.61734C10.8317 2.19622 11.399 1.96354 11.999 1.96354C12.5989 1.96354 13.1681 2.19622 13.5969 2.61734C13.7334 2.75002 13.9353 2.7904 14.1122 2.71925C14.3872 2.60965 14.6737 2.55388 14.9679 2.55388C15.266 2.55388 15.5602 2.61157 15.839 2.72887C16.3928 2.95962 16.8293 3.39035 17.0659 3.94416C17.1409 4.11914 17.312 4.23452 17.5024 4.23644C18.1042 4.24221 18.6696 4.48065 19.0945 4.90562C19.5195 5.33059 19.756 5.89593 19.7637 6.4978C19.7656 6.68817 19.881 6.85931 20.056 6.9343C20.6098 7.17082 21.0405 7.60733 21.2713 8.16113C21.5001 8.71493 21.504 9.32834 21.279 9.88791C21.2078 10.0648 21.2482 10.2667 21.3809 10.4033C21.802 10.834 22.0347 11.4013 22.0347 12.0012C22.0347 12.6012 21.802 13.1684 21.3809 13.5992C21.2482 13.7357 21.2078 13.9376 21.279 14.1145C21.504 14.6741 21.5001 15.2875 21.2713 15.8413C21.0425 16.3951 20.6098 16.8316 20.056 17.0681C19.881 17.1431 19.7656 17.3142 19.7637 17.5046C19.7579 18.1065 19.5195 18.6718 19.0945 19.0968C18.6696 19.5218 18.1042 19.7583 17.5024 19.766C17.312 19.7679 17.1409 19.8833 17.0659 20.0583C16.8293 20.6121 16.3928 21.0428 15.839 21.2735C15.2872 21.5024 14.666 21.5043 14.1122 21.2812C13.9353 21.2101 13.7334 21.2505 13.5969 21.3832C13.1662 21.8043 12.5989 22.0369 11.999 22.0369C11.399 22.0369 10.8317 21.8043 10.401 21.3832C10.2645 21.2505 10.0626 21.2082 9.88566 21.2812C9.33186 21.5043 8.71075 21.5024 8.15887 21.2735C7.60507 21.0428 7.16857 20.6121 6.93205 20.0583C6.85705 19.8833 6.68591 19.7679 6.49554 19.766C5.89367 19.7602 5.32833 19.5218 4.90336 19.0968C4.47839 18.6718 4.24188 18.1065 4.23611 17.5046C4.23418 17.3142 4.11881 17.1431 3.94382 17.0681C3.39002 16.8316 2.95928 16.3951 2.72853 15.8413C2.49971 15.2875 2.49586 14.6741 2.72084 14.1145C2.79199 13.9376 2.75161 13.7357 2.61893 13.5992C2.19781 13.1684 1.96513 12.6012 1.96513 12.0012C1.96513 11.4013 2.19781 10.834 2.61893 10.4033C2.75161 10.2667 2.79199 10.0648 2.72084 9.88791C2.49586 9.32834 2.49971 8.71493 2.72853 8.16113C2.95928 7.60733 3.39002 7.17082 3.94382 6.9343C4.11881 6.85931 4.23418 6.68817 4.23611 6.4978C4.24188 5.89593 4.48032 5.33059 4.90336 4.90562C5.32833 4.48065 5.89367 4.24413 6.49554 4.23836C6.68591 4.23644 6.85705 4.12107 6.93205 3.94608C7.16857 3.39228 7.60507 2.96154 8.15887 2.73079C8.71075 2.50196 9.32993 2.50004 9.88566 2.7231C9.94335 2.74617 10.0049 2.75771 10.0645 2.75771V2.75387Z" fill="#212121"/>
<path d="M13.5373 18.5007C15.3641 18.5007 17.0486 17.8892 18.4004 16.8624C16.9313 18.793 14.6122 20.0391 11.999 20.0391C7.55892 20.0391 3.96113 16.4393 3.96113 11.9993C3.96113 9.38799 5.20718 7.06702 7.1378 5.5979C6.11096 6.9478 5.49947 8.63228 5.49947 10.461C5.49947 14.901 9.09918 18.5007 13.5373 18.5007Z" fill="#FFB32C"/>
<path d="M20.0387 12.0012C20.0387 13.828 19.4272 15.5125 18.4004 16.8643C17.0505 17.8912 15.366 18.5027 13.5373 18.5027C9.09726 18.5027 5.49947 14.9029 5.49947 10.4629C5.49947 8.63613 6.11096 6.95165 7.1378 5.59983C8.48769 4.57299 10.1722 3.9615 11.9989 3.9615C16.439 3.9615 20.0368 7.56122 20.0368 12.0012H20.0387Z" fill="#FFE83F"/>
<path fill-rule="evenodd" clip-rule="evenodd" d="M4 12C4 16.418 7.58038 20 11.9991 20C14.6 20 16.9081 18.7594 18.3694 16.8393L18.3696 16.839C19.3912 15.4943 20 13.8177 20 12C20 11.0056 19.8183 10.0525 19.4851 9.17186C19.4137 8.9832 19.2029 8.88812 19.0143 8.95948C18.8256 9.03084 18.7305 9.24163 18.8018 9.43028C19.1042 10.2296 19.2695 11.0953 19.2695 12C19.2695 13.6517 18.7169 15.1743 17.7881 16.397C16.4588 18.1436 14.362 19.2696 11.9991 19.2696C7.98406 19.2696 4.73051 16.0148 4.73051 12C4.73051 9.63917 5.85667 7.54073 7.60345 6.21166C8.82435 5.28306 10.347 4.73043 11.9991 4.73043C13.9432 4.73043 15.7076 5.49328 17.0122 6.73504C17.2933 7.00387 17.5539 7.29252 17.7877 7.60075C17.9096 7.76145 18.1388 7.79293 18.2995 7.67104C18.4602 7.54915 18.4917 7.32007 18.3698 7.15936C18.1106 6.81768 17.8236 6.50021 17.5167 6.20675L17.5161 6.20615C16.0813 4.84037 14.1384 4 11.9991 4C10.1812 4 8.50431 4.60873 7.16113 5.63035L7.16108 5.63039C5.2407 7.09154 4 9.40124 4 12Z" fill="#212121"/>
<path d="M15.235 15.545C15.235 15.545 15.9914 14.3989 15.3731 13.8258C14.7549 13.2528 15.3731 12.8707 16.1974 12.1697C17.0218 11.4686 16.6776 9.62334 17.5019 10.0684C18.3263 10.5135 17.5019 11.7876 17.8461 12.8707C18.1902 13.9538 17.9842 14.844 16.9538 15.482C15.9234 16.12 14.7549 17.3922 14.2067 16.8822C13.6565 16.3721 14.2747 16.1811 15.2371 15.545H15.235Z" fill="#FFA227"/>
<path d="M12.3856 8.59427C12.3856 8.59427 13.7436 8.08409 14.2851 8.48033C14.8267 8.87657 15.7774 9.33063 15.981 8.65039C16.1846 7.97015 14.6923 7.85621 14.2159 7.17598C13.7415 6.49574 12.3836 5.64545 11.502 6.15562C10.6204 6.6658 10.8912 8.99051 12.3836 8.59257L12.3856 8.59427Z" fill="#FFA227"/>
<path d="M8.58441 13.3258C8.58441 13.3258 9.74524 12.5206 10.2725 13.4418C10.7998 14.3629 11.7501 14.1332 11.9606 14.8815C12.1712 15.6297 11.5396 17.2992 10.0099 16.9535C8.48016 16.6078 7.21507 14.5358 8.58641 13.328L8.58441 13.3258Z" fill="#FFA227"/>
<path d="M6.5 14C6.77614 14 7 14.2239 7 14.5C7 14.7761 6.77614 15 6.5 15C6.22386 15 6 14.7761 6 14.5C6 14.2239 6.22386 14 6.5 14Z" fill="#FFA227"/>
<path d="M16 10.5C16 10.7768 15.7768 11 15.5 11C15.2232 11 15 10.7768 15 10.5C15 10.2232 15.2232 10 15.5 10C15.7768 10 16 10.2232 16 10.5Z" fill="#FFA227"/>
</svg>
