<svg width="20" height="20" viewBox="0 0 20 20" fill="none" xmlns="http://www.w3.org/2000/svg">
<g id="Group">
<path id="Vector" d="M17.9276 11.5987H16.5176C19.1186 11.2843 18.7375 6.86355 16.1746 6.74922C17.1178 5.1105 15.8316 3.02399 13.8404 3.24312C13.2401 -0.567861 6.99012 -0.682192 5.42761 1.65203C5.42761 1.65203 9.10521 3.21453 4.80833 4.91995C4.80833 4.91995 1.25459 6.64442 4.07472 8.54991C0.911605 7.48283 0.425704 11.2652 2.91237 11.5987C2.7504 11.5987 1.72144 11.5796 1.57852 11.6177H18.1468C18.0801 11.5987 18.0038 11.5987 17.9276 11.5987Z" fill="white"/>
<path id="Vector_2" d="M18.0991 11.6844H1.53087C0.187496 12.0179 0.597176 13.952 1.96913 13.771L3.55068 19.173H15.984L17.6608 13.771C19.0328 13.9615 19.4425 12.0179 18.0991 11.6844Z" fill="#FF7384"/>
<path id="Vector_3" d="M5.31331 1.49957C5.31331 1.49957 10.8011 0.289588 13.1925 3.92907C13.3068 4.10057 13.4593 4.24348 13.6594 4.31017C14.3263 4.53883 15.9459 5.26291 16.0507 6.88258C16.0507 6.88258 18.3183 9.41688 16.8796 11.532C16.8796 11.532 19.1757 10.7221 17.9848 7.88296C17.9848 7.88296 16.6033 6.7492 16.327 6.81589C16.0507 6.88258 17.5275 4.56741 15.1456 3.69089C12.7638 2.81436 13.7165 3.38601 13.7165 3.38601C13.7165 3.38601 12.7828 -2.16849 5.31331 1.5091V1.49957Z" fill="#FF7384"/>
<path id="Vector_4" d="M16.0507 19.516H3.46495L1.83575 13.9329L2.31213 13.7995L3.84605 19.0206H15.7077L17.6037 13.7805L18.0705 13.952L16.0507 19.516Z" fill="#222020"/>
<path id="Vector_5" d="M17.8705 14.1139H14.8312C14.6978 14.1139 14.5835 13.9996 14.5835 13.8662C14.5835 13.7328 14.6978 13.6185 14.8312 13.6185H17.8705C18.3087 13.6185 18.6708 13.2565 18.6708 12.8182V12.742C18.6708 12.3037 18.3087 11.9417 17.8705 11.9417H1.75954C1.32128 11.9417 0.959234 12.3037 0.959234 12.742V12.8182C0.959234 13.2565 1.32128 13.6185 1.75954 13.6185H12.859C12.9924 13.6185 13.1067 13.7328 13.1067 13.8662C13.1067 13.9996 12.9924 14.1139 12.859 14.1139H1.75954C1.04498 14.1139 0.463806 13.5328 0.463806 12.8182V12.742C0.463806 12.0274 1.04498 11.4463 1.75954 11.4463H17.8705C18.585 11.4463 19.1662 12.0274 19.1662 12.742V12.8182C19.1662 13.5328 18.585 14.1139 17.8705 14.1139Z" fill="#222020"/>
<path id="Vector_6" d="M2.69326 11.9417C2.64562 11.9417 2.59798 11.9322 2.55034 11.8941C1.67382 11.2938 1.2165 10.646 1.19745 9.98856C1.17839 9.17873 1.82626 8.66425 1.85484 8.64519C2.3598 8.27362 2.89334 8.20693 3.37924 8.2641C3.12199 7.95922 2.91239 7.59718 2.86475 7.19703C2.80759 6.67302 3.02672 6.16806 3.52214 5.72027C4.10332 5.19626 4.75118 4.77705 5.32283 4.40548C6.01834 3.95769 6.67573 3.53848 6.67573 3.22408C6.67573 3.06211 6.47565 2.88109 6.31369 2.75724C5.49433 2.16653 5.12276 1.89976 5.13229 1.52819C5.15134 1.20426 5.4848 0.985128 5.91354 0.737414C6.95203 0.137185 9.32436 -0.377297 11.3251 0.375372C13.021 1.00418 13.8213 2.45236 14.069 3.13833C14.4597 3.10975 15.279 3.11928 15.9174 3.58612C16.3651 3.91006 16.6414 4.38643 16.7367 5.01524C17.0702 7.15892 15.7744 8.52134 12.8972 9.05488C12.7638 9.08346 12.6304 8.98818 12.6018 8.8548C12.5732 8.72142 12.6685 8.58803 12.8019 8.55945C15.4029 8.07355 16.5271 6.93026 16.2413 5.08193C16.1651 4.59603 15.9555 4.22446 15.622 3.98627C14.936 3.49085 13.9356 3.65281 13.9261 3.65281C13.8023 3.6814 13.6689 3.59565 13.6403 3.46226C13.5546 3.07164 12.8686 1.48056 11.1441 0.842217C9.31483 0.15624 7.08541 0.632613 6.16125 1.16615C5.72299 1.42339 5.63724 1.51867 5.62771 1.55678C5.64676 1.6711 6.13267 2.02362 6.59951 2.35708C6.99014 2.6429 7.18069 2.92873 7.17116 3.24313C7.16163 3.82431 6.46613 4.2721 5.5896 4.83422C5.03701 5.19626 4.39867 5.60594 3.84608 6.10137C3.46498 6.44436 3.30301 6.78734 3.35065 7.14939C3.42687 7.82583 4.17954 8.40701 4.58922 8.69283C4.76071 8.78811 4.87504 8.86433 4.8941 8.88338C4.9989 8.9596 5.02748 9.11204 4.96079 9.21684C4.8941 9.33117 4.74166 9.36928 4.62733 9.30259C4.60827 9.30259 4.50347 9.2359 4.34151 9.1311C3.89372 8.88338 2.93144 8.49276 2.14066 9.0644C2.14066 9.0644 1.66429 9.4455 1.68335 9.99809C1.7024 10.4935 2.0835 10.9985 2.81712 11.5034C2.93145 11.5796 2.96003 11.7416 2.88381 11.8464C2.83617 11.9131 2.75995 11.9512 2.6742 11.9512L2.69326 11.9417Z" fill="#222020"/>
<path id="Vector_7" d="M16.8224 11.9417C16.6986 11.9417 16.5938 11.8559 16.5747 11.7226C16.5557 11.5892 16.6509 11.4558 16.7843 11.4367C17.2035 11.3796 17.556 11.1414 17.7942 10.7698C18.1372 10.2363 18.2039 9.46455 17.9752 8.66425C17.556 7.21608 16.3937 7.03506 16.3365 7.02553C16.2031 7.00648 16.1079 6.88262 16.1269 6.74923C16.146 6.61585 16.2698 6.52057 16.4032 6.53963C16.4699 6.53963 17.9371 6.75876 18.4516 8.53087C18.7279 9.47408 18.6422 10.3887 18.2134 11.0461C17.899 11.5415 17.4131 11.8559 16.851 11.9322C16.8415 11.9322 16.8319 11.9322 16.8129 11.9322L16.8224 11.9417Z" fill="#222020"/>
<path id="Vector_8" d="M8.53356 9.49314C7.21877 9.49314 6.13264 9.32165 6.05642 9.31212C5.92304 9.29306 5.82776 9.15968 5.84682 9.0263C5.86587 8.89291 5.99926 8.79764 6.13264 8.81669C6.16122 8.81669 9.1052 9.28354 11.1441 8.67378C11.2775 8.63567 11.4108 8.71189 11.4585 8.84528C11.4966 8.97866 11.4204 9.12157 11.287 9.15968C10.42 9.41692 9.41961 9.49314 8.52403 9.49314H8.53356Z" fill="#222020"/>
</g>
</svg>
