<svg width="21" height="22" viewBox="0 0 21 22" fill="none" xmlns="http://www.w3.org/2000/svg">
<g id="Layer_1" clip-path="url(#clip0_1220_2430)">
<path id="Vector" d="M19.4013 13.2275H17.8396C20.727 12.8762 20.3001 7.94629 17.4535 7.81088C18.5005 5.97787 17.0714 3.6562 14.8663 3.89955C14.1995 -0.355222 6.83947 -0.498487 5.10621 2.10579C5.10621 2.10579 9.50858 3.40695 4.8469 5.77377C4.8469 5.77377 0.904648 7.70294 4.03583 9.8264C0.52836 8.63122 -0.00975144 12.8605 2.74125 13.2275C2.55993 13.2353 1.41936 13.2059 1.26729 13.253H19.643C19.565 13.2373 19.4851 13.2275 19.4013 13.2275Z" fill="white"/>
<path id="Vector_2" d="M19.643 13.251H1.2673C-0.224207 13.618 0.228119 15.7866 1.75277 15.5766L3.50358 21.6055H17.2917L19.1556 15.5766C20.6803 15.7866 21.1345 13.618 19.6411 13.251H19.643Z" fill="#A1D4C9"/>
<path id="Vector_3" d="M19.4461 15.9279H1.55389C0.697985 15.9279 0 15.241 0 14.3952C0 13.5493 0.697985 12.8625 1.55389 12.8625H12.8776C13.0901 12.8625 13.2637 13.0371 13.2637 13.251C13.2637 13.465 13.0901 13.6396 12.8776 13.6396H1.55389C1.12302 13.6396 0.772073 13.9791 0.772073 14.3952C0.772073 14.8113 1.12302 15.1508 1.55389 15.1508H19.4461C19.877 15.1508 20.2279 14.8113 20.2279 14.3952C20.2279 13.9791 19.877 13.6396 19.4461 13.6396H16.5684C16.3559 13.6396 16.1823 13.465 16.1823 13.251C16.1823 13.0371 16.3559 12.8625 16.5684 12.8625H19.4461C20.302 12.8625 21 13.5493 21 14.3952C21 15.241 20.302 15.9279 19.4461 15.9279Z" fill="#1A1818"/>
<path id="Vector_4" d="M17.3366 22H15.2289C15.0125 22 14.8371 21.8234 14.8371 21.6055C14.8371 21.3877 15.0125 21.2111 15.2289 21.2111H17.048L18.6682 15.9711H2.32207L3.84477 21.2111H13.2442C13.4606 21.2111 13.6361 21.3877 13.6361 21.6055C13.6361 21.8234 13.4606 22 13.2442 22H3.55037C3.37685 22 3.22282 21.8842 3.17408 21.7174L1.42327 15.6885C1.38817 15.5688 1.41157 15.4412 1.48566 15.3411C1.55974 15.241 1.67478 15.1841 1.79955 15.1841H19.2024C19.3272 15.1841 19.4442 15.243 19.5182 15.345C19.5923 15.4471 19.6138 15.5766 19.5767 15.6963L17.7128 21.7252C17.6621 21.8901 17.5101 22.002 17.3385 22.002L17.3366 22Z" fill="#1A1818"/>
<path id="Vector_5" d="M13.8057 13.6455H3.17797C2.0881 13.6455 1.21074 13.1293 0.832506 12.2639C0.483513 11.4651 0.62389 10.5466 1.19125 9.92452C1.85219 9.19642 2.95181 9.02568 4.20545 9.45155C4.41017 9.5222 4.51935 9.74593 4.45111 9.952C4.38092 10.1581 4.15866 10.268 3.95394 10.1993C2.9947 9.87153 2.21873 9.96377 1.76835 10.4564C1.41741 10.843 1.32772 11.4416 1.54999 11.9459C1.80345 12.5249 2.39615 12.8565 3.17797 12.8565H13.8057C14.0221 12.8565 14.1976 13.0332 14.1976 13.251C14.1976 13.4689 14.0221 13.6455 13.8057 13.6455Z" fill="#1A1818"/>
<path id="Vector_6" d="M8.57079 10.7331C7.284 10.7331 6.29357 10.6252 6.21948 10.6153C6.02646 10.5938 5.88608 10.4171 5.90753 10.2228C5.92898 10.0285 6.10445 9.88724 6.29747 9.90883C6.32866 9.91276 9.47349 10.2562 11.8112 9.70865C12.0003 9.66352 12.1913 9.78323 12.2342 9.9736C12.2791 10.164 12.1602 10.3563 11.971 10.3995C10.8675 10.6585 9.61972 10.7311 8.56884 10.7311L8.57079 10.7331Z" fill="#1A1818"/>
<path id="Vector_7" d="M5.54878 1.80553C5.54878 1.80553 12.32 -0.494563 14.8254 4.79643C14.8254 4.79643 17.3034 5.53041 17.4535 7.80892C17.4535 7.80892 20.302 10.4485 18.7052 12.8036C18.7052 12.8036 20.7543 12.0009 19.5923 8.9256C19.5923 8.9256 18.056 7.6578 17.7557 7.73434C17.4555 7.81088 19.0874 5.22622 16.4494 4.24299C13.8115 3.25976 14.8663 3.89955 14.8663 3.89955C14.8663 3.89955 13.833 -2.29617 5.54878 1.80553Z" fill="#A1D4C9"/>
<path id="Vector_8" d="M4.89175 10.6938C4.82351 10.6938 4.75527 10.6762 4.69288 10.6389C3.19748 9.74987 2.46635 8.89616 2.4566 8.03069C2.44295 6.83354 3.79603 5.98769 4.99118 5.24193C5.77885 4.74933 6.75759 4.13702 6.72445 3.70919C6.71275 3.55219 6.51973 3.11454 5.00093 2.47083C4.8937 2.42569 4.81376 2.33542 4.77867 2.22551C4.74357 2.11365 4.76112 1.99394 4.82351 1.89581C5.28558 1.16771 6.19609 0.592687 7.38929 0.272794C8.52205 -0.0313987 9.80104 -0.0784995 10.9884 0.137379C13.3183 0.561286 14.8897 1.90366 15.2972 3.82105C15.4356 4.50402 15.342 5.08885 15.0242 5.55986C14.6967 6.0446 14.1313 6.3802 13.4294 6.50776C13.2169 6.54505 13.0122 6.40375 12.9751 6.18983C12.9361 5.97592 13.0785 5.76985 13.291 5.73256C13.7823 5.64425 14.1683 5.42641 14.375 5.11829C14.57 4.8298 14.6226 4.4471 14.529 3.98394C14.3516 3.14987 13.911 2.45121 13.2227 1.91347C12.6027 1.43069 11.7819 1.08528 10.848 0.914542C8.87689 0.555399 6.74784 1.02052 5.7808 1.96254C6.91942 2.50812 7.45753 3.03997 7.50432 3.65228C7.57451 4.55897 6.51973 5.21838 5.40452 5.91508C4.38678 6.55094 3.23257 7.27315 3.24037 8.02676C3.24622 8.57824 3.88766 9.24942 5.09257 9.96575C5.27974 10.0756 5.34018 10.319 5.23099 10.5054C5.15886 10.6291 5.02823 10.6997 4.8937 10.6997L4.89175 10.6938Z" fill="#1A1818"/>
<path id="Vector_9" d="M13.4041 10.264C13.2052 10.264 13.0356 10.1129 13.0141 9.90882C12.9927 9.69294 13.1486 9.49865 13.3651 9.47706C16.0829 9.20035 16.9759 8.05815 17.2683 7.40266C17.592 6.67064 17.5023 5.84441 17.0285 5.18893C16.5489 4.52559 15.7924 4.19981 14.956 4.29205C14.7415 4.3156 14.5485 4.16056 14.5232 3.94272C14.4998 3.72684 14.6538 3.53255 14.8702 3.50703C15.9776 3.38536 17.0207 3.8387 17.6602 4.72184C18.2938 5.59517 18.4167 6.74521 17.9838 7.72256C17.3619 9.12381 15.7495 10.0266 13.445 10.2601C13.4313 10.2601 13.4177 10.2621 13.406 10.2621L13.4041 10.264Z" fill="#1A1818"/>
<path id="Vector_10" d="M16.6308 13.673C16.2876 13.673 15.9484 13.6592 15.6228 13.6455C15.4064 13.6377 15.2387 13.4532 15.2465 13.2353C15.2543 13.0175 15.4376 12.8487 15.654 12.8566C16.5352 12.8919 17.5354 12.9331 18.2821 12.6701C19.0464 12.4013 19.4266 11.836 19.4792 10.896C19.4753 9.77342 18.8612 8.2034 17.4984 8.2034C17.282 8.2034 17.1065 8.02677 17.1065 7.80893C17.1065 7.59109 17.282 7.41446 17.4984 7.41446C19.4052 7.41446 20.2611 9.45549 20.2611 10.9058C20.2611 10.9137 20.2611 10.9195 20.2611 10.9274C20.1928 12.1991 19.6157 13.0352 18.5415 13.4139C17.9565 13.62 17.2898 13.671 16.6308 13.671V13.673Z" fill="#1A1818"/>
</g>
<defs>
<clipPath id="clip0_1220_2430">
<rect width="21" height="22" fill="white"/>
</clipPath>
</defs>
</svg>
