<svg width="21" height="21" viewBox="0 0 21 21" fill="none" xmlns="http://www.w3.org/2000/svg">
<g id="search_3917132 1" clip-path="url(#clip0_889_25710)">
<path id="Vector" d="M20.7437 19.5064L15.5208 14.2835C16.9441 12.5428 17.6439 10.3216 17.4754 8.07936C17.3069 5.83714 16.2831 3.74546 14.6157 2.23695C12.9483 0.728439 10.7648 -0.081477 8.51699 -0.0252741C6.26916 0.0309287 4.12892 0.94895 2.53896 2.5389C0.949011 4.12886 0.0309898 6.2691 -0.0252131 8.51693C-0.0814159 10.7648 0.7285 12.9482 2.23701 14.6156C3.74552 16.2831 5.83721 17.3069 8.07942 17.4754C10.3216 17.6438 12.5428 16.944 14.2836 15.5207L19.5064 20.7436C19.6715 20.903 19.8925 20.9912 20.1219 20.9892C20.3513 20.9872 20.5708 20.8952 20.733 20.733C20.8953 20.5707 20.9873 20.3513 20.9893 20.1218C20.9913 19.8924 20.9031 19.6714 20.7437 19.5064ZM8.75005 15.75C7.36558 15.75 6.01221 15.3394 4.86106 14.5703C3.70992 13.8011 2.81271 12.7079 2.2829 11.4288C1.75308 10.1497 1.61446 8.74223 1.88456 7.38436C2.15465 6.02649 2.82134 4.77921 3.80031 3.80024C4.77927 2.82128 6.02655 2.15459 7.38442 1.8845C8.74229 1.6144 10.1498 1.75302 11.4288 2.28284C12.7079 2.81265 13.8012 3.70986 14.5703 4.861C15.3395 6.01214 15.7501 7.36552 15.7501 8.74999C15.748 10.6059 15.0098 12.3851 13.6975 13.6974C12.3852 15.0097 10.6059 15.7479 8.75005 15.75Z" fill="black"/>
</g>
<defs>
<clipPath id="clip0_889_25710">
<rect width="21" height="21" fill="white"/>
</clipPath>
</defs>
</svg>
