<svg width="48" height="48" viewBox="0 0 48 48" fill="none" xmlns="http://www.w3.org/2000/svg">
<g clip-path="url(#clip0_7727_24862)">
<path d="M18.4091 16.8684L7.4686 18.4546L7.27482 18.4941C6.98149 18.5719 6.71407 18.7263 6.49989 18.9413C6.2857 19.1563 6.13242 19.4243 6.0557 19.718C5.97897 20.0116 5.98156 20.3204 6.06318 20.6127C6.14481 20.905 6.30255 21.1704 6.52031 21.3818L14.4462 29.0968L12.577 39.9944L12.5547 40.183C12.5368 40.4864 12.5998 40.7891 12.7373 41.0602C12.8748 41.3312 13.0818 41.5608 13.3373 41.7255C13.5927 41.8902 13.8873 41.9841 14.1909 41.9975C14.4945 42.0109 14.7963 41.9434 15.0652 41.8018L24.8499 36.6574L34.6124 41.8018L34.7838 41.8807C35.0669 41.9922 35.3745 42.0264 35.6751 41.9797C35.9758 41.9331 36.2586 41.8073 36.4945 41.6153C36.7305 41.4234 36.9112 41.172 37.018 40.8872C37.1248 40.6023 37.1539 40.2942 37.1023 39.9944L35.2314 29.0968L43.1607 21.3801L43.2945 21.2343C43.4855 20.999 43.6108 20.7172 43.6575 20.4177C43.7042 20.1182 43.6707 19.8117 43.5604 19.5294C43.4501 19.247 43.2669 18.999 43.0295 18.8105C42.7921 18.622 42.509 18.4998 42.209 18.4563L31.2685 16.8684L26.3778 6.95681C26.2363 6.66964 26.0172 6.42782 25.7454 6.25872C25.4736 6.08962 25.1598 6 24.8397 6C24.5195 6 24.2057 6.08962 23.9339 6.25872C23.6621 6.42782 23.443 6.66964 23.3015 6.95681L18.4091 16.8684Z" fill="#FFD569"/>
</g>
<defs>
<clipPath id="clip0_7727_24862">
<rect width="48" height="48" fill="white"/>
</clipPath>
</defs>
</svg>
