<svg width="20" height="20" viewBox="0 0 20 20" fill="none" xmlns="http://www.w3.org/2000/svg">
<g clip-path="url(#clip0_101_30)">
<mask id="mask0_101_30" style="mask-type:alpha" maskUnits="userSpaceOnUse" x="2" y="2" width="17" height="16">
<path d="M7.67045 7.0285L3.11191 7.68942L3.03117 7.70585C2.90895 7.7383 2.79752 7.8026 2.70828 7.8922C2.61904 7.98179 2.55517 8.09346 2.5232 8.21581C2.49123 8.33816 2.49231 8.46681 2.52632 8.5886C2.56033 8.7104 2.62606 8.82099 2.71679 8.90908L6.01923 12.1236L5.24042 16.6643L5.23113 16.7429C5.22365 16.8693 5.2499 16.9955 5.30719 17.1084C5.36448 17.2213 5.45076 17.317 5.55719 17.3856C5.66361 17.4542 5.78637 17.4934 5.91288 17.4989C6.03939 17.5045 6.16511 17.4764 6.27717 17.4174L10.3541 15.2739L14.4218 17.4174L14.4933 17.4503C14.6112 17.4967 14.7394 17.511 14.8646 17.4915C14.9899 17.4721 15.1077 17.4197 15.206 17.3397C15.3044 17.2597 15.3796 17.155 15.4241 17.0363C15.4686 16.9176 15.4808 16.7892 15.4593 16.6643L14.6797 12.1236L17.9836 8.90836L18.0394 8.84763C18.119 8.74958 18.1712 8.63217 18.1906 8.50738C18.2101 8.38259 18.1961 8.25486 18.1502 8.13722C18.1042 8.01958 18.0279 7.91622 17.929 7.83769C17.83 7.75915 17.7121 7.70824 17.5871 7.69013L13.0285 7.0285L10.9908 2.89866C10.9318 2.779 10.8405 2.67825 10.7272 2.60779C10.614 2.53733 10.4832 2.49999 10.3498 2.49999C10.2165 2.49999 10.0857 2.53733 9.97245 2.60779C9.85919 2.67825 9.7679 2.779 9.70894 2.89866L7.67045 7.0285Z" fill="#FFD569"/>
</mask>
<g mask="url(#mask0_101_30)">
<rect x="2.5" y="2.08333" width="7.91667" height="16.6667" fill="#FFD569"/>
<rect x="10.4167" y="2.08333" width="7.91667" height="16.6667" fill="#E0E0E0"/>
</g>
</g>
<defs>
<clipPath id="clip0_101_30">
<rect width="20" height="20" fill="white"/>
</clipPath>
</defs>
</svg>
