<svg width="20" height="20" viewBox="0 0 20 20" fill="none" xmlns="http://www.w3.org/2000/svg">
<g clip-path="url(#clip0_7858_6847)">
<path d="M7.67044 7.0285L3.1119 7.68942L3.03116 7.70585C2.90894 7.7383 2.79751 7.8026 2.70827 7.89219C2.61903 7.98179 2.55516 8.09346 2.52319 8.21581C2.49122 8.33816 2.4923 8.4668 2.52631 8.5886C2.56032 8.7104 2.62605 8.82099 2.71678 8.90908L6.01922 12.1236L5.24041 16.6643L5.23112 16.7429C5.22364 16.8693 5.24989 16.9955 5.30718 17.1084C5.36447 17.2213 5.45075 17.317 5.55718 17.3856C5.6636 17.4542 5.78636 17.4934 5.91287 17.4989C6.03938 17.5045 6.1651 17.4764 6.27716 17.4174L10.3541 15.2739L14.4218 17.4174L14.4933 17.4503C14.6112 17.4967 14.7394 17.511 14.8646 17.4915C14.9899 17.4721 15.1077 17.4197 15.206 17.3397C15.3044 17.2597 15.3796 17.155 15.4241 17.0363C15.4686 16.9176 15.4808 16.7892 15.4593 16.6643L14.6797 12.1236L17.9836 8.90836L18.0393 8.84763C18.119 8.74958 18.1712 8.63217 18.1906 8.50738C18.2101 8.38258 18.1961 8.25486 18.1502 8.13722C18.1042 8.01958 18.0279 7.91622 17.9289 7.83768C17.83 7.75915 17.7121 7.70823 17.5871 7.69013L13.0285 7.0285L10.9908 2.89866C10.9318 2.779 10.8405 2.67824 10.7272 2.60778C10.614 2.53733 10.4832 2.49998 10.3498 2.49998C10.2164 2.49998 10.0857 2.53733 9.97245 2.60778C9.85918 2.67824 9.76789 2.779 9.70893 2.89866L7.67044 7.0285Z" fill="#E0E0E0"/>
</g>
<defs>
<clipPath id="clip0_7858_6847">
<rect width="20" height="20" fill="white"/>
</clipPath>
</defs>
</svg>
