<svg width="16" height="17" viewBox="0 0 16 17" fill="none" xmlns="http://www.w3.org/2000/svg">
<g clip-path="url(#clip0_8883_9935)">
<path d="M6.13637 6.12281L2.48953 6.65154L2.42494 6.66469C2.32716 6.69065 2.23802 6.74209 2.16663 6.81377C2.09523 6.88544 2.04414 6.97478 2.01857 7.07266C1.99299 7.17054 1.99385 7.27345 2.02106 7.37089C2.04827 7.46833 2.10085 7.5568 2.17344 7.62727L4.81539 10.1989L4.19234 13.8315L4.18491 13.8943C4.17893 13.9955 4.19992 14.0964 4.24576 14.1867C4.29159 14.2771 4.36061 14.3536 4.44575 14.4085C4.5309 14.4634 4.6291 14.4947 4.73031 14.4992C4.83151 14.5036 4.93209 14.4811 5.02174 14.4339L8.28331 12.7191L11.5375 14.4339L11.5946 14.4602C11.689 14.4974 11.7915 14.5088 11.8917 14.4932C11.9919 14.4777 12.0862 14.4358 12.1648 14.3718C12.2435 14.3078 12.3037 14.224 12.3393 14.1291C12.3749 14.0341 12.3846 13.9314 12.3674 13.8315L11.7438 10.1989L14.3869 7.6267L14.4315 7.57811C14.4952 7.49967 14.5369 7.40575 14.5525 7.30591C14.5681 7.20608 14.5569 7.1039 14.5201 7.00979C14.4834 6.91567 14.4223 6.83299 14.3432 6.77016C14.264 6.70733 14.1697 6.6666 14.0697 6.65212L10.4228 6.12281L8.79261 2.81894C8.74544 2.72321 8.67241 2.64261 8.5818 2.58624C8.49118 2.52987 8.3866 2.5 8.27988 2.5C8.17317 2.5 8.06858 2.52987 7.97797 2.58624C7.88735 2.64261 7.81433 2.72321 7.76715 2.81894L6.13637 6.12281Z" fill="#FFD569"/>
</g>
<defs>
<clipPath id="clip0_8883_9935">
<rect width="16" height="16" fill="white" transform="translate(0 0.5)"/>
</clipPath>
</defs>
</svg>
