<svg width="18" height="18" viewBox="0 0 18 18" fill="none" xmlns="http://www.w3.org/2000/svg">
<path d="M10.7916 15.6431C9.76855 16.7791 8.17254 16.7926 7.13965 15.6431" stroke="#E0E0E0" stroke-linecap="round" stroke-linejoin="round"/>
<path fill-rule="evenodd" clip-rule="evenodd" d="M15.375 10.6654C15.186 12.8432 13.2294 13.3857 9 13.3857C8.02763 13.3857 7.1754 13.3575 6.43716 13.2874L14.0025 5.72205C14.0081 5.80129 14.0109 5.88027 14.0109 5.95883C14.0109 7.36215 14.3876 7.98931 14.7452 8.58442C15.0679 9.12169 15.375 9.63283 15.375 10.6654ZM4.12358 12.7725L13.2415 3.65461C12.3985 2.4389 10.9083 1.5 9 1.5C5.96608 1.5 3.98914 3.87311 3.98914 5.95883C3.98914 7.36215 3.61236 7.98931 3.25484 8.58442C2.93208 9.12168 2.625 9.63283 2.625 10.6654C2.71441 11.6957 3.19631 12.3591 4.12358 12.7725Z" fill="#E0E0E0"/>
<path d="M15.6102 1.80029L1.79993 15.6106" stroke="#BDBDBD" stroke-linecap="round" stroke-linejoin="round"/>
</svg>
