<svg width="19" height="18" viewBox="0 0 19 18" fill="none" xmlns="http://www.w3.org/2000/svg">
<g clip-path="url(#clip0_10212_9446)">
<path fill-rule="evenodd" clip-rule="evenodd" d="M12.7341 4.69627C12.6573 4.6471 12.5792 4.59962 12.5 4.55388C11.6036 4.03632 10.5885 3.75947 9.55347 3.75024C8.51841 3.741 7.49857 3.9997 6.59307 4.50118C5.68756 5.00266 4.92719 5.72987 4.38586 6.61213C3.84453 7.4944 3.54065 8.5017 3.50375 9.53613L3.5 9.74988L3.50375 9.96363C3.54093 11.0071 3.84978 12.0229 4.39978 12.9104C4.41509 12.9351 4.43057 12.9597 4.44622 12.9842L8.75 8.68039V7.49988C8.75 7.30097 8.82902 7.11021 8.96967 6.96955C9.11032 6.8289 9.30109 6.74988 9.5 6.74988C9.6837 6.74991 9.861 6.81735 9.99828 6.93942C10.0884 7.01957 10.1572 7.11962 10.1999 7.23052L12.7341 4.69627ZM9.75893 10.4999H11L11.0878 10.4946C11.2702 10.4731 11.4384 10.3854 11.5605 10.2482C11.6825 10.1109 11.75 9.93358 11.75 9.74988L11.7448 9.66213C11.7233 9.4797 11.6356 9.31149 11.4983 9.18942C11.4184 9.11837 11.3249 9.06582 11.2245 9.03431L14.2169 6.04189C14.3872 6.25853 14.543 6.48734 14.6827 6.72695C15.2088 7.62889 15.4904 8.65251 15.4997 9.69663C15.509 10.7408 15.2456 11.7692 14.7357 12.6804C14.2257 13.5915 13.4868 14.3538 12.592 14.8919C11.6971 15.43 10.6774 15.7253 9.63346 15.7485C8.58956 15.7718 7.55766 15.5222 6.63977 15.0244C6.34078 14.8623 6.05725 14.6756 5.79183 14.467L9.75893 10.4999Z" fill="#E0E0E0"/>
<path fill-rule="evenodd" clip-rule="evenodd" d="M14.4704 2.96005L13.691 2.3932L13.6115 2.34295C13.4515 2.25488 13.2648 2.22823 13.0866 2.26799C12.9083 2.30776 12.7507 2.41122 12.6432 2.55895C12.5853 2.63858 12.5443 2.72885 12.5212 2.8246C12.4982 2.92035 12.4942 3.01971 12.5095 3.117C12.5248 3.21429 12.5592 3.30761 12.6105 3.39164C12.6619 3.47566 12.7294 3.54874 12.809 3.6067L13.3965 4.03397L14.4704 2.96005ZM15.0548 5.20413C15.1963 5.25588 15.3511 5.26411 15.4987 5.22622C15.6835 5.17882 15.8432 5.06281 15.9455 4.9018C16.0477 4.74078 16.0848 4.54686 16.0491 4.3595C16.0415 4.31932 16.0306 4.2801 16.0167 4.24216L15.0548 5.20413Z" fill="#E0E0E0"/>
<path d="M16.8447 1L1.5 16.3447" stroke="#BDBDBD" stroke-linecap="round" stroke-linejoin="round"/>
<path d="M5.30899 2.39396C5.46323 2.27942 5.65555 2.22844 5.84628 2.25153C6.037 2.27463 6.21159 2.37003 6.33405 2.51807C6.4565 2.6661 6.51747 2.85549 6.50439 3.04716C6.49131 3.23884 6.40517 3.41818 6.26374 3.54821L6.19099 3.60821L4.12849 5.10821C3.9743 5.22455 3.78118 5.27691 3.58934 5.2544C3.39751 5.23189 3.22175 5.13623 3.09869 4.98736C2.97563 4.83848 2.91475 4.64787 2.92873 4.45523C2.94271 4.26258 3.03047 4.08276 3.17374 3.95321L3.24649 3.89321L5.30899 2.39396Z" fill="#E0E0E0"/>
<path d="M16.1102 1.80078L2.29993 15.611" stroke="#BDBDBD" stroke-linecap="round" stroke-linejoin="round"/>
</g>
<defs>
<clipPath id="clip0_10212_9446">
<rect width="18" height="18" fill="white" transform="translate(0.5)"/>
</clipPath>
</defs>
</svg>
