<svg width="142" height="28" viewBox="0 0 142 28" fill="none" xmlns="http://www.w3.org/2000/svg">
<g clip-path="url(#clip0_1426_1804)">
<mask id="mask0_1426_1804" style="mask-type:luminance" maskUnits="userSpaceOnUse" x="0" y="0" width="28" height="28">
<path d="M28 0H0V28H28V0Z" fill="white"/>
</mask>
<g mask="url(#mask0_1426_1804)">
<path d="M23.4802 28H4.51977C2.02809 28 0 25.9719 0 23.4802V4.51977C0 2.02702 2.02809 0 4.51977 0H23.4802C25.973 0 28 2.02702 28 4.51977V23.4802C28 25.9719 25.9719 28 23.4802 28ZM4.51977 1.17231C2.67392 1.17231 1.17231 2.67392 1.17231 4.51977V23.4802C1.17231 25.3261 2.67392 26.8277 4.51977 26.8277H23.4802C25.3261 26.8277 26.8277 25.3261 26.8277 23.4802V4.51977C26.8277 2.67392 25.3261 1.17231 23.4802 1.17231H4.51977Z" fill="#F04C28"/>
<path d="M26.8586 20.7541C26.3865 19.3644 25.2611 18.0354 24.1495 16.7938C23.9502 16.5711 23.9502 16.2343 24.1495 16.0116C24.4905 15.6311 24.7101 15.1611 24.7826 14.6538C24.8827 13.9664 24.708 13.2812 24.2923 12.7249C23.8767 12.1685 23.2692 11.8073 22.5818 11.7081C21.5214 11.5547 20.4908 12.0556 19.9558 12.9838C19.8056 13.246 19.4805 13.3504 19.2056 13.2247C17.786 12.5799 16.2588 12.1312 14.6666 11.8893C13.0765 11.6698 11.4854 11.6676 9.94329 11.8829C9.64488 11.9245 9.36246 11.7327 9.29212 11.4396C9.04274 10.3973 8.19549 9.62464 7.13615 9.47117C6.44875 9.37206 5.76348 9.54577 5.20717 9.96141C4.65086 10.377 4.28957 10.9845 4.19046 11.6719C4.11693 12.1792 4.19366 12.6918 4.4132 13.1554C4.54109 13.425 4.44517 13.748 4.19153 13.9057C2.75812 14.7892 2.02489 15.3476 1.19469 16.5157L0.23979 15.8357C1.09557 14.6325 1.87356 13.9877 3.1631 13.1671C2.99578 12.6321 2.94995 12.0652 3.03201 11.5046C3.17588 10.5081 3.70022 9.62677 4.50698 9.02356C5.31481 8.42036 6.30914 8.16778 7.3056 8.31272C8.66654 8.50988 9.78449 9.41043 10.2747 10.6627C11.7689 10.4964 13.3003 10.5199 14.8361 10.7319C16.3739 10.9653 17.85 11.3778 19.2365 11.9607C20.0614 10.8982 21.3893 10.3525 22.7502 10.5497C23.7467 10.6936 24.628 11.2179 25.2312 12.0247C25.8344 12.8325 26.087 13.8258 25.9421 14.8233C25.8611 15.3839 25.6575 15.9135 25.3463 16.3782C26.4291 17.607 27.4735 18.9242 27.968 20.3789L26.8575 20.7562L26.8586 20.7541Z" fill="#F04C28"/>
<path d="M15.2283 18.5459C15.2986 18.5757 15.3732 18.5938 15.4478 18.6013C15.8123 18.6354 16.2045 18.4105 16.2514 17.98C16.2897 17.6304 16.0713 17.3416 15.7355 17.2968C15.4563 17.2595 15.0886 17.4055 14.9362 17.6752C14.8542 17.8201 14.8329 18.0023 14.8798 18.1611C14.932 18.3413 15.0684 18.4777 15.2283 18.5459Z" fill="#F04C28"/>
<path d="M11.0644 18.1366C11.4364 18.1249 11.6964 17.7508 11.7316 17.4077C11.771 17.0251 11.5611 16.7629 11.1955 16.7352C10.8076 16.7064 10.4452 17.0059 10.4122 17.3842C10.3792 17.7594 10.6701 18.1494 11.0644 18.1366Z" fill="#F04C28"/>
<path d="M15.2805 20.1104C15.1217 20.267 14.9373 20.5399 14.8531 20.8788C14.4428 21.0216 12.3689 21.628 10.3994 20.1114C10.3078 20.0411 10.1756 20.0582 10.1053 20.1498C10.0349 20.2415 10.052 20.3736 10.1436 20.444C11.2957 21.3306 12.4669 21.5555 13.3813 21.5459C14.0112 21.5395 14.5163 21.4223 14.8105 21.3349C14.8275 21.6173 14.9267 21.9243 15.1601 22.2344C15.1952 22.2813 15.2464 22.309 15.2997 22.3164C15.3519 22.3239 15.4073 22.3101 15.4542 22.2759C15.5469 22.2067 15.565 22.0745 15.4958 21.9818C14.8638 21.1431 15.5469 20.4386 15.5768 20.4088C15.6588 20.3267 15.6588 20.1946 15.5768 20.1125C15.4947 20.0304 15.3625 20.0294 15.2794 20.1104H15.2805Z" fill="#F04C28"/>
<path d="M13.0019 19.861C13.4506 19.9079 13.8513 19.602 13.8801 19.3207C13.9089 19.0393 13.5593 18.872 13.1106 18.8251C12.662 18.7782 12.2847 18.8699 12.2549 19.1502C12.225 19.4305 12.5533 19.8131 13.0019 19.8599V19.861Z" fill="#F04C28"/>
<path d="M18.4755 23.6721C19.8503 23.6721 20.964 22.5584 20.964 21.1836C20.964 19.8088 19.8503 18.6951 18.4755 18.6951C17.1007 18.6951 15.9871 19.8088 15.9871 21.1836C15.9871 22.5584 17.1007 23.6721 18.4755 23.6721Z" fill="#F04C28"/>
<path d="M19.3953 13.0222C19.3505 13.0222 19.3057 13.0168 19.261 13.0051C18.9764 12.9316 18.8049 12.6406 18.8795 12.355L19.1949 11.1412C18.6791 10.5923 16.5093 8.80614 10.5689 9.4605L10.4836 10.782C10.4644 11.0761 10.2097 11.2989 9.91771 11.2797C9.62357 11.2605 9.40083 11.0079 9.42001 10.7138L9.53405 8.95001C9.5511 8.6953 9.74613 8.48748 9.99871 8.45551C18.0844 7.43454 20.1466 10.6008 20.2308 10.7362C20.3075 10.8598 20.3299 11.0101 20.2937 11.1507L19.9111 12.6247C19.8493 12.8644 19.6329 13.0243 19.3953 13.0243V13.0222Z" fill="#F04C28"/>
<path d="M19.1768 11.0303C19.1683 11.0303 19.1597 11.0303 19.1523 11.0303L19.1683 9.85802C19.358 9.86229 19.6606 9.79195 19.8663 9.69816C20.153 9.56814 20.3821 9.30384 20.5122 8.95641C20.671 8.53119 20.6592 8.04734 20.4823 7.66155C20.2756 7.21181 19.8535 6.91234 19.3548 6.85799C19.1981 6.84093 19.0542 6.76207 18.9562 6.63738C18.8581 6.51269 18.8155 6.35496 18.8358 6.1983C18.9978 4.97697 17.948 3.84196 16.4443 3.61389C14.9895 3.39329 13.3973 4.0615 13.035 5.04304C12.971 5.21463 12.8314 5.34784 12.6556 5.40113C12.4797 5.45442 12.29 5.42244 12.1408 5.3148C11.722 5.01214 11.1849 4.95565 10.7394 5.16773C10.1809 5.4331 9.86656 5.83914 9.77597 6.41038C9.7035 6.87291 9.79195 7.43561 10.0126 7.91626C10.1692 8.25729 10.3802 8.46618 10.6968 8.593L10.2598 9.68111C9.66833 9.44345 9.22605 9.01503 8.94683 8.40543C8.62924 7.71377 8.50881 6.9198 8.61752 6.22814C8.76778 5.27217 9.32729 4.53895 10.2353 4.10839C10.8694 3.80679 11.5973 3.79187 12.2463 4.04658C13.0659 2.88174 14.8702 2.18901 16.618 2.45438C18.5501 2.74639 19.9463 4.16808 20.0198 5.81037C20.6869 6.03417 21.2475 6.52334 21.5449 7.17024C21.8497 7.83313 21.8731 8.65375 21.6088 9.36459C21.369 10.0072 20.9225 10.5049 20.3491 10.765C19.9931 10.927 19.5349 11.0303 19.1757 11.0303H19.1768Z" fill="#F04C28"/>
<path d="M11.5952 9.13012C11.5195 9.13012 11.4438 9.10774 11.3778 9.05978C10.9067 8.72195 10.7575 7.89707 10.7319 7.73508C10.7 7.53152 10.8396 7.34076 11.0431 7.30878C11.2467 7.27788 11.4374 7.41642 11.4694 7.61998C11.5131 7.89813 11.657 8.34255 11.8136 8.45445C11.981 8.57487 12.0193 8.8072 11.8989 8.97452C11.8264 9.07577 11.7113 9.13012 11.5962 9.13012H11.5952Z" fill="#F04C28"/>
<path d="M12.76 8.9969C12.6982 8.9969 12.6353 8.98092 12.5767 8.94894C12.0748 8.66546 11.916 7.93224 11.9 7.84911C11.8595 7.64662 11.9916 7.45052 12.1931 7.41109C12.3945 7.37059 12.5906 7.50168 12.6311 7.7031C12.6705 7.89493 12.7963 8.21572 12.9433 8.29885C13.1224 8.40009 13.1863 8.62816 13.0851 8.8072C13.0169 8.9287 12.89 8.9969 12.76 8.9969Z" fill="#F04C28"/>
<path d="M18.4308 10.0083C18.2986 10.0083 18.1707 9.93796 18.1025 9.81327C18.0045 9.6321 18.0706 9.40616 18.2517 9.30705C18.4212 9.21433 18.6184 8.7923 18.6962 8.52267C18.7526 8.32444 18.9594 8.21041 19.1576 8.26689C19.3558 8.32338 19.4699 8.53013 19.4134 8.72836C19.3686 8.88608 19.1171 9.68538 18.6088 9.96247C18.5523 9.99338 18.4915 10.0083 18.4308 10.0083Z" fill="#F04C28"/>
<path d="M17.2926 9.55216C17.1455 9.55216 17.0059 9.46477 16.9473 9.31983C16.8695 9.12907 16.9611 8.91166 17.1519 8.83386C17.316 8.76672 17.4823 8.44167 17.5345 8.28287C17.5995 8.08678 17.8095 7.98127 18.0056 8.04522C18.2006 8.11023 18.3072 8.32124 18.2422 8.51627C18.2155 8.5962 17.9683 9.30491 17.4333 9.52339C17.3874 9.54257 17.3395 9.5511 17.2926 9.5511V9.55216Z" fill="#F04C28"/>
</g>
</g>
<g clip-path="url(#clip1_1426_1804)">
<path d="M36.6614 16.7236C36.6614 16.7236 36.7917 16.62 36.8847 16.5786C38.0014 16.1022 40.3278 15.6258 41.5747 15.6258C43.3241 15.605 44.4966 15.6465 45.1294 15.8122C47.9025 16.3714 49.1494 17.5314 49.075 19.2092C49.0936 21.032 48.0514 22.0469 45.4086 22.3576C44.143 22.5855 42.7472 22.6476 41.2025 22.6062C39.9742 22.6062 38.3364 22.4405 37.015 22.1298C35.34 21.7569 34.0931 21.2598 34 19.5406C34 17.5728 35.3028 16.8893 36.6428 16.7236H36.6614ZM35.5633 9.49457C36.4939 9.49457 37.4617 9.47385 38.4853 9.45314L38.4481 7.48536C38.2992 6.80181 38.2806 6.07684 39.0808 5.89042C39.8625 5.99399 40.1417 6.51183 40.0672 7.36108L40.1044 9.391C41.035 9.34957 42.04 9.26672 43.0636 9.20458C43.0264 8.60389 42.9705 7.73392 42.9147 6.57397C42.8961 6.03542 43.1566 5.704 43.6591 5.57972C44.1616 5.60043 44.4594 5.89042 44.5339 6.42897C44.7014 8.08605 44.8875 10.6338 44.7758 12.4566C44.7572 13.3887 44.385 13.9272 43.715 14.1137C42.9147 14.3415 41.2025 14.4865 39.0064 14.5072C38.1131 14.5279 36.2519 14.6315 35.5633 14.5072C34.6328 14.4244 34.0745 13.9894 34.0745 12.4773C34.0372 10.8409 34 9.88812 34.0372 9.55671C34.0745 9.22529 34.0745 8.54175 34.1303 7.40251C34.1117 6.67753 34.2047 6.07684 34.9864 6.07684C35.6564 6.18041 35.6006 6.51183 35.6192 7.29894C35.6006 8.08605 35.5819 8.70745 35.5819 9.22529V9.51528L35.5633 9.49457ZM36.6242 18.1114C36.4194 18.1942 36.2333 18.2771 36.0286 18.4221C35.6936 18.6706 35.5261 18.9606 35.5075 19.292C35.5075 20.2656 36.6056 20.4727 38.1503 20.7627C38.7831 20.8663 39.4344 20.9077 40.0672 20.9284C40.7 20.9491 41.1839 20.9491 41.5561 20.9698C43.0636 21.0113 44.2733 20.9491 45.2225 20.742C46.73 20.452 47.4558 20.1827 47.4744 19.2092C47.493 18.3185 46.5997 17.7592 45.055 17.345C44.0872 17.1171 43.0078 17.1171 41.6119 17.1585C40.4208 17.1585 38.4108 17.5935 37.4617 18.0492C37.1081 18.1735 36.8289 18.1735 36.6242 18.0699V18.1114ZM38.5039 10.9652C37.5175 10.9859 36.5683 10.9859 35.5819 10.9859C35.5819 11.2966 35.5819 11.6695 35.6006 12.0837C35.6192 12.643 35.675 12.8709 36.1217 12.8916C36.5683 12.9123 37.0336 12.933 37.4989 12.9123H38.5411L38.5039 10.9652ZM40.123 10.9238L40.1975 12.8709C40.458 12.8501 40.7186 12.8501 40.9605 12.8294C41.5933 12.8087 42.0772 12.788 42.4494 12.7259C43.045 12.643 43.2869 12.5394 43.2125 11.6281C43.1939 11.3381 43.1939 11.0688 43.1753 10.8202C42.1703 10.8617 41.1653 10.9031 40.1417 10.9238H40.123ZM49.8566 8.74888C50.4522 8.83173 50.7313 9.0803 50.6569 9.55671C50.6383 10.116 50.3591 10.3645 49.8008 10.261C49.3169 10.2402 48.9075 10.2195 48.5352 10.1781V10.4888C48.5725 12.0837 48.6655 13.5751 48.7772 14.9629C48.7958 15.4393 48.5539 15.75 48.0327 15.8536C47.5302 15.895 47.2325 15.5636 47.1394 14.8594C47.065 13.2851 47.0464 11.918 47.0464 10.7581C47.0277 9.59813 47.0091 7.96177 46.9347 5.91114C47.0464 5.06188 47.1952 5.0826 47.6047 5.02046C48.0327 4.97903 48.3491 5.20688 48.5352 5.72471C48.498 6.69825 48.4608 7.69249 48.4608 8.68674C48.833 8.68674 49.2611 8.70745 49.8194 8.76959L49.8566 8.74888Z" fill="#F04C28"/>
<path d="M66.7927 20.3489C67.258 20.3489 67.7791 20.6182 67.7791 21.136C67.7605 21.6746 67.5185 21.9646 67.0719 21.9853C62.3819 22.0681 56.8916 22.1096 52.7041 21.8817C52.2016 21.9646 51.9411 21.716 51.8666 21.0946C51.8852 20.4318 52.1644 20.2868 52.7227 20.2868C56.7613 20.5146 61.7305 20.4318 66.7927 20.3282V20.3489ZM65.2666 17.4283C64.8013 17.304 64.671 16.8898 64.8385 16.2476C65.2666 13.9484 65.3969 10.7379 65.248 8.72865C65.1549 8.06582 64.8385 7.75512 64.0197 7.75512C60.8558 7.8794 58.4177 7.92083 55.7936 7.83797C55.0677 7.85869 54.6955 7.83797 54.3233 7.81726C53.858 7.81726 53.6161 7.54799 53.5975 7.00944C53.5788 6.16018 54.0255 6.16018 55.0677 6.13947C58.2316 6.22232 60.9302 6.1809 63.7963 6.09804C65.6946 6.01519 66.4391 6.67802 66.6996 7.83797C67.0346 10.7586 66.9044 14.632 66.3088 16.6412C66.1971 17.2212 65.8435 17.4904 65.2666 17.449V17.4283Z" fill="#F04C28"/>
<path d="M75.1677 6.82297C76.0982 6.80225 76.8241 6.80225 77.2893 6.80225C78.406 6.80225 79.0946 6.98868 79.4668 8.52147C79.5599 9.08074 79.5785 9.64 79.5599 10.1993C79.5599 10.9449 79.5227 11.6492 79.411 12.3327C79.3365 12.9334 79.0388 13.617 77.7174 13.8034C76.3029 13.8034 74.6838 13.762 72.8785 13.6791C72.2085 13.6998 72.0038 13.8034 72.0038 14.5698C71.9666 15.5226 71.9666 16.6826 72.0224 18.0704C72.041 18.4432 72.2457 18.6296 72.5621 18.6089C73.3252 18.5882 73.9207 18.4846 74.3674 18.3604C74.8141 18.2361 75.5399 18.1325 76.5635 18.0497C78.4246 17.8218 79.7088 17.7183 80.9557 17.8218C81.4768 17.8425 81.7374 18.1532 81.7374 18.7125C81.6443 19.2925 81.3838 19.5617 80.9743 19.4996C79.5785 19.3753 78.1454 19.541 76.5635 19.7275C75.7074 19.831 75.056 19.9553 74.5535 20.0589C74.051 20.1624 73.381 20.2867 72.5063 20.3281C70.6452 20.411 70.3846 19.6446 70.366 18.5468C70.3474 17.2211 70.3474 15.7298 70.3846 14.1141C70.4032 12.7884 70.7382 12.2913 72.0224 12.022C74.5721 12.1256 75.4096 12.167 77.0474 12.1049C77.8104 12.0842 77.9593 12.0013 77.9779 11.0692C77.9965 10.2407 77.9779 9.61929 77.9035 9.14288C77.8104 8.83217 77.6988 8.54219 77.1591 8.54219C75.6888 8.52147 74.8327 8.52147 74.5349 8.50076C74.2557 8.50076 73.0088 8.60433 70.7755 8.77003C70.3102 8.77003 70.0682 8.50076 70.0682 7.96221C70.0682 7.36152 70.2171 7.15438 70.9057 7.0301C72.7668 6.90582 74.1813 6.84368 75.1304 6.80225L75.1677 6.82297ZM83.7101 5.953C84.2499 6.03586 84.5104 6.36727 84.4732 6.98868C84.3057 9.28787 84.3801 12.0842 84.4546 14.9219C84.4732 17.3247 84.4918 19.541 84.6779 20.8253C84.7524 21.5295 84.5476 22.0474 83.8776 22.0681C83.5054 21.9852 83.2449 21.6952 83.1146 21.1774C83.0029 20.1624 82.9657 19.2096 82.9657 18.3397C82.9471 17.4697 82.9285 16.2476 82.8913 14.6734C82.8913 13.1613 82.8913 12.0013 82.8726 11.1935C82.854 10.3857 82.8726 9.08074 82.9471 7.25795C82.9285 6.57441 82.9657 5.97372 83.7288 5.953H83.7101Z" fill="#F04C28"/>
<path d="M101.726 6.76086C102.265 6.84371 102.507 7.17513 102.451 7.79653C102.284 10.0957 102.154 12.8299 102.154 15.7298C102.172 16.724 102.172 17.6147 102.172 18.4225C102.172 19.2304 102.21 19.9968 102.303 20.701C102.34 21.1153 102.396 21.571 102.451 22.0888C102.563 22.5445 102.303 22.9588 101.614 22.9795C101.242 22.9795 100.981 22.6688 100.832 22.0474C100.795 21.7367 100.739 21.3846 100.702 21.0532L99.3806 21.1567C94.5976 21.1774 91.0429 21.1774 88.6793 21.1981C88.0465 21.1981 87.0601 21.3017 87.0601 20.3903C87.0787 19.7896 87.4323 19.4996 88.1023 19.5204L100.59 19.4375V18.8782C100.572 17.8011 100.59 16.4962 100.609 14.9427C100.683 11.8564 100.683 11.6492 100.851 7.98295C100.851 7.29941 100.944 6.71943 101.726 6.71943V6.76086ZM91.0243 6.90585C91.3965 6.74015 91.7687 6.61586 92.1223 6.53301C92.5318 6.45016 92.9598 6.42944 93.4065 6.42944C94.0765 6.42944 94.914 6.45016 96.3098 7.15441C97.5009 7.83796 98.6362 9.68146 98.5804 12.1049C98.4129 14.922 97.594 16.2891 96.012 17.0555C95.5468 17.3247 94.2068 17.6354 93.0901 17.6147C89.9262 17.6354 88.2512 16.7655 87.7301 14.0727C87.6184 13.3685 87.5998 12.7056 87.6184 12.1049C87.7859 10.0336 88.1582 9.32933 88.7537 8.43865C89.1818 7.77582 89.8518 7.25798 90.5404 6.92657C90.7451 6.84371 90.894 6.84371 91.0429 6.88514L91.0243 6.90585ZM89.5354 10.0957C89.2934 10.8 89.1632 11.5042 89.1445 12.2085C89.1259 12.9335 89.1446 13.5342 89.2562 14.0106C89.8518 15.8748 91.3779 16.0198 93.0529 16.0198C95.9562 16.0198 96.9426 14.6941 96.9984 11.9807C97.017 9.82645 95.6212 8.41794 94.6348 8.19009C94.244 8.08652 93.9648 8.04509 93.7601 8.02438C93.5554 8.00367 93.4623 8.00367 93.3879 8.00367C92.9598 8.02438 92.5318 8.08652 92.1409 8.16937C91.8432 8.29366 91.5454 8.41794 91.3034 8.58364C91.0987 8.70792 90.9312 8.72864 90.7823 8.60436C90.1495 8.99791 89.7215 9.47432 89.5168 10.075L89.5354 10.0957Z" fill="#F04C28"/>
<path d="M116.689 6.51238C117.191 6.49167 117.694 6.49167 118.159 6.49167C119.183 6.61595 120.169 6.86451 121.118 7.21664C122.44 7.79662 123.705 9.20513 123.612 11.3386C123.612 13.3478 122.347 15.3363 120.095 15.6056C119.592 15.6884 119.127 15.7299 118.718 15.7506C118.699 16.5377 118.718 17.3455 118.755 18.2569C118.773 18.9197 118.829 19.4376 118.866 19.8933H120.262C121.584 19.8726 123.091 19.8519 124.748 19.7897C125.176 19.7897 125.604 20.1626 125.604 20.6597C125.585 21.1982 125.324 21.4675 124.859 21.4675C122.738 21.4882 121.546 21.5089 121.211 21.5089C120.876 21.5296 119.816 21.5296 117.955 21.5089C116 21.6332 113.786 21.6953 111.329 21.7368C110.92 21.8196 110.678 21.5918 110.566 21.0532C110.585 20.3904 110.901 20.0797 111.329 20.0797C112.93 19.9968 114.902 19.9554 117.266 19.914C117.247 19.4997 117.191 18.9612 117.173 18.3398C117.136 17.387 117.136 16.5377 117.154 15.8334C116.54 15.8127 116.019 15.792 115.61 15.7506C115.144 15.7299 114.344 15.502 113.19 15.1292C111.329 14.4249 110.882 13.1614 110.901 11.4836C110.901 8.64587 113.432 7.00951 114.884 6.71952C114.958 6.6988 114.995 6.6988 115.051 6.71952C115.721 6.57452 116.242 6.49167 116.67 6.49167L116.689 6.51238ZM114.642 8.62516C114.158 8.79086 113.711 9.08085 113.283 9.49512C112.725 10.0337 112.427 10.6758 112.427 11.4629C112.539 13.3064 113.935 14.2799 117.173 14.1764C118.327 14.1764 119.332 14.0728 120.188 13.8864C121.081 13.7207 122.086 12.6229 122.105 11.38C122.198 9.24656 120.914 8.2316 117.694 8.02446C117.098 8.04518 116.708 8.06589 116.466 8.12803C116.224 8.21089 115.796 8.29374 115.144 8.45945H115.126C115.126 8.45945 114.995 8.50087 114.921 8.5423C114.809 8.58373 114.716 8.62516 114.623 8.62516H114.642Z" fill="#F04C28"/>
<path d="M141.051 15.1083C141.479 15.1083 141.907 15.2947 141.907 15.8125C141.888 16.3511 141.628 16.6411 141.163 16.6825C137.347 16.7653 134.481 16.7239 128.377 17.0968C127.986 17.0968 127.763 16.8482 127.707 16.3925C127.725 15.7297 128.079 15.5225 128.507 15.5225C132.936 15.2533 137.124 15.1083 141.051 15.1083ZM134.686 8.87351C135.97 8.79066 137.478 8.74923 139.208 8.76995C139.134 7.6307 139.059 6.6986 138.948 5.99434C138.873 5.55936 139.041 5.24866 139.413 5.06223C139.916 5.04152 140.251 5.18652 140.344 5.53864C140.548 6.22219 140.641 7.50642 140.697 9.39135C140.734 10.1992 140.734 11.1934 140.716 12.3534C140.623 13.4512 139.934 13.6169 139.301 13.6376C137.291 13.6169 135.635 13.6169 134.351 13.679C133.067 13.7412 131.596 13.824 129.996 13.8447C129.233 13.8447 128.395 13.6169 128.433 12.1462C128.414 11.6077 128.414 10.8206 128.414 9.74348C128.414 8.66638 128.395 7.87927 128.377 7.25786C128.302 6.65717 128.284 5.95291 129.047 5.95291C129.68 6.03577 129.959 6.74003 129.847 7.21644C129.866 7.73427 129.884 8.33496 129.884 9.03922C131.783 8.99779 133.402 8.91494 134.704 8.81137L134.686 8.87351ZM130.461 18.2981C130.871 18.6088 130.945 19.0024 130.685 19.4374C130.48 19.7274 130.163 20.3281 130.052 20.7216C129.977 21.1773 130.201 21.3016 130.703 21.2809C131.466 21.3016 132.08 21.3016 132.564 21.2395C133.048 21.1773 133.941 21.1152 135.263 21.053C137.794 20.9702 138.464 21.053 139.692 21.1359C140.418 21.1152 140.958 21.1359 141.33 21.1566C141.795 21.1566 142.037 21.4259 142.037 21.9644C142.037 22.9587 140.883 22.7515 139.748 22.7515C139.264 22.7515 138.706 22.7308 138.073 22.6687C137.44 22.6065 136.51 22.648 135.263 22.7101C134.09 22.793 133.309 22.8137 132.936 22.8344C132.564 22.8551 131.82 22.8758 130.74 22.9172C129.14 22.9172 128.581 22.5858 128.414 21.1359C128.433 20.0588 128.898 19.251 129.326 18.5881C129.735 18.0703 130.126 18.1117 130.498 18.3189L130.461 18.2981ZM134.723 10.4063C133.699 10.5099 132.08 10.572 129.866 10.6342V11.8148C129.903 12.1877 130.07 12.3741 130.331 12.3741C133.755 12.2084 135.709 12.1255 139.041 12.1255C139.246 12.1462 139.32 12.0012 139.32 11.6491C139.32 11.4213 139.32 11.0691 139.301 10.5513C139.301 10.4685 139.301 10.3856 139.283 10.282C137.254 10.3027 135.747 10.3235 134.742 10.4063H134.723Z" fill="#F04C28"/>
</g>
<defs>
<clipPath id="clip0_1426_1804">
<rect width="28" height="28" fill="white"/>
</clipPath>
<clipPath id="clip1_1426_1804">
<rect width="108" height="18" fill="white" transform="translate(34 5)"/>
</clipPath>
</defs>
</svg>
