<svg width="128" height="99" viewBox="0 0 128 99" fill="none" xmlns="http://www.w3.org/2000/svg">
<path d="M11.9505 91.7363V92.6387H0.862617V91.7363H11.9505ZM10.6517 89.6992V90.5742H2.27082V86.4453H10.5696V87.3477H3.32355V89.6992H10.6517ZM6.39973 93.7051C9.01105 93.7051 10.5696 94.498 10.5833 95.8926C10.5696 97.3008 9.01105 98.0801 6.39973 98.0801C3.77473 98.0801 2.20246 97.3008 2.20246 95.8926C2.20246 94.498 3.77473 93.7051 6.39973 93.7051ZM6.39973 94.5391C4.44465 94.5527 3.28254 95.0449 3.29621 95.8926C3.28254 96.7539 4.44465 97.2324 6.39973 97.2324C8.32746 97.2324 9.50324 96.7539 9.50324 95.8926C9.50324 95.0449 8.32746 94.5527 6.39973 94.5391ZM23.7975 92.6523V93.541H12.6686V92.6523H17.6998V91.3672H14.1178V88.4004H21.2818V87.1426H14.0768V86.2676H22.3619V89.207H15.1842V90.5059H22.6217V91.3672H18.7525V92.6523H23.7975ZM22.4303 94.4707V97.998H21.3502V95.3457H13.9127V94.4707H22.4303ZM31.5702 89.9453V90.8203H29.1093V92.5156C30.244 92.4678 31.3788 92.3857 32.4315 92.2695L32.5136 93.0625C29.9022 93.418 27.0038 93.5 24.7206 93.5L24.5565 92.625C25.6229 92.6182 26.8192 92.6045 28.0429 92.5566V90.8203H25.6639V86.7461H31.4745V87.6348H26.744V89.9453H31.5702ZM34.5233 85.9668V95.0586H33.4432V85.9668H34.5233ZM34.9198 96.9453V97.8477H26.6346V94.4297H27.7011V96.9453H34.9198ZM49.5766 85.9531V98.1348H48.4965V85.9531H49.5766ZM43.1098 86.8965C44.9145 86.9102 46.2133 88.5508 46.2133 91.1348C46.2133 93.7188 44.9145 95.3594 43.1098 95.3594C41.2914 95.3594 40.0063 93.7188 40.0063 91.1348C40.0063 88.5508 41.2914 86.9102 43.1098 86.8965ZM43.1098 87.8535C41.893 87.8672 41.0454 89.1523 41.0454 91.1348C41.0454 93.1172 41.893 94.4023 43.1098 94.4023C44.3266 94.4023 45.1743 93.1172 45.1743 91.1348C45.1743 89.1523 44.3266 87.8672 43.1098 87.8535ZM57.7048 87.1562V95.0586H52.0857V87.1562H57.7048ZM53.1384 88.0176V94.1836H56.6521V88.0176H53.1384ZM61.3962 85.9531V98.1348H60.3161V85.9531H61.3962ZM67.542 89.6855C67.542 91.75 69.0459 93.8418 70.8369 94.6211L70.2354 95.4688C68.8135 94.8193 67.583 93.418 67.0225 91.7363C66.4482 93.5205 65.2246 95.0723 63.8369 95.7695L63.1943 94.9219C64.9307 94.0879 66.4482 91.791 66.4619 89.6855V88.0996H63.5908V87.2109H70.4404V88.0996H67.542V89.6855ZM73.2158 85.9531V98.1074H72.1357V85.9531H73.2158ZM84.4202 85.9531V90.9023H86.3889V91.8047H84.4202V98.1074H83.3538V85.9531H84.4202ZM81.2757 87.2656C81.2757 90.7109 79.6624 93.8418 75.6975 95.7969L75.096 94.9492C78.2405 93.3838 79.9495 91.0459 80.1956 88.168H75.6565V87.2656H81.2757ZM92.4872 93.0898V94.6074H94.702V93.0898H95.7V97.9434H91.4754V93.0898H92.4872ZM92.4872 97.0957H94.702V95.4277H92.4872V97.0957ZM99.1727 94.0469C99.159 95.332 99.9247 96.6719 101.415 97.2188L100.854 98.0391C99.7332 97.5879 98.995 96.7334 98.6258 95.7148C98.2362 96.7129 97.4979 97.5742 96.4247 98.0391L95.8641 97.2188C97.327 96.6172 98.1063 95.2773 98.1063 94.0469V93.0078H99.1727V94.0469ZM93.4168 86.5C95.0438 86.5 96.2879 87.4229 96.5204 88.8242H99.0633V85.9531H100.143V92.3926H99.0633V89.7129H96.534C96.3153 91.1484 95.0643 92.0918 93.4168 92.0918C91.5711 92.0918 90.2586 90.957 90.2586 89.2891C90.2586 87.6348 91.5711 86.5 93.4168 86.5ZM93.4168 87.4023C92.1727 87.4023 91.284 88.1816 91.284 89.2891C91.284 90.4102 92.1727 91.2031 93.4168 91.2031C94.6473 91.2031 95.5223 90.4102 95.5223 89.2891C95.5223 88.1816 94.6473 87.4023 93.4168 87.4023ZM105.154 86.8965C106.809 86.9102 107.998 88.3252 108.176 90.6016H110.897V85.9531H111.963V98.1348H110.897V91.4902H108.19C108.06 93.8691 106.85 95.3594 105.154 95.3594C103.363 95.3594 102.106 93.7188 102.106 91.1348C102.106 88.5508 103.363 86.9102 105.154 86.8965ZM105.154 87.8535C103.951 87.8672 103.131 89.1523 103.131 91.1348C103.131 93.1172 103.951 94.4023 105.154 94.4023C106.344 94.4023 107.178 93.1172 107.178 91.1348C107.178 89.1523 106.344 87.8672 105.154 87.8535ZM124.835 95.6465V96.5488H113.706V95.6465H116.468V92.3652C115.429 91.8252 114.8 90.9502 114.8 89.8496C114.8 87.9629 116.646 86.7324 119.244 86.7188C121.841 86.7324 123.687 87.9629 123.687 89.8496C123.687 90.9297 123.079 91.7979 122.074 92.3379V95.6465H124.835ZM119.244 87.6074C117.247 87.5938 115.839 88.4961 115.839 89.8496C115.839 91.2031 117.247 92.1191 119.244 92.1191C121.226 92.1191 122.648 91.2031 122.648 89.8496C122.648 88.4961 121.226 87.5938 119.244 87.6074ZM117.521 95.6465H120.994V92.748C120.467 92.8916 119.879 92.9668 119.244 92.9668C118.621 92.9668 118.04 92.8984 117.521 92.7617V95.6465ZM127.495 87.1016L127.399 94.2109H126.251L126.155 87.1016H127.495ZM126.825 97.082C126.346 97.082 125.936 96.6855 125.95 96.1934C125.936 95.7148 126.346 95.3184 126.825 95.3184C127.303 95.3184 127.7 95.7148 127.7 96.1934C127.7 96.6855 127.303 97.082 126.825 97.082Z" fill="#9E9E9E"/>
<path d="M96.3078 49.1567C95.231 45.9907 92.9495 43.1195 90.5865 40.4433C91.2656 39.4313 91.7098 38.2778 91.8866 37.0569C92.2029 34.8843 91.6517 32.7211 90.3353 30.9617C89.0189 29.2023 87.0956 28.0627 84.921 27.7493C83.0255 27.4754 81.1626 27.8607 79.595 28.7753C79.595 28.6128 79.5625 28.4503 79.4973 28.3018C79.5601 28.2762 79.6229 28.2507 79.6834 28.2228C80.9323 27.6565 81.9091 26.5725 82.4324 25.1729C83.0115 23.6248 82.958 21.8375 82.2929 20.3938C81.644 18.9849 80.4207 17.9172 78.9647 17.4321C78.8043 13.8553 75.7575 10.759 71.541 10.123C67.7244 9.54508 63.7893 11.0538 62.0008 13.5907C60.5844 13.036 58.9959 13.0685 57.6121 13.7253C55.6305 14.6654 54.4095 16.26 54.0816 18.342C53.8444 19.8484 54.1072 21.5753 54.8003 23.084C55.1189 23.7756 55.5352 24.3582 56.0422 24.8317L56.0096 25.3447C54.7677 24.0356 53.0978 23.1466 51.2163 22.8751C49.0394 22.5594 46.8718 23.1095 45.1089 24.4232C43.346 25.737 42.204 27.6565 41.89 29.8267C41.711 31.0499 41.811 32.2824 42.1761 33.4476C39.362 35.2348 37.6642 36.6414 35.7966 39.2596C33.922 41.8894 32.4405 45.6077 31.8358 49.2077C31.0218 54.0495 31.694 58.7892 33.7825 62.9137C34.1011 63.5428 34.8709 63.7958 35.5012 63.4778C36.1315 63.1598 36.385 62.3915 36.0664 61.7625C31.7405 53.2163 35.3617 44.2731 37.8805 40.7404C39.6945 38.1965 41.2946 36.9826 44.4228 35.0561C44.9786 34.7149 45.1856 34.0116 44.9065 33.4221C44.4274 32.4124 44.26 31.2959 44.4204 30.1911C44.6367 28.694 45.4252 27.371 46.6392 26.4658C47.8533 25.5606 49.3487 25.1822 50.8488 25.3981C53.1629 25.7323 55.0096 27.4151 55.5538 29.6851C55.7073 30.3234 56.3236 30.7435 56.9748 30.6507C60.3402 30.1818 63.8148 30.1865 67.2825 30.6646C70.7572 31.1915 74.09 32.1687 77.1879 33.5729C77.7879 33.8445 78.4973 33.617 78.8252 33.0484C79.9927 31.0244 82.244 29.9358 84.5558 30.27C86.0559 30.4859 87.3816 31.2727 88.2887 32.4843C89.1957 33.6959 89.5748 35.1884 89.3585 36.6855C89.198 37.7903 88.7212 38.8139 87.977 39.6426C87.5421 40.1277 87.5421 40.8611 87.977 41.3462C90.4028 44.0503 92.8587 46.9447 93.889 49.9714C97.7405 61.282 90.5888 66.3257 88.3049 67.6023C87.6886 67.9482 87.4677 68.7257 87.8142 69.3408C88.0491 69.7586 88.484 69.993 88.9306 69.993C89.1422 69.993 89.3562 69.9397 89.5539 69.8306C98.0987 65.0538 98.6475 56.0155 96.3102 49.1497L96.3078 49.1567ZM56.605 18.7389C56.8004 17.4948 57.4888 16.6081 58.7052 16.0325C59.6773 15.5706 60.8495 15.6936 61.7635 16.3528C62.0868 16.5872 62.5031 16.6569 62.8869 16.5408C63.2706 16.4248 63.5753 16.137 63.7148 15.7609C64.5033 13.6232 67.9803 12.1679 71.1549 12.6484C74.4365 13.1451 76.7274 15.617 76.3739 18.277C76.3274 18.6182 76.4227 18.964 76.6367 19.2333C76.8506 19.5025 77.1623 19.6766 77.5065 19.7137C78.595 19.8298 79.5159 20.4843 79.9671 21.4638C80.3532 22.3041 80.3788 23.3578 80.0323 24.284C79.7485 25.043 79.2485 25.6163 78.6229 25.8994C78.2298 26.0782 77.6786 26.2174 77.2693 26.243C77.0716 26.106 76.8576 25.9667 76.6274 25.8275C77.2437 25.0685 77.5646 24.0426 77.6367 23.7872C77.76 23.3555 77.5112 22.9076 77.0786 22.7845C76.646 22.6615 76.1971 22.9099 76.0715 23.3393C75.9087 23.9033 75.5064 24.7667 75.1505 25.0174C74.904 24.8967 74.6435 24.7783 74.3737 24.66C74.8203 24.0774 75.0435 23.4344 75.0807 23.3277C75.2226 22.9006 74.99 22.4433 74.5644 22.3018C74.1365 22.1602 73.6783 22.3923 73.5365 22.8194C73.4225 23.1652 73.0597 23.8731 72.7015 24.0194C72.7015 24.0194 72.6992 24.0194 72.6969 24.0194C70.3269 23.2279 67.2453 22.6453 63.3264 22.6754C63.0915 22.3876 62.9031 21.884 62.8357 21.5544C62.7473 21.1157 62.3194 20.8325 61.8798 20.9184C61.4379 21.0066 61.1519 21.4337 61.2402 21.8724C61.2565 21.9513 61.3333 22.3087 61.5077 22.7335C61.2565 22.7474 61.003 22.7613 60.7449 22.7799C60.5355 22.3737 60.3658 21.7865 60.3006 21.371C60.2309 20.9277 59.8146 20.6259 59.3703 20.6932C58.9261 20.7629 58.6215 21.1783 58.6912 21.6217C58.7191 21.8004 58.8168 22.3435 59.0378 22.9354C58.6656 22.9772 58.2889 23.0213 57.9028 23.0724C57.5818 22.8101 57.3307 22.4665 57.1237 22.0163C56.6422 20.9694 56.4492 19.7439 56.6074 18.7366L56.605 18.7389ZM58.1679 27.9489L58.3354 25.3586C70.2967 23.7942 75.7366 27.8166 77.1414 29.1072L76.7483 30.6182C73.8667 29.4553 70.8177 28.6221 67.6477 28.1416C64.4591 27.7029 61.2798 27.6402 58.1679 27.9466V27.9489Z" fill="#E0E0E0"/>
<path d="M67.0105 47.0236C67.164 47.0886 67.3268 47.1281 67.4896 47.1443C68.285 47.2186 69.1409 46.7288 69.2432 45.7911C69.3269 45.0298 68.8502 44.4008 68.1176 44.3033C67.5082 44.2221 66.7058 44.5401 66.3732 45.1273C66.1942 45.443 66.1476 45.8399 66.25 46.1857C66.3639 46.578 66.6616 46.8751 67.0105 47.0236Z" fill="#E0E0E0"/>
<path d="M59.3797 44.5447C59.4658 43.7114 59.0076 43.1404 58.2099 43.0801C57.3633 43.0174 56.5726 43.6696 56.5005 44.4936C56.4284 45.3107 57.0633 46.1602 57.9238 46.1323C58.7355 46.1068 59.303 45.2921 59.3797 44.5447Z" fill="#E0E0E0"/>
<path d="M67.1245 55.1091C66.7779 54.7679 66.3756 54.1737 66.1918 53.4356C65.2964 53.1246 60.7705 51.8039 56.4726 55.1068C56.2725 55.26 55.9841 55.2229 55.8306 55.0232C55.6772 54.8236 55.7144 54.5358 55.9144 54.3826C58.4285 52.4515 60.9845 51.9617 62.98 51.9826C64.3545 51.9966 65.4569 52.2519 66.0988 52.4422C66.136 51.8271 66.3523 51.1586 66.8617 50.4832C66.9384 50.3811 67.05 50.3207 67.1663 50.3045C67.2803 50.2882 67.4012 50.3184 67.5036 50.3927C67.7059 50.5436 67.7454 50.8314 67.5943 51.0333C66.2151 52.86 67.7059 54.3942 67.771 54.4592C67.9501 54.6379 67.9501 54.9258 67.7734 55.1045C67.5943 55.2832 67.3059 55.2855 67.1245 55.1091Z" fill="#E0E0E0"/>
<path d="M64.0684 48.7087C64.1312 48.096 63.3684 47.7316 62.3893 47.6294C61.4101 47.5273 60.5868 47.7269 60.5217 48.3374C60.4566 48.9478 61.1729 49.7811 62.152 49.8832C63.1312 49.9876 64.0057 49.3215 64.0684 48.7087Z" fill="#E0E0E0"/>
<path d="M74.9687 58.1159C77.9292 57.6364 79.9396 54.8524 79.4591 51.8979C78.9785 48.9433 76.189 46.9369 73.2285 47.4165C70.268 47.8961 68.2576 50.6801 68.7382 53.6346C69.2187 56.5892 72.0082 58.5955 74.9687 58.1159Z" fill="#E0E0E0"/>
</svg>
